<svg width="500" height="500" viewBox="0 0 500 500" fill="none" xmlns="http://www.w3.org/2000/svg">
<rect width="500" height="500" rx="20" fill="white" fill-opacity="0.15"/>
<path d="M445.59 143.07C445.59 143.07 365.19 27.3099 264.81 14.9999C176.2 4.18989 94.0005 46.5599 82.5005 138.13C78.4205 170.75 71.1605 206.84 58.2605 236.61C43.7905 270 19.1005 297.78 38.0005 362C56.9005 426.22 136.77 484.12 194.82 484C252.87 483.88 307.41 431 352.4 383C397.39 335 540.66 290 445.59 143.07Z" fill="#5A37BD"/>
<path opacity="0.7" d="M445.59 143.07C445.59 143.07 365.19 27.3099 264.81 14.9999C176.2 4.18989 94.0005 46.5599 82.5005 138.13C78.4205 170.75 71.1605 206.84 58.2605 236.61C43.7905 270 19.1005 297.78 38.0005 362C56.9005 426.22 136.77 484.12 194.82 484C252.87 483.88 307.41 431 352.4 383C397.39 335 540.66 290 445.59 143.07Z" fill="white"/>
<g opacity="0.3">
<path d="M251.89 54.6401H80.0195V271.4H251.89V54.6401Z" stroke="black" stroke-miterlimit="10"/>
<path d="M80 225.67C94.9251 207.854 112.145 192.093 131.21 178.8C172.21 150.02 218.87 135.88 251.87 114.48" stroke="black" stroke-miterlimit="10"/>
<path d="M80 171.26C105.52 156.84 136.29 136.95 160.68 113.57C187.82 87.5701 195.06 67.5701 195.87 54.6401" stroke="black" stroke-miterlimit="10"/>
<path d="M125 271.4C142 233.49 174.29 167.96 182.46 197.05C188.71 219.35 179.46 249.28 170.08 271.4" stroke="black" stroke-miterlimit="10"/>
<path d="M123.33 54.6401C109.65 69.4401 95.8696 89.3401 109.48 98.8301C127.8 111.6 151.82 83.0801 164.19 54.6401" stroke="black" stroke-miterlimit="10"/>
<path d="M215.061 113.56C227.266 113.56 237.161 103.666 237.161 91.4604C237.161 79.2549 227.266 69.3604 215.061 69.3604C202.855 69.3604 192.961 79.2549 192.961 91.4604C192.961 103.666 202.855 113.56 215.061 113.56Z" stroke="black" stroke-miterlimit="10"/>
<path d="M104.22 139.51C110.61 139.51 115.79 134.33 115.79 127.94C115.79 121.55 110.61 116.37 104.22 116.37C97.8305 116.37 92.6504 121.55 92.6504 127.94C92.6504 134.33 97.8305 139.51 104.22 139.51Z" stroke="black" stroke-miterlimit="10"/>
<path d="M120.196 246.265C129.88 244.022 135.913 234.353 133.67 224.668C131.427 214.983 121.758 208.95 112.073 211.194C102.388 213.437 96.3554 223.106 98.5985 232.791C100.842 242.475 110.511 248.508 120.196 246.265Z" stroke="black" stroke-miterlimit="10"/>
</g>
<path d="M109.741 429.47C103.741 328.47 142.461 258.62 142.851 257.92L145.001 259.2C144.611 259.89 106.251 329.15 112.191 429.42L109.741 429.47Z" fill="#9E9E9E"/>
<path d="M108.931 421.23C104.461 345.8 116.701 246.1 116.821 245.1L119.281 245.5C119.151 246.5 106.941 345.98 111.401 421.19L108.931 421.23Z" fill="#9E9E9E"/>
<path d="M104.14 418.94C99.8302 379 100.63 351.11 102.07 334.75C103.63 316.94 106.18 308.75 106.29 308.38L108.65 309.21C108.55 309.54 98.4102 342.87 106.6 418.78L104.14 418.94Z" fill="#9E9E9E"/>
<path d="M113.319 399.28L110.859 398.93C117.479 334.09 111.229 302.73 111.159 302.42L113.579 302.01C113.649 302.32 119.999 334 113.319 399.28Z" fill="#9E9E9E"/>
<path d="M116.33 415.22L113.86 414.98C116.28 372.54 107.59 349.88 107.5 349.66L109.79 348.84C110.16 349.77 118.78 372.17 116.33 415.22Z" fill="#9E9E9E"/>
<path d="M117.091 256.35C110.755 245.073 106.287 232.845 103.861 220.14C100.211 199.91 107.551 183.92 117.031 174.04C126.511 164.16 141.741 157.11 150.821 149.12C159.901 141.13 174.001 129.83 174.001 129.83C174.001 129.83 168.571 158.05 168.681 183.92C168.791 209.79 153.881 224.84 142.921 232.84C131.961 240.84 117.091 256.35 117.091 256.35Z" fill="#5A37BD"/>
<path d="M142.62 260.91C142.62 260.91 136.31 233 155.26 228C174.21 223 178.97 232.87 183.67 233.55C188.37 234.23 195.49 235.01 200.67 240.55C205.85 246.09 205.05 249.78 208.72 253.08C212.39 256.38 215.9 258.21 217.43 264.82C218.96 271.43 221.43 278.28 218.63 282.39C218.63 282.39 210.8 261.75 192.72 257.79C174.64 253.83 146.32 259.43 142.62 260.91Z" fill="#5A37BD"/>
<path d="M110.939 290.22C110.939 290.22 108.029 264.82 102.789 251.65C97.5495 238.48 81.0595 226.25 70.0495 221.55C59.0395 216.85 50.9295 214 48.3995 209.79C45.8695 205.58 40.5095 200.85 42.3995 211.67C44.2895 222.49 46.3995 239.89 51.8495 247.42L57.3295 254.94C57.3295 254.94 77.0795 254.94 88.3295 266.23C99.5795 277.52 111.679 296.8 111.679 296.8L110.939 290.22Z" fill="#5A37BD"/>
<path d="M111.68 296.8C111.68 296.8 90.5601 274.7 80.3701 267.17C70.1801 259.64 56.9801 258.71 49.4201 257.77C41.8601 256.83 33.8301 244.6 33.8301 244.6C33.8301 244.6 39.6801 272.82 47.8301 287.87C55.9801 302.92 77.1201 302.45 88.4101 302.45C99.7001 302.45 111.68 296.8 111.68 296.8Z" fill="#5A37BD"/>
<path d="M104.85 313.74C104.85 313.74 105.85 302.45 111.68 296.8C117.51 291.15 127.97 292.57 134.68 294.92C141.39 297.27 144.46 292.57 149.68 293.98C154.9 295.39 162.68 300.57 167.54 305.27C172.4 309.97 179.1 323.61 179.2 325.97C179.3 328.33 168.47 316.56 160.34 313.27C152.21 309.98 137.11 309 126.76 309C116.41 309 104.85 313.74 104.85 313.74Z" fill="#5A37BD"/>
<path d="M109.861 344.31C109.861 344.31 107.081 334 98.481 330.67C89.881 327.34 77.711 328.79 74.001 328.79C70.291 328.79 63.461 324.08 55.751 331.14C51.1845 335.26 47.6817 340.424 45.541 346.19C51.5139 341.147 59.045 338.321 66.861 338.19C79.551 338.19 84.691 337.25 91.491 342.43C98.291 347.61 112.201 355.6 112.201 355.6L109.861 344.31Z" fill="#5A37BD"/>
<path d="M113.64 379.35C113.64 379.35 115.48 355.35 119.44 348.78C123.4 342.21 137.53 330.9 144.44 326.67C151.35 322.44 161.52 318.67 161.52 318.67C159.632 327.895 156.337 336.776 151.75 345C144.29 358.17 125.86 367.58 123.75 372.76C122.525 375.648 121.548 378.636 120.83 381.69C120.83 381.69 120.13 376.05 132.75 374.17C145.37 372.29 156.32 375.58 160.75 380.28C165.18 384.98 171.03 390.16 172.44 390.16C173.85 390.16 183.04 396.27 183.04 396.27C183.04 396.27 176.1 399.09 165.63 396.27C155.16 393.45 146.06 389.27 139.48 389.27C132.9 389.27 119.82 391.62 119.82 391.62C119.82 391.62 140.65 394.91 144.02 396.79C147.39 398.67 159.37 404.32 159.37 404.32C159.37 404.32 144.37 405.26 136.52 409.02C128.67 412.78 125.14 418.43 124.77 420.78C124.4 423.13 124.08 426.9 124.08 426.9L124.36 433.95H93.36C93.36 433.95 93.57 416.08 84.36 408.55C75.15 401.02 60.52 400.55 60.52 400.55L50.77 403.84C50.77 403.84 52.92 398.66 61.68 394.43C70.44 390.2 76.93 387.85 82.11 387.85C84.9715 387.808 87.8269 388.124 90.61 388.79C90.61 388.79 81.29 379.38 71.39 378.91C61.49 378.44 48.37 382.17 47 383.11C45.63 384.05 71.31 368.06 79.8 368.53C85.1019 368.916 90.2061 370.703 94.59 373.71L90 365.24C90 365.24 94 360.54 103.84 369.94L113.64 379.35Z" fill="#5A37BD"/>
<g opacity="0.2">
<path d="M153.342 163C156.342 158.46 158.512 155.57 158.512 155.57" stroke="black" stroke-miterlimit="10"/>
<path d="M119.281 245.5C119.281 245.5 129.791 215.86 135.461 197.43C138.461 187.56 144.891 176.26 150.171 167.9" stroke="black" stroke-miterlimit="10"/>
<path d="M144.68 220.83C144.68 220.83 137.59 226.14 128.68 232.83C119.77 239.52 121.23 237.44 121.23 237.44L113.08 223.26" stroke="black" stroke-miterlimit="10"/>
<path d="M122 204.16C124.13 209.84 127.67 221.16 127.67 221.16L150.35 207" stroke="black" stroke-miterlimit="10"/>
<path d="M150.881 188.36L159.571 183.25" stroke="black" stroke-miterlimit="10"/>
<path d="M130.15 175.8L135.46 197.43L146.55 190.91" stroke="black" stroke-miterlimit="10"/>
<path d="M194.102 245.08C195.343 245.55 196.496 246.226 197.512 247.08C201.762 250.63 199.642 250.98 206.022 255.24C212.402 259.5 220.882 275.37 218.592 282.5" stroke="black" stroke-miterlimit="10"/>
<path d="M181.551 236.43C181.61 237.644 181.964 238.824 182.583 239.87C183.202 240.915 184.066 241.794 185.101 242.43C186.39 243.142 187.795 243.623 189.251 243.85" stroke="black" stroke-miterlimit="10"/>
<path d="M63.0018 234C58.6718 229.88 56.0918 227.2 56.0918 227.2" stroke="black" stroke-miterlimit="10"/>
<path d="M96.5502 269.43C92.5502 263.2 86.3202 254.43 78.7402 248.13C74.2402 244.36 70.1502 240.71 66.7402 237.55" stroke="black" stroke-miterlimit="10"/>
<path d="M101.071 277.2C101.071 277.2 100.241 275.56 98.7109 272.97" stroke="black" stroke-miterlimit="10"/>
<path d="M87.6015 256.64L73.7715 232.88" stroke="black" stroke-miterlimit="10"/>
<path d="M71.6518 242.81L59.5918 239.26" stroke="black" stroke-miterlimit="10"/>
<path d="M75.3109 287.37C72.9533 286.518 70.6634 285.488 68.4609 284.29C59.9509 279.29 49.6609 272.24 46.4609 267.98" stroke="black" stroke-miterlimit="10"/>
<path d="M106.751 297.05C106.751 297.05 91.7512 293.11 79.9512 289.05" stroke="black" stroke-miterlimit="10"/>
<path d="M52.5 283.94L68.45 284.29L61.01 273.3" stroke="black" stroke-miterlimit="10"/>
<path d="M72 292.8L89.02 291.74L79.8 278.97" stroke="black" stroke-miterlimit="10"/>
<path d="M146.15 300.58C147 301.01 148.03 301.49 149.29 302.02C156.03 304.85 156.38 302.37 162.76 306.63C169.14 310.89 170.56 315.13 173.76 318.68" stroke="black" stroke-miterlimit="10"/>
<path d="M142.201 297.76C142.201 297.76 142.361 298.41 144.561 299.71" stroke="black" stroke-miterlimit="10"/>
<path d="M142.211 338.94C144.027 336.93 145.682 334.78 147.161 332.51" stroke="black" stroke-miterlimit="10"/>
<path d="M117 368.32C117 368.32 127 353.07 135.11 346C135.96 345.26 136.77 344.52 137.53 343.8" stroke="black" stroke-miterlimit="10"/>
</g>
<path d="M486.109 433.91H18.9395" stroke="#263238" stroke-linecap="round" stroke-linejoin="round"/>
<path d="M453.41 280.16H338.17C336.871 280.117 335.597 280.52 334.56 281.303C333.523 282.085 332.785 283.2 332.47 284.46L301 433.91H428.1L459.1 286.46C459.8 283.19 457.06 280.16 453.41 280.16Z" fill="#949494" stroke="#263238" stroke-linecap="round" stroke-linejoin="round"/>
<path d="M309.53 177.82C309.53 177.82 294.69 187.82 295.53 195.35C296.37 202.88 304.43 209.11 304.43 209.11C304.43 209.11 315.49 182.41 316.3 182.11C317.11 181.81 309.53 177.82 309.53 177.82Z" fill="#263238" stroke="#263238" stroke-linecap="round" stroke-linejoin="round"/>
<path d="M302.719 241.13C302.719 241.13 305.279 252.85 303.449 258.71L301.619 264.57C301.619 264.57 318.459 269.69 323.959 266.76C329.459 263.83 330.179 262 330.179 262C330.179 262 308.939 238.2 302.719 241.13Z" fill="#263238" stroke="#263238" stroke-linecap="round" stroke-linejoin="round"/>
<path d="M299.9 298.62C299.9 298.62 328.96 296.62 343.49 298.62C358.02 300.62 359.77 301 359.77 301C359.77 301 346.98 345.46 338.84 362.9C330.7 380.34 312.11 395.15 312.11 395.15C312.11 395.15 283.33 345.7 299.9 298.62Z" fill="#263238" stroke="#263238" stroke-linecap="round" stroke-linejoin="round"/>
<path d="M312.76 180.25C312.76 180.25 303.86 199.67 303.05 203.98C302.24 208.29 302.78 216.66 302.78 219.9C302.78 223.14 300.09 234.73 300.09 237.7C300.09 240.67 311.41 264.13 314.38 265.2C317.35 266.27 321.12 264.67 321.12 264.67C321.12 264.67 322.47 274.67 322.2 276.86C321.93 279.05 315.2 281.99 315.2 281.99C315.2 281.99 306.3 299.52 308.2 305.72C310.1 311.92 317.1 317.86 329.77 316.24C342.44 314.62 348.38 310.57 351.89 300.06C355.4 289.55 358.09 279.06 358.09 279.06C358.09 279.06 354.09 279.54 354.09 274.95C354.09 270.36 354.36 248.52 354.36 248.52C354.36 248.52 358.13 210.77 346.53 195.39C334.93 180.01 316.81 173 312.76 180.25Z" fill="#FFA8A7" stroke="#263238" stroke-linecap="round" stroke-linejoin="round"/>
<path d="M307.641 177.28C307.641 177.28 330.561 200.75 338.381 214.23C346.201 227.71 339.191 265.74 342.161 265.74C345.131 265.74 355.161 265.45 378.391 254.39C401.621 243.33 401.051 221.76 395.391 206.12C389.731 190.48 375.881 172.12 363.481 165.96C351.081 159.8 316.811 157.33 307.641 177.28Z" fill="#263238" stroke="#263238" stroke-linecap="round" stroke-linejoin="round"/>
<path d="M344.711 221.39C349.011 230.18 357.421 249.13 355.971 260.18" stroke="#B2B2B2" stroke-linecap="round" stroke-linejoin="round"/>
<path d="M342.301 216.66C342.301 216.66 342.661 217.33 343.301 218.51" stroke="#B2B2B2" stroke-linecap="round" stroke-linejoin="round"/>
<path d="M381.141 241.08C381.779 243.681 381.901 246.382 381.501 249.03" stroke="#B2B2B2" stroke-linecap="round" stroke-linejoin="round"/>
<path d="M317.48 178.18C317.48 178.18 312.48 181.05 349.48 205.51C368.62 218.14 376.53 228.95 379.7 236.65" stroke="#B2B2B2" stroke-linecap="round" stroke-linejoin="round"/>
<path d="M322.471 221C323.853 222.131 325.534 222.836 327.31 223.028C329.086 223.219 330.879 222.89 332.471 222.08" stroke="#263238" stroke-linecap="round" stroke-linejoin="round"/>
<path d="M304.939 220.43C304.939 220.43 307.099 223.13 310.869 220.7" stroke="#263238" stroke-linecap="round" stroke-linejoin="round"/>
<path d="M310.34 210.73C310.34 210.73 313.03 217.2 313.03 220.17C313.023 221.964 312.558 223.726 311.68 225.29" stroke="#263238" stroke-linecap="round" stroke-linejoin="round"/>
<path d="M308.721 238.23C310.007 239.282 311.465 240.104 313.031 240.66" stroke="#263238" stroke-linecap="round" stroke-linejoin="round"/>
<path d="M311.41 245C311.41 245 320.31 249 326.52 244.19" stroke="#263238" stroke-linecap="round" stroke-linejoin="round"/>
<path d="M319.24 210.73C319.24 210.73 330.56 207.22 334.88 213.96" stroke="#263238" stroke-linecap="round" stroke-linejoin="round"/>
<path d="M304.4 209.11C304.4 209.11 307.1 206.95 308.72 208.84" stroke="#263238" stroke-linecap="round" stroke-linejoin="round"/>
<path d="M321.119 264.67L333.799 261.97L321.929 272.49L321.119 264.67Z" fill="#263238" stroke="#263238" stroke-linecap="round" stroke-linejoin="round"/>
<path d="M322.07 278.35C322.07 278.746 321.953 279.132 321.733 279.461C321.513 279.79 321.201 280.046 320.836 280.198C320.47 280.349 320.068 280.389 319.68 280.312C319.292 280.235 318.936 280.044 318.656 279.764C318.376 279.485 318.186 279.128 318.109 278.74C318.032 278.352 318.071 277.95 318.223 277.585C318.374 277.219 318.63 276.907 318.959 276.687C319.288 276.467 319.675 276.35 320.07 276.35C320.601 276.35 321.109 276.561 321.485 276.936C321.86 277.311 322.07 277.82 322.07 278.35Z" fill="white" stroke="#263238" stroke-linecap="round" stroke-linejoin="round"/>
<path d="M321.529 281.72C321.529 282.116 321.412 282.502 321.192 282.831C320.972 283.16 320.66 283.417 320.295 283.568C319.929 283.719 319.527 283.759 319.139 283.682C318.751 283.605 318.395 283.414 318.115 283.134C317.835 282.855 317.645 282.498 317.568 282.11C317.491 281.722 317.53 281.32 317.682 280.955C317.833 280.589 318.089 280.277 318.418 280.057C318.747 279.838 319.134 279.72 319.529 279.72C320.06 279.72 320.568 279.931 320.944 280.306C321.319 280.681 321.529 281.19 321.529 281.72Z" fill="white" stroke="#263238" stroke-linecap="round" stroke-linejoin="round"/>
<path d="M321 285.09C321 285.486 320.883 285.873 320.663 286.201C320.443 286.53 320.131 286.787 319.765 286.938C319.4 287.089 318.998 287.129 318.61 287.052C318.222 286.975 317.865 286.784 317.586 286.505C317.306 286.225 317.116 285.868 317.038 285.481C316.961 285.093 317.001 284.69 317.152 284.325C317.304 283.96 317.56 283.647 317.889 283.427C318.218 283.208 318.604 283.09 319 283.09C319.53 283.09 320.039 283.301 320.414 283.676C320.789 284.051 321 284.56 321 285.09Z" fill="white" stroke="#263238" stroke-linecap="round" stroke-linejoin="round"/>
<path d="M357.91 277C357.91 277.396 357.793 277.782 357.573 278.111C357.353 278.44 357.041 278.696 356.676 278.848C356.31 278.999 355.908 279.039 355.52 278.962C355.132 278.884 354.776 278.694 354.496 278.414C354.216 278.135 354.026 277.778 353.949 277.39C353.871 277.002 353.911 276.6 354.062 276.235C354.214 275.869 354.47 275.557 354.799 275.337C355.128 275.117 355.515 275 355.91 275C356.441 275 356.949 275.211 357.324 275.586C357.699 275.961 357.91 276.47 357.91 277Z" fill="white" stroke="#263238" stroke-linecap="round" stroke-linejoin="round"/>
<path d="M356 279C356 279.396 355.883 279.782 355.663 280.111C355.443 280.44 355.131 280.696 354.765 280.848C354.4 280.999 353.998 281.039 353.61 280.962C353.222 280.884 352.865 280.694 352.586 280.414C352.306 280.135 352.116 279.778 352.038 279.39C351.961 279.002 352.001 278.6 352.152 278.235C352.304 277.869 352.56 277.557 352.889 277.337C353.218 277.117 353.604 277 354 277C354.53 277 355.039 277.211 355.414 277.586C355.789 277.961 356 278.47 356 279Z" fill="white" stroke="#263238" stroke-linecap="round" stroke-linejoin="round"/>
<path d="M351.821 283.24C352.936 283.24 353.841 282.336 353.841 281.22C353.841 280.105 352.936 279.2 351.821 279.2C350.705 279.2 349.801 280.105 349.801 281.22C349.801 282.336 350.705 283.24 351.821 283.24Z" fill="white" stroke="#263238" stroke-linecap="round" stroke-linejoin="round"/>
<path d="M351.439 283.4C351.439 283.796 351.322 284.183 351.102 284.512C350.883 284.84 350.57 285.097 350.205 285.248C349.839 285.4 349.437 285.439 349.049 285.362C348.661 285.285 348.305 285.094 348.025 284.815C347.746 284.535 347.555 284.179 347.478 283.791C347.401 283.403 347.44 283 347.592 282.635C347.743 282.27 347.999 281.957 348.328 281.737C348.657 281.518 349.044 281.4 349.439 281.4C349.97 281.4 350.479 281.611 350.854 281.986C351.229 282.361 351.439 282.87 351.439 283.4Z" fill="white" stroke="#263238" stroke-linecap="round" stroke-linejoin="round"/>
<path d="M348.91 285.47C348.91 285.866 348.793 286.252 348.573 286.581C348.353 286.91 348.041 287.167 347.676 287.318C347.31 287.469 346.908 287.509 346.52 287.432C346.132 287.355 345.776 287.164 345.496 286.884C345.216 286.605 345.026 286.248 344.949 285.86C344.871 285.472 344.911 285.07 345.062 284.705C345.214 284.339 345.47 284.027 345.799 283.807C346.128 283.588 346.515 283.47 346.91 283.47C347.441 283.47 347.949 283.681 348.324 284.056C348.699 284.431 348.91 284.94 348.91 285.47Z" fill="white" stroke="#263238" stroke-linecap="round" stroke-linejoin="round"/>
<path d="M343.911 289.9C345.026 289.9 345.931 288.996 345.931 287.88C345.931 286.765 345.026 285.86 343.911 285.86C342.795 285.86 341.891 286.765 341.891 287.88C341.891 288.996 342.795 289.9 343.911 289.9Z" fill="white" stroke="#263238" stroke-linecap="round" stroke-linejoin="round"/>
<path d="M343.52 289.76C343.52 290.156 343.402 290.543 343.182 290.871C342.963 291.2 342.65 291.457 342.285 291.608C341.919 291.759 341.517 291.799 341.129 291.722C340.741 291.645 340.385 291.454 340.105 291.174C339.826 290.895 339.635 290.538 339.558 290.15C339.481 289.762 339.52 289.36 339.672 288.995C339.823 288.629 340.079 288.317 340.408 288.097C340.737 287.878 341.124 287.76 341.52 287.76C342.05 287.76 342.559 287.971 342.934 288.346C343.309 288.721 343.52 289.23 343.52 289.76Z" fill="white" stroke="#263238" stroke-linecap="round" stroke-linejoin="round"/>
<path d="M340.65 292.47C340.65 292.866 340.533 293.252 340.313 293.581C340.094 293.91 339.781 294.167 339.416 294.318C339.05 294.469 338.648 294.509 338.26 294.432C337.872 294.355 337.516 294.164 337.236 293.884C336.956 293.605 336.766 293.248 336.689 292.86C336.612 292.472 336.651 292.07 336.803 291.705C336.954 291.339 337.21 291.027 337.539 290.807C337.868 290.588 338.255 290.47 338.65 290.47C339.181 290.47 339.69 290.681 340.065 291.056C340.44 291.431 340.65 291.94 340.65 292.47Z" fill="white" stroke="#263238" stroke-linecap="round" stroke-linejoin="round"/>
<path d="M337.711 294.19C337.711 294.586 337.594 294.973 337.374 295.302C337.154 295.63 336.842 295.887 336.476 296.038C336.111 296.19 335.709 296.229 335.321 296.152C334.933 296.075 334.576 295.884 334.297 295.605C334.017 295.325 333.827 294.969 333.749 294.581C333.672 294.193 333.712 293.791 333.863 293.425C334.015 293.06 334.271 292.747 334.6 292.527C334.929 292.308 335.315 292.19 335.711 292.19C336.241 292.19 336.75 292.401 337.125 292.776C337.5 293.151 337.711 293.66 337.711 294.19Z" fill="white" stroke="#263238" stroke-linecap="round" stroke-linejoin="round"/>
<path d="M334.5 296C334.5 296.396 334.383 296.782 334.163 297.111C333.943 297.44 333.631 297.696 333.265 297.848C332.9 297.999 332.498 298.039 332.11 297.962C331.722 297.884 331.365 297.694 331.086 297.414C330.806 297.135 330.616 296.778 330.538 296.39C330.461 296.002 330.501 295.6 330.652 295.235C330.804 294.869 331.06 294.557 331.389 294.337C331.718 294.117 332.104 294 332.5 294C333.03 294 333.539 294.211 333.914 294.586C334.289 294.961 334.5 295.47 334.5 296Z" fill="white" stroke="#263238" stroke-linecap="round" stroke-linejoin="round"/>
<path d="M320.689 289C320.689 289.396 320.572 289.782 320.352 290.111C320.133 290.44 319.82 290.696 319.455 290.848C319.089 290.999 318.687 291.039 318.299 290.962C317.911 290.884 317.555 290.694 317.275 290.414C316.996 290.135 316.805 289.778 316.728 289.39C316.651 289.002 316.69 288.6 316.842 288.235C316.993 287.869 317.249 287.557 317.578 287.337C317.907 287.117 318.294 287 318.689 287C319.22 287 319.729 287.211 320.104 287.586C320.479 287.961 320.689 288.47 320.689 289Z" fill="white" stroke="#263238" stroke-linecap="round" stroke-linejoin="round"/>
<path d="M319.01 294.37C320.126 294.37 321.03 293.466 321.03 292.35C321.03 291.234 320.126 290.33 319.01 290.33C317.895 290.33 316.99 291.234 316.99 292.35C316.99 293.466 317.895 294.37 319.01 294.37Z" fill="white" stroke="#263238" stroke-linecap="round" stroke-linejoin="round"/>
<path d="M321.779 295.55C321.779 295.946 321.662 296.333 321.442 296.661C321.222 296.99 320.91 297.247 320.545 297.398C320.179 297.549 319.777 297.589 319.389 297.512C319.001 297.435 318.645 297.244 318.365 296.965C318.085 296.685 317.895 296.328 317.818 295.94C317.741 295.553 317.78 295.15 317.932 294.785C318.083 294.419 318.339 294.107 318.668 293.887C318.997 293.668 319.384 293.55 319.779 293.55C320.31 293.55 320.818 293.761 321.194 294.136C321.569 294.511 321.779 295.02 321.779 295.55Z" fill="white" stroke="#263238" stroke-linecap="round" stroke-linejoin="round"/>
<path d="M322.34 299.65C323.456 299.65 324.36 298.746 324.36 297.63C324.36 296.515 323.456 295.61 322.34 295.61C321.225 295.61 320.32 296.515 320.32 297.63C320.32 298.746 321.225 299.65 322.34 299.65Z" fill="white" stroke="#263238" stroke-linecap="round" stroke-linejoin="round"/>
<path d="M331.131 297.29C331.131 297.686 331.014 298.072 330.794 298.401C330.574 298.73 330.262 298.986 329.896 299.138C329.531 299.289 329.129 299.329 328.741 299.252C328.353 299.174 327.996 298.984 327.717 298.704C327.437 298.425 327.246 298.068 327.169 297.68C327.092 297.292 327.132 296.89 327.283 296.525C327.434 296.159 327.691 295.847 328.02 295.627C328.349 295.407 328.735 295.29 329.131 295.29C329.661 295.29 330.17 295.501 330.545 295.876C330.92 296.251 331.131 296.76 331.131 297.29Z" fill="white" stroke="#263238" stroke-linecap="round" stroke-linejoin="round"/>
<path d="M328 298.32C328 298.716 327.883 299.103 327.663 299.431C327.443 299.76 327.131 300.017 326.765 300.168C326.4 300.319 325.998 300.359 325.61 300.282C325.222 300.205 324.865 300.014 324.586 299.735C324.306 299.455 324.116 299.098 324.038 298.71C323.961 298.323 324.001 297.92 324.152 297.555C324.304 297.189 324.56 296.877 324.889 296.657C325.218 296.438 325.604 296.32 326 296.32C326.53 296.32 327.039 296.531 327.414 296.906C327.789 297.281 328 297.79 328 298.32Z" fill="white" stroke="#263238" stroke-linecap="round" stroke-linejoin="round"/>
<path d="M357.909 277C357.909 277 348.709 307.46 343.319 321.41C337.929 335.36 323.669 366.1 323.669 366.1C323.669 366.1 310.359 347.72 308.139 325.21C305.919 302.7 315.189 282.01 315.189 282.01C315.189 282.01 290.729 290.42 284.709 292.64C278.689 294.86 271.839 298.05 269.309 304.07C266.779 310.09 238.489 389.96 237.219 393.13C235.949 396.3 233.419 396.62 236.909 402.01C240.399 407.4 257.189 407.71 260.359 404.86C263.529 402.01 281.829 375 281.829 375L288.489 388L291.339 427.3L290.709 433.96H375.999L374.999 410.82C374.999 410.82 406.719 330.96 409.259 317.33C411.799 303.7 407.989 296.41 402.259 292.33C396.529 288.25 357.909 277 357.909 277Z" fill="#5A37BD" stroke="#263238" stroke-linecap="round" stroke-linejoin="round"/>
<path d="M303.839 301.1C303.125 300.903 302.362 300.987 301.707 301.335C301.053 301.682 300.556 302.268 300.319 302.97C299.389 305.55 298.679 307.9 298.679 307.9C298.679 307.9 295.399 312.6 294.679 314.9C293.959 317.2 292.099 336.02 291.629 337.67C291.159 339.32 289.519 347.76 289.519 347.76L286.939 351.76L293.739 363.49C293.739 363.49 297.499 363.26 301.019 357.86C304.539 352.46 304.539 352.93 305.239 346.13C305.939 339.33 306.649 302.24 306.649 302.24C306.649 302.24 305.249 300.63 303.839 301.1Z" fill="#FFA8A7" stroke="#263238" stroke-linecap="round" stroke-linejoin="round"/>
<path d="M317.69 360C317.69 360 316.99 355.07 318.16 353.43C319.33 351.79 321.68 351.55 322.16 346.16C322.64 340.77 320.99 335.59 321.93 329.73C322.87 323.87 325.45 325.03 325.21 322.45C324.97 319.87 321.21 319.4 320.05 321.28C318.89 323.16 317.7 325.5 317.7 325.5C317.7 325.5 316.76 310.5 316.29 305.55C315.82 300.6 312.54 299.22 312.54 299.22C312.54 299.22 311.13 295.22 309.25 296.17C307.37 297.12 307.14 298.28 307.14 298.28C305.83 298.938 304.7 299.906 303.85 301.1C303.266 302.426 303.026 303.877 303.15 305.32C301.761 306.607 300.713 308.219 300.1 310.01C299.4 312.6 296.58 329.26 296.34 335.83C296.1 342.4 296.34 353.9 297.52 356.01C298.7 358.12 301.74 362.58 301.74 362.58L303.62 368.22C303.62 368.22 312.53 360.94 317.69 360Z" fill="#FFA8A7" stroke="#263238" stroke-linecap="round" stroke-linejoin="round"/>
<path d="M303.139 305.32C303.139 305.32 304.549 306.02 304.309 309.32C304.069 312.62 302.439 327.63 302.439 327.63" fill="white"/>
<path d="M303.139 305.32C303.139 305.32 304.549 306.02 304.309 309.32C304.069 312.62 302.439 327.63 302.439 327.63" stroke="#263238" stroke-linecap="round" stroke-linejoin="round"/>
<path d="M307.131 298.28C307.131 298.28 309.001 297.18 308.531 301.28C308.061 305.38 308.071 325.77 308.071 325.77" fill="white"/>
<path d="M307.131 298.28C307.131 298.28 309.001 297.18 308.531 301.28C308.061 305.38 308.071 325.77 308.071 325.77" stroke="#263238" stroke-linecap="round" stroke-linejoin="round"/>
<path d="M312.529 299.22C312.529 299.22 313.469 318.22 312.999 323.63Z" fill="white"/>
<path d="M312.529 299.22C312.529 299.22 313.469 318.22 312.999 323.63" stroke="#263238" stroke-linecap="round" stroke-linejoin="round"/>
<path d="M317.689 325.5C317.689 325.5 318.829 332.4 319.289 334.04Z" fill="white"/>
<path d="M317.689 325.5C317.689 325.5 318.829 332.4 319.289 334.04" stroke="#263238" stroke-linecap="round" stroke-linejoin="round"/>
<path d="M287.55 348.78L297.69 362.49C297.69 362.49 275.87 395.71 272.46 401.13C269.05 406.55 258.01 419.23 251.79 420.83C245.57 422.43 242.16 420.83 238.79 416.02C235.42 411.21 230.36 403.02 232.57 397.55C234.78 392.08 251.43 376.44 256.65 373.63C261.87 370.82 287.55 348.78 287.55 348.78Z" fill="#5A37BD" stroke="#263238" stroke-linecap="round" stroke-linejoin="round"/>
<path d="M395.36 291.54C395.36 291.54 400.36 291.94 402.3 292.24C404.24 292.54 407.81 297.36 409.21 300.37C410.61 303.38 410.62 314.82 410.01 321.24C409.4 327.66 396.19 375.67 393.38 390.52C390.57 405.37 380.92 427.52 379.12 430.11C377.32 432.7 373.9 435.11 370.49 434.92C367.08 434.73 345.92 419.99 338.09 412.37C330.26 404.75 300.35 365.37 300.35 365.37C300.35 365.37 304.17 359.37 307.58 357.37C310.99 355.37 318.22 354.16 318.22 354.16C318.22 354.16 331.46 365.6 341.7 374C348.082 379.224 354.87 383.932 362 388.08C362 388.08 366.42 362.5 367 359.49C367.58 356.48 372.35 330.6 372.35 330.6" fill="#5A37BD"/>
<path d="M395.36 291.54C395.36 291.54 400.36 291.94 402.3 292.24C404.24 292.54 407.81 297.36 409.21 300.37C410.61 303.38 410.62 314.82 410.01 321.24C409.4 327.66 396.19 375.67 393.38 390.52C390.57 405.37 380.92 427.52 379.12 430.11C377.32 432.7 373.9 435.11 370.49 434.92C367.08 434.73 345.92 419.99 338.09 412.37C330.26 404.75 300.35 365.37 300.35 365.37C300.35 365.37 304.17 359.37 307.58 357.37C310.99 355.37 318.22 354.16 318.22 354.16C318.22 354.16 331.46 365.6 341.7 374C348.082 379.224 354.87 383.932 362 388.08C362 388.08 366.42 362.5 367 359.49C367.58 356.48 372.35 330.6 372.35 330.6" stroke="#263238" stroke-linecap="round" stroke-linejoin="round"/>
<path d="M362 388.08C362 388.08 369.23 390.89 371 401.53" stroke="#263238" stroke-linecap="round" stroke-linejoin="round"/>
<path d="M362.369 390.69C362.369 390.69 366.589 393.69 365.589 400.32" stroke="#263238" stroke-linecap="round" stroke-linejoin="round"/>
<path d="M276.87 356.77C275.844 351.955 276.191 346.948 277.87 342.32C280.68 334.69 286.87 313.41 286.87 313.41" stroke="#263238" stroke-linecap="round" stroke-linejoin="round"/>
<g opacity="0.3">
<path d="M437.749 179.67C454.749 190.54 445.929 199.35 435.059 182.36C424.199 199.36 415.389 190.54 432.379 179.67C415.379 168.81 424.199 160 435.059 176.99C445.929 160 454.729 168.81 437.749 179.67Z" stroke="black" stroke-miterlimit="10"/>
<path d="M436.999 177.78C456.689 173.45 456.689 185.9 436.999 181.57C441.329 201.27 428.879 201.27 433.209 181.57C413.509 185.9 413.509 173.45 433.209 177.78C428.839 158.08 441.289 158.08 436.999 177.78Z" stroke="black" stroke-miterlimit="10"/>
</g>
<g opacity="0.3">
<path d="M303.42 128C314.67 135.19 308.83 141 301.64 129.78C294.45 141.03 288.639 135.19 299.859 128C288.609 120.81 294.45 115 301.64 126.22C308.83 115 314.67 120.82 303.42 128Z" stroke="black" stroke-miterlimit="10"/>
<path d="M301.639 129.79C302.622 129.79 303.419 128.993 303.419 128.01C303.419 127.027 302.622 126.23 301.639 126.23C300.656 126.23 299.859 127.027 299.859 128.01C299.859 128.993 300.656 129.79 301.639 129.79Z" stroke="black" stroke-miterlimit="10"/>
</g>
<g opacity="0.3">
<path d="M238.8 324.63C239.783 324.63 240.58 323.833 240.58 322.85C240.58 321.867 239.783 321.07 238.8 321.07C237.816 321.07 237.02 321.867 237.02 322.85C237.02 323.833 237.816 324.63 238.8 324.63Z" stroke="black" stroke-miterlimit="10"/>
<path d="M240.059 321.6C253.059 318.73 253.059 326.98 240.059 324.11C242.929 337.11 234.679 337.11 237.549 324.11C224.499 326.98 224.499 318.73 237.549 321.6C234.679 308.56 242.929 308.56 240.059 321.6Z" stroke="black" stroke-miterlimit="10"/>
</g>
<g opacity="0.3">
<path d="M405.509 257.23C406.492 257.23 407.289 256.433 407.289 255.45C407.289 254.467 406.492 253.67 405.509 253.67C404.525 253.67 403.729 254.467 403.729 255.45C403.729 256.433 404.525 257.23 405.509 257.23Z" stroke="black" stroke-miterlimit="10"/>
<path d="M405.509 257.23C406.492 257.23 407.289 256.433 407.289 255.45C407.289 254.467 406.492 253.67 405.509 253.67C404.525 253.67 403.729 254.467 403.729 255.45C403.729 256.433 404.525 257.23 405.509 257.23Z" stroke="black" stroke-miterlimit="10"/>
</g>
<g opacity="0.3">
<path d="M238.119 182.8C256.189 194.36 246.819 203.72 235.259 185.65C223.699 203.72 214.329 194.36 232.409 182.8C214.329 171.24 223.699 161.87 235.259 179.94C246.819 161.87 256.189 171.24 238.119 182.8Z" stroke="black" stroke-miterlimit="10"/>
<path d="M235.26 185.65C236.834 185.65 238.11 184.374 238.11 182.8C238.11 181.226 236.834 179.95 235.26 179.95C233.686 179.95 232.41 181.226 232.41 182.8C232.41 184.374 233.686 185.65 235.26 185.65Z" stroke="black" stroke-miterlimit="10"/>
</g>
<g opacity="0.3">
<path d="M445.389 118.457C452.44 92.7531 437.319 66.2001 411.616 59.1491C385.912 52.0981 359.359 67.219 352.308 92.9227C345.257 118.626 360.378 145.179 386.082 152.23C411.785 159.281 438.338 144.16 445.389 118.457Z" stroke="black" stroke-linecap="round" stroke-linejoin="round"/>
<path d="M414.696 145.101C436.47 136.348 447.025 111.602 438.272 89.8288C429.519 68.0557 404.773 57.5006 383 66.2533C361.227 75.0061 350.672 99.7522 359.424 121.525C368.177 143.298 392.923 153.854 414.696 145.101Z" stroke="black" stroke-linecap="round" stroke-linejoin="round"/>
<path d="M401.811 105.69C401.811 106.284 401.635 106.864 401.305 107.357C400.975 107.85 400.507 108.235 399.959 108.462C399.41 108.689 398.807 108.749 398.225 108.633C397.643 108.517 397.109 108.231 396.689 107.812C396.27 107.392 395.984 106.858 395.868 106.276C395.752 105.694 395.812 105.091 396.039 104.542C396.266 103.994 396.65 103.526 397.144 103.196C397.637 102.866 398.217 102.69 398.811 102.69C399.606 102.69 400.369 103.006 400.932 103.569C401.494 104.132 401.811 104.895 401.811 105.69Z" stroke="black" stroke-linecap="round" stroke-linejoin="round"/>
<path d="M402 104.81L412.28 101.6" stroke="black" stroke-linecap="round" stroke-linejoin="round"/>
<path d="M398.85 108.65V139.51" stroke="black" stroke-linecap="round" stroke-linejoin="round"/>
</g>
<path d="M244.08 453.66L305.26 438.25C306.21 438.02 306.57 435.11 305.6 435.11L215.35 436.63L244.08 453.66Z" fill="white" stroke="#263238" stroke-linecap="round" stroke-linejoin="round"/>
<path d="M244.08 452.11L305.26 436.7C305.458 436.655 305.634 436.539 305.751 436.372C305.868 436.206 305.92 436.001 305.895 435.799C305.87 435.597 305.77 435.411 305.616 435.278C305.462 435.145 305.263 435.075 305.06 435.08H215.35L244.08 452.11Z" fill="white" stroke="#263238" stroke-linecap="round" stroke-linejoin="round"/>
<path d="M237.911 440.56H268.791L234.391 447.6L237.911 440.56Z" fill="#949494" stroke="#263238" stroke-linecap="round" stroke-linejoin="round"/>
<path d="M244.08 453.66H105.08L89.0802 371.13C88.9447 370.428 88.9659 369.705 89.1423 369.012C89.3188 368.32 89.6461 367.675 90.1009 367.124C90.5558 366.572 91.1268 366.128 91.7733 365.823C92.4197 365.518 93.1255 365.36 93.8402 365.36H223C224.125 365.361 225.215 365.754 226.082 366.471C226.949 367.188 227.539 368.185 227.75 369.29L244.08 453.66Z" fill="white" stroke="#263238" stroke-linecap="round" stroke-linejoin="round"/>
<path d="M241.9 453.66H103L87.0002 371.13C86.8647 370.429 86.8857 369.707 87.0616 369.015C87.2375 368.323 87.564 367.679 88.0177 367.127C88.4714 366.576 89.0412 366.132 89.6864 365.827C90.3316 365.521 91.0363 365.362 91.7502 365.36H220.79C221.916 365.36 223.008 365.753 223.876 366.47C224.745 367.187 225.337 368.184 225.55 369.29L241.9 453.66Z" fill="#C2C2C2" stroke="#263238" stroke-linecap="round" stroke-linejoin="round"/>
<path d="M159.14 420.57C164.74 420.57 169.28 416.03 169.28 410.43C169.28 404.83 164.74 400.29 159.14 400.29C153.54 400.29 149 404.83 149 410.43C149 416.03 153.54 420.57 159.14 420.57Z" fill="#999999"/>
<path d="M439.919 409.9C439.919 409.9 445.289 407.07 447.919 409.1C450.549 411.13 452.409 416.58 452.409 421.51C452.409 426.44 450.409 431.37 446.899 433.7C443.389 436.03 437.029 434.28 437.029 434.28L437.319 429.34C437.319 429.34 442.259 431.34 445.159 427.6C448.059 423.86 446.319 416.6 444.579 414.84C442.839 413.08 438.779 417.16 438.779 417.16L439.919 409.9Z" fill="white" stroke="#263238" stroke-linecap="round" stroke-linejoin="round"/>
<path d="M442.449 401.53H404.779L408.549 448.09H438.689L442.449 401.53Z" fill="white" stroke="#263238" stroke-linecap="round" stroke-linejoin="round"/>
<path d="M413.889 368.91C413.889 376.2 409.889 376.2 409.889 383.49C409.889 390.78 413.889 390.79 413.889 398.08" stroke="#263238" stroke-linecap="round" stroke-linejoin="round"/>
<path d="M421.61 377.56C420.708 379.404 420.269 381.439 420.33 383.49C420.33 390.79 424.33 390.79 424.33 398.08" stroke="#263238" stroke-linecap="round" stroke-linejoin="round"/>
<path d="M424.33 368.91C424.378 370.665 424.065 372.411 423.41 374.04" stroke="#263238" stroke-linecap="round" stroke-linejoin="round"/>
<path d="M431.74 388.74C432.93 391.54 434.74 393.12 434.74 398.08" stroke="#263238" stroke-linecap="round" stroke-linejoin="round"/>
<path d="M434.779 368.91C434.779 376.2 430.779 376.2 430.779 383.49" stroke="#263238" stroke-linecap="round" stroke-linejoin="round"/>
</svg>
