<svg width="500" height="500" viewBox="0 0 500 500" fill="none" xmlns="http://www.w3.org/2000/svg">
<path d="M131.449 42.76C132.976 41.8342 134.621 41.1178 136.339 40.63L137.339 35.79L145.519 35.64L146.699 40.45C148.446 40.8714 150.128 41.5273 151.699 42.4L155.829 39.69L161.719 45.37L159.149 49.6C160.077 51.1264 160.793 52.7713 161.279 54.49L166.119 55.49L166.269 63.67L161.459 64.85C161.037 66.5967 160.381 68.2785 159.509 69.85L162.199 74L156.519 79.89L152.289 77.32C150.762 78.2458 149.117 78.9622 147.399 79.45L146.399 84.29L138.219 84.43L136.999 79.59C135.249 79.1555 133.566 78.4825 131.999 77.59L127.859 80.3L121.999 74.66L124.569 70.44C123.642 68.9101 122.925 67.2619 122.439 65.54L117.599 64.54L117.449 56.36L122.259 55.18C122.696 53.4305 123.369 51.7484 124.259 50.18L121.549 46.05L127.229 40.16L131.459 42.73L131.449 42.76ZM135.809 53.65C134.603 54.8988 133.794 56.4771 133.485 58.1856C133.175 59.894 133.379 61.6558 134.071 63.2483C134.763 64.8407 135.911 66.1923 137.371 67.1322C138.831 68.0721 140.537 68.5581 142.273 68.5288C144.009 68.4994 145.697 67.956 147.124 66.9673C148.551 65.9786 149.653 64.589 150.291 62.974C150.928 61.3591 151.073 59.5914 150.706 57.8944C150.339 56.1974 149.477 54.6473 148.229 53.44C146.554 51.8225 144.304 50.9361 141.976 50.9754C139.647 51.0148 137.429 51.9767 135.809 53.65Z" fill="#EBEBEB"/>
<path d="M39 359C40.5281 358.078 42.1727 357.365 43.89 356.88L44.89 352.03L53.07 351.89L54.24 356.69C55.988 357.132 57.6694 357.805 59.24 358.69L63.37 355.98L69.26 361.66L66.7 365.89C67.6217 367.418 68.3347 369.063 68.82 370.78L73.67 371.78L73.81 379.96L69.01 381.14C68.567 382.888 67.8945 384.569 67.01 386.14L69.72 390.27L64 396.06L59.77 393.5C58.2412 394.42 56.5968 395.133 54.88 395.62L53.88 400.47L45.7 400.61L44.52 395.81C42.7724 395.367 41.0911 394.694 39.52 393.81L35.38 396.52L29.5 390.84L32.06 386.61C31.1663 385.089 30.4739 383.459 30 381.76L25.16 380.76L25 372.57L29.8 371.39C30.2269 369.645 30.8825 367.963 31.75 366.39L29 362.29L34.69 356.41L39 359ZM43.36 369.9C42.1534 371.149 41.3443 372.728 41.0352 374.437C40.7262 376.146 40.9309 377.909 41.6236 379.501C42.3162 381.094 43.4657 382.446 44.9266 383.385C46.3875 384.324 48.0942 384.809 49.8307 384.778C51.5672 384.748 53.2556 384.203 54.6823 383.212C56.109 382.222 57.2099 380.83 57.8457 379.214C58.4814 377.598 58.6236 375.829 58.2541 374.132C57.8846 372.435 57.0202 370.886 55.77 369.68C54.9421 368.869 53.9618 368.231 52.8857 367.801C51.8095 367.372 50.659 367.159 49.5004 367.177C48.3418 367.195 47.1982 367.442 46.1357 367.904C45.0732 368.366 44.1128 369.034 43.31 369.87L43.36 369.9Z" fill="#EBEBEB"/>
<path d="M59.7691 46.0001C61.9859 44.6553 64.3741 43.6159 66.8691 42.9101L68.3291 35.9101L80.1991 35.7001L81.9091 42.7001C84.4256 43.3148 86.8475 44.2668 89.1091 45.5301L95.1091 41.6001L103.649 49.8401L99.9291 55.9801C101.26 58.173 102.293 60.5338 102.999 63.0001L109.999 64.4601L110.209 76.3301L103.209 78.0401C102.588 80.5546 101.636 82.9757 100.379 85.2401L104.309 91.2401L96.0591 99.7801L89.9991 96.0701C87.7819 97.4118 85.3936 98.4479 82.8991 99.1501L81.4391 106.15L69.5691 106.36L67.8591 99.3601C65.344 98.7408 62.9227 97.7891 60.6591 96.5301L54.6591 100.46L46.1191 92.2101L49.8391 86.0801C48.4994 83.8677 47.4603 81.4867 46.7491 79.0001L39.7491 77.5401L39.5391 65.6701L46.5391 63.9601C47.1583 61.445 48.11 59.0237 49.3691 56.7601L45.4391 50.7601L53.6891 42.2201L59.7691 46.0001ZM66.0991 61.7901C64.3507 63.6018 63.1787 65.8912 62.7315 68.3689C62.2843 70.8467 62.5818 73.4014 63.5865 75.71C64.5912 78.0186 66.2579 79.9774 68.3759 81.3388C70.4939 82.7002 72.968 83.4029 75.4853 83.3582C78.0027 83.3134 80.4503 82.5232 82.5185 81.0874C84.5868 79.6516 86.1828 77.6347 87.1048 75.2919C88.0268 72.949 88.2333 70.3853 87.6983 67.9251C87.1633 65.4648 85.9108 63.2185 84.0991 61.4701C81.6697 59.1256 78.4084 57.8422 75.0328 57.9022C71.6571 57.9622 68.4436 59.3607 66.0991 61.7901Z" fill="#EBEBEB"/>
<path d="M465.711 309.24C456.981 313.76 450.291 321.55 445.481 330.12C440.671 338.69 437.561 348.12 434.481 357.42L431.801 405.57C441.951 388.29 450.101 367.99 452.301 348.07L445.541 347.47C450.071 346.78 453.881 343.47 456.301 339.6C458.721 335.73 459.961 331.22 461.181 326.8L452.941 328C459.448 323.618 464.02 316.901 465.711 309.24Z" fill="#E0E0E0"/>
<path d="M430.3 416.85C430.3 416.85 408.3 390.47 408.52 365.29H417.42C417.42 365.29 407.75 358.93 408.52 355.37C409.29 351.81 409.52 338.37 409.52 338.37L417.66 340.37C417.66 340.37 411.55 337.32 410.79 332.48C410.03 327.64 412.57 305.27 412.57 305.27C412.57 305.27 422.49 315.7 425.57 326.38C428.65 337.06 436.63 349.53 434.28 382.09C431.93 414.65 430.3 416.85 430.3 416.85Z" fill="#EBEBEB"/>
<path d="M441.479 419.34C441.479 419.34 465.349 403.43 470.659 383.13L463.499 381.18C463.499 381.18 472.669 378.18 472.829 375.18C472.989 372.18 475.739 361.25 475.739 361.25L468.739 361.11C468.739 361.11 474.319 359.99 475.989 356.27C477.659 352.55 480.519 334 480.519 334C480.519 334 470.259 340.21 465.519 348.13C460.779 356.05 451.519 364.32 446.329 391.01C441.139 417.7 441.479 419.34 441.479 419.34Z" fill="#EBEBEB"/>
<path d="M418.609 328.26C418.65 328.345 418.677 328.436 418.689 328.53L418.889 329.34L419.599 332.47C419.909 333.83 420.269 335.47 420.599 337.47C420.929 339.47 421.459 341.62 421.909 344.07C422.909 348.96 423.909 354.81 424.909 361.31C425.909 367.81 426.909 375 427.779 382.54C428.649 390.08 429.309 397.31 429.829 403.88C430.349 410.45 430.669 416.37 430.829 421.35C430.949 423.84 431.009 426.09 431.069 428.07C431.129 430.05 431.159 431.75 431.169 433.14C431.179 434.53 431.169 435.58 431.169 436.35C431.169 436.69 431.169 436.96 431.169 437.18C431.178 437.276 431.178 437.374 431.169 437.47C431.157 437.374 431.157 437.276 431.169 437.18C431.169 436.96 431.169 436.69 431.119 436.35C431.119 435.583 431.079 434.513 430.999 433.14C430.999 431.75 430.899 430.05 430.809 428.08C430.719 426.11 430.639 423.85 430.489 421.37C430.259 416.37 429.859 410.48 429.349 403.92C428.839 397.36 428.119 390.15 427.259 382.6C426.399 375.05 425.399 367.89 424.429 361.38C423.459 354.87 422.429 349.03 421.569 344.13C421.139 341.68 420.709 339.47 420.339 337.53C419.969 335.59 419.649 333.91 419.339 332.53C419.029 331.15 418.879 330.14 418.729 329.38L418.579 328.56C418.574 328.459 418.584 328.358 418.609 328.26Z" fill="#E0E0E0"/>
<path d="M427.251 433C427.251 433 407.081 410.12 400.811 396.29L405.541 394.29C402.121 394.85 398.611 393.38 395.951 391.14C393.398 388.776 391.202 386.054 389.431 383.06L395.651 382.01C389.93 380.377 385.059 376.602 382.051 371.47C389.401 372.68 396.051 376.72 401.521 381.76C405.875 385.943 409.828 390.522 413.331 395.44C415.094 397.799 416.627 400.32 417.911 402.97C421.301 410 427.261 424.6 427.251 433Z" fill="#EBEBEB"/>
<path d="M471 347.3C470.984 347.38 470.957 347.457 470.92 347.53C470.83 347.71 470.73 347.93 470.61 348.2C470.31 348.82 469.91 349.67 469.39 350.74C468.32 352.94 466.79 356.14 464.94 360.11C461.24 368.04 456.36 379.11 451.54 391.57C446.72 404.03 442.89 415.51 440.29 423.87C438.99 428.05 437.97 431.44 437.29 433.79C436.95 434.93 436.68 435.79 436.48 436.49C436.39 436.78 436.32 437.01 436.26 437.19C436.236 437.272 436.206 437.352 436.17 437.43C436.154 437.347 436.154 437.263 436.17 437.18C436.17 436.99 436.27 436.75 436.34 436.47C436.52 435.8 436.75 434.89 437.06 433.74C437.68 431.37 438.65 427.96 439.91 423.74C442.42 415.35 446.2 403.84 451.02 391.36C455.84 378.88 460.79 367.83 464.58 359.93C466.47 355.98 468.05 352.81 469.18 350.63L470.49 348.13L470.84 347.49C470.888 347.422 470.941 347.358 471 347.3Z" fill="#E0E0E0"/>
<path d="M428.999 442.81C428.846 442.277 428.739 441.732 428.679 441.18C428.519 440.12 428.249 438.6 427.879 436.73C426.903 431.861 425.535 427.079 423.789 422.43C422.01 417.79 419.863 413.299 417.369 409C416.369 407.35 415.609 406 415.029 405.13C414.71 404.678 414.429 404.199 414.189 403.7C414.555 404.114 414.89 404.555 415.189 405.02C415.819 405.89 416.669 407.18 417.669 408.81C422.868 417.367 426.435 426.813 428.189 436.67C428.519 438.56 428.729 440.09 428.829 441.16C428.927 441.705 428.984 442.256 428.999 442.81Z" fill="#E0E0E0"/>
<path d="M455.57 437.43H411.43V446.43H455.57V437.43Z" fill="#E0E0E0"/>
<path d="M415.631 446.43L420.411 476.72H447.081L451.531 446.43H415.631Z" fill="#E0E0E0"/>
<path d="M452.861 446.43C452.861 446.57 444.511 446.69 434.211 446.69C423.911 446.69 415.561 446.57 415.561 446.43C415.561 446.29 423.911 446.17 434.211 446.17C444.511 446.17 452.861 446.29 452.861 446.43Z" fill="#EBEBEB"/>
<path d="M346.79 39.2165L340.447 59.7179L348.08 62.0793L354.423 41.5779L346.79 39.2165Z" fill="#E0E0E0"/>
<path d="M344.739 38.5783L338.396 59.0797L346.03 61.4411L352.372 40.9397L344.739 38.5783Z" fill="#EBEBEB"/>
<path d="M348.54 45.19C348.435 45.5302 348.232 45.8318 347.955 46.0564C347.679 46.2811 347.343 46.4188 346.988 46.4522C346.634 46.4856 346.277 46.4131 345.964 46.2439C345.651 46.0747 345.395 45.8164 345.228 45.5017C345.062 45.1869 344.993 44.8299 345.029 44.4758C345.065 44.1216 345.206 43.7862 345.433 43.512C345.66 43.2378 345.964 43.0371 346.305 42.9353C346.646 42.8335 347.01 42.8351 347.35 42.94C347.576 43.0084 347.787 43.1212 347.97 43.2717C348.153 43.4221 348.304 43.6074 348.414 43.8166C348.525 44.0259 348.593 44.255 348.615 44.4907C348.636 44.7265 348.611 44.9641 348.54 45.19Z" fill="white"/>
<path d="M353.46 44.66C353.054 45.1424 352.583 45.5664 352.06 45.92C351.588 46.3487 351.06 46.7119 350.49 47C350.9 46.5147 351.375 46.0874 351.9 45.73C352.368 45.3021 352.893 44.9419 353.46 44.66Z" fill="#EBEBEB"/>
<path d="M352.759 46.92C352.358 47.41 351.886 47.838 351.359 48.19C350.89 48.6148 350.361 48.9686 349.789 49.24C350.199 48.7607 350.669 48.3371 351.189 47.98C351.665 47.5608 352.192 47.2046 352.759 46.92Z" fill="#EBEBEB"/>
<path d="M352.06 49.1901C351.655 49.6771 351.184 50.1046 350.66 50.4601C350.187 50.8672 349.659 51.204 349.09 51.4601C349.493 50.9748 349.965 50.5504 350.49 50.2001C350.964 49.792 351.492 49.452 352.06 49.1901Z" fill="#EBEBEB"/>
<path d="M351.359 51.4601C350.962 51.9395 350.505 52.3662 349.999 52.7301C349.531 53.1509 349.006 53.5044 348.439 53.7801C348.843 53.2948 349.315 52.8704 349.839 52.5201C350.292 52.0944 350.804 51.7373 351.359 51.4601Z" fill="#EBEBEB"/>
<path d="M350.659 53.73C350.248 54.2144 349.774 54.6416 349.249 55C348.78 55.4221 348.255 55.7786 347.689 56.06C348.569 55.1424 349.58 54.3606 350.689 53.74L350.659 53.73Z" fill="#EBEBEB"/>
<path d="M350 56C349.593 56.4824 349.122 56.9064 348.6 57.26C348.12 57.6881 347.581 58.045 347 58.32C347.41 57.8346 347.885 57.4074 348.41 57.05C348.888 56.6268 349.423 56.2733 350 56Z" fill="#EBEBEB"/>
<path d="M349.249 58.26C348.848 58.75 348.376 59.178 347.849 59.53C347.375 59.9516 346.847 60.3081 346.279 60.59C346.689 60.1046 347.164 59.6774 347.689 59.32C348.162 58.9023 348.687 58.5461 349.249 58.26Z" fill="#EBEBEB"/>
<path d="M354.06 42.65C353.656 43.1353 353.185 43.5597 352.66 43.91C352.191 44.3463 351.662 44.7133 351.09 45C351.495 44.513 351.966 44.0855 352.49 43.73C352.959 43.2971 353.488 42.9334 354.06 42.65Z" fill="#EBEBEB"/>
<path d="M353.619 41.32C353.619 41.38 353.309 41.74 352.819 42.12C352.329 42.5 351.909 42.76 351.819 42.7C351.729 42.64 352.129 42.29 352.619 41.91C353.109 41.53 353.569 41.27 353.619 41.32Z" fill="#EBEBEB"/>
<path d="M352.439 61.66L358.439 43.66C358.439 43.66 362.709 44.13 367.999 39.76C371.499 36.86 371.819 32.76 372.769 31.3C373.349 30.41 375.579 31.3 376.549 31.74C377.203 32.006 377.778 32.4337 378.22 32.983C378.663 33.5323 378.959 34.1851 379.079 34.88C379.439 38.06 375.659 44.21 375.659 44.21C375.659 44.21 374.479 45.34 376.389 45.93L383.189 48.04C384.078 48.3023 384.844 48.8732 385.349 49.65C385.611 50.0461 385.771 50.5008 385.815 50.9736C385.858 51.4464 385.784 51.9227 385.599 52.36C384.599 54.89 382.869 55.63 382.699 56.17C382.529 56.71 382.989 57.9 381.959 59.3C380.929 60.7 380.629 60.45 380.399 61.2C379.998 62.4969 379.394 63.722 378.609 64.83C378.178 65.3801 377.653 65.8506 377.059 66.22C376.824 67.5971 376.254 68.8952 375.399 70C373.839 71.51 368.969 71.33 367.399 69.91C366.659 69.24 362.909 67.02 361.149 65.91C359.389 64.8 354.549 61.34 352.439 61.66Z" fill="#E0E0E0"/>
<path d="M349.939 61.11L355.609 42.79C355.609 42.79 359.879 43.26 365.169 38.88C367.647 36.9009 369.815 34.5616 371.599 31.94C371.877 31.506 372.3 31.1845 372.793 31.0326C373.285 30.8806 373.815 30.9081 374.289 31.11C374.887 31.3359 375.406 31.7281 375.787 32.2403C376.168 32.7525 376.395 33.3632 376.439 34C376.799 37.17 372.829 43.38 372.829 43.38C372.829 43.38 371.649 44.51 373.559 45.1L380.359 47.21C381.248 47.4722 382.014 48.0432 382.519 48.82C382.781 49.2161 382.941 49.6708 382.985 50.1436C383.028 50.6164 382.954 51.0927 382.769 51.53C381.769 54.06 380.039 54.79 379.869 55.34C379.699 55.89 380.159 57.07 379.129 58.47C378.099 59.87 377.799 59.62 377.569 60.37C377.168 61.6668 376.564 62.892 375.779 64C375.35 64.5499 374.825 65.0174 374.229 65.38C373.934 66.7293 373.362 68.0027 372.549 69.12C371.429 70.34 368.329 70.2 367.379 69.91C366.429 69.62 359.999 66.1 358.279 65C356.559 63.9 352.049 60.8 349.939 61.11Z" fill="#EBEBEB"/>
<path d="M377.441 40.76C376.805 41.3005 376.099 41.7514 375.341 42.1C374.628 42.5394 373.857 42.876 373.051 43.1C373.745 42.646 374.47 42.2417 375.221 41.89C375.933 41.4603 376.675 41.0827 377.441 40.76Z" fill="#EBEBEB"/>
<path d="M378.569 38.42C377.98 38.9241 377.302 39.3141 376.569 39.57C375.889 39.9034 375.175 40.1648 374.439 40.35C375.061 39.9335 375.733 39.5975 376.439 39.35C377.639 38.84 378.529 38.36 378.569 38.42Z" fill="#EBEBEB"/>
<path d="M379.059 36.16C378.605 36.59 378.052 36.9024 377.449 37.07C376.88 37.3029 376.291 37.4837 375.689 37.61C376.19 37.2423 376.757 36.9741 377.359 36.82C378.309 36.5 378.999 36.09 379.059 36.16Z" fill="#EBEBEB"/>
<path d="M378.88 34.0801C378.533 34.3741 378.132 34.5982 377.7 34.7401C377.3 34.9573 376.862 35.0964 376.41 35.1501C376.757 34.8561 377.158 34.632 377.59 34.4901C377.99 34.2728 378.428 34.1337 378.88 34.0801Z" fill="#EBEBEB"/>
<path d="M377.84 32.5701C377.84 32.6401 377.53 32.8001 377.11 32.9201C376.69 33.0401 376.34 33.0801 376.31 33.0101C376.28 32.9401 376.61 32.7901 377.04 32.6601C377.47 32.5301 377.82 32.5001 377.84 32.5701Z" fill="#EBEBEB"/>
<path d="M375.909 43.8301C375.532 44.1307 375.106 44.3641 374.649 44.5201C374.227 44.7504 373.766 44.8996 373.289 44.9601C373.661 44.651 374.089 44.4167 374.549 44.2701C374.971 44.0398 375.432 43.8906 375.909 43.8301Z" fill="#EBEBEB"/>
<path d="M384.999 53.64C384.201 54.0249 383.367 54.3297 382.509 54.55C381.682 54.8578 380.823 55.0757 379.949 55.2C380.744 54.817 381.575 54.5123 382.429 54.29C383.262 53.9872 384.123 53.7694 384.999 53.64Z" fill="#EBEBEB"/>
<path d="M385.859 50.5C384.92 50.9811 383.905 51.299 382.859 51.44C383.309 51.1598 383.803 50.957 384.319 50.84C384.81 50.6424 385.331 50.5275 385.859 50.5Z" fill="#EBEBEB"/>
<path d="M382.589 57.76C381.995 58.028 381.375 58.2357 380.739 58.38C380.132 58.6176 379.502 58.7951 378.859 58.91C379.411 58.5509 380.02 58.2872 380.659 58.13C381.276 57.8957 381.929 57.7705 382.589 57.76Z" fill="#EBEBEB"/>
<path d="M380.499 61C379.35 61.5944 378.125 62.0316 376.859 62.3C377.414 61.96 378.013 61.6975 378.639 61.52C379.232 61.2605 379.858 61.0854 380.499 61Z" fill="#EBEBEB"/>
<path d="M378.42 64.92C377.784 65.3314 377.09 65.6449 376.36 65.85C375.654 66.1273 374.908 66.2926 374.15 66.34C374.839 66.0417 375.547 65.7911 376.27 65.59C376.969 65.3113 377.687 65.0873 378.42 64.92Z" fill="#EBEBEB"/>
<path d="M376.46 68.16C375.704 68.6032 374.889 68.9398 374.04 69.16C373.221 69.4854 372.359 69.6908 371.48 69.77C372.305 69.4657 373.147 69.2086 374 69C374.802 68.6688 375.624 68.3883 376.46 68.16Z" fill="#EBEBEB"/>
<path d="M433.679 150.47L426.787 151.196L428.738 169.724L435.63 168.998L433.679 150.47Z" fill="#E0E0E0"/>
<path d="M431.82 150.664L424.928 151.39L426.878 169.917L433.77 169.192L431.82 150.664Z" fill="#EBEBEB"/>
<path d="M430.22 155.39C430.25 155.696 430.188 156.005 430.043 156.276C429.898 156.548 429.676 156.77 429.405 156.916C429.133 157.061 428.825 157.123 428.519 157.094C428.212 157.065 427.921 156.945 427.683 156.751C427.444 156.557 427.268 156.296 427.177 156.002C427.086 155.708 427.084 155.393 427.172 155.098C427.259 154.803 427.432 154.54 427.668 154.343C427.905 154.146 428.194 154.023 428.5 153.99C428.914 153.948 429.327 154.072 429.65 154.334C429.972 154.597 430.177 154.977 430.22 155.39Z" fill="white"/>
<path d="M434 153.27C433.846 153.799 433.614 154.301 433.31 154.76C433.082 155.259 432.786 155.723 432.43 156.14C432.584 155.613 432.813 155.112 433.11 154.65C433.342 154.151 433.641 153.687 434 153.27Z" fill="#EBEBEB"/>
<path d="M434.18 155.32C434.016 155.845 433.784 156.346 433.49 156.81C433.26 157.31 432.961 157.775 432.6 158.19C432.755 157.662 432.988 157.16 433.29 156.7C433.518 156.199 433.817 155.734 434.18 155.32Z" fill="#EBEBEB"/>
<path d="M434.39 157.37C434.238 157.897 434.009 158.399 433.71 158.86C433.477 159.358 433.178 159.822 432.82 160.24C432.975 159.713 433.204 159.212 433.5 158.75C433.737 158.254 434.036 157.79 434.39 157.37Z" fill="#EBEBEB"/>
<path d="M434.609 159.42C434.449 159.946 434.217 160.447 433.919 160.91C433.694 161.413 433.394 161.878 433.029 162.29C433.19 161.764 433.422 161.263 433.719 160.8C433.947 160.299 434.247 159.834 434.609 159.42Z" fill="#EBEBEB"/>
<path d="M434.82 161.47C434.666 161.997 434.437 162.498 434.14 162.96C433.904 163.456 433.604 163.92 433.25 164.34C433.404 163.813 433.633 163.312 433.93 162.85C434.166 162.354 434.466 161.89 434.82 161.47Z" fill="#EBEBEB"/>
<path d="M435 163.52C434.839 164.046 434.607 164.547 434.31 165.01C434.082 165.511 433.782 165.976 433.42 166.39C433.581 165.864 433.813 165.363 434.11 164.9C434.338 164.399 434.638 163.934 435 163.52Z" fill="#EBEBEB"/>
<path d="M435.25 165.57C435.095 166.097 434.866 166.598 434.57 167.06C434.338 167.559 434.038 168.023 433.68 168.44C433.835 167.912 434.068 167.41 434.37 166.95C434.601 166.453 434.897 165.989 435.25 165.57Z" fill="#EBEBEB"/>
<path d="M433.75 151.47C433.594 151.998 433.362 152.5 433.06 152.96C432.829 153.457 432.533 153.921 432.18 154.34C432.334 153.813 432.563 153.312 432.86 152.85C433.092 152.351 433.391 151.887 433.75 151.47Z" fill="#EBEBEB"/>
<path d="M433.001 150.56C432.945 150.887 432.819 151.198 432.631 151.47C432.371 151.94 432.121 152.29 432.061 152.26C432.116 151.937 432.243 151.629 432.431 151.36C432.641 150.89 432.891 150.53 433.001 150.56Z" fill="#EBEBEB"/>
<path d="M439 167.19L437.65 150.78C437.65 150.78 441.22 149.69 443.95 144.39C445.75 140.89 444.59 137.5 444.85 136.02C445.01 135.11 447.11 135.02 448.03 135.08C448.642 135.068 449.247 135.213 449.788 135.499C450.329 135.786 450.787 136.207 451.12 136.72C452.49 139.13 451.58 145.33 451.58 145.33C451.58 145.33 451.03 146.64 452.75 146.45L458.9 145.81C459.699 145.711 460.506 145.907 461.17 146.36C461.515 146.587 461.799 146.896 461.996 147.258C462.193 147.621 462.298 148.027 462.3 148.44C462.36 150.8 461.24 151.97 461.3 152.44C461.36 152.91 462.12 153.73 461.77 155.2C461.42 156.67 461.11 156.57 461.18 157.25C461.302 158.419 461.238 159.601 460.99 160.75C460.839 161.338 460.581 161.894 460.23 162.39C460.497 163.561 460.476 164.779 460.17 165.94C459.44 167.68 455.49 169.2 453.74 168.61C452.92 168.34 449.16 167.85 447.4 167.61C445.64 167.37 440.54 166.22 439 167.19Z" fill="#E0E0E0"/>
<path d="M436.78 167.61L435 151.05C435 151.05 438.57 149.96 441.3 144.67C442.6 142.242 443.531 139.633 444.06 136.93C444.133 136.489 444.36 136.089 444.701 135.8C445.041 135.51 445.473 135.351 445.92 135.35C446.466 135.322 447.009 135.451 447.484 135.723C447.959 135.994 448.346 136.395 448.6 136.88C449.98 139.29 448.93 145.61 448.93 145.61C448.93 145.61 448.38 146.91 450.11 146.73L456.25 146.08C457.048 145.986 457.853 146.181 458.52 146.63C458.865 146.857 459.148 147.166 459.346 147.528C459.543 147.891 459.647 148.297 459.65 148.71C459.71 151.07 458.59 152.24 458.65 152.71C458.71 153.18 459.47 153.99 459.13 155.46C458.79 156.93 458.46 156.83 458.54 157.46C458.662 158.633 458.594 159.818 458.34 160.97C458.187 161.555 457.93 162.107 457.58 162.6C457.809 163.778 457.789 164.991 457.52 166.16C457.04 167.51 454.52 168.46 453.67 168.55C452.82 168.64 446.52 168.06 444.75 167.81C442.98 167.56 438.35 166.64 436.78 167.61Z" fill="#EBEBEB"/>
<path d="M451.761 142C451.435 142.645 451.025 143.244 450.541 143.78C450.121 144.368 449.619 144.894 449.051 145.34C449.445 144.742 449.882 144.173 450.361 143.64C450.785 143.059 451.253 142.51 451.761 142Z" fill="#EBEBEB"/>
<path d="M451.86 139.72C451.565 140.311 451.169 140.846 450.69 141.3C450.265 141.802 449.786 142.255 449.26 142.65C449.614 142.095 450.038 141.588 450.52 141.14C451.26 140.37 451.81 139.68 451.86 139.72Z" fill="#EBEBEB"/>
<path d="M451.48 137.74C451.259 138.244 450.915 138.684 450.48 139.02C450.104 139.389 449.695 139.724 449.26 140.02C449.531 139.555 449.891 139.147 450.32 138.82C451 138.27 451.42 137.7 451.48 137.74Z" fill="#EBEBEB"/>
<path d="M450.63 136.15C450.446 136.5 450.203 136.815 449.91 137.08C449.658 137.385 449.357 137.645 449.02 137.85C449.02 137.85 449.29 137.39 449.74 136.92C450.19 136.45 450.58 136.1 450.63 136.15Z" fill="#EBEBEB"/>
<path d="M449.28 135.3C449.28 135.3 449.11 135.58 448.82 135.82C448.53 136.06 448.25 136.22 448.21 136.17C448.17 136.12 448.37 135.89 448.67 135.64C448.97 135.39 449.24 135.24 449.28 135.3Z" fill="#EBEBEB"/>
<path d="M451.59 144.94C451.392 145.315 451.131 145.653 450.82 145.94C450.556 146.262 450.242 146.539 449.89 146.76C449.84 146.71 450.18 146.28 450.65 145.76C451.12 145.24 451.54 144.89 451.59 144.94Z" fill="#EBEBEB"/>
<path d="M462.201 149.66C461.697 150.236 461.137 150.762 460.531 151.23C459.971 151.754 459.361 152.223 458.711 152.63C459.209 152.048 459.769 151.521 460.381 151.06C460.939 150.533 461.549 150.064 462.201 149.66Z" fill="#EBEBEB"/>
<path d="M461.81 146.86C461.221 147.565 460.518 148.166 459.73 148.64C460.004 148.252 460.342 147.913 460.73 147.64C461.047 147.324 461.411 147.061 461.81 146.86Z" fill="#EBEBEB"/>
<path d="M461.68 153.77C461.3 154.19 460.878 154.568 460.42 154.9C460.018 155.31 459.576 155.679 459.1 156C459.787 155.088 460.668 154.34 461.68 153.81V153.77Z" fill="#EBEBEB"/>
<path d="M461.12 157.06C460.792 157.519 460.406 157.932 459.97 158.29C459.587 158.702 459.146 159.056 458.66 159.34C458.99 158.886 459.376 158.476 459.81 158.12C460.197 157.709 460.638 157.353 461.12 157.06Z" fill="#EBEBEB"/>
<path d="M460.801 160.91C460.439 161.46 459.99 161.946 459.471 162.35C459.007 162.82 458.47 163.212 457.881 163.51C458.326 163.03 458.807 162.585 459.321 162.18C459.779 161.717 460.274 161.293 460.801 160.91Z" fill="#EBEBEB"/>
<path d="M460.349 164.17C459.899 164.788 459.371 165.346 458.779 165.83C458.23 166.367 457.611 166.828 456.939 167.2C457.47 166.653 458.031 166.135 458.619 165.65C459.16 165.116 459.738 164.622 460.349 164.17Z" fill="#EBEBEB"/>
<path d="M469.92 476.28C469.92 476.43 371.45 476.54 250.01 476.54C128.57 476.54 30.0801 476.43 30.0801 476.28C30.0801 476.13 128.53 476 250 476C371.47 476 469.92 476.14 469.92 476.28Z" fill="#263238"/>
<path d="M427.72 120.86L419.08 92.2899C419.08 92.2899 425 88.9999 427.8 78.5699C429.67 71.6799 426.32 66.1099 426.22 63.3799C426.16 61.7199 429.85 60.8399 431.49 60.5099C432.568 60.2553 433.694 60.2805 434.76 60.5833C435.826 60.8861 436.797 61.4564 437.58 62.2399C440.94 65.9899 441.68 77.3299 441.68 77.3299C441.68 77.3299 441.2 79.8499 444.19 78.8699L454.84 75.3899C456.214 74.9142 457.713 74.9532 459.06 75.4999C459.758 75.7696 460.379 76.2073 460.867 76.7742C461.356 77.3411 461.697 78.0197 461.86 78.7499C462.86 82.9099 461.32 85.4199 461.6 86.2699C461.88 87.1199 463.54 88.2699 463.49 90.9599C463.44 93.6499 462.84 93.6499 463.23 94.8299C463.891 96.8577 464.229 98.977 464.23 101.11C464.184 102.208 463.94 103.288 463.51 104.3C463.51 104.3 465.08 108.03 464.75 110.62C464.42 113.21 460.32 115.85 458.83 116.34C457.34 116.83 445.98 118.18 442.75 118.42C439.52 118.66 430.14 118.53 427.72 120.86Z" fill="#263238"/>
<path d="M423.999 122.43L414.609 93.75C414.609 93.75 420.519 90.46 423.329 80.04C424.707 75.2406 425.361 70.2624 425.269 65.27C425.232 64.4628 425.482 63.6685 425.974 63.0279C426.466 62.3872 427.17 61.9416 427.959 61.77C428.92 61.5143 429.935 61.5384 430.882 61.8396C431.83 62.1408 432.672 62.7064 433.309 63.47C436.659 67.21 437.209 78.8 437.209 78.8C437.209 78.8 436.739 81.31 439.719 80.33L450.369 76.85C451.746 76.3717 453.25 76.4108 454.599 76.96C455.296 77.2303 455.915 77.6683 456.402 78.2353C456.888 78.8022 457.228 79.4805 457.389 80.21C458.389 84.37 456.849 86.88 457.129 87.73C457.409 88.58 459.079 89.73 459.029 92.42C458.979 95.11 458.369 95.12 458.759 96.29C459.425 98.3168 459.762 100.437 459.759 102.57C459.713 103.668 459.469 104.749 459.039 105.76C459.039 105.76 460.609 109.49 460.279 112.08C459.949 114.67 455.859 117.31 454.359 117.8C452.859 118.29 441.509 119.65 438.279 119.88C435.049 120.11 426.439 120.1 423.999 122.43Z" fill="#455A64"/>
<path d="M419.161 64.9999C418.137 64.7436 417.134 64.4093 416.161 63.9999C415.179 63.672 414.223 63.2709 413.301 62.7999C415.31 63.3754 417.269 64.1111 419.161 64.9999Z" fill="#263238"/>
<path d="M422.64 60.2999C422.225 60.0713 421.83 59.807 421.46 59.5099C420.75 58.9899 419.8 58.2399 418.78 57.3799C417.76 56.5199 416.87 55.6799 416.24 55.0699C415.873 54.7728 415.537 54.4376 415.24 54.0699C415.62 54.3531 415.98 54.6604 416.32 54.9899C416.97 55.5699 417.88 56.3699 418.9 57.2399C419.92 58.1099 420.85 58.8699 421.53 59.4199C421.922 59.6841 422.294 59.9783 422.64 60.2999Z" fill="#263238"/>
<path d="M423.08 47.5699C423.641 48.9091 424.128 50.2778 424.54 51.6699C425.029 53.0406 425.446 54.4358 425.79 55.8499C425.228 54.507 424.737 53.135 424.32 51.7399C423.831 50.3737 423.417 48.9816 423.08 47.5699Z" fill="#263238"/>
<path d="M434.791 50.8999C434.472 51.7986 434.078 52.6684 433.611 53.4999C433.212 54.3695 432.744 55.2055 432.211 55.9999C432.543 55.1052 432.941 54.2361 433.401 53.3999C433.799 52.5318 434.264 51.6959 434.791 50.8999Z" fill="#263238"/>
<path d="M439.44 55C439.202 55.7378 438.887 56.4484 438.5 57.12C438.182 57.8241 437.793 58.4941 437.34 59.12C437.605 58.3833 437.94 57.6735 438.34 57C438.638 56.2981 439.007 55.628 439.44 55Z" fill="#263238"/>
<path d="M440.8 71.2799C440.703 71.6526 440.569 72.0145 440.4 72.3599C440.13 73.0099 439.72 73.8999 439.24 74.8699C438.76 75.8399 438.24 76.6799 437.91 77.2899C437.734 77.6305 437.519 77.9493 437.27 78.2399C437.405 77.8938 437.569 77.5594 437.76 77.2399L439 74.7599C439.46 73.8399 439.87 72.9999 440.22 72.2899C440.384 71.9373 440.578 71.5994 440.8 71.2799Z" fill="#455A64"/>
<path d="M440.111 67.26C440.036 67.6079 439.915 67.9442 439.751 68.26C439.398 69.0242 439.004 69.7686 438.571 70.49C438.061 71.33 437.571 72.07 437.231 72.61C437.059 72.9123 436.858 73.197 436.631 73.46C437.126 72.3847 437.708 71.3513 438.371 70.37C438.871 69.53 439.301 68.76 439.601 68.19C439.743 67.8656 439.914 67.5543 440.111 67.26Z" fill="#455A64"/>
<path d="M438.691 63.9C438.641 64.1799 438.546 64.45 438.411 64.7C438.132 65.3253 437.797 65.9244 437.411 66.49C436.461 67.77 435.771 68.86 435.721 68.83C436.109 67.9408 436.614 67.1069 437.221 66.35C438.111 65.06 438.621 63.87 438.691 63.9Z" fill="#455A64"/>
<path d="M436.571 61.3999C436.31 62.0592 435.974 62.6866 435.571 63.2699C435.235 63.8947 434.833 64.4814 434.371 65.0199C434.632 64.3606 434.968 63.7333 435.371 63.1499C435.71 62.527 436.112 61.9406 436.571 61.3999Z" fill="#455A64"/>
<path d="M433.851 60.41C433.687 60.7971 433.457 61.1525 433.171 61.46C432.934 61.8102 432.64 62.1178 432.301 62.37C432.46 61.9779 432.691 61.6186 432.981 61.31C433.421 60.77 433.801 60.37 433.851 60.41Z" fill="#455A64"/>
<path d="M441.621 76.61C441.338 77.3137 440.98 77.9843 440.551 78.61C440.193 79.2699 439.771 79.8929 439.291 80.47C439.574 79.7663 439.932 79.0956 440.361 78.47C440.719 77.81 441.141 77.187 441.621 76.61Z" fill="#455A64"/>
<path d="M462.22 80.9299C461.473 82.0971 460.662 83.2222 459.79 84.2999C458.979 85.4314 458.101 86.5134 457.16 87.5399C457.91 86.369 458.725 85.2406 459.6 84.1599C460.415 83.0372 461.29 81.959 462.22 80.9299Z" fill="#455A64"/>
<path d="M460.459 76.1299C460.051 76.838 459.579 77.5075 459.049 78.1299C458.578 78.8128 458.042 79.4491 457.449 80.0299C457.859 79.3203 458.334 78.6507 458.869 78.0299C459.339 77.3487 459.872 76.7127 460.459 76.1299Z" fill="#455A64"/>
<path d="M462.871 88.4199C462.921 88.4199 462.021 89.4999 460.991 90.8399C459.961 92.1799 459.191 93.3199 459.141 93.2899C459.238 93.0031 459.38 92.7333 459.561 92.4899C459.946 91.8722 460.364 91.2748 460.811 90.6999C461.321 90.0299 461.811 89.4499 462.211 89.0399C462.404 88.8067 462.626 88.5984 462.871 88.4199Z" fill="#455A64"/>
<path d="M463.37 94.12C462.845 95.0709 462.254 95.9832 461.6 96.85C460.997 97.7608 460.328 98.6264 459.6 99.44C460.127 98.4907 460.718 97.5786 461.37 96.71C461.969 95.7964 462.637 94.9305 463.37 94.12Z" fill="#455A64"/>
<path d="M464 101.4C463.871 101.723 463.706 102.032 463.51 102.32C463.18 102.88 462.7 103.62 462.12 104.41C461.631 105.103 461.107 105.77 460.55 106.41C460.338 106.686 460.093 106.934 459.82 107.15C459.99 106.85 460.191 106.568 460.42 106.31C460.82 105.8 461.35 105.1 461.93 104.31C462.51 103.52 463.01 102.79 463.38 102.31C463.552 101.984 463.76 101.679 464 101.4Z" fill="#455A64"/>
<path d="M464.46 107.35C464.304 107.723 464.11 108.078 463.88 108.41C463.49 109.05 462.88 109.91 462.24 110.83C461.6 111.75 460.91 112.57 460.43 113.13C460.184 113.457 459.898 113.753 459.58 114.01C459.794 113.658 460.034 113.324 460.3 113.01C460.75 112.42 461.37 111.6 462.05 110.68C462.73 109.76 463.32 108.92 463.74 108.3C463.953 107.964 464.194 107.646 464.46 107.35Z" fill="#455A64"/>
<path d="M446.939 62.7299C446.212 63.0082 445.458 63.2126 444.689 63.3399C445.386 62.9862 446.116 62.7048 446.869 62.4999C447.597 62.2216 448.351 62.0172 449.119 61.8899C448.42 62.2363 447.69 62.5175 446.939 62.7299Z" fill="#263238"/>
<path d="M412.74 93.6408L401.783 97.2306L411.432 126.68L422.389 123.091L412.74 93.6408Z" fill="#263238"/>
<path d="M409.779 94.6142L398.822 98.204L408.471 127.654L419.428 124.064L409.779 94.6142Z" fill="#455A64"/>
<path d="M408.83 102.83C408.99 103.319 409.002 103.844 408.864 104.339C408.726 104.835 408.444 105.278 408.054 105.613C407.664 105.948 407.183 106.16 406.673 106.222C406.162 106.284 405.645 106.193 405.186 105.96C404.727 105.728 404.347 105.365 404.095 104.917C403.842 104.469 403.728 103.956 403.767 103.443C403.806 102.931 403.996 102.441 404.314 102.036C404.631 101.632 405.061 101.33 405.55 101.17C406.205 100.958 406.918 101.014 407.532 101.324C408.146 101.635 408.613 102.176 408.83 102.83Z" fill="white"/>
<path d="M414.171 98.09C414.034 98.9886 413.813 99.8725 413.511 100.73C413.288 101.61 412.99 102.47 412.621 103.3C412.758 102.401 412.979 101.517 413.281 100.66C413.504 99.7796 413.802 98.9198 414.171 98.09Z" fill="#455A64"/>
<path d="M415.24 101.35C415.089 102.247 414.865 103.13 414.57 103.99C414.345 104.87 414.047 105.729 413.68 106.56C413.829 105.663 414.053 104.78 414.35 103.92C414.573 103.04 414.871 102.18 415.24 101.35Z" fill="#455A64"/>
<path d="M416.31 104.6C416.16 105.497 415.936 106.38 415.64 107.24C415.414 108.123 415.116 108.986 414.75 109.82C414.9 108.923 415.124 108.04 415.42 107.18C415.644 106.297 415.942 105.434 416.31 104.6Z" fill="#455A64"/>
<path d="M417.38 107.86C417.231 108.757 417.007 109.64 416.71 110.5C416.487 111.38 416.189 112.24 415.82 113.07C415.965 112.173 416.185 111.29 416.48 110.43C416.704 109.548 417.005 108.688 417.38 107.86Z" fill="#455A64"/>
<path d="M418.441 111.12C418.298 112.017 418.077 112.901 417.781 113.76C417.557 114.642 417.256 115.502 416.881 116.33C417.03 115.433 417.255 114.55 417.551 113.69C417.774 112.81 418.072 111.95 418.441 111.12Z" fill="#455A64"/>
<path d="M419.509 114.38C419.358 115.277 419.134 116.16 418.839 117.02C418.616 117.9 418.318 118.76 417.949 119.59C418.099 118.693 418.323 117.81 418.619 116.95C418.842 116.07 419.14 115.21 419.509 114.38Z" fill="#455A64"/>
<path d="M420.58 117.63C420.43 118.527 420.206 119.41 419.91 120.27C419.685 121.153 419.388 122.016 419.02 122.85C419.169 121.953 419.393 121.07 419.69 120.21C419.916 119.327 420.213 118.464 420.58 117.63Z" fill="#455A64"/>
<path d="M413.201 95.22C413.058 96.1174 412.837 97.0008 412.541 97.86C412.316 98.7444 412.015 99.6077 411.641 100.44C411.79 99.5429 412.014 98.6598 412.311 97.8C412.537 96.9173 412.835 96.0544 413.201 95.22Z" fill="#455A64"/>
<path d="M411.58 94C411.536 94.5401 411.418 95.0716 411.23 95.58C411.113 96.1094 410.918 96.6184 410.65 97.09C410.805 96.0195 411.119 94.9781 411.58 94Z" fill="#455A64"/>
<path d="M372.969 73.6801H128.679C122.748 73.6801 117.939 78.4885 117.939 84.4201V440.16C117.939 446.092 122.748 450.9 128.679 450.9H372.969C378.901 450.9 383.709 446.092 383.709 440.16V84.4201C383.709 78.4885 378.901 73.6801 372.969 73.6801Z" fill="#E0E0E0"/>
<path d="M372.999 450.91L373.819 450.85C374.63 450.783 375.431 450.629 376.209 450.39C377.486 449.973 378.676 449.326 379.719 448.48C381.164 447.306 382.277 445.776 382.949 444.04C383.351 443.004 383.584 441.91 383.639 440.8C383.699 439.63 383.639 438.38 383.639 437.08C383.639 434.473 383.639 431.627 383.639 428.54C383.639 422.36 383.639 415.24 383.639 407.23C383.639 375.15 383.589 328.74 383.559 271.4C383.559 242.73 383.559 211.32 383.559 177.61C383.559 160.75 383.559 143.33 383.559 125.35C383.559 116.37 383.559 107.263 383.559 98.03C383.559 93.41 383.559 88.7634 383.559 84.09C383.491 81.768 382.653 79.5347 381.175 77.7421C379.698 75.9496 377.666 74.6998 375.399 74.19C374.25 73.9641 373.079 73.8735 371.909 73.92H128.709C126.009 73.9146 123.411 74.9515 121.457 76.8145C119.503 78.6775 118.343 81.2229 118.219 83.92C118.219 89.33 118.219 94.77 118.219 100.17V132.36C118.219 153.693 118.219 174.673 118.219 195.3C118.219 236.56 118.219 276.36 118.219 314.3C118.219 352.24 118.219 388.25 118.219 421.97V434.5C118.219 436.57 118.219 438.64 118.219 440.68C118.301 442.695 118.964 444.644 120.129 446.29C121.282 447.918 122.869 449.189 124.709 449.96C125.627 450.327 126.588 450.572 127.569 450.69C128.569 450.77 129.569 450.75 130.569 450.76H142.419H187.419L323.239 450.84L360.159 450.89H369.759H373.039C373.039 450.89 371.929 450.89 369.759 450.89H360.159L323.239 450.94L187.419 451.02H142.419H130.499C129.499 451.02 128.499 451.02 127.499 450.95C126.47 450.834 125.462 450.582 124.499 450.2C122.582 449.4 120.929 448.076 119.729 446.38C118.511 444.672 117.817 442.646 117.729 440.55C117.679 438.49 117.729 436.44 117.729 434.36V421.92C117.729 388.2 117.729 352.17 117.729 314.25C117.729 276.33 117.729 236.54 117.729 195.25C117.729 174.623 117.729 153.643 117.729 132.31V100.15C117.729 94.74 117.729 89.34 117.729 83.88C117.87 81.059 119.091 78.4004 121.139 76.455C123.187 74.5096 125.905 73.4265 128.729 73.43H371.829C373.033 73.3739 374.239 73.468 375.419 73.71C377.79 74.2391 379.917 75.5446 381.462 77.4195C383.008 79.2944 383.883 81.6314 383.949 84.06C383.949 88.7267 383.949 93.3934 383.949 98.06V125.38C383.949 143.34 383.949 160.76 383.949 177.64C383.949 211.35 383.949 242.76 383.949 271.43C383.949 328.77 383.889 375.18 383.869 407.26C383.869 415.26 383.869 422.39 383.869 428.57C383.869 431.65 383.869 434.497 383.869 437.11C383.869 438.41 383.869 439.65 383.869 440.84C383.809 441.962 383.566 443.067 383.149 444.11C382.463 445.857 381.337 447.397 379.879 448.58C378.187 449.957 376.107 450.772 373.929 450.91H372.999Z" fill="#263238"/>
<g opacity="0.3">
<path d="M143.149 441.54L366.009 440.32L368.569 397.26L361.739 371.3L141.129 405.77L143.149 441.54Z" fill="black"/>
</g>
<g opacity="0.3">
<path d="M317.888 74.4501L322.958 89.4901V96.8501H317.238L317.888 74.4501Z" fill="black"/>
</g>
<path d="M129.58 89.0801V435.6H371.65V373.63V89.0801H129.58Z" fill="white"/>
<path d="M129.58 89.0801L371.65 88.8701H371.86V89.0801C371.86 185.38 371.86 305.55 371.91 435.57V435.86H371.65H129.58H129.35V435.63C129.49 231.03 129.58 91.2201 129.58 89.1101C129.58 91.2201 129.68 231.03 129.82 435.63L129.58 435.39H371.65L371.39 435.65C371.39 305.65 371.39 185.46 371.44 89.1601L371.65 89.3701L129.58 89.0801Z" fill="#263238"/>
<path d="M201.74 64.29H311.56C313.239 64.29 314.849 64.9569 316.036 66.1441C317.223 67.3312 317.89 68.9412 317.89 70.62V99.82H195.41V70.61C195.413 68.933 196.081 67.3255 197.268 66.1405C198.455 64.9556 200.063 64.29 201.74 64.29Z" fill="#263238"/>
<path d="M272.239 50.9301H241.059L244.709 77.6501H268.189L272.239 50.9301Z" fill="#263238"/>
<path d="M310 64.29C310 64.43 286.1 64.55 256.63 64.55C227.16 64.55 203.26 64.43 203.26 64.29C203.26 64.15 227.17 64 256.65 64C286.13 64 310 64.15 310 64.29Z" fill="#455A64"/>
<path d="M198.149 94.08C198.009 94.08 197.889 89.08 197.889 82.86C197.889 76.64 198.009 71.64 198.149 71.64C198.289 71.64 198.409 76.64 198.409 82.86C198.409 89.08 198.289 94.08 198.149 94.08Z" fill="#455A64"/>
<path d="M313.92 91.42C313.78 91.42 313.67 86.86 313.67 81.23C313.67 75.6 313.78 71.04 313.92 71.04C314.183 74.4299 314.27 77.8312 314.18 81.23C314.27 84.6289 314.184 88.0302 313.92 91.42Z" fill="#455A64"/>
<path d="M308 96.15C308 96.29 283.47 96.41 253.21 96.41C222.95 96.41 198.43 96.29 198.43 96.15C198.43 96.01 222.95 95.89 253.21 95.89C283.47 95.89 308 96 308 96.15Z" fill="#455A64"/>
<path d="M230.41 205.18C230.41 205.32 213.85 205.44 193.41 205.44C172.97 205.44 156.41 205.32 156.41 205.18C156.41 205.04 172.96 204.92 193.41 204.92C213.86 204.92 230.41 205 230.41 205.18Z" fill="#263238"/>
<path d="M350.731 218.12C350.731 218.26 307.521 218.38 254.231 218.38C200.941 218.38 157.721 218.26 157.721 218.12C157.721 217.98 200.921 217.86 254.231 217.86C307.541 217.86 350.731 218 350.731 218.12Z" fill="#263238"/>
<path d="M350.731 230C350.731 230.14 307.521 230.26 254.231 230.26C200.941 230.26 157.721 230.14 157.721 230C157.721 229.86 200.921 229.74 254.231 229.74C307.541 229.74 350.731 229.88 350.731 230Z" fill="#263238"/>
<path d="M350.731 241.93C350.731 242.08 307.521 242.2 254.231 242.2C200.941 242.2 157.721 242.08 157.721 241.93C157.721 241.78 200.921 241.67 254.231 241.67C307.541 241.67 350.731 241.79 350.731 241.93Z" fill="#263238"/>
<path d="M350.731 253.84C350.731 253.99 307.521 254.1 254.231 254.1C200.941 254.1 157.721 253.99 157.721 253.84C157.721 253.69 200.921 253.58 254.231 253.58C307.541 253.58 350.731 253.7 350.731 253.84Z" fill="#263238"/>
<path d="M350.731 265.75C350.731 265.9 307.521 266.01 254.231 266.01C200.941 266.01 157.721 265.9 157.721 265.75C157.721 265.6 200.921 265.49 254.231 265.49C307.541 265.49 350.731 265.61 350.731 265.75Z" fill="#263238"/>
<path d="M317.75 423.62C317.75 423.62 317.93 423.31 318.2 422.7C318.568 421.804 318.732 420.837 318.68 419.87C318.568 418.334 318.317 416.811 317.93 415.32C317.362 413.318 317.236 411.216 317.56 409.16C317.869 407.924 318.431 406.766 319.21 405.759C319.99 404.752 320.971 403.918 322.09 403.31C323.401 402.643 324.859 402.32 326.329 402.373C327.799 402.425 329.231 402.851 330.49 403.61C331.882 404.398 333.02 405.567 333.77 406.98C334.162 407.744 334.306 408.611 334.18 409.46C334.089 409.91 333.858 410.319 333.52 410.629C333.183 410.94 332.756 411.136 332.3 411.19C331.459 411.269 330.614 411.29 329.77 411.25H327.25C325.56 411.25 323.84 411.14 322.1 410.98C318.704 410.719 315.36 409.996 312.16 408.83C310.64 408.32 309.01 407.93 307.64 408.56C306.27 409.19 305.36 410.56 304.22 411.56C303.668 412.111 302.977 412.502 302.22 412.69C301.45 412.841 300.651 412.698 299.98 412.29C298.853 411.459 297.817 410.51 296.89 409.46C296.445 409.018 295.909 408.677 295.32 408.46C294.762 408.276 294.157 408.294 293.61 408.51C292.595 409.09 291.694 409.849 290.95 410.75C290.201 411.491 289.286 412.042 288.28 412.357C287.274 412.672 286.208 412.742 285.17 412.56C283.599 412.274 282.196 411.397 281.25 410.11C280.659 409.308 280.262 408.381 280.09 407.4C280.032 407.07 280.012 406.735 280.03 406.4C280.03 406.4 280.03 406.75 280.19 407.4C280.4 408.349 280.817 409.24 281.41 410.01C282.342 411.229 283.705 412.045 285.22 412.29C286.209 412.452 287.221 412.374 288.173 412.062C289.125 411.751 289.988 411.215 290.69 410.5C291.462 409.556 292.401 408.763 293.46 408.16C294.097 407.897 294.807 407.872 295.46 408.09C296.107 408.328 296.693 408.703 297.18 409.19C298.087 410.203 299.092 411.125 300.18 411.94C300.757 412.294 301.447 412.416 302.11 412.28C302.79 412.117 303.413 411.772 303.91 411.28C305 410.28 305.91 408.95 307.45 408.22C308.224 407.885 309.074 407.764 309.91 407.87C310.735 407.978 311.546 408.172 312.33 408.45C315.494 409.605 318.802 410.318 322.16 410.57C323.88 410.73 325.59 410.8 327.28 410.84L329.79 410.89C330.6 410.924 331.412 410.908 332.22 410.84C332.576 410.808 332.912 410.66 333.177 410.421C333.442 410.181 333.622 409.861 333.69 409.51C333.8 408.77 333.674 408.014 333.33 407.35C332.626 406.023 331.562 404.921 330.26 404.17C329.065 403.439 327.703 403.024 326.303 402.967C324.903 402.909 323.511 403.21 322.26 403.84C321.186 404.414 320.244 405.204 319.491 406.161C318.739 407.118 318.194 408.221 317.89 409.4C317.56 411.399 317.662 413.445 318.19 415.4C318.553 416.909 318.774 418.45 318.85 420C318.885 420.996 318.687 421.985 318.27 422.89C318.121 423.15 317.947 423.394 317.75 423.62Z" fill="#263238"/>
<path d="M216 402.56C216 402.71 203.67 402.82 188.46 402.82C173.25 402.82 160.91 402.71 160.91 402.56C160.91 402.41 173.24 402.3 188.46 402.3C203.68 402.3 216 402.42 216 402.56Z" fill="#263238"/>
<path d="M243.49 402.14C240.107 402.398 236.713 402.485 233.32 402.4C229.928 402.485 226.534 402.398 223.15 402.14C226.534 401.882 229.928 401.796 233.32 401.88C236.713 401.796 240.107 401.882 243.49 402.14Z" fill="#263238"/>
<path d="M336.15 394.18C336.15 394.33 325.05 394.44 311.36 394.44C297.67 394.44 286.57 394.33 286.57 394.18C286.57 394.03 297.67 393.92 311.36 393.92C325.05 393.92 336.15 394 336.15 394.18Z" fill="#263238"/>
<path d="M346.31 413.67C346.086 413.715 345.858 413.732 345.63 413.72H343.7L336.58 413.79C330.58 413.84 322.27 413.95 313.1 414.22C303.93 414.49 295.64 414.85 289.64 415.15L282.53 415.51L280.59 415.59C280.367 415.614 280.143 415.614 279.92 415.59C280.139 415.533 280.364 415.499 280.59 415.49L282.51 415.32C284.19 415.17 286.62 414.99 289.62 414.8C295.62 414.4 303.91 413.97 313.09 413.71C322.27 413.45 330.57 413.38 336.58 413.43C339.58 413.43 342.02 413.48 343.7 413.53L345.64 413.6C345.865 413.608 346.088 413.632 346.31 413.67Z" fill="#263238"/>
<path d="M181.761 304.49C181.748 304.357 181.748 304.223 181.761 304.09C181.761 303.79 181.761 303.41 181.761 302.94C181.761 301.94 181.761 300.47 181.701 298.67C181.701 294.98 181.631 289.8 181.591 283.6L181.811 283.82H160.921C160.861 283.87 161.411 283.33 161.171 283.56V294.56C161.171 298.06 161.171 301.37 161.171 304.41L160.941 304.19L176.021 304.3L180.291 304.36H181.431H181.841C181.721 304.375 181.6 304.375 181.481 304.36H180.381L176.161 304.41L160.941 304.53H160.721V304.3C160.721 301.3 160.721 297.95 160.721 294.45V289.05C160.721 288.12 160.721 287.19 160.721 286.25V283.43C160.491 283.66 161.041 283.11 160.991 283.17H181.881H182.001V283.4C181.951 289.66 181.911 294.89 181.881 298.62C181.881 300.4 181.881 301.81 181.821 302.84C181.821 303.29 181.821 303.65 181.821 303.93C181.838 304.119 181.817 304.309 181.761 304.49Z" fill="#263238"/>
<path d="M340.66 288.38H194.9V300.54H340.66V288.38Z" fill="#E0E0E0"/>
<path d="M181.761 340.74C181.749 340.604 181.749 340.466 181.761 340.33C181.761 340.03 181.761 339.66 181.761 339.19C181.761 338.19 181.761 336.72 181.701 334.92C181.701 331.23 181.631 326.05 181.591 319.84L181.811 320.07H160.921L161.171 319.82V330.82C161.171 334.33 161.171 337.64 161.171 340.68L160.941 340.45L176.021 340.57L180.291 340.63H181.431H181.841C181.721 340.645 181.6 340.645 181.481 340.63H180.381L176.161 340.69L160.941 340.81H160.721V340.58C160.721 337.58 160.721 334.23 160.721 330.72V325.32C160.721 324.4 160.721 323.47 160.721 322.53V319.7L160.991 319.43H181.881H182.001V319.65C181.951 325.92 181.911 331.15 181.881 334.87C181.881 336.65 181.881 338.07 181.821 339.09C181.821 339.54 181.821 339.9 181.821 340.19C181.836 340.376 181.816 340.562 181.761 340.74Z" fill="#263238"/>
<path d="M340.66 324.63H194.9V336.79H340.66V324.63Z" fill="#E0E0E0"/>
<path d="M181.761 377C181.749 376.864 181.749 376.727 181.761 376.59C181.761 376.29 181.761 375.91 181.761 375.45C181.761 374.45 181.761 372.98 181.701 371.18C181.701 367.49 181.631 362.3 181.591 356.1L181.811 356.33H160.921C160.861 356.39 161.411 355.84 161.171 356.07V367.07C161.171 370.58 161.171 373.89 161.171 376.93L160.941 376.7L176.021 376.82L180.291 376.88H181.431H181.841C181.721 376.89 181.6 376.89 181.481 376.88H180.381L176.161 376.94L160.941 377.05H160.721V377C160.721 374 160.721 370.65 160.721 367.14V361.74C160.721 360.82 160.721 359.88 160.721 358.94V356.12C160.491 356.35 161.041 355.8 160.991 355.86H181.881H182.001V356.08C181.951 362.34 181.911 367.58 181.881 371.3C181.881 373.08 181.881 374.5 181.821 375.52C181.821 375.97 181.821 376.33 181.821 376.62C181.817 376.749 181.796 376.876 181.761 377Z" fill="#263238"/>
<path d="M340.66 360.87H194.9V373.03H340.66V360.87Z" fill="#E0E0E0"/>
<path d="M164.23 293.1L167.04 290.28L172.47 295.11L183.14 284.85L185.75 287.67L172.07 300.54L164.23 293.1Z" fill="#5A37BD"/>
<path d="M164.23 328.13L167.04 325.31L172.47 330.14L183.14 319.88L185.75 322.7L172.07 335.57L164.23 328.13Z" fill="#5A37BD"/>
<path d="M164.23 364.05L167.04 361.24L172.47 366.06L183.14 355.8L185.75 358.62L172.07 371.5L164.23 364.05Z" fill="#5A37BD"/>
<path d="M403.109 431.45L422.999 449.68L400.449 474.59C398.199 472.29 405.089 455.08 405.089 455.08L392.639 443.08L403.109 431.45Z" fill="#455A64"/>
<path d="M411 446.4C411.291 446.228 411.635 446.168 411.967 446.233C412.298 446.297 412.595 446.481 412.8 446.75C412.985 447.032 413.053 447.375 412.992 447.706C412.931 448.038 412.744 448.333 412.47 448.53C412.164 448.716 411.8 448.78 411.449 448.712C411.097 448.644 410.784 448.447 410.57 448.16C410.406 447.845 410.371 447.478 410.474 447.138C410.577 446.798 410.809 446.511 411.12 446.34" fill="white"/>
<path d="M423 449.68L421 447.76L400.23 472.54C400.23 472.54 399.71 474.09 400.61 474.67L423 449.68Z" fill="#263238"/>
<path d="M404.639 455.37C404.759 455.48 405.369 454.92 406.299 454.67C407.229 454.42 408.029 454.57 408.089 454.42C408.149 454.27 407.269 453.81 406.149 454.12C405.029 454.43 404.499 455.3 404.639 455.37Z" fill="white"/>
<path d="M403.349 459C403.449 459.14 404.129 458.8 405.019 458.85C405.909 458.9 406.559 459.28 406.659 459.15C406.759 459.02 406.209 458.33 405.099 458.29C403.989 458.25 403.239 458.85 403.349 459Z" fill="white"/>
<path d="M405.138 463.28C405.288 463.17 404.928 462.51 403.858 462.18C402.788 461.85 402.128 462.18 402.178 462.36C402.228 462.54 402.908 462.47 403.688 462.73C404.468 462.99 404.998 463.39 405.138 463.28Z" fill="white"/>
<path d="M401.9 452.49C402.06 452.54 402.39 451.83 403.06 451.19C403.73 450.55 404.44 450.19 404.39 450.04C404.34 449.89 403.44 450.04 402.66 450.78C401.88 451.52 401.75 452.47 401.9 452.49Z" fill="white"/>
<path d="M399.479 449.22C399.479 449.22 400.039 448.86 400.599 447.97C400.929 447.447 401.194 446.886 401.389 446.3C401.5 445.953 401.587 445.599 401.649 445.24C401.699 445.03 401.716 444.815 401.699 444.6C401.685 444.441 401.619 444.292 401.51 444.176C401.401 444.06 401.256 443.984 401.099 443.96C400.959 443.943 400.818 443.96 400.686 444.009C400.553 444.057 400.435 444.136 400.339 444.24C400.194 444.396 400.076 444.575 399.989 444.77C399.81 445.088 399.663 445.423 399.549 445.77C399.356 446.364 399.258 446.985 399.259 447.61C399.204 448.183 399.326 448.759 399.609 449.26C399.699 449.26 399.609 448.61 399.669 447.62C399.718 447.045 399.845 446.48 400.049 445.94C400.164 445.626 400.305 445.321 400.469 445.03C400.639 444.7 400.849 444.47 401.019 444.51C401.189 444.55 401.109 444.51 401.139 444.67C401.162 444.826 401.162 444.984 401.139 445.14C401.088 445.478 401.015 445.812 400.919 446.14C400.764 446.7 400.553 447.242 400.289 447.76C399.99 448.23 399.72 448.717 399.479 449.22Z" fill="white"/>
<path d="M399.799 449.22C399.859 449.22 399.639 448.56 398.889 447.8C398.447 447.362 397.933 447.003 397.369 446.74C397.048 446.585 396.713 446.461 396.369 446.37C396.144 446.286 395.902 446.262 395.665 446.301C395.428 446.34 395.205 446.439 395.019 446.59C394.918 446.702 394.853 446.842 394.829 446.991C394.806 447.14 394.827 447.292 394.889 447.43C394.98 447.623 395.094 447.804 395.229 447.97C395.469 448.264 395.752 448.521 396.069 448.73C396.597 449.087 397.205 449.307 397.839 449.37C398.929 449.47 399.539 449.09 399.499 449.04C398.965 449.053 398.43 449.03 397.899 448.97C397.347 448.86 396.825 448.631 396.369 448.3C396.107 448.108 395.872 447.883 395.669 447.63C395.439 447.35 395.319 447.06 395.439 446.98C395.56 446.914 395.694 446.873 395.832 446.861C395.969 446.849 396.108 446.866 396.239 446.91C396.581 446.982 396.916 447.086 397.239 447.22C397.765 447.443 398.256 447.739 398.699 448.1C399.379 448.73 399.719 449.27 399.799 449.22Z" fill="white"/>
<path d="M407.92 449L407.67 476L374.07 475.86C374.28 472.65 391.69 466.28 391.69 466.28L391.14 449H407.92Z" fill="#455A64"/>
<path d="M402.089 464.89C402.41 464.992 402.683 465.208 402.857 465.497C403.03 465.786 403.091 466.129 403.029 466.46C402.952 466.796 402.747 467.089 402.458 467.276C402.168 467.463 401.817 467.529 401.479 467.46C401.135 467.355 400.842 467.126 400.657 466.818C400.472 466.509 400.409 466.143 400.479 465.79C400.607 465.461 400.858 465.193 401.178 465.044C401.499 464.895 401.864 464.876 402.199 464.99" fill="white"/>
<path d="M407.669 476.09V473.19L375.349 474.29C375.349 474.29 373.859 474.94 374.029 476L407.669 476.09Z" fill="#263238"/>
<path d="M391.139 466.13C391.139 466.3 391.969 466.38 392.769 466.91C393.569 467.44 394.009 468.13 394.159 468.06C394.309 467.99 394.069 467.06 393.079 466.43C392.089 465.8 391.109 466 391.139 466.13Z" fill="#263238"/>
<path d="M387.609 467.58C387.609 467.74 388.289 468.02 388.839 468.71C389.389 469.4 389.549 470.14 389.719 470.14C389.889 470.14 389.989 469.2 389.279 468.35C388.569 467.5 387.619 467.42 387.609 467.58Z" fill="#263238"/>
<path d="M385.589 471.79C385.739 471.79 385.979 471 385.589 470.1C385.199 469.2 384.399 468.84 384.329 468.98C384.259 469.12 384.739 469.6 385.069 470.34C385.399 471.08 385.429 471.77 385.589 471.79Z" fill="#263238"/>
<path d="M391.459 462.17C391.529 462.32 392.279 462.1 393.209 462.17C394.139 462.24 394.859 462.53 394.939 462.39C395.019 462.25 394.339 461.66 393.239 461.6C392.139 461.54 391.379 462.05 391.459 462.17Z" fill="#263238"/>
<path d="M406.23 295C408.973 297.983 411.325 301.303 413.23 304.88C415.55 309.71 419.1 320 419.1 320C419.1 320 423.53 335.72 422.54 343.13C421.55 350.54 415 401.18 415 401.18C415 401.18 416.3 441.36 410.64 459.24L409.64 463.98L390.7 460.62L386.5 361.16L374.84 295.4L406.23 295Z" fill="#263238"/>
<path d="M382 299.2C382.08 299.2 382 298.58 382.73 298.11C382.937 297.97 383.177 297.888 383.427 297.875C383.676 297.862 383.924 297.917 384.144 298.034C384.365 298.151 384.549 298.327 384.676 298.541C384.804 298.755 384.871 299 384.87 299.25C384.862 299.499 384.786 299.742 384.65 299.951C384.515 300.16 384.324 300.329 384.1 300.438C383.876 300.547 383.626 300.593 383.377 300.57C383.129 300.547 382.891 300.458 382.69 300.31C382.03 299.82 382.08 299.17 382 299.2C381.92 299.23 381.92 299.34 381.95 299.6C382 299.989 382.192 300.345 382.49 300.6C382.712 300.788 382.978 300.917 383.263 300.973C383.549 301.029 383.844 301.011 384.12 300.92C384.467 300.808 384.77 300.59 384.988 300.297C385.205 300.004 385.325 299.651 385.332 299.286C385.339 298.922 385.231 298.564 385.025 298.264C384.818 297.963 384.523 297.735 384.18 297.61C383.907 297.51 383.612 297.482 383.325 297.529C383.037 297.577 382.767 297.697 382.54 297.88C382.237 298.113 382.033 298.452 381.97 298.83C382 299.06 382 299.2 382 299.2Z" fill="#455A64"/>
<path d="M360.049 308.63C360.049 308.63 353.099 371.68 352.099 382.51C351.099 393.34 390.409 451.08 390.409 451.08L406.999 431.49L381.699 384.49L390.219 337.64L378.999 295.34L361.559 295.55L360.049 308.63Z" fill="#263238"/>
<path d="M413.489 444.06C413.467 444.522 413.421 444.983 413.349 445.44C413.239 446.34 413.009 447.67 412.699 449.38C412.069 452.82 411.049 457.79 409.699 464.01V464.14H409.569L390.619 460.81H390.469V460.66C389.939 447.66 389.309 432.12 388.629 415.46C387.929 397.52 387.289 380.9 386.749 367.26C385.329 356.26 384.149 347.26 383.329 340.9C382.929 337.75 382.619 335.28 382.409 333.57C382.309 332.74 382.229 332.1 382.179 331.65C382.129 331.2 382.119 330.98 382.119 330.98C382.119 330.98 382.169 331.21 382.229 331.64C382.289 332.07 382.389 332.73 382.509 333.56C382.749 335.26 383.089 337.73 383.509 340.87C384.369 347.21 385.589 356.26 387.079 367.22C387.629 380.86 388.309 397.49 389.029 415.42C389.679 432.08 390.289 447.63 390.799 460.63L390.649 460.46L409.579 463.86L409.419 463.97C410.829 457.76 411.899 452.8 412.569 449.38C412.909 447.67 413.159 446.38 413.299 445.45C413.369 445 413.419 444.65 413.449 444.45C413.454 444.319 413.467 444.189 413.489 444.06Z" fill="#455A64"/>
<path d="M384.8 320.6C384.467 320.577 384.133 320.577 383.8 320.6C382.885 320.715 381.957 320.558 381.13 320.15C380.609 319.818 380.228 319.305 380.06 318.71C379.874 318.001 379.767 317.273 379.74 316.54C379.6 314.97 379.47 313.24 379.35 311.42C379.1 307.79 378.97 304.49 378.89 302.1C378.89 300.98 378.81 300.04 378.79 299.28C378.794 298.944 378.764 298.609 378.7 298.28C378.635 298.609 378.605 298.944 378.61 299.28C378.61 299.95 378.61 300.91 378.61 302.11C378.61 304.5 378.7 307.81 378.94 311.45C379.06 313.28 379.21 315.01 379.37 316.58C379.406 317.343 379.534 318.098 379.75 318.83C379.956 319.499 380.406 320.066 381.01 320.42C381.504 320.689 382.057 320.833 382.62 320.84C383.034 320.854 383.449 320.834 383.86 320.78C384.18 320.761 384.496 320.7 384.8 320.6Z" fill="#455A64"/>
<path d="M360.809 308.68C361.459 308.44 362.069 308.103 362.619 307.68C363.997 306.762 365.25 305.669 366.349 304.43C367.44 303.184 368.362 301.799 369.089 300.31C369.427 299.711 369.67 299.064 369.809 298.39C367.798 302.563 364.686 306.107 360.809 308.64V308.68Z" fill="#455A64"/>
<path d="M367.22 168.21C365.6 169.721 364.37 171.602 363.635 173.691C362.9 175.781 362.682 178.018 363 180.21C363.32 182.33 364.09 184.72 362.82 186.45C361.55 188.18 358.87 188.32 357.68 190.07C356.28 192.14 357.79 194.94 357.42 197.41C357.199 198.567 356.576 199.609 355.661 200.352C354.746 201.095 353.598 201.491 352.42 201.47C355.328 203.491 358.735 204.674 362.27 204.89L364.68 201.27C364.28 201.95 364.118 202.744 364.219 203.526C364.321 204.308 364.68 205.034 365.24 205.59C366.396 206.669 367.842 207.389 369.4 207.66C373.076 208.498 376.896 208.476 380.563 207.597C384.229 206.718 387.644 205.004 390.54 202.59" fill="#263238"/>
<path d="M408.668 184.05C407.876 182.521 407.162 180.952 406.528 179.35C405.528 175.8 406.938 171.6 404.948 168.48C403.528 166.26 400.788 165.32 398.218 164.74C395.648 164.16 392.898 163.74 390.888 161.99C389.418 160.74 388.498 158.94 387.018 157.68C384.928 155.9 382.018 155.46 379.238 155.49C376.392 155.445 373.581 156.133 371.078 157.49C369.836 158.174 368.772 159.141 367.971 160.311C367.17 161.482 366.656 162.824 366.468 164.23C366.517 165.606 366.46 166.983 366.298 168.35C365.928 169.82 364.888 171.03 364.298 172.42C363.703 173.915 363.621 175.565 364.066 177.111C364.512 178.657 365.459 180.011 366.758 180.96L387.948 204.49C392.128 205.72 401.828 203.13 404.738 199.9C407.648 196.67 410.328 188.07 408.668 184.05Z" fill="#263238"/>
<path d="M366.999 177.71C367.369 171.98 371.189 164.96 376.889 165.58L394.709 170.12C395.546 170.212 396.318 170.614 396.873 171.247C397.428 171.88 397.726 172.698 397.709 173.54L395.709 216.54H395.839C395.839 216.54 388.729 233.44 376.949 229.74C374.619 229 376.589 221.67 376.129 219.04L375.919 212.25C375.919 208.78 375.919 207.36 375.919 207.39C375.919 207.42 368.609 206.16 367.109 196.6C366.349 191.86 366.599 184.07 366.999 177.71Z" fill="#FFBF9D"/>
<path d="M368.389 185.87C368.383 186.189 368.503 186.497 368.721 186.728C368.94 186.96 369.241 187.097 369.559 187.11C369.715 187.122 369.871 187.103 370.02 187.055C370.168 187.006 370.306 186.928 370.424 186.826C370.542 186.723 370.639 186.598 370.708 186.458C370.778 186.318 370.819 186.166 370.829 186.01C370.832 185.691 370.71 185.383 370.49 185.151C370.27 184.92 369.968 184.783 369.649 184.77C369.493 184.756 369.336 184.774 369.188 184.823C369.039 184.871 368.902 184.949 368.785 185.052C368.667 185.154 368.571 185.28 368.503 185.421C368.435 185.561 368.396 185.714 368.389 185.87Z" fill="#263238"/>
<path d="M380.229 186.27C380.226 186.589 380.347 186.897 380.567 187.129C380.788 187.36 381.089 187.497 381.409 187.51C381.564 187.522 381.721 187.503 381.87 187.455C382.018 187.406 382.155 187.328 382.274 187.226C382.392 187.123 382.488 186.998 382.558 186.858C382.627 186.718 382.668 186.566 382.679 186.41C382.681 186.091 382.56 185.782 382.34 185.551C382.119 185.32 381.818 185.183 381.499 185.17C381.342 185.156 381.185 185.174 381.036 185.222C380.887 185.271 380.749 185.349 380.631 185.451C380.512 185.554 380.416 185.679 380.347 185.82C380.277 185.96 380.237 186.114 380.229 186.27Z" fill="#263238"/>
<path d="M368.2 181.93C368.35 182.14 369.43 181.34 370.86 181.44C372.29 181.54 373.28 182.44 373.45 182.25C373.62 182.06 373.4 181.79 372.97 181.37C372.416 180.836 371.691 180.517 370.923 180.47C370.155 180.422 369.396 180.649 368.78 181.11C368.31 181.47 368.13 181.83 368.2 181.93Z" fill="#263238"/>
<path d="M381 182.46C381.19 182.66 382.24 181.76 383.77 181.72C385.3 181.68 386.45 182.45 386.61 182.24C386.77 182.03 386.5 181.8 386 181.43C385.331 180.969 384.532 180.735 383.72 180.76C382.913 180.792 382.139 181.091 381.52 181.61C381 182 380.87 182.38 381 182.46Z" fill="#263238"/>
<path d="M376.849 191.8C376.153 191.588 375.435 191.457 374.709 191.41C374.369 191.41 374.049 191.31 373.999 191.08C373.97 190.731 374.05 190.381 374.229 190.08C374.539 189.27 374.879 188.42 375.229 187.52C376.155 185.35 376.908 183.109 377.479 180.82C376.375 182.911 375.442 185.088 374.689 187.33L373.689 189.9C373.483 190.308 373.423 190.774 373.519 191.22C373.567 191.34 373.641 191.447 373.736 191.533C373.832 191.62 373.945 191.684 374.069 191.72C374.255 191.768 374.447 191.795 374.639 191.8C375.372 191.899 376.116 191.899 376.849 191.8Z" fill="#263238"/>
<path d="M375.898 207.4C380.398 207.474 384.829 206.297 388.698 204C388.698 204 385.468 210.69 375.908 209.78L375.898 207.4Z" fill="#FF9A6C"/>
<path d="M377.55 195.07C377.865 194.82 378.239 194.654 378.636 194.587C379.033 194.521 379.44 194.556 379.82 194.69C380.097 194.783 380.352 194.93 380.572 195.122C380.792 195.314 380.971 195.548 381.1 195.81C381.222 196.063 381.264 196.347 381.219 196.624C381.174 196.902 381.046 197.158 380.85 197.36C380.588 197.539 380.278 197.634 379.96 197.634C379.643 197.634 379.332 197.539 379.07 197.36C378.511 197.01 378.028 196.55 377.65 196.01C377.531 195.87 377.436 195.711 377.37 195.54C377.341 195.458 377.336 195.369 377.355 195.284C377.375 195.199 377.418 195.121 377.48 195.06" fill="#FF9A6C"/>
<path d="M380.73 193.51C380.51 193.51 380.51 194.92 379.28 195.94C378.05 196.96 376.53 196.79 376.52 196.99C376.51 197.19 376.86 197.27 377.52 197.29C378.359 197.3 379.176 197.017 379.83 196.49C380.443 195.989 380.843 195.274 380.95 194.49C381 193.85 380.82 193.5 380.73 193.51Z" fill="#263238"/>
<path d="M380.76 178.91C380.89 179.27 382.2 179.11 383.76 179.3C385.32 179.49 386.56 179.91 386.76 179.59C386.85 179.44 386.64 179.1 386.13 178.75C385.458 178.325 384.698 178.058 383.908 177.969C383.118 177.881 382.318 177.974 381.57 178.24C381 178.46 380.7 178.74 380.76 178.91Z" fill="#263238"/>
<path d="M369.159 176.55C369.429 176.85 370.469 176.55 371.709 176.55C372.949 176.55 374.019 176.76 374.259 176.44C374.369 176.29 374.199 175.99 373.739 175.71C373.105 175.365 372.392 175.193 371.67 175.211C370.949 175.228 370.245 175.435 369.629 175.81C369.189 176.1 369.049 176.4 369.159 176.55Z" fill="#263238"/>
<path d="M398.68 171.2C397.57 170.014 396.12 169.2 394.53 168.87C387.854 166.856 380.962 165.641 374 165.25C373.25 166.72 374.19 168.59 375.56 169.52C377.014 170.315 378.583 170.882 380.21 171.2C381.024 171.36 381.798 171.682 382.486 172.148C383.173 172.614 383.759 173.213 384.21 173.91C385 175.48 384.58 177.44 385.29 179.05C386.53 181.82 390.57 182.44 391.79 185.22C392.71 187.32 391.64 189.71 391.49 191.99C391.415 193.154 391.589 194.321 392.001 195.412C392.413 196.504 393.053 197.495 393.878 198.319C394.703 199.144 395.695 199.782 396.787 200.193C397.879 200.604 399.046 200.776 400.21 200.7C400.07 192.5 399.933 184.3 399.8 176.1C399.78 174.4 399.71 172.56 398.68 171.2Z" fill="#263238"/>
<path d="M416.659 190.6C415.279 189.54 413.589 188.66 412.959 187.04C412.029 184.69 413.749 181.72 412.339 179.62C411.059 177.7 407.719 178.05 406.509 176.09C405.569 174.56 406.409 173.09 405.989 171.69C405.646 170.964 405.085 170.364 404.384 169.973C403.683 169.582 402.877 169.42 402.079 169.51L392.129 186.51C391.499 192 390.679 194.97 392.079 198.05C392.964 199.683 393.672 201.406 394.189 203.19C394.438 204.088 394.444 205.036 394.207 205.937C393.97 206.838 393.498 207.661 392.839 208.32C399.549 208.32 405.529 204.39 411.049 200.59L416.899 196.59C417.544 196.226 418.085 195.703 418.469 195.07C419.259 193.48 417.999 191.66 416.659 190.6Z" fill="#263238"/>
<path d="M411.099 198.93C410.874 199.022 410.639 199.086 410.399 199.12C409.707 199.244 409 199.244 408.309 199.12C407.211 198.936 406.178 198.475 405.309 197.78C404.154 196.826 403.374 195.494 403.109 194.02C402.939 193.172 402.939 192.298 403.109 191.45C403.341 190.55 403.694 189.685 404.159 188.88C404.648 188.05 405.015 187.155 405.249 186.22C405.366 185.74 405.376 185.24 405.277 184.756C405.179 184.272 404.974 183.816 404.679 183.42C404.009 182.65 402.869 182.54 401.799 182.19C401.198 182.053 400.664 181.714 400.283 181.23C399.903 180.746 399.7 180.146 399.709 179.53C399.763 178.34 399.93 177.158 400.209 176C400.3 175.432 400.259 174.85 400.089 174.3C399.901 173.76 399.524 173.305 399.029 173.02C397.958 172.507 396.772 172.283 395.589 172.37C394.374 172.416 393.168 172.159 392.079 171.62C391.03 171.074 390.152 170.25 389.539 169.24C389.003 168.263 388.628 167.206 388.429 166.11C388.239 165.102 387.944 164.116 387.549 163.17C387.142 162.301 386.548 161.532 385.809 160.92C384.586 159.904 383.074 159.3 381.488 159.196C379.902 159.092 378.323 159.492 376.979 160.34C376.051 160.907 375.231 161.635 374.559 162.49C373.996 163.23 373.52 164.032 373.139 164.88C373.139 164.88 373.139 164.82 373.139 164.7C373.139 164.58 373.239 164.41 373.339 164.2C373.599 163.562 373.934 162.958 374.339 162.4C375.002 161.508 375.826 160.749 376.769 160.16C378.014 159.351 379.464 158.914 380.949 158.9C382.768 158.904 384.532 159.529 385.949 160.67C386.726 161.313 387.356 162.114 387.799 163.02C388.205 163.986 388.51 164.991 388.709 166.02C388.915 167.069 389.279 168.08 389.789 169.02C390.368 169.966 391.195 170.737 392.179 171.25C393.22 171.757 394.371 171.997 395.529 171.95C396.78 171.857 398.034 172.102 399.159 172.66C399.733 172.99 400.17 173.515 400.389 174.14C400.575 174.749 400.62 175.392 400.519 176.02C400.251 177.157 400.084 178.314 400.019 179.48C400.03 180.019 400.204 180.542 400.519 180.98C400.87 181.377 401.328 181.665 401.839 181.81C402.359 181.98 402.899 182.09 403.439 182.27C403.989 182.429 404.486 182.733 404.879 183.15C405.21 183.586 405.439 184.091 405.548 184.628C405.657 185.165 405.644 185.719 405.509 186.25C405.269 187.217 404.889 188.144 404.379 189C403.92 189.78 403.567 190.617 403.329 191.49C403.158 192.296 403.141 193.128 403.279 193.94C403.52 195.359 404.253 196.647 405.349 197.58C406.183 198.275 407.181 198.743 408.249 198.94C409.189 199.132 410.159 199.129 411.099 198.93Z" fill="#455A64"/>
<path d="M419.129 186.79C419.255 186.942 419.347 187.119 419.399 187.31C419.545 187.872 419.485 188.469 419.229 188.99C419.056 189.383 418.788 189.727 418.449 189.99C418.036 190.279 417.551 190.445 417.049 190.47C416.436 190.499 415.827 190.358 415.289 190.063C414.751 189.769 414.305 189.332 413.999 188.8C413.637 188.192 413.424 187.506 413.379 186.8C413.341 186.041 413.442 185.282 413.679 184.56C414.099 183.08 414.959 181.56 414.849 179.92C414.85 179.503 414.768 179.089 414.606 178.704C414.445 178.32 414.208 177.971 413.909 177.68C413.186 177.177 412.298 176.973 411.429 177.11C410.461 177.254 409.475 177.223 408.519 177.02C408.014 176.856 407.573 176.538 407.259 176.11C406.956 175.683 406.751 175.195 406.659 174.68C406.532 173.684 406.532 172.676 406.659 171.68C406.738 170.751 406.615 169.816 406.299 168.94C405.697 167.273 404.481 165.899 402.899 165.1C401.413 164.486 399.8 164.242 398.199 164.39C396.766 164.498 395.325 164.38 393.929 164.04C391.915 163.441 390.175 162.157 389.009 160.41C388.572 159.785 388.25 159.088 388.059 158.35C388.351 159.049 388.71 159.719 389.129 160.35C390.32 162.013 392.035 163.227 393.999 163.8C395.372 164.11 396.785 164.208 398.189 164.09C399.846 163.924 401.518 164.168 403.059 164.8C404.725 165.625 406.014 167.056 406.659 168.8C406.994 169.724 407.127 170.71 407.049 171.69C406.929 172.646 406.929 173.614 407.049 174.57C407.098 175.027 407.272 175.461 407.553 175.824C407.834 176.188 408.209 176.467 408.639 176.63C409.551 176.809 410.488 176.833 411.409 176.7C412.374 176.555 413.359 176.796 414.149 177.37C414.485 177.694 414.752 178.082 414.934 178.512C415.116 178.941 415.21 179.403 415.209 179.87C415.235 180.733 415.093 181.592 414.789 182.4C414.519 183.18 414.209 183.91 413.989 184.63C413.756 185.312 413.651 186.03 413.679 186.75C413.712 187.409 413.904 188.051 414.239 188.62C414.518 189.114 414.928 189.521 415.424 189.798C415.919 190.075 416.481 190.211 417.049 190.19C417.513 190.174 417.963 190.029 418.349 189.77C418.667 189.54 418.928 189.239 419.109 188.89C419.361 188.401 419.439 187.84 419.329 187.3C419.274 187.125 419.207 186.955 419.129 186.79Z" fill="#263238"/>
<path d="M349.18 196C349.039 196.585 349.096 197.2 349.34 197.75C349.476 198.063 349.681 198.343 349.939 198.568C350.196 198.792 350.501 198.957 350.83 199.05C351.268 199.142 351.723 199.112 352.144 198.962C352.566 198.812 352.938 198.548 353.22 198.2C353.543 197.791 353.709 197.281 353.69 196.76C353.673 196.184 353.544 195.617 353.31 195.09C352.87 193.99 352.06 192.81 352.06 191.33C352.055 190.579 352.207 189.835 352.507 189.146C352.807 188.457 353.247 187.839 353.8 187.33C354.381 186.79 355.06 186.366 355.8 186.08C356.554 185.807 357.341 185.632 358.14 185.56C358.914 185.495 359.681 185.357 360.43 185.15C361.129 184.948 361.735 184.505 362.14 183.9C362.495 183.295 362.668 182.601 362.64 181.9C362.626 181.222 362.518 180.549 362.32 179.9C361.861 178.656 361.562 177.359 361.43 176.04C361.406 174.863 361.737 173.706 362.38 172.72C362.914 171.933 363.592 171.254 364.38 170.72C364.961 170.317 365.512 169.872 366.03 169.39C366.459 168.969 366.8 168.466 367.03 167.91C367.034 167.947 367.034 167.984 367.03 168.02C367.007 168.138 366.97 168.252 366.92 168.36C366.744 168.784 366.49 169.171 366.17 169.5C365.666 170.005 365.125 170.469 364.55 170.89C363.787 171.434 363.13 172.111 362.61 172.89C362.018 173.839 361.719 174.942 361.75 176.06C361.896 177.349 362.202 178.616 362.66 179.83C362.878 180.523 362.999 181.243 363.02 181.97C363.045 182.747 362.854 183.515 362.47 184.19C362.017 184.875 361.337 185.378 360.55 185.61C359.778 185.827 358.988 185.971 358.19 186.04C357.422 186.107 356.666 186.272 355.94 186.53C355.247 186.803 354.61 187.199 354.06 187.7C353.543 188.173 353.131 188.747 352.849 189.388C352.566 190.028 352.42 190.72 352.42 191.42C352.42 192.77 353.16 193.9 353.61 195.06C353.852 195.626 353.981 196.234 353.99 196.85C353.999 197.434 353.805 198.004 353.44 198.46C353.122 198.843 352.704 199.13 352.232 199.287C351.76 199.444 351.253 199.466 350.77 199.35C350.194 199.163 349.704 198.778 349.385 198.263C349.067 197.749 348.941 197.138 349.03 196.54C349.042 196.352 349.094 196.168 349.18 196Z" fill="#263238"/>
<path d="M408.109 230.7L403.189 296.06L378.989 295.34L360.369 299.11L365.319 228.22L375.309 216.95L382.199 230.53L395.759 214.88L408.109 230.7Z" fill="white"/>
<path d="M396.08 208.79L401.19 213.07L422.39 219.6L414.7 276.75L421 304.31L427.63 330.26C427.63 330.26 408.09 335.58 403.06 332.67C398.03 329.76 391.89 301.53 390.06 294.83C388.23 288.13 385.4 268.19 386.7 257.58C388 246.97 390.24 231.32 391.36 225.92C392.48 220.52 396.08 208.79 396.08 208.79Z" fill="#5A37BD"/>
<path d="M422.389 219.6C422.389 219.6 427.469 226.24 428.909 232.6C431.339 243.38 440.739 272.8 440.179 279.7C439.619 286.6 403.179 299.09 403.179 299.09L401.689 279.91L418.659 271L413.999 252.92" fill="#5A37BD"/>
<path d="M413.999 252.92C414.005 253.029 414.025 253.136 414.059 253.24C414.109 253.47 414.179 253.77 414.269 254.16C414.479 254.99 414.769 256.16 415.149 257.72C415.939 260.85 417.069 265.37 418.499 271.04L418.579 270.87L401.579 279.75L401.469 279.81V279.94C401.909 285.77 402.409 292.25 402.929 299.13V299.42L403.209 299.32C410.349 296.81 418.029 293.88 425.769 290.32C428.319 289.12 430.769 287.89 433.179 286.5C435.589 285.11 437.899 283.68 439.589 281.5C439.795 281.22 439.969 280.918 440.109 280.6C440.182 280.437 440.235 280.266 440.269 280.09C440.32 279.922 440.344 279.746 440.339 279.57C440.361 278.902 440.338 278.234 440.269 277.57C440.159 276.26 439.919 274.99 439.709 273.73C439.222 271.217 438.682 268.78 438.089 266.42C435.739 256.96 433.249 248.56 431.299 241.42C430.299 237.88 429.469 234.67 428.779 231.82C428.076 229.408 427.089 227.089 425.839 224.91C425.069 223.534 424.228 222.199 423.319 220.91C423.009 220.47 422.759 220.13 422.589 219.91C422.505 219.798 422.415 219.691 422.319 219.59C422.319 219.59 422.389 219.71 422.549 219.94L423.239 220.94C423.829 221.85 424.699 223.19 425.669 225C426.888 227.176 427.845 229.489 428.519 231.89C429.189 234.73 429.999 237.97 430.969 241.51C432.889 248.62 435.349 257.04 437.669 266.51C438.249 268.87 438.779 271.31 439.269 273.8C439.469 275.05 439.699 276.31 439.809 277.6C439.872 278.238 439.895 278.879 439.879 279.52C439.834 280.136 439.6 280.722 439.209 281.2C437.629 283.2 435.259 284.67 432.939 286.06C430.619 287.45 428.109 288.67 425.569 289.86C417.859 293.44 410.179 296.38 403.059 298.86L403.359 299.06C402.819 292.19 402.309 285.71 401.849 279.88L401.739 280.07L418.659 271.07L418.759 271.02V270.9L415.279 257.62C414.869 256.09 414.549 254.91 414.329 254.08L414.069 253.17C414.052 253.085 414.029 253.001 413.999 252.92Z" fill="#263238"/>
<path d="M375.91 210.13L373.2 213.71L358 219.53C358 219.53 356.79 233.53 356.79 237.79C356.79 242.05 358.56 289.55 358.56 291.79C358.56 294.03 349.99 324.38 350.74 326.24C351.49 328.1 360.42 329.41 360.42 329.41C360.42 329.41 363.78 303.15 363.78 294.21C363.78 285.27 364.15 263.3 366.01 252.49C367.87 241.68 376 218 376 218L375.91 210.13Z" fill="#5A37BD"/>
<path d="M358 219.53C358 219.53 353.93 221.29 353.47 230.67C353.01 240.05 352.24 261.3 352.24 261.3C352.24 261.3 349.62 264.84 349.31 267.77C349 270.7 344.08 287.77 344.08 287.77L355.16 291.46L358 286.23L360.4 234.36L358 219.53Z" fill="#5A37BD"/>
<path d="M363.548 299.2C363.553 299.127 363.553 299.053 363.548 298.98V298.33C363.548 297.71 363.548 296.88 363.548 295.82C363.548 293.6 363.428 290.46 363.338 286.6C363.158 278.81 362.838 268.06 362.648 256.18C362.648 254.69 362.648 253.18 362.648 251.78C362.648 250.38 362.798 248.94 362.908 247.54C363.128 244.74 363.348 242.05 363.608 239.54C363.868 237.03 364.168 234.54 364.548 232.31C364.916 230.228 365.499 228.191 366.288 226.23C367.424 223.379 368.726 220.598 370.188 217.9C370.688 216.97 371.088 216.24 371.388 215.7L371.698 215.13C371.768 215 371.798 214.93 371.788 214.93C371.737 214.98 371.693 215.037 371.658 215.1L371.298 215.65C370.998 216.14 370.558 216.86 370.028 217.81C368.495 220.485 367.139 223.258 365.968 226.11C365.157 228.086 364.55 230.14 364.158 232.24C363.758 234.5 363.448 236.94 363.158 239.5C362.868 242.06 362.648 244.76 362.418 247.55C362.308 248.94 362.148 250.36 362.148 251.83C362.148 253.3 362.148 254.75 362.148 256.24C362.348 268.12 362.708 278.87 362.978 286.66C363.128 290.52 363.258 293.66 363.338 295.87C363.398 296.93 363.438 297.77 363.468 298.38C363.468 298.64 363.468 298.86 363.468 299.03C363.488 299.09 363.515 299.147 363.548 299.2Z" fill="#263238"/>
<path d="M387.54 279.72C387.596 279.49 387.629 279.256 387.64 279.02C387.64 278.56 387.74 277.88 387.79 277.02C387.89 275.27 387.98 272.73 387.93 269.59C387.93 268.02 387.85 266.3 387.75 264.46C387.737 262.519 387.949 260.583 388.38 258.69C389.393 254.369 390.683 250.117 392.24 245.96C393.86 241.53 395.54 237.36 397.09 233.59C397.88 231.817 398.571 230 399.16 228.15C399.66 226.38 399.98 224.69 400.26 223.15C400.8 220.07 401.09 217.55 401.26 215.8C401.35 214.93 401.42 214.25 401.45 213.8C401.476 213.567 401.476 213.333 401.45 213.1C401.399 213.328 401.362 213.558 401.34 213.79C401.27 214.29 401.18 214.96 401.07 215.79C400.82 217.52 400.49 220.03 399.91 223.09C399.62 224.62 399.28 226.3 398.77 228.04C398.17 229.869 397.472 231.665 396.68 233.42C395.11 237.18 393.42 241.35 391.8 245.79C390.256 249.963 388.987 254.232 388 258.57C387.57 260.507 387.369 262.487 387.4 264.47C387.52 266.3 387.6 268.01 387.64 269.58C387.73 272.71 387.64 275.24 387.64 276.99C387.64 277.83 387.59 278.5 387.57 278.99C387.55 279.48 387.53 279.71 387.54 279.72Z" fill="#263238"/>
<path d="M334.139 278.25L344.309 292C344.518 292.28 344.801 292.496 345.126 292.623C345.452 292.75 345.806 292.784 346.149 292.72L390.149 284.41C390.408 284.359 390.652 284.254 390.867 284.102C391.082 283.95 391.262 283.754 391.396 283.528C391.53 283.301 391.615 283.049 391.645 282.787C391.675 282.526 391.649 282.261 391.569 282.01L386.819 267.41C386.681 266.982 386.392 266.619 386.005 266.389C385.619 266.159 385.161 266.077 384.719 266.16L335.319 275.33C335.01 275.385 334.719 275.519 334.475 275.717C334.23 275.915 334.04 276.172 333.923 276.464C333.805 276.756 333.763 277.073 333.801 277.385C333.839 277.697 333.955 277.995 334.139 278.25Z" fill="#263238"/>
<path d="M428.91 272.2C428.511 271.699 428.005 271.292 427.43 271.01C426.087 270.224 424.562 269.799 423.006 269.778C421.449 269.757 419.914 270.14 418.55 270.89C417.953 271.133 417.423 271.514 417 272C417 272.06 417.62 271.62 418.66 271.15C420.007 270.525 421.475 270.207 422.96 270.22C424.439 270.238 425.897 270.579 427.23 271.22C428.3 271.81 428.86 272.26 428.91 272.2Z" fill="#263238"/>
<g opacity="0.3">
<path d="M419.499 297.9L401.129 304.66L399.319 297.45L391.089 299.11L389.979 294.94L402.889 293.13L403.018 299.11L418.439 293.29L419.499 297.9Z" fill="black"/>
</g>
<path d="M401.839 281.46C401.839 281.46 398.359 278.53 397.289 277.86C396.219 277.19 392.569 274.8 390.909 275.05L389.259 275.3L390.749 279.68C390.749 279.68 377.419 277.68 375.599 279.85C373.779 282.02 377.599 282.42 379.599 282.66C381.599 282.9 387.969 283.99 387.969 283.99C387.969 283.99 371.329 282.17 370.169 283.99C369.009 285.81 371.779 286.22 371.779 286.22L382.779 290.61L384.039 291.11L385.309 292.76C385.309 292.76 389.839 295.91 391.239 295.49C392.639 295.07 402.519 293.13 402.519 293.13L401.839 281.46Z" fill="#FFBF9D"/>
<path d="M390.26 289C389.427 288.655 388.563 288.394 387.68 288.22C385.572 287.702 383.439 287.291 381.29 286.99C378.77 286.64 376.47 286.47 374.8 286.41C373.9 286.337 372.996 286.354 372.1 286.46C372.984 286.624 373.88 286.721 374.78 286.75C376.43 286.89 378.71 287.11 381.22 287.46C383.73 287.81 385.98 288.23 387.61 288.55C388.481 288.766 389.366 288.916 390.26 289Z" fill="#FF9A6C"/>
<path d="M388.749 292.19C388.014 291.754 387.203 291.459 386.359 291.32C385.559 291.031 384.71 290.895 383.859 290.92C384.593 291.352 385.4 291.647 386.239 291.79C387.044 292.079 387.895 292.215 388.749 292.19Z" fill="#FF9A6C"/>
<path d="M347.8 273C347.8 273 345.8 270.72 344.27 270.72C342.91 270.72 341.85 271.51 341.85 272.56V274.11L347.8 273Z" fill="#FFBF9D"/>
<path d="M357.069 231.27C357.016 231.469 356.989 231.674 356.989 231.88L356.859 233.64C356.739 235.16 356.659 237.38 356.609 240.11C356.509 245.59 356.759 253.11 357.309 261.48C357.859 269.85 358.309 277.34 358.429 282.8C358.489 285.53 358.509 287.74 358.489 289.27V291C358.466 291.206 358.466 291.414 358.489 291.62C358.522 291.418 358.542 291.214 358.549 291.01C358.549 290.55 358.599 290.01 358.639 289.25C358.719 287.72 358.749 285.5 358.729 282.77C358.729 277.29 358.289 269.77 357.729 261.42C357.169 253.07 356.879 245.55 356.899 240.09C356.899 237.36 356.899 235.09 356.989 233.62C356.989 232.89 356.989 232.31 356.989 231.86C357.032 231.666 357.059 231.469 357.069 231.27Z" fill="#263238"/>
<path d="M412.679 251C412.744 250.597 412.771 250.188 412.759 249.78C412.759 248.99 412.819 247.85 412.919 246.45C413.175 242.799 413.774 239.179 414.709 235.64C415.67 232.106 416.956 228.668 418.549 225.37C419.169 224.11 419.689 223.1 420.079 222.37C420.295 222.022 420.476 221.654 420.619 221.27C420.348 221.576 420.113 221.911 419.919 222.27C419.479 222.93 418.919 223.92 418.249 225.17C416.549 228.45 415.208 231.903 414.249 235.47C413.297 239.035 412.737 242.693 412.579 246.38C412.529 247.79 412.529 248.94 412.579 249.73C412.569 250.156 412.602 250.581 412.679 251Z" fill="#263238"/>
<path d="M335.85 280.55C335.85 280.55 334.37 282.55 334.85 284.11C335.33 285.67 339.12 288.57 339.12 288.57C339.12 288.57 340.56 290.28 341.22 290.28C341.88 290.28 345 290.84 344.78 288.98C344.56 287.12 341.78 286.8 341.78 286.8C341.78 286.8 341.71 286.13 340.53 285.28L338 283.43L335.85 280.55Z" fill="#FFBF9D"/>
<path d="M338.52 288.06C338.52 288.06 338.66 288.34 339.08 288.58C339.362 288.743 339.676 288.843 340.001 288.873C340.325 288.902 340.653 288.86 340.96 288.75C341.309 288.616 341.609 288.379 341.82 288.07C341.985 287.814 342.072 287.515 342.07 287.21C342.07 286.69 341.79 286.46 341.75 286.49C341.71 286.52 341.8 286.79 341.75 287.19C341.705 287.442 341.595 287.677 341.43 287.872C341.265 288.068 341.051 288.215 340.81 288.3C340.302 288.482 339.747 288.482 339.24 288.3C338.81 288.14 338.56 288 338.52 288.06Z" fill="#FF9A6C"/>
<path d="M357.709 270C357.201 267.074 355.751 264.395 353.579 262.37C353.469 262.46 354.719 263.97 355.849 266.07C356.979 268.17 357.569 270 357.709 270Z" fill="#263238"/>
<path d="M300.082 368.447L301.708 366.815L304.85 369.61L311.024 363.673L312.534 365.305L304.618 372.751L300.082 368.447Z" fill="#5A37BD"/>
<path d="M282.998 389.179C282.644 389.179 282.31 389.13 281.995 389.031C281.687 388.94 281.415 388.799 281.179 388.609C280.943 388.412 280.756 388.169 280.618 387.881C280.48 387.586 280.411 387.238 280.411 386.838H281.267C281.267 387.1 281.313 387.33 281.405 387.527C281.503 387.723 281.631 387.887 281.789 388.018C281.946 388.143 282.13 388.238 282.339 388.304C282.556 388.363 282.785 388.392 283.028 388.392C283.513 388.392 283.887 388.281 284.149 388.058C284.418 387.828 284.553 387.504 284.553 387.084C284.553 386.704 284.425 386.412 284.169 386.208C283.92 385.999 283.572 385.894 283.126 385.894H282.162V385.136H283.126C283.513 385.136 283.818 385.044 284.041 384.861C284.264 384.677 284.376 384.399 284.376 384.025C284.376 383.677 284.254 383.385 284.012 383.149C283.769 382.907 283.415 382.785 282.949 382.785C282.733 382.785 282.53 382.818 282.339 382.884C282.156 382.943 281.995 383.038 281.857 383.169C281.72 383.294 281.611 383.454 281.533 383.651C281.454 383.848 281.415 384.077 281.415 384.339H280.559C280.559 383.939 280.621 383.595 280.746 383.307C280.87 383.012 281.041 382.769 281.257 382.579C281.474 382.382 281.726 382.238 282.015 382.146C282.303 382.048 282.615 381.998 282.949 381.998C283.316 381.998 283.641 382.048 283.923 382.146C284.212 382.244 284.451 382.382 284.641 382.559C284.838 382.73 284.985 382.933 285.084 383.169C285.189 383.405 285.241 383.664 285.241 383.946C285.241 384.359 285.139 384.694 284.936 384.949C284.733 385.199 284.484 385.379 284.189 385.49C284.523 385.582 284.808 385.763 285.044 386.031C285.287 386.294 285.408 386.645 285.408 387.084C285.408 387.399 285.353 387.687 285.241 387.949C285.136 388.205 284.982 388.425 284.779 388.609C284.576 388.786 284.323 388.927 284.021 389.031C283.72 389.13 283.379 389.179 282.998 389.179ZM286.158 388.746L288.726 382.146H289.582L292.159 388.746V389.031H291.313L290.624 387.202H287.654L286.945 389.031H286.158V388.746ZM290.359 386.474L289.139 383.287L287.909 386.474H290.359ZM293.302 382.146H296.194C296.771 382.146 297.224 382.3 297.552 382.608C297.879 382.91 298.043 383.359 298.043 383.956C298.043 384.369 297.961 384.694 297.797 384.93C297.634 385.166 297.417 385.34 297.148 385.451C297.306 385.497 297.453 385.562 297.591 385.648C297.735 385.733 297.86 385.844 297.965 385.982C298.07 386.12 298.152 386.284 298.211 386.474C298.276 386.664 298.309 386.89 298.309 387.153C298.309 387.769 298.142 388.238 297.807 388.559C297.479 388.874 297.024 389.031 296.44 389.031H293.302V382.146ZM296.292 388.274C296.673 388.274 296.961 388.172 297.158 387.969C297.355 387.766 297.453 387.477 297.453 387.104C297.453 386.723 297.355 386.431 297.158 386.228C296.961 386.018 296.673 385.913 296.292 385.913H294.158V388.274H296.292ZM296.066 385.185C296.433 385.185 296.712 385.087 296.902 384.89C297.093 384.687 297.188 384.405 297.188 384.044C297.188 383.677 297.089 383.395 296.893 383.198C296.702 383.002 296.42 382.903 296.047 382.903H294.158V385.185H296.066ZM299.748 382.146H304.036V382.903H300.604V385.185H303.574V385.943H300.604V388.274H304.046V389.031H299.748V382.146ZM305.492 382.146H308.374C308.971 382.146 309.437 382.333 309.771 382.707C310.105 383.08 310.273 383.585 310.273 384.221C310.273 384.851 310.105 385.353 309.771 385.726C309.437 386.1 308.971 386.287 308.374 386.287H306.348V389.031H305.492V382.146ZM308.227 385.53C308.574 385.53 308.856 385.418 309.073 385.195C309.289 384.972 309.397 384.648 309.397 384.221C309.397 383.789 309.289 383.461 309.073 383.238C308.856 383.015 308.574 382.903 308.227 382.903H306.348V385.53H308.227ZM311.659 382.146H315.948V382.903H312.515V385.185H315.486V385.943H312.515V388.274H315.958V389.031H311.659V382.146ZM317.403 382.146H318.259V385.195H321.614V382.146H322.469V389.031H321.614V385.953H318.259V389.031H317.403V382.146ZM326.75 388.392C327.327 388.392 327.77 388.241 328.078 387.94C328.386 387.631 328.54 387.235 328.54 386.749V384.428C328.54 383.943 328.386 383.549 328.078 383.248C327.77 382.939 327.327 382.785 326.75 382.785C326.166 382.785 325.72 382.939 325.412 383.248C325.11 383.549 324.96 383.943 324.96 384.428V386.749C324.96 387.235 325.11 387.631 325.412 387.94C325.72 388.241 326.166 388.392 326.75 388.392ZM326.75 389.179C326.343 389.179 325.976 389.123 325.648 389.012C325.327 388.9 325.051 388.74 324.822 388.53C324.592 388.32 324.415 388.064 324.291 387.763C324.166 387.454 324.104 387.104 324.104 386.71V384.467C324.104 384.074 324.166 383.726 324.291 383.425C324.415 383.116 324.592 382.857 324.822 382.648C325.051 382.438 325.327 382.277 325.648 382.166C325.976 382.054 326.343 381.998 326.75 381.998C327.15 381.998 327.514 382.054 327.842 382.166C328.17 382.277 328.448 382.438 328.678 382.648C328.907 382.857 329.084 383.116 329.209 383.425C329.334 383.726 329.396 384.074 329.396 384.467V386.71C329.396 387.104 329.334 387.454 329.209 387.763C329.084 388.064 328.907 388.32 328.678 388.53C328.448 388.74 328.17 388.9 327.842 389.012C327.514 389.123 327.15 389.179 326.75 389.179ZM273.471 392.146H274.327V395.195H277.681V392.146H278.537V399.031H277.681V395.953H274.327V399.031H273.471V392.146ZM282.817 398.392C283.394 398.392 283.837 398.241 284.145 397.94C284.453 397.631 284.607 397.235 284.607 396.749V394.428C284.607 393.943 284.453 393.549 284.145 393.248C283.837 392.939 283.394 392.785 282.817 392.785C282.233 392.785 281.788 392.939 281.479 393.248C281.178 393.549 281.027 393.943 281.027 394.428V396.749C281.027 397.235 281.178 397.631 281.479 397.94C281.788 398.241 282.233 398.392 282.817 398.392ZM282.817 399.179C282.411 399.179 282.043 399.123 281.715 399.012C281.394 398.9 281.119 398.74 280.889 398.53C280.66 398.32 280.483 398.064 280.358 397.763C280.233 397.454 280.171 397.104 280.171 396.71V394.467C280.171 394.074 280.233 393.726 280.358 393.425C280.483 393.116 280.66 392.857 280.889 392.648C281.119 392.438 281.394 392.277 281.715 392.166C282.043 392.054 282.411 391.998 282.817 391.998C283.217 391.998 283.581 392.054 283.909 392.166C284.237 392.277 284.516 392.438 284.745 392.648C284.975 392.857 285.152 393.116 285.276 393.425C285.401 393.726 285.463 394.074 285.463 394.467V396.71C285.463 397.104 285.401 397.454 285.276 397.763C285.152 398.064 284.975 398.32 284.745 398.53C284.516 398.74 284.237 398.9 283.909 399.012C283.581 399.123 283.217 399.179 282.817 399.179ZM288.499 392.903H286.403V392.146H291.44V392.903H289.354V399.031H288.499V392.903ZM291.35 398.746L293.918 392.146H294.774L297.351 398.746V399.031H296.505L295.816 397.202H292.846L292.137 399.031H291.35V398.746ZM295.551 396.474L294.331 393.287L293.101 396.474H295.551ZM298.494 392.146H301.376C301.973 392.146 302.439 392.333 302.773 392.707C303.108 393.08 303.275 393.585 303.275 394.221C303.275 394.851 303.108 395.353 302.773 395.726C302.439 396.1 301.973 396.287 301.376 396.287H299.35V399.031H298.494V392.146ZM301.229 395.53C301.576 395.53 301.858 395.418 302.075 395.195C302.291 394.972 302.399 394.648 302.399 394.221C302.399 393.789 302.291 393.461 302.075 393.238C301.858 393.015 301.576 392.903 301.229 392.903H299.35V395.53H301.229ZM304.661 392.146H305.517V397.546L308.97 392.146H309.757V399.031H308.901V393.631L305.448 399.031H304.661V392.146ZM313.23 397.172L310.8 392.431V392.146H311.597L313.663 396.218L315.453 392.146H316.21V392.431L313.289 399.031H312.472V398.746L313.23 397.172ZM319.694 399.179C318.855 399.179 318.205 398.963 317.746 398.53C317.287 398.097 317.058 397.487 317.058 396.7V394.477C317.058 393.69 317.287 393.08 317.746 392.648C318.205 392.215 318.855 391.998 319.694 391.998C320.028 391.998 320.347 392.048 320.648 392.146C320.95 392.238 321.215 392.379 321.445 392.569C321.674 392.759 321.858 393.002 321.996 393.297C322.133 393.592 322.202 393.939 322.202 394.339V394.438H321.347V394.339C321.347 394.071 321.297 393.841 321.199 393.651C321.101 393.454 320.973 393.294 320.815 393.169C320.658 393.038 320.478 392.943 320.274 392.884C320.078 392.818 319.881 392.785 319.684 392.785C319.101 392.785 318.658 392.93 318.356 393.218C318.061 393.507 317.914 393.907 317.914 394.418V396.759C317.914 397.271 318.061 397.671 318.356 397.959C318.658 398.248 319.101 398.392 319.684 398.392C319.881 398.392 320.078 398.363 320.274 398.304C320.478 398.238 320.658 398.143 320.815 398.018C320.973 397.887 321.101 397.727 321.199 397.536C321.297 397.34 321.347 397.107 321.347 396.838V396.74H322.202V396.838C322.202 397.238 322.133 397.586 321.996 397.881C321.858 398.176 321.674 398.418 321.445 398.609C321.215 398.799 320.95 398.94 320.648 399.031C320.347 399.13 320.028 399.179 319.694 399.179ZM326.188 398.392C326.765 398.392 327.208 398.241 327.516 397.94C327.824 397.631 327.978 397.235 327.978 396.749V394.428C327.978 393.943 327.824 393.549 327.516 393.248C327.208 392.939 326.765 392.785 326.188 392.785C325.604 392.785 325.158 392.939 324.85 393.248C324.548 393.549 324.398 393.943 324.398 394.428V396.749C324.398 397.235 324.548 397.631 324.85 397.94C325.158 398.241 325.604 398.392 326.188 398.392ZM326.188 399.179C325.781 399.179 325.414 399.123 325.086 399.012C324.765 398.9 324.489 398.74 324.26 398.53C324.03 398.32 323.853 398.064 323.729 397.763C323.604 397.454 323.542 397.104 323.542 396.71V394.467C323.542 394.074 323.604 393.726 323.729 393.425C323.853 393.116 324.03 392.857 324.26 392.648C324.489 392.438 324.765 392.277 325.086 392.166C325.414 392.054 325.781 391.998 326.188 391.998C326.588 391.998 326.952 392.054 327.28 392.166C327.608 392.277 327.886 392.438 328.116 392.648C328.345 392.857 328.522 393.116 328.647 393.425C328.772 393.726 328.834 394.074 328.834 394.467V396.71C328.834 397.104 328.772 397.454 328.647 397.763C328.522 398.064 328.345 398.32 328.116 398.53C327.886 398.74 327.608 398.9 327.28 399.012C326.952 399.123 326.588 399.179 326.188 399.179ZM330.463 392.146H331.289L333.512 395.638L335.735 392.146H336.532V399.031H335.706V393.661L333.778 396.69H333.217L331.289 393.671V399.031H330.463V392.146Z" fill="#5A37BD"/>
<circle cx="305" cy="390" r="45.7107" stroke="#5A37BD" stroke-width="0.578616"/>
<circle cx="304.711" cy="389.711" r="40.7925" stroke="#5A37BD" stroke-width="0.578616"/>
</svg>
