<svg width="92" height="92" viewBox="0 0 92 92" fill="none" xmlns="http://www.w3.org/2000/svg">
<path d="M41.082 24.4466L42.7079 22.8149L45.8498 25.6096L52.0237 19.673L53.5339 21.3047L45.6184 28.7515L41.082 24.4466Z" fill="#5A37BD"/>
<path d="M23.9984 45.179C23.6443 45.179 23.3099 45.1299 22.9951 45.0315C22.6869 44.9397 22.4147 44.7987 22.1787 44.6085C21.9426 44.4118 21.7557 44.1692 21.618 43.8806C21.4803 43.5855 21.4114 43.238 21.4114 42.838H22.2672C22.2672 43.1003 22.3131 43.3298 22.4049 43.5265C22.5033 43.7232 22.6311 43.8872 22.7885 44.0183C22.9459 44.1429 23.1295 44.238 23.3394 44.3036C23.5558 44.3626 23.7853 44.3921 24.0279 44.3921C24.5132 44.3921 24.887 44.2806 25.1493 44.0577C25.4181 43.8282 25.5526 43.5036 25.5526 43.0839C25.5526 42.7035 25.4247 42.4117 25.169 42.2084C24.9198 41.9986 24.5722 41.8937 24.1263 41.8937H23.1623V41.1362H24.1263C24.5132 41.1362 24.8181 41.0444 25.0411 40.8608C25.264 40.6772 25.3755 40.3985 25.3755 40.0247C25.3755 39.6772 25.2542 39.3854 25.0116 39.1493C24.7689 38.9066 24.4148 38.7853 23.9492 38.7853C23.7328 38.7853 23.5295 38.8181 23.3394 38.8837C23.1558 38.9427 22.9951 39.0378 22.8574 39.169C22.7197 39.2935 22.6115 39.4542 22.5328 39.6509C22.4541 39.8477 22.4147 40.0772 22.4147 40.3395H21.559C21.559 39.9395 21.6213 39.5952 21.7459 39.3067C21.8705 39.0116 22.041 38.7689 22.2574 38.5788C22.4738 38.382 22.7262 38.2378 23.0148 38.146C23.3033 38.0476 23.6148 37.9984 23.9492 37.9984C24.3165 37.9984 24.6411 38.0476 24.923 38.146C25.2116 38.2443 25.4509 38.382 25.6411 38.5591C25.8378 38.7296 25.9854 38.9329 26.0837 39.169C26.1887 39.405 26.2411 39.6641 26.2411 39.946C26.2411 40.3592 26.1395 40.6936 25.9362 40.9494C25.7329 41.1985 25.4837 41.3789 25.1886 41.4904C25.5231 41.5822 25.8083 41.7625 26.0444 42.0314C26.287 42.2937 26.4084 42.6445 26.4084 43.0839C26.4084 43.3986 26.3526 43.6872 26.2411 43.9495C26.1362 44.2052 25.9821 44.4249 25.7788 44.6085C25.5755 44.7856 25.3231 44.9266 25.0214 45.0315C24.7198 45.1299 24.3788 45.179 23.9984 45.179ZM27.1585 44.7462L29.7258 38.146H30.5816L33.1587 44.7462V45.0315H32.3128L31.6242 43.2019H28.6536L27.9454 45.0315H27.1585V44.7462ZM31.3586 42.474L30.1389 39.287L28.9094 42.474H31.3586ZM34.3022 38.146H37.1941C37.7712 38.146 38.2237 38.3001 38.5516 38.6083C38.8794 38.9099 39.0434 39.3591 39.0434 39.9559C39.0434 40.369 38.9614 40.6936 38.7975 40.9297C38.6335 41.1658 38.4171 41.3395 38.1483 41.451C38.3056 41.4969 38.4532 41.5625 38.5909 41.6477C38.7352 41.733 38.8598 41.8445 38.9647 41.9822C39.0696 42.1199 39.1516 42.2838 39.2106 42.474C39.2762 42.6642 39.309 42.8904 39.309 43.1527C39.309 43.7691 39.1417 44.238 38.8073 44.5593C38.4794 44.8741 38.0237 45.0315 37.44 45.0315H34.3022V38.146ZM37.2925 44.2741C37.6728 44.2741 37.9614 44.1724 38.1581 43.9692C38.3548 43.7659 38.4532 43.4773 38.4532 43.1035C38.4532 42.7232 38.3548 42.4314 38.1581 42.2281C37.9614 42.0183 37.6728 41.9133 37.2925 41.9133H35.158V44.2741H37.2925ZM37.0663 41.1854C37.4335 41.1854 37.7122 41.0871 37.9024 40.8903C38.0925 40.687 38.1876 40.4051 38.1876 40.0444C38.1876 39.6772 38.0892 39.3952 37.8925 39.1985C37.7023 39.0017 37.4204 38.9034 37.0466 38.9034H35.158V41.1854H37.0663ZM40.7478 38.146H45.0365V38.9034H41.6036V41.1854H44.5742V41.9428H41.6036V44.2741H45.0463V45.0315H40.7478V38.146ZM46.4921 38.146H49.3742C49.971 38.146 50.4366 38.3329 50.771 38.7066C51.1054 39.0804 51.2727 39.5854 51.2727 40.2215C51.2727 40.851 51.1054 41.3527 50.771 41.7264C50.4366 42.1002 49.971 42.2871 49.3742 42.2871H47.3479V45.0315H46.4921V38.146ZM49.2267 41.5297C49.5742 41.5297 49.8562 41.4182 50.0726 41.1953C50.289 40.9723 50.3972 40.6477 50.3972 40.2215C50.3972 39.7887 50.289 39.4608 50.0726 39.2378C49.8562 39.0148 49.5742 38.9034 49.2267 38.9034H47.3479V41.5297H49.2267ZM52.6591 38.146H56.9478V38.9034H53.5149V41.1854H56.4855V41.9428H53.5149V44.2741H56.9577V45.0315H52.6591V38.146ZM58.4035 38.146H59.2593V41.1953H62.6135V38.146H63.4693V45.0315H62.6135V41.9527H59.2593V45.0315H58.4035V38.146ZM67.7498 44.3921C68.3269 44.3921 68.7695 44.2413 69.0778 43.9396C69.386 43.6314 69.5401 43.2347 69.5401 42.7494V40.428C69.5401 39.9428 69.386 39.5493 69.0778 39.2476C68.7695 38.9394 68.3269 38.7853 67.7498 38.7853C67.1662 38.7853 66.7203 38.9394 66.4121 39.2476C66.1104 39.5493 65.9596 39.9428 65.9596 40.428V42.7494C65.9596 43.2347 66.1104 43.6314 66.4121 43.9396C66.7203 44.2413 67.1662 44.3921 67.7498 44.3921ZM67.7498 45.179C67.3433 45.179 66.976 45.1233 66.6481 45.0118C66.3268 44.9003 66.0514 44.7397 65.8219 44.5298C65.5924 44.32 65.4153 44.0642 65.2907 43.7626C65.1661 43.4544 65.1038 43.1035 65.1038 42.7101V40.4674C65.1038 40.0739 65.1661 39.7264 65.2907 39.4247C65.4153 39.1165 65.5924 38.8575 65.8219 38.6476C66.0514 38.4378 66.3268 38.2771 66.6481 38.1656C66.976 38.0542 67.3433 37.9984 67.7498 37.9984C68.1498 37.9984 68.5138 38.0542 68.8417 38.1656C69.1696 38.2771 69.4483 38.4378 69.6778 38.6476C69.9073 38.8575 70.0844 39.1165 70.209 39.4247C70.3335 39.7264 70.3958 40.0739 70.3958 40.4674V42.7101C70.3958 43.1035 70.3335 43.4544 70.209 43.7626C70.0844 44.0642 69.9073 44.32 69.6778 44.5298C69.4483 44.7397 69.1696 44.9003 68.8417 45.0118C68.5138 45.1233 68.1498 45.179 67.7498 45.179ZM14.4707 48.146H15.3265V51.1953H18.6808V48.146H19.5365V55.0315H18.6808V51.9527H15.3265V55.0315H14.4707V48.146ZM23.8171 54.3921C24.3942 54.3921 24.8368 54.2413 25.145 53.9396C25.4532 53.6314 25.6073 53.2347 25.6073 52.7494V50.428C25.6073 49.9428 25.4532 49.5493 25.145 49.2476C24.8368 48.9394 24.3942 48.7853 23.8171 48.7853C23.2335 48.7853 22.7875 48.9394 22.4793 49.2476C22.1777 49.5493 22.0269 49.9428 22.0269 50.428V52.7494C22.0269 53.2347 22.1777 53.6314 22.4793 53.9396C22.7875 54.2413 23.2335 54.3921 23.8171 54.3921ZM23.8171 55.179C23.4105 55.179 23.0433 55.1233 22.7154 55.0118C22.3941 54.9003 22.1187 54.7397 21.8891 54.5298C21.6596 54.32 21.4826 54.0642 21.358 53.7626C21.2334 53.4544 21.1711 53.1035 21.1711 52.7101V50.4674C21.1711 50.0739 21.2334 49.7264 21.358 49.4247C21.4826 49.1165 21.6596 48.8575 21.8891 48.6476C22.1187 48.4378 22.3941 48.2771 22.7154 48.1656C23.0433 48.0542 23.4105 47.9984 23.8171 47.9984C24.2171 47.9984 24.5811 48.0542 24.9089 48.1656C25.2368 48.2771 25.5155 48.4378 25.745 48.6476C25.9746 48.8575 26.1516 49.1165 26.2762 49.4247C26.4008 49.7264 26.4631 50.0739 26.4631 50.4674V52.7101C26.4631 53.1035 26.4008 53.4544 26.2762 53.7626C26.1516 54.0642 25.9746 54.32 25.745 54.5298C25.5155 54.7397 25.2368 54.9003 24.9089 55.0118C24.5811 55.1233 24.2171 55.179 23.8171 55.179ZM29.4986 48.9034H27.4034V48.146H32.4397V48.9034H30.3544V55.0315H29.4986V48.9034ZM32.3505 54.7462L34.9178 48.146H35.7736L38.3507 54.7462V55.0315H37.5048L36.8162 53.2019H33.8456L33.1374 55.0315H32.3505V54.7462ZM36.5506 52.474L35.3309 49.287L34.1014 52.474H36.5506ZM39.4942 48.146H42.3763C42.973 48.146 43.4386 48.3329 43.7731 48.7066C44.1075 49.0804 44.2747 49.5854 44.2747 50.2215C44.2747 50.851 44.1075 51.3527 43.7731 51.7264C43.4386 52.1002 42.973 52.2871 42.3763 52.2871H40.35V55.0315H39.4942V48.146ZM42.2287 51.5297C42.5763 51.5297 42.8583 51.4182 43.0747 51.1953C43.2911 50.9723 43.3993 50.6477 43.3993 50.2215C43.3993 49.7887 43.2911 49.4608 43.0747 49.2378C42.8583 49.0148 42.5763 48.9034 42.2287 48.9034H40.35V51.5297H42.2287ZM45.6612 48.146H46.517V53.5462L49.9696 48.146H50.7565V55.0315H49.9007V49.6313L46.4481 55.0315H45.6612V48.146ZM54.2298 53.1724L51.8002 48.4312V48.146H52.5969L54.6626 52.2183L56.4528 48.146H57.2102V48.4312L54.2888 55.0315H53.4724V54.7462L54.2298 53.1724ZM60.694 55.179C59.8547 55.179 59.2055 54.9626 58.7464 54.5298C58.2874 54.097 58.0579 53.4872 58.0579 52.7002V50.4772C58.0579 49.6903 58.2874 49.0804 58.7464 48.6476C59.2055 48.2148 59.8547 47.9984 60.694 47.9984C61.0285 47.9984 61.3465 48.0476 61.6482 48.146C61.9498 48.2378 62.2154 48.3788 62.4449 48.5689C62.6745 48.7591 62.8581 49.0017 62.9958 49.2968C63.1335 49.5919 63.2023 49.9395 63.2023 50.3395V50.4379H62.3466V50.3395C62.3466 50.0706 62.2974 49.8411 62.199 49.6509C62.1007 49.4542 61.9728 49.2935 61.8154 49.169C61.658 49.0378 61.4777 48.9427 61.2744 48.8837C61.0777 48.8181 60.8809 48.7853 60.6842 48.7853C60.1006 48.7853 59.6579 48.9296 59.3563 49.2181C59.0612 49.5067 58.9136 49.9067 58.9136 50.4182V52.7593C58.9136 53.2708 59.0612 53.6708 59.3563 53.9593C59.6579 54.2479 60.1006 54.3921 60.6842 54.3921C60.8809 54.3921 61.0777 54.3626 61.2744 54.3036C61.4777 54.238 61.658 54.1429 61.8154 54.0183C61.9728 53.8872 62.1007 53.7265 62.199 53.5363C62.2974 53.3396 62.3466 53.1068 62.3466 52.838V52.7396H63.2023V52.838C63.2023 53.238 63.1335 53.5855 62.9958 53.8806C62.8581 54.1757 62.6745 54.4184 62.4449 54.6085C62.2154 54.7987 61.9498 54.9397 61.6482 55.0315C61.3465 55.1299 61.0285 55.179 60.694 55.179ZM67.1879 54.3921C67.765 54.3921 68.2076 54.2413 68.5158 53.9396C68.824 53.6314 68.9781 53.2347 68.9781 52.7494V50.428C68.9781 49.9428 68.824 49.5493 68.5158 49.2476C68.2076 48.9394 67.765 48.7853 67.1879 48.7853C66.6043 48.7853 66.1583 48.9394 65.8501 49.2476C65.5485 49.5493 65.3976 49.9428 65.3976 50.428V52.7494C65.3976 53.2347 65.5485 53.6314 65.8501 53.9396C66.1583 54.2413 66.6043 54.3921 67.1879 54.3921ZM67.1879 55.179C66.7813 55.179 66.4141 55.1233 66.0862 55.0118C65.7649 54.9003 65.4895 54.7397 65.2599 54.5298C65.0304 54.32 64.8534 54.0642 64.7288 53.7626C64.6042 53.4544 64.5419 53.1035 64.5419 52.7101V50.4674C64.5419 50.0739 64.6042 49.7264 64.7288 49.4247C64.8534 49.1165 65.0304 48.8575 65.2599 48.6476C65.4895 48.4378 65.7649 48.2771 66.0862 48.1656C66.4141 48.0542 66.7813 47.9984 67.1879 47.9984C67.5879 47.9984 67.9519 48.0542 68.2797 48.1656C68.6076 48.2771 68.8863 48.4378 69.1158 48.6476C69.3454 48.8575 69.5224 49.1165 69.647 49.4247C69.7716 49.7264 69.8339 50.0739 69.8339 50.4674V52.7101C69.8339 53.1035 69.7716 53.4544 69.647 53.7626C69.5224 54.0642 69.3454 54.32 69.1158 54.5298C68.8863 54.7397 68.6076 54.9003 68.2797 55.0118C67.9519 55.1233 67.5879 55.179 67.1879 55.179ZM71.4628 48.146H72.289L74.5121 51.6379L76.7351 48.146H77.5319V55.0315H76.7056V49.6608L74.7777 52.6904H74.217L72.289 49.6706V55.0315H71.4628V48.146Z" fill="#5A37BD"/>
<circle cx="46" cy="46" r="45.7107" stroke="#5A37BD" stroke-width="0.578616"/>
<circle cx="45.7107" cy="45.7107" r="40.7925" stroke="#5A37BD" stroke-width="0.578616"/>
</svg>
