<svg width="500" height="500" viewBox="0 0 500 500" fill="none" xmlns="http://www.w3.org/2000/svg">
<path d="M96.1309 443.56C182.191 488.56 321.731 488.56 407.791 443.56C493.851 398.56 493.851 325.7 407.791 280.74C321.731 235.78 182.191 235.74 96.1309 280.74C10.0709 325.74 10.0709 398.6 96.1309 443.56Z" fill="#F5F5F5"/>
<path d="M329.49 408.45C352.073 408.45 370.38 397.879 370.38 384.84C370.38 371.801 352.073 361.23 329.49 361.23C306.907 361.23 288.6 371.801 288.6 384.84C288.6 397.879 306.907 408.45 329.49 408.45Z" fill="#E0E0E0"/>
<path d="M404.209 367.7C424.185 367.7 440.379 358.352 440.379 346.82C440.379 335.288 424.185 325.94 404.209 325.94C384.233 325.94 368.039 335.288 368.039 346.82C368.039 358.352 384.233 367.7 404.209 367.7Z" fill="#E0E0E0"/>
<path d="M372.081 78.8401L378.481 82.5301C378.441 82.2484 378.421 81.9644 378.421 81.6801V79.8301C378.421 76.5301 380.741 75.2001 383.591 76.8301C384.826 77.5903 385.878 78.6148 386.671 79.8301C387.141 75.6801 390.391 74.1401 394.341 76.4201C396.591 77.8874 398.463 79.8645 399.806 82.1909C401.15 84.5174 401.925 87.1277 402.071 89.8101V92.5801C402.101 93.6888 401.879 94.7898 401.421 95.8001L406.731 98.8601C407.569 99.4085 408.266 100.147 408.765 101.016C409.264 101.885 409.55 102.859 409.601 103.86C409.601 105.69 408.311 106.43 406.731 105.51L372.081 85.5101C371.244 84.9611 370.548 84.2219 370.051 83.353C369.554 82.4841 369.27 81.5099 369.221 80.5101C369.221 78.6601 370.501 77.9201 372.081 78.8401Z" fill="#EBEBEB"/>
<path d="M344.721 97.47L349.551 100.25C349.519 100.038 349.503 99.8243 349.501 99.61V98.22C349.501 95.73 351.251 94.72 353.411 95.96C354.334 96.5346 355.124 97.298 355.731 98.2C356.081 95.07 358.541 93.91 361.521 95.63C363.219 96.7378 364.632 98.2308 365.646 99.9875C366.659 101.744 367.243 103.715 367.351 105.74V107.83C367.374 108.664 367.207 109.491 366.861 110.25L370.861 112.56C371.489 112.972 372.012 113.526 372.387 114.178C372.763 114.829 372.98 115.56 373.021 116.31C373.021 117.69 372.021 118.25 370.861 117.56L344.711 102.46C344.081 102.052 343.557 101.5 343.181 100.85C342.806 100.2 342.59 99.4698 342.551 98.72C342.561 97.34 343.521 96.78 344.721 97.47Z" fill="#EBEBEB"/>
<path d="M78.4797 395.78C77.8497 396.12 66.0697 399.47 61.7097 393.7C57.3497 387.93 64.5897 378.96 60.4897 375.65C56.3897 372.34 44.9397 375.65 42.1797 368.7C39.4197 361.75 47.5997 358.7 42.9997 351.7C40.0997 347.28 31.9997 344.84 32.3697 340.7C32.9097 334.7 43.9797 333.06 53.6597 339.51C63.3397 345.96 67.8397 340.67 70.9197 340.24C73.9997 339.81 80.6097 340.76 80.3897 351.54C80.1697 362.32 78.4797 395.78 78.4797 395.78Z" fill="#455A64"/>
<path d="M79.2588 380.45C79.1068 380.449 78.9599 380.395 78.8445 380.296C78.729 380.197 78.6526 380.06 78.6288 379.91C75.2588 359.45 51.4788 342.8 39.1088 339.23C38.9465 339.179 38.8102 339.067 38.7282 338.918C38.6462 338.769 38.6249 338.594 38.6688 338.43C38.6929 338.349 38.7327 338.274 38.786 338.208C38.8393 338.143 38.905 338.088 38.9793 338.048C39.0537 338.008 39.1352 337.984 39.2192 337.975C39.3032 337.967 39.3881 337.975 39.4688 338C52.1088 341.65 76.4688 358.71 79.8988 379.7C79.925 379.868 79.8841 380.04 79.785 380.178C79.6859 380.317 79.5365 380.411 79.3688 380.44L79.2588 380.45Z" fill="white"/>
<path d="M51.2203 363.32C51.1097 363.32 51.0008 363.292 50.9044 363.237C50.808 363.183 50.7274 363.105 50.6703 363.01C50.5851 362.863 50.5603 362.689 50.6014 362.525C50.6425 362.361 50.7462 362.219 50.8903 362.13C51.2803 361.9 60.4303 356.55 69.4403 359.05C69.5219 359.072 69.5984 359.11 69.6653 359.161C69.7322 359.213 69.7881 359.278 69.83 359.351C69.8718 359.424 69.8987 359.506 69.909 359.589C69.9194 359.673 69.913 359.758 69.8903 359.84C69.8696 359.922 69.8324 359.999 69.781 360.067C69.7296 360.135 69.665 360.191 69.5913 360.233C69.5175 360.275 69.4359 360.302 69.3516 360.312C69.2672 360.321 69.1817 360.314 69.1003 360.29C60.6203 357.94 51.6403 363.18 51.5503 363.23C51.4507 363.29 51.3365 363.321 51.2203 363.32Z" fill="white"/>
<path d="M423.099 341.46L419.999 340C419.999 340 418.999 328.81 419.999 321.34C421.999 307.43 431.709 295.44 440.359 294.03C451.499 292.22 449.519 302.47 443.149 306.9C432.999 314 425.099 324.73 423.099 341.46Z" fill="#5A37BD"/>
<g opacity="0.1">
<path d="M423.099 341.46L419.999 340C419.999 340 418.999 328.81 419.999 321.34C421.999 307.43 431.709 295.44 440.359 294.03C451.499 292.22 449.519 302.47 443.149 306.9C432.999 314 425.099 324.73 423.099 341.46Z" fill="black"/>
</g>
<path d="M421.92 337H422C422.14 336.973 422.264 336.892 422.345 336.774C422.425 336.656 422.456 336.511 422.43 336.37C420.27 324.94 429.679 303.75 442.269 297.73C442.402 297.668 442.505 297.555 442.554 297.417C442.604 297.28 442.597 297.128 442.535 296.995C442.472 296.862 442.36 296.76 442.222 296.71C442.084 296.661 441.932 296.668 441.799 296.73C428.799 302.93 419.139 324.73 421.359 336.55C421.381 336.681 421.451 336.799 421.554 336.882C421.657 336.965 421.787 337.007 421.92 337Z" fill="white"/>
<path d="M420 340C419.77 338.34 419.67 335.92 419.64 335.32C419.511 333.212 419.82 331.101 420.55 329.12C421.508 326.502 423.332 324.289 425.72 322.85C427.02 322.1 428.54 321.56 429.38 320.32C429.989 319.177 430.315 317.905 430.33 316.61C430.59 314.52 431.24 312.31 432.92 311.03C434.6 309.75 436.92 309.72 438.92 309.94C441.92 310.26 444.73 310.66 447.53 309.29C449.767 308.102 452.079 307.06 454.45 306.17C457.45 305.17 464.16 303.67 465.57 307.88C465.73 308.461 465.758 309.07 465.653 309.664C465.547 310.257 465.31 310.82 464.96 311.31C464.251 312.286 463.402 313.152 462.44 313.88L457.75 317.78C457.191 318.19 456.707 318.694 456.32 319.27C455.41 320.83 456.06 322.8 455.86 324.59C455.733 325.501 455.41 326.373 454.912 327.146C454.415 327.92 453.756 328.576 452.98 329.07C451.417 330.049 449.578 330.494 447.74 330.34C445.29 330.17 441.29 328.29 439.79 331.18C439.375 332.164 439.131 333.213 439.07 334.28C439.011 335.351 438.666 336.387 438.07 337.28C437.07 338.5 435.4 338.85 433.84 339.01C431.655 339.049 429.485 339.385 427.39 340.01C426.55 340.34 426.02 341.41 425.53 342.12C424 341.61 422.32 341 420 340Z" fill="#5A37BD"/>
<path d="M421.368 339.16C421.293 339.179 421.214 339.179 421.138 339.16C421.014 339.109 420.915 339.011 420.863 338.887C420.81 338.764 420.809 338.624 420.858 338.5C427.158 322.85 447.258 311.64 459.238 307.92C459.302 307.9 459.369 307.893 459.435 307.899C459.502 307.906 459.566 307.925 459.625 307.957C459.684 307.989 459.735 308.032 459.777 308.084C459.819 308.136 459.85 308.196 459.868 308.26C459.906 308.387 459.893 308.524 459.831 308.642C459.77 308.759 459.665 308.848 459.538 308.89C447.748 312.55 427.968 323.55 421.798 338.89C421.756 338.968 421.694 339.034 421.619 339.081C421.543 339.128 421.457 339.155 421.368 339.16Z" fill="white"/>
<path d="M278.84 311.2C278.945 313.146 279.508 315.039 280.482 316.727C281.457 318.414 282.817 319.847 284.45 320.91C285.399 321.534 286.549 321.777 287.67 321.59C287.49 321.777 287.284 321.939 287.06 322.07L288.41 321.3L288.48 321.25L288.68 321.12C288.77 321.055 288.854 320.981 288.93 320.9L289.08 320.75C289.08 320.7 289.17 320.65 289.21 320.59C289.396 320.329 289.551 320.047 289.67 319.75L289.77 319.48C289.774 319.433 289.774 319.387 289.77 319.34C289.795 319.261 289.815 319.181 289.83 319.1C289.934 318.641 289.984 318.171 289.98 317.7C289.875 315.757 289.313 313.866 288.34 312.18C287.367 310.495 286.01 309.063 284.38 308C283.627 307.524 282.76 307.258 281.87 307.23H281.52L281.2 307.29L281.01 307.34H280.89C280.81 307.361 280.733 307.391 280.66 307.43L280.45 307.54L279.28 308.21C279.47 308.113 279.671 308.043 279.88 308C279.129 308.89 278.755 310.038 278.84 311.2ZM288.07 321.46H288.17H288.07Z" fill="#5A37BD"/>
<path d="M162.43 375.72L170.34 389.46L171.68 388.68L287.06 322.07C287.284 321.939 287.49 321.777 287.67 321.59C288.394 320.707 288.752 319.579 288.67 318.44C288.562 316.495 287.998 314.603 287.023 312.916C286.048 311.229 284.691 309.795 283.06 308.73C282.304 308.261 281.439 307.999 280.55 307.97C280.311 307.966 280.072 307.993 279.84 308.05C279.631 308.093 279.429 308.163 279.24 308.26L279.14 308.31L162.43 375.72Z" fill="#EBEBEB"/>
<path d="M166.399 376.11C163.299 374.32 160.789 375.77 160.789 379.34C160.894 381.286 161.457 383.179 162.432 384.867C163.406 386.554 164.766 387.987 166.399 389.05C169.489 390.84 171.999 389.39 171.999 385.81C171.894 383.867 171.332 381.976 170.359 380.29C169.386 378.605 168.029 377.173 166.399 376.11Z" fill="#5A37BD"/>
<path d="M154.35 384.44C154.388 384.38 154.435 384.326 154.49 384.28L161.64 376.41L161.7 376.35L161.83 376.21L161.9 376.13C162.9 375.13 164.54 375.07 166.38 376.13C168.01 377.193 169.366 378.625 170.339 380.311C171.312 381.996 171.874 383.887 171.98 385.83C171.98 387.91 171.13 389.26 169.82 389.69H169.74C169.605 389.73 169.468 389.76 169.33 389.78H169.24L158.88 392.04C158.249 392.145 157.601 392.006 157.07 391.65C156.136 391.044 155.359 390.227 154.801 389.264C154.244 388.302 153.921 387.221 153.86 386.11C153.826 385.514 153.999 384.924 154.35 384.44Z" fill="#E0E0E0"/>
<path d="M246 333.4L246.19 333.29C246.406 333.217 246.637 333.196 246.863 333.229C247.089 333.262 247.304 333.348 247.49 333.48C248.072 333.857 248.556 334.366 248.903 334.965C249.251 335.565 249.452 336.238 249.49 336.93C249.508 337.153 249.475 337.376 249.394 337.584C249.312 337.792 249.184 337.979 249.02 338.13L248.77 338.27L163.6 387.44L158 384.2L246 333.4Z" fill="#455A64"/>
<path d="M171.5 382.86L163.59 387.43L157.99 384.19L168.7 378C169.962 379.407 170.916 381.063 171.5 382.86Z" fill="#37474F"/>
<path d="M151.53 388.17L158 381L158.17 380.81C158.89 380.09 160.05 380.03 161.37 380.81C162.531 381.556 163.499 382.567 164.194 383.76C164.889 384.952 165.292 386.292 165.37 387.67C165.37 389.13 164.78 390.08 163.86 390.39H163.8L163.54 390.45L154 392.55C153.651 392.594 153.298 392.516 153 392.33C152.476 391.986 152.039 391.523 151.727 390.98C151.414 390.436 151.234 389.826 151.2 389.2C151.17 388.827 151.288 388.456 151.53 388.17Z" fill="#5A37BD"/>
<path opacity="0.1" d="M151.53 388.17L158 381L158.17 380.81C158.89 380.09 160.05 380.03 161.37 380.81C162.531 381.556 163.499 382.567 164.194 383.76C164.889 384.952 165.292 386.292 165.37 387.67C165.37 389.13 164.78 390.08 163.86 390.39H163.8L163.54 390.45L154 392.55C153.651 392.594 153.298 392.516 153 392.33C152.476 391.986 152.039 391.523 151.727 390.98C151.414 390.436 151.234 389.826 151.2 389.2C151.17 388.827 151.288 388.456 151.53 388.17Z" fill="black"/>
<path d="M151.169 389.2C151.203 389.826 151.383 390.436 151.696 390.98C152.008 391.523 152.445 391.986 152.969 392.33C153.266 392.519 153.621 392.594 153.969 392.54L158.769 391.49C159.529 391.33 160.029 390.62 160.029 389.49C159.976 388.489 159.688 387.514 159.188 386.645C158.687 385.776 157.989 385.038 157.149 384.49C156.821 384.228 156.414 384.085 155.994 384.085C155.574 384.085 155.167 384.228 154.839 384.49L154.709 384.63L151.489 388.17C151.369 388.311 151.279 388.476 151.224 388.652C151.169 388.829 151.15 389.016 151.169 389.2Z" fill="#5A37BD"/>
<path opacity="0.1" d="M152.999 388.16C151.999 387.59 151.199 388.05 151.199 389.16C151.233 389.786 151.413 390.396 151.726 390.94C152.039 391.483 152.475 391.946 152.999 392.29C153.999 392.86 154.799 392.39 154.799 391.24C154.758 390.622 154.574 390.023 154.262 389.488C153.949 388.954 153.517 388.499 152.999 388.16Z" fill="black"/>
<path d="M267.17 321.15C267.396 321.045 267.646 321.002 267.894 321.027C268.142 321.051 268.379 321.142 268.58 321.29C269.159 321.664 269.642 322.17 269.99 322.766C270.337 323.362 270.539 324.031 270.58 324.72C270.608 324.966 270.569 325.215 270.467 325.44C270.364 325.665 270.203 325.859 270 326L249 338.1C249.164 337.949 249.292 337.762 249.373 337.554C249.455 337.346 249.488 337.123 249.47 336.9C249.432 336.208 249.231 335.535 248.883 334.935C248.536 334.336 248.051 333.827 247.47 333.45C247.283 333.318 247.069 333.232 246.843 333.199C246.617 333.166 246.386 333.187 246.17 333.26L267.17 321.15Z" fill="#FAFAFA"/>
<path d="M266.59 322.43C266.63 323.12 266.832 323.791 267.18 324.388C267.527 324.986 268.01 325.493 268.59 325.87C268.779 326.044 269.019 326.153 269.275 326.181C269.53 326.209 269.788 326.155 270.011 326.027C270.234 325.899 270.41 325.703 270.514 325.468C270.618 325.233 270.645 324.971 270.59 324.72C270.549 324.031 270.347 323.362 270 322.766C269.652 322.17 269.169 321.664 268.59 321.29C268.401 321.118 268.162 321.01 267.908 320.982C267.654 320.953 267.397 321.006 267.175 321.133C266.953 321.259 266.777 321.453 266.672 321.686C266.566 321.919 266.538 322.18 266.59 322.43Z" fill="#F5F5F5"/>
<path d="M271 314H271.07L271.15 313.95L279.42 309.18L279.62 309.07C280.181 308.852 280.787 308.777 281.384 308.852C281.981 308.927 282.55 309.15 283.04 309.5C284.501 310.46 285.715 311.75 286.583 313.267C287.452 314.784 287.951 316.484 288.04 318.23C288.107 318.86 288.004 319.496 287.742 320.073C287.48 320.65 287.068 321.146 286.55 321.51L278.18 326.34H278.13C277.561 326.578 276.942 326.668 276.329 326.599C275.717 326.531 275.132 326.308 274.63 325.95C273.17 324.987 271.957 323.694 271.088 322.176C270.22 320.658 269.72 318.957 269.63 317.21C269.568 316.603 269.661 315.99 269.901 315.428C270.141 314.867 270.519 314.376 271 314Z" fill="#5A37BD"/>
<path opacity="0.05" d="M271 314H271.07L271.15 313.95L279.42 309.18L279.62 309.07C280.181 308.852 280.787 308.777 281.384 308.852C281.981 308.927 282.55 309.15 283.04 309.5C284.501 310.46 285.715 311.75 286.583 313.267C287.452 314.784 287.951 316.484 288.04 318.23C288.107 318.86 288.004 319.496 287.742 320.073C287.48 320.65 287.068 321.146 286.55 321.51L278.18 326.34H278.13C277.561 326.578 276.942 326.668 276.329 326.599C275.717 326.531 275.132 326.308 274.63 325.95C273.17 324.987 271.957 323.694 271.088 322.176C270.22 320.658 269.72 318.957 269.63 317.21C269.568 316.603 269.661 315.99 269.901 315.428C270.141 314.867 270.519 314.376 271 314Z" fill="black"/>
<path opacity="0.1" d="M274.689 314.23C271.909 312.62 269.689 313.93 269.689 317.14C269.78 318.887 270.279 320.588 271.148 322.106C272.016 323.624 273.229 324.917 274.689 325.88C277.479 327.49 279.739 326.18 279.739 322.97C279.644 321.219 279.138 319.514 278.26 317.996C277.383 316.477 276.159 315.187 274.689 314.23Z" fill="black"/>
<path d="M148.88 391.18L152.3 389.12C152.404 389.063 152.523 389.038 152.642 389.046C152.761 389.055 152.874 389.098 152.97 389.17C153.242 389.342 153.469 389.577 153.631 389.856C153.793 390.135 153.885 390.448 153.9 390.77C153.909 390.885 153.889 391 153.842 391.105C153.795 391.21 153.722 391.301 153.63 391.37L150.22 393.43C150.022 393.534 149.803 393.589 149.58 393.59C149.232 393.59 148.899 393.452 148.653 393.206C148.408 392.961 148.27 392.627 148.27 392.28C148.27 392.06 148.326 391.844 148.433 391.651C148.539 391.459 148.693 391.297 148.88 391.18Z" fill="#455A64"/>
<path d="M148.68 391.33L148.86 391.18C148.961 391.15 149.068 391.143 149.172 391.16C149.276 391.178 149.374 391.219 149.46 391.28C149.731 391.453 149.955 391.689 150.116 391.967C150.276 392.246 150.366 392.559 150.38 392.88C150.392 392.992 150.374 393.106 150.328 393.209C150.283 393.313 150.211 393.403 150.12 393.47H150.05H149.98C149.847 393.523 149.703 393.547 149.56 393.54C149.213 393.54 148.879 393.402 148.634 393.156C148.388 392.911 148.25 392.577 148.25 392.23C148.271 391.886 148.425 391.563 148.68 391.33Z" fill="#263238"/>
<path d="M82.6697 400.31L79.1797 398.31C78.5987 397.932 78.1149 397.423 77.7675 396.824C77.42 396.224 77.2186 395.552 77.1797 394.86V136.29C77.2178 135.598 77.4189 134.925 77.7664 134.325C78.114 133.726 78.5982 133.217 79.1797 132.84L239.58 40.2298C240.199 39.913 240.884 39.7478 241.58 39.7478C242.275 39.7478 242.961 39.913 243.58 40.2298L247.07 42.2298C247.651 42.6074 248.134 43.1165 248.482 43.7159C248.829 44.3153 249.031 44.9881 249.07 45.6798V304.25C249.032 304.942 248.832 305.615 248.484 306.215C248.136 306.815 247.652 307.324 247.07 307.7L86.6497 400.31C86.0337 400.625 85.3516 400.789 84.6597 400.789C83.9678 400.789 83.2857 400.625 82.6697 400.31Z" fill="#5A37BD"/>
<path opacity="0.4" d="M249 45.3699C248.87 44.3699 248 43.9599 247 44.5399L86.6498 137.15C86.0648 137.519 85.5804 138.028 85.2398 138.63L77.7598 134.32C78.1004 133.718 78.5848 133.209 79.1698 132.84L239.58 40.2299C240.198 39.9115 240.884 39.7454 241.58 39.7454C242.275 39.7454 242.961 39.9115 243.58 40.2299L247.08 42.2299C247.606 42.5851 248.05 43.0493 248.381 43.5911C248.713 44.1328 248.923 44.7395 249 45.3699Z" fill="white"/>
<path opacity="0.15" d="M86.2988 400.47C86.2591 400.478 86.2184 400.478 86.1787 400.47L85.9788 400.54H85.8988C85.7788 400.54 85.6587 400.6 85.5287 400.63C84.736 400.78 83.9175 400.714 83.1588 400.44C83.0078 400.383 82.8608 400.316 82.7188 400.24L79.2188 398.24C78.6395 397.861 78.1569 397.351 77.8096 396.752C77.4624 396.153 77.26 395.481 77.2188 394.79V136.29C77.2416 135.585 77.441 134.897 77.7988 134.29L85.2787 138.6C84.9087 139.203 84.7051 139.893 84.6888 140.6V399.17C84.6671 399.545 84.7767 399.916 84.9987 400.22C85.1218 400.375 85.2883 400.49 85.4771 400.551C85.6658 400.611 85.8683 400.615 86.0587 400.56C86.1415 400.538 86.2219 400.508 86.2988 400.47Z" fill="black"/>
<path d="M198.94 87.8398L198.65 87.6599L195.34 85.7598C194.136 85.0887 192.828 84.6256 191.47 84.3898C190.9 84.2598 190.39 84.1098 189.94 83.9598C189.44 83.7964 188.953 83.5993 188.48 83.3699L188.72 83.0598L185 80.8898C184.686 80.7147 184.349 80.5835 184 80.4998C182.59 80.1498 180.48 80.9699 178.38 80.7299C177.615 80.6552 176.877 80.413 176.217 80.0207C175.556 79.6284 174.991 79.0955 174.56 78.4598C173.28 76.7398 172.51 73.7299 171.38 71.2299L172.38 69.7798C172.28 69.7173 172.176 69.6605 172.07 69.6098L168.64 67.6098C168.061 67.269 167.401 67.0895 166.73 67.0898C165.448 67.1575 164.206 67.561 163.13 68.2599C154.92 73.0099 154.64 84.2598 151.68 91.6798C148.72 99.0998 144.53 101.41 142.25 104.6C139.97 107.79 139.81 110.15 134.76 117.11C129.71 124.07 129.51 125.77 129.51 127.11V137.48L133.25 139.64L200.47 100.81L198.94 87.8398ZM137.3 127.84C136.43 128.33 135.71 127.66 135.71 126.31C135.701 125.664 135.84 125.025 136.116 124.441C136.391 123.857 136.796 123.344 137.3 122.94C138.17 122.44 138.88 123.13 138.88 124.48C138.887 125.12 138.748 125.753 138.475 126.332C138.201 126.911 137.799 127.419 137.3 127.82V127.84ZM166.83 98.7299C166.406 99.0389 165.916 99.2452 165.399 99.3322C164.882 99.4193 164.352 99.3848 163.85 99.2316C163.348 99.0783 162.889 98.8104 162.509 98.4491C162.129 98.0878 161.838 97.643 161.66 97.1498C159.05 97.6498 157.11 95.1498 157.11 90.8098C157.11 85.7098 159.8 80.0399 163.11 78.1199C163.534 77.811 164.025 77.6052 164.542 77.5188C165.06 77.4323 165.591 77.4677 166.092 77.622C166.594 77.7762 167.053 78.0452 167.433 78.4076C167.812 78.77 168.102 79.2159 168.28 79.7098C170.89 79.1898 172.82 81.7098 172.82 86.0398C172.82 91.1198 170.15 96.7898 166.83 98.7098V98.7299ZM189.16 97.8898C188.28 98.3998 187.57 97.7199 187.57 96.3699C187.554 95.7231 187.689 95.0815 187.965 94.4964C188.241 93.9112 188.65 93.3988 189.16 92.9998C190.04 92.4898 190.75 93.1698 190.75 94.5198C190.762 95.1632 190.625 95.8005 190.349 96.3818C190.073 96.9631 189.666 97.4725 189.16 97.8699V97.8898Z" fill="#455A64"/>
<path opacity="0.5" d="M137 129.67L129.77 125.5C129.605 126.021 129.524 126.564 129.53 127.11V137.48L133.27 139.64L137 137.48V129.67Z" fill="#37474F"/>
<path opacity="0.5" d="M144.431 116.73L148.171 108.1L142.231 104.62C140.491 107.03 139.981 108.98 137.641 112.81L144.431 116.73Z" fill="#37474F"/>
<path opacity="0.5" d="M159.379 99.48L159.859 96.96C158.209 96.27 157.109 94.04 157.109 90.79C157.109 86.46 159.049 81.73 161.659 79.22L156.479 76.22C154.279 81.22 153.479 87.22 151.659 91.69C151.279 92.69 150.869 93.52 150.459 94.32L159.379 99.48Z" fill="#37474F"/>
<path d="M198.94 87.84L198.65 87.66C197.55 87.1491 196.391 86.773 195.2 86.54C193.246 86.1965 191.425 85.3172 189.94 84C189.565 83.6603 189.156 83.3588 188.72 83.1C188.41 82.9155 188.073 82.7806 187.72 82.7C185.46 82.15 181.34 84.62 178.38 80.78C178.345 80.7443 178.315 80.704 178.29 80.66C176.22 77.88 175.46 71.66 172.36 69.83C172.26 69.7674 172.157 69.7106 172.05 69.66C170.77 69.06 169.11 69.17 166.83 70.47C158.62 75.22 158.34 86.47 155.38 93.89C152.42 101.31 148.24 103.62 145.96 106.81C143.68 110 143.53 112.36 138.47 119.32C133.41 126.28 133.23 127.99 133.23 129.32V139.7L200.45 100.87V90.45C200.501 89.9119 200.383 89.3715 200.112 88.9037C199.842 88.4359 199.432 88.0641 198.94 87.84ZM141 130C140.12 130.51 139.41 129.83 139.41 128.47C139.398 127.825 139.536 127.186 139.811 126.604C140.087 126.021 140.494 125.509 141 125.11C141.88 124.6 142.58 125.29 142.58 126.64C142.594 127.284 142.458 127.922 142.184 128.505C141.91 129.088 141.505 129.599 141 130ZM166.8 98.74C166.377 99.049 165.887 99.2553 165.37 99.3424C164.853 99.4294 164.322 99.395 163.821 99.2417C163.319 99.0884 162.86 98.8205 162.48 98.4592C162.1 98.0979 161.809 97.6531 161.63 97.16C161.043 95.8434 160.763 94.4107 160.81 92.97C160.81 87.88 163.49 82.2 166.81 80.29C167.259 80.0213 167.749 79.8287 168.26 79.72C170.87 79.2 172.8 81.72 172.8 86.05C172.82 91.12 170.15 96.79 166.83 98.71L166.8 98.74ZM192.89 100C192.01 100.51 191.3 99.83 191.3 98.49C191.286 97.8449 191.422 97.2053 191.698 96.622C191.974 96.0387 192.382 95.5279 192.89 95.13C193.76 94.62 194.47 95.3 194.47 96.65C194.483 97.2923 194.347 97.9289 194.073 98.51C193.799 99.0911 193.394 99.601 192.89 100Z" fill="#37474F"/>
<path d="M172.82 85.9999C172.82 91.0999 170.15 96.7699 166.82 98.6899C166.397 98.999 165.907 99.2052 165.39 99.2923C164.873 99.3794 164.342 99.3449 163.841 99.1917C163.339 99.0384 162.88 98.7705 162.5 98.4092C162.12 98.0479 161.829 97.6031 161.65 97.1099C162.161 96.9969 162.65 96.8045 163.1 96.5399C166.41 94.6199 169.1 88.9499 169.1 83.8499C169.144 82.4127 168.864 80.9842 168.28 79.6699C170.89 79.1699 172.82 81.6799 172.82 85.9999Z" fill="#263238"/>
<path d="M140.999 130C140.119 130.5 139.409 129.82 139.409 128.48C139.397 127.834 139.534 127.193 139.81 126.609C140.086 126.024 140.492 125.511 140.999 125.11C141.869 124.6 142.579 125.3 142.579 126.64C142.59 127.283 142.453 127.921 142.179 128.503C141.905 129.086 141.502 129.598 140.999 130Z" fill="#263238"/>
<path d="M192.89 99.9999C192.01 100.5 191.3 99.8299 191.3 98.4799C191.287 97.8337 191.425 97.1934 191.7 96.6089C191.976 96.0244 192.383 95.5114 192.89 95.1099C193.76 94.6099 194.47 95.2999 194.47 96.6499C194.48 97.2919 194.343 97.9277 194.069 98.5085C193.795 99.0892 193.391 99.5994 192.89 99.9999Z" fill="#263238"/>
<path d="M97.0594 161.34L236.639 80.7498C237.01 80.5626 237.419 80.4651 237.834 80.4651C238.25 80.4651 238.659 80.5626 239.029 80.7498L240.379 81.5298C240.726 81.7571 241.015 82.063 241.222 82.4226C241.429 82.7823 241.548 83.1856 241.569 83.5998V296.54C241.549 296.954 241.431 297.358 241.224 297.718C241.017 298.078 240.728 298.384 240.379 298.61L100.799 379.2C100.429 379.387 100.02 379.485 99.6044 379.485C99.1892 379.485 98.7799 379.387 98.4094 379.2L97.0594 378.42C96.7099 378.194 96.4189 377.889 96.2103 377.529C96.0017 377.169 95.8815 376.765 95.8594 376.35V163.41C95.883 162.995 96.004 162.591 96.2125 162.232C96.4209 161.872 96.711 161.567 97.0594 161.34Z" fill="#F5F5F5"/>
<path d="M241.529 83.2398C241.379 82.7498 240.919 82.5898 240.379 82.9098L100.799 163.5C100.439 163.713 100.145 164.021 99.949 164.39L96.209 162.24C96.411 161.872 96.7036 161.562 97.059 161.34L236.639 80.7498C237.01 80.5626 237.419 80.4651 237.834 80.4651C238.249 80.4651 238.658 80.5626 239.029 80.7498L240.379 81.5298C240.675 81.7236 240.93 81.9748 241.127 82.2685C241.325 82.5622 241.461 82.8924 241.529 83.2398Z" fill="#FAFAFA"/>
<path d="M100.509 379.33C100.366 379.382 100.219 379.422 100.069 379.45H99.8391C99.5964 379.475 99.3518 379.475 99.1091 379.45C98.9598 379.421 98.8127 379.38 98.6691 379.33L98.3991 379.2L97.0591 378.43C96.7126 378.202 96.4245 377.896 96.2178 377.537C96.0111 377.177 95.8917 376.774 95.8691 376.36V163.41C95.8762 162.997 95.9936 162.593 96.2091 162.24L99.9491 164.39C99.7363 164.748 99.6161 165.154 99.5991 165.57V378.51C99.5991 379.16 99.9991 379.48 100.509 379.33Z" fill="#E0E0E0"/>
<path d="M210.131 110.91L206.411 108.76C205.827 108.474 205.182 108.334 204.532 108.353C203.882 108.372 203.247 108.55 202.681 108.87C198.341 110.78 196.461 111.65 194.221 112.59L192.601 113.24C191.721 113.59 189.971 113.29 190.511 110.24L196.281 94.7099H196.191L192.541 92.5999C192.355 92.4835 192.147 92.4085 191.931 92.3799C191.821 92.3799 191.681 92.3799 191.531 92.3799C189.171 92.3199 188.531 77.0899 188.481 76.6199L188.311 76.5299L184.701 74.4499C184.073 74.094 183.362 73.9144 182.641 73.9299C181.434 73.9855 180.258 74.3284 179.211 74.9299C173.541 77.9299 167.811 86.7399 166.411 94.6699C165.531 99.6699 160.501 107.37 157.591 110.21C154.681 113.05 154.481 115.41 154.481 115.41L152.221 128.23L151.491 132.34C150.961 135.4 147.821 138.34 147.821 138.34L136.111 147C128.781 153.08 126.711 159.23 125.311 166.83V166.89C125.311 167.16 125.311 167.34 125.441 167.41C125.46 167.422 125.482 167.429 125.506 167.429C125.529 167.429 125.551 167.422 125.571 167.41L127.071 166.56L207.631 120.1C207.82 119.971 207.982 119.805 208.107 119.613C208.233 119.421 208.319 119.205 208.361 118.98C208.821 116.21 210.161 110.98 210.161 110.98L210.131 110.91ZM186.841 87.3799C185.971 92.2499 182.461 97.6899 178.971 99.5199C176.561 100.78 174.801 99.9999 174.211 97.7799C173.777 97.9495 173.308 98.0072 172.847 97.9478C172.386 97.8884 171.947 97.7137 171.571 97.4399C170.451 96.5599 180.711 78.9399 181.571 79.3299C181.97 79.5406 182.317 79.8388 182.586 80.2025C182.854 80.5661 183.037 80.9857 183.121 81.4299C186.001 80.5599 187.611 82.9999 186.841 87.3799Z" fill="#455A64"/>
<path opacity="0.5" d="M137 155.56L131.13 152.17C127.73 156.65 126.36 161.36 125.35 166.83V166.89C125.35 167.16 125.35 167.34 125.48 167.41C125.499 167.422 125.522 167.429 125.545 167.429C125.568 167.429 125.59 167.422 125.61 167.41L130.24 163.75L137 155.56Z" fill="#37474F"/>
<path opacity="0.5" d="M151.1 133.53L159.38 138.3L163.11 116.73L155.65 112.42C155.056 113.273 154.656 114.246 154.48 115.27L152.22 128.09L151.49 132.2C151.407 132.656 151.277 133.102 151.1 133.53Z" fill="#37474F"/>
<path opacity="0.5" d="M170.33 84.23C168.444 87.4136 167.118 90.8975 166.41 94.53C165.816 97.1045 164.831 99.5731 163.49 101.85L170.58 105.95L174.11 97.8C173.69 97.9518 173.238 97.9984 172.796 97.9356C172.353 97.8728 171.932 97.7027 171.57 97.44C170.99 96.98 173.43 92.11 176.04 87.53L170.33 84.23Z" fill="#37474F"/>
<path d="M210.179 110.94H210.129C209.544 110.664 208.902 110.53 208.255 110.551C207.608 110.572 206.975 110.746 206.409 111.06C201.089 113.41 199.479 114.18 196.319 115.43C195.479 115.77 193.769 115.5 194.219 112.62C194.214 112.553 194.214 112.487 194.219 112.42L194.949 108.32L196.949 97.15C196.949 97.15 197.409 95.39 196.249 94.73H196.159C195.868 94.5954 195.55 94.5271 195.229 94.53C194.55 94.4483 193.898 94.2143 193.321 93.8455C192.744 93.4767 192.258 92.9826 191.899 92.4C191.276 91.4717 190.845 90.4283 190.63 89.331C190.415 88.2338 190.422 87.1047 190.649 86.01C191.499 81.22 190.569 77.86 188.449 76.61L188.279 76.51C186.909 75.78 185.069 75.9 182.919 77.03C177.239 80.03 171.509 88.84 170.119 96.77C169.229 101.77 164.199 109.48 161.289 112.31C158.379 115.14 158.189 117.51 158.189 117.51L155.999 130.26L155.279 134.36C154.739 137.42 151.599 140.36 151.599 140.36L139.899 149.14C135.23 152.857 131.859 157.958 130.269 163.71C130.269 163.71 125.879 167.12 125.609 167.39L127.109 166.54L207.899 120.1C207.899 120.1 208.819 119.59 209.029 119.46C209.239 119.33 212.489 116.26 212.489 116.26C212.309 113.64 211.529 111.75 210.179 110.94ZM186.839 87.38C185.969 92.25 182.459 97.69 178.969 99.52C176.559 100.78 174.799 100 174.209 97.78C173.946 96.5338 173.946 95.2462 174.209 94C175.079 89.12 178.599 83.69 182.089 81.87C182.409 81.6946 182.744 81.5473 183.089 81.43C185.999 80.56 187.609 83 186.839 87.38Z" fill="#37474F"/>
<path d="M186.839 87.3799C185.969 92.2499 182.459 97.6899 178.969 99.5199C176.559 100.78 174.799 99.9999 174.209 97.7799C174.553 97.6663 174.887 97.5259 175.209 97.3599C178.709 95.5299 182.209 90.0899 183.079 85.2099C183.341 83.9635 183.341 82.6762 183.079 81.4299C185.999 80.5599 187.609 82.9999 186.839 87.3799Z" fill="#263238"/>
<path d="M183.469 81.6399C183.796 81.6201 184.123 81.6853 184.417 81.8289C184.711 81.9726 184.964 82.19 185.149 82.4599C186.599 84.5199 185.209 89.7599 184.609 91.4599C183.779 93.7899 178.359 99.2699 176.869 99.2699C176.376 99.1885 175.904 99.0072 175.482 98.7373C175.061 98.4674 174.699 98.1144 174.419 97.6999C174.173 96.499 174.173 95.2607 174.419 94.0599C175.269 89.2399 178.749 83.8799 182.179 82.0599C182.485 81.8987 182.802 81.7616 183.129 81.6499H183.459L183.469 81.6399ZM183.459 81.4199H183.089C182.744 81.5372 182.409 81.6844 182.089 81.8599C178.599 83.6799 175.089 89.1099 174.209 93.9899C173.946 95.2361 173.946 96.5236 174.209 97.7699C174.51 98.2202 174.901 98.6036 175.357 98.8961C175.813 99.1886 176.324 99.3839 176.859 99.4699C178.479 99.4699 183.929 93.9399 184.799 91.4699C185.669 88.9999 187.559 81.3599 183.439 81.3599L183.459 81.4199Z" fill="#263238"/>
<path d="M125.57 167.42L207.85 120.12L208.99 119.49C209.19 119.37 212.44 116.28 212.44 116.28L130.22 163.74C130.22 163.74 125.24 167.6 125.57 167.42Z" fill="#263238"/>
<path d="M114.539 200.59V202.46C114.539 203.46 115.259 203.89 116.139 203.38L224.999 140.52C225.463 140.217 225.85 139.81 226.128 139.33C226.406 138.851 226.567 138.313 226.599 137.76V135.88C226.599 134.88 225.879 134.45 224.999 134.96L116.139 197.83C115.674 198.132 115.287 198.539 115.009 199.019C114.732 199.498 114.57 200.037 114.539 200.59Z" fill="#E0E0E0"/>
<path d="M114.539 211.9V213.77C114.539 214.77 115.259 215.2 116.139 214.69L224.999 151.82C225.464 151.518 225.851 151.11 226.129 150.631C226.407 150.151 226.568 149.613 226.599 149.06V147.18C226.599 146.18 225.879 145.76 224.999 146.26L116.139 209.14C115.674 209.442 115.287 209.849 115.009 210.329C114.732 210.808 114.57 211.346 114.539 211.9Z" fill="#E0E0E0"/>
<path d="M114.539 223.14V225C114.539 226 115.259 226.43 116.139 225.92L224.999 163.07C225.463 162.767 225.85 162.36 226.128 161.88C226.406 161.401 226.567 160.863 226.599 160.31V158.43C226.599 157.43 225.879 157 224.999 157.51L116.139 220.38C115.674 220.682 115.287 221.089 115.009 221.569C114.732 222.048 114.57 222.587 114.539 223.14Z" fill="#E0E0E0"/>
<path d="M114.539 248.05V249.92C114.539 250.92 115.259 251.35 116.139 250.84L224.999 188C225.464 187.698 225.851 187.291 226.129 186.811C226.407 186.332 226.568 185.793 226.599 185.24V183.36C226.599 182.36 225.879 181.94 224.999 182.44L116.139 245.29C115.674 245.592 115.287 245.999 115.009 246.479C114.732 246.958 114.57 247.497 114.539 248.05Z" fill="#E0E0E0"/>
<path d="M114.539 259.35V261.23C114.539 262.23 115.259 262.65 116.139 262.15L224.999 199.28C225.464 198.978 225.851 198.571 226.129 198.091C226.407 197.612 226.568 197.073 226.599 196.52V194.64C226.599 193.64 225.879 193.21 224.999 193.72L116.139 256.59C115.675 256.893 115.288 257.3 115.011 257.78C114.733 258.259 114.571 258.797 114.539 259.35Z" fill="#E0E0E0"/>
<path d="M114.539 270.6V272.47C114.539 273.47 115.259 273.9 116.139 273.39L224.999 210.52C225.464 210.218 225.851 209.811 226.129 209.331C226.407 208.852 226.568 208.313 226.599 207.76V205.88C226.599 204.88 225.879 204.46 224.999 204.96L116.139 267.84C115.674 268.142 115.287 268.549 115.009 269.029C114.732 269.508 114.57 270.047 114.539 270.6Z" fill="#E0E0E0"/>
<path d="M114.539 295.5V297.38C114.539 298.38 115.259 298.8 116.139 298.3L224.999 235.43C225.464 235.128 225.851 234.72 226.129 234.241C226.407 233.761 226.568 233.223 226.599 232.67V230.79C226.599 229.79 225.879 229.36 224.999 229.87L116.139 292.74C115.675 293.043 115.288 293.45 115.011 293.929C114.733 294.409 114.571 294.947 114.539 295.5Z" fill="#E0E0E0"/>
<path d="M114.539 306.81V308.68C114.539 309.68 115.259 310.11 116.139 309.6L224.999 246.73C225.463 246.43 225.85 246.025 226.129 245.547C226.407 245.069 226.568 244.532 226.599 243.98V242.1C226.599 241.1 225.879 240.67 224.999 241.18L116.139 304.05C115.674 304.352 115.287 304.759 115.009 305.239C114.732 305.718 114.57 306.257 114.539 306.81Z" fill="#E0E0E0"/>
<path d="M114.539 318.05V319.93C114.539 320.93 115.259 321.35 116.139 320.85L224.999 258C225.464 257.698 225.851 257.291 226.129 256.811C226.407 256.332 226.568 255.793 226.599 255.24V253.36C226.599 252.36 225.879 251.93 224.999 252.44L116.139 315.29C115.675 315.593 115.288 316 115.011 316.479C114.733 316.959 114.571 317.497 114.539 318.05Z" fill="#E0E0E0"/>
<path d="M170.58 319.56L226.63 287.21V288.29L170.58 320.64V319.56Z" fill="#E0E0E0"/>
<path d="M183.62 302.76C185.95 301.2 188.55 298.57 188.13 295.46C187.88 293.57 186.34 292.84 184.6 293.51C181.19 294.82 179.04 299.95 177.85 303.05C176.85 305.76 175.48 310.87 179.55 311.74C184.32 312.74 188.01 305.74 189.09 302.1C189.24 301.59 188.41 301.31 188.17 301.77C187.75 302.6 184.94 308.08 188.03 307.39C189.13 307.15 189.76 305.44 190.16 304.57C190.86 303.01 191.21 300.84 192.31 299.5L191.5 299.13C191.55 300.57 191.5 301.55 192.5 302.67C192.576 302.774 192.69 302.844 192.818 302.864C192.945 302.885 193.075 302.855 193.18 302.78C194.76 301.31 194.87 298.92 196.61 297.59L195.9 297.25C195.9 297.71 195.69 299.02 195.66 299.63C195.66 299.92 196.05 300.11 196.28 300.02C196.506 299.973 196.716 299.87 196.891 299.719C197.066 299.569 197.2 299.376 197.28 299.16L196.52 298.88C197.18 302.41 200.19 298.88 201.22 297.54C204.22 293.54 206.36 289.25 206.44 284.13C206.44 283.72 205.67 283.51 205.66 284C205.59 287.94 203.87 291.55 202.76 295.27C201.57 299.27 200.58 303.36 199.76 307.48L200.47 307.74C200.696 304.824 201.441 301.973 202.67 299.32C203.446 296.957 204.741 294.797 206.46 293L205.8 292.75C205.975 293.778 205.922 294.832 205.645 295.837C205.369 296.843 204.876 297.775 204.2 298.57C203.99 298.84 204.46 299.35 204.67 299.08C205.77 297.7 207.58 297.26 208.76 295.92C209.869 294.414 210.856 292.823 211.71 291.16L211.17 290.89C211.1 294.25 214.27 289.01 214.7 288.45L214.18 288.25C214.39 288.94 214.67 289.4 215.45 289.41C217 289.41 217.58 287.15 218.75 286.89C218.75 286.89 219.26 287.32 219.44 287.34C220.085 287.434 220.743 287.311 221.31 286.99C222.618 286.144 223.675 284.963 224.37 283.57C224.55 283.25 223.94 282.85 223.74 283.2C222.97 284.5 220.57 287.95 218.83 286.26C218.72 286.16 218.49 286.06 218.37 286.2C217.9 286.78 215.21 289.86 214.71 288.2C214.65 288 214.36 287.78 214.2 288C213.79 288.54 213.46 289.14 213.08 289.71C212.87 290.02 211.7 291.99 211.74 290.99C211.74 290.75 211.37 290.47 211.2 290.72C210.11 292.39 209.31 294.58 207.79 295.94C206.66 296.94 205.18 297.32 204.2 298.53L204.67 299.04C205.426 298.188 205.982 297.18 206.298 296.086C206.615 294.993 206.684 293.843 206.5 292.72C206.485 292.651 206.454 292.587 206.408 292.534C206.362 292.481 206.304 292.44 206.238 292.415C206.173 292.39 206.102 292.382 206.032 292.392C205.963 292.401 205.897 292.428 205.84 292.47C203.97 294.19 202.92 296.61 201.99 298.93C200.742 301.639 199.984 304.547 199.75 307.52C199.75 307.83 200.38 308.18 200.46 307.78C201.305 303.334 202.404 298.94 203.75 294.62C204.85 291.14 206.34 287.79 206.41 284.09L205.63 283.96C205.556 287.791 204.349 291.514 202.16 294.66C201.6 295.53 201.01 296.4 200.37 297.22C200.09 297.59 197.61 300.83 197.29 298.95C197.24 298.68 196.71 298.3 196.53 298.67L195.81 299.31L196.43 299.69C196.48 298.88 196.64 298.12 196.68 297.3C196.68 296.99 196.2 296.79 195.97 296.97C194.2 298.32 194.07 300.71 192.48 302.18L193.16 302.29C192.62 301.385 192.356 300.342 192.4 299.29C192.4 298.94 191.86 298.6 191.59 298.92C190.37 300.38 189.99 302.71 189.19 304.41C188.75 305.34 187.19 307.82 187.69 305.18C188.021 304.086 188.495 303.04 189.1 302.07L188.18 301.74C187.24 304.92 184.73 309.74 181.3 310.74C176.92 312.05 177.68 306.62 178.48 304.2C179.432 301.38 180.844 298.738 182.66 296.38C182.993 295.91 183.371 295.475 183.79 295.08C184.68 294.28 184.94 294.08 186.18 294.79C187.42 295.5 187.48 295.89 187.18 297.23C186.997 297.895 186.721 298.531 186.36 299.12C185.568 300.328 184.574 301.39 183.42 302.26C183.26 302.39 183.49 302.82 183.67 302.69L183.62 302.76Z" fill="#455A64"/>
<path d="M318 240.38C314.38 239.52 310.39 242.1 308.06 247.78C305.73 253.46 301.06 267.98 300.06 271.78C299.62 273.48 312.54 288.54 312.06 288.32C311.92 288.25 316.27 280.97 316.27 280.97L310 271.32L314 260.85L318 240.38Z" fill="#B16668"/>
<path d="M309.619 375.18C309.129 375.37 308.999 376.3 308.929 378.18C308.869 379.59 308.569 382.04 310.219 382.53C311.869 383.02 314.279 382.77 315.339 381.45C316.615 379.672 317.98 377.96 319.429 376.32C321.059 374.56 322.819 372.93 323.479 370.47C324.079 368.25 323.579 367.29 322.069 366.64C319.979 365.76 316.709 368.64 315.069 369.11C313.679 369.49 310.109 375 309.619 375.18Z" fill="#263238"/>
<path d="M309.619 373.46V375.74C310.476 376.288 311.465 376.592 312.482 376.621C313.498 376.649 314.504 376.4 315.389 375.9C315.489 375.68 315.989 372.63 315.989 372.63L309.619 373.46Z" fill="#B16668"/>
<path d="M326.6 387.31C326.205 388.533 325.871 389.774 325.6 391.03C325.31 392.41 324.91 394.72 325.4 395.75C325.89 396.78 327.76 397.46 330.69 397.44C332.58 397.44 335.53 398.71 337.55 399.84C339.58 400.835 341.876 401.154 344.1 400.75C346.7 400.44 349.4 398.93 349.82 397.86C350.24 396.79 349.7 396.26 343.57 393.65C343.51 393.65 337.11 390.73 334.14 387.46L326.6 387.31Z" fill="#263238"/>
<path d="M326.6 384.84C326.6 384.84 326.6 386.53 326.6 387.5C326.6 388.47 327.74 389.91 330.7 389.81C332.78 389.73 334.23 389.17 334.14 387.46V385L326.6 384.84Z" fill="#B16668"/>
<path d="M307.369 341.82C307.86 337.815 308.795 333.877 310.159 330.08C310.159 330.08 308.869 319.98 308.159 310.28C306.829 292.89 307.899 287.21 311.319 279.41C311.319 279.41 340.489 276.41 341.379 288.58C342.489 303.68 341.019 332.86 340.619 338.19C340.219 343.52 339.719 345.93 337.839 357.07C336.399 365.55 334.179 385 334.179 385C333.006 385.595 331.704 385.892 330.389 385.864C329.074 385.836 327.786 385.485 326.639 384.84C326.639 384.84 324.259 360.56 324.509 354.41C324.685 349.859 325.455 345.351 326.799 341C326.799 341 324.989 316.39 324.469 312.47C324.469 312.47 323.549 320.28 323.149 325.61C322.749 330.94 321.149 336.04 319.629 345.95C318.289 354.54 315.799 373.75 315.799 373.75C311.929 375.85 309.619 373.48 309.619 373.48C309.619 373.48 306.329 349.27 307.369 341.82Z" fill="#5A37BD"/>
<g opacity="0.35">
<path d="M307.369 341.82C307.86 337.815 308.795 333.877 310.159 330.08C310.159 330.08 308.869 319.98 308.159 310.28C306.829 292.89 307.899 287.21 311.319 279.41C311.319 279.41 340.489 276.41 341.379 288.58C342.489 303.68 341.019 332.86 340.619 338.19C340.219 343.52 339.719 345.93 337.839 357.07C336.399 365.55 334.179 385 334.179 385C333.006 385.595 331.704 385.892 330.389 385.864C329.074 385.836 327.786 385.485 326.639 384.84C326.639 384.84 324.259 360.56 324.509 354.41C324.685 349.859 325.455 345.351 326.799 341C326.799 341 324.989 316.39 324.469 312.47C324.469 312.47 323.549 320.28 323.149 325.61C322.749 330.94 321.149 336.04 319.629 345.95C318.289 354.54 315.799 373.75 315.799 373.75C311.929 375.85 309.619 373.48 309.619 373.48C309.619 373.48 306.329 349.27 307.369 341.82Z" fill="black"/>
</g>
<path d="M332.909 236.45L331.539 247.72L321.629 246.83L322.759 234.32L332.909 236.45Z" fill="#B16668"/>
<path d="M310.75 246C311.84 243 315.55 239.73 319.36 240.44L322.16 240.95C322.24 243.55 327.16 244.89 332.02 243.32C333.48 243.74 334.83 244.17 336.02 244.6C339.51 245.85 340.91 251.6 341.02 261.34C341.13 271.08 342.13 295.21 342.13 295.21L338 296.52L336.1 289.45L335.33 297.92C330.693 299.002 325.866 298.978 321.24 297.85C310.76 295.56 307.5 289.91 307.5 289.91C308.782 283.37 311.33 277.143 315 271.58C309.76 257.61 309.14 250.43 310.75 246Z" fill="#EBEBEB"/>
<path d="M340.28 222.13C340.873 220.784 341.115 219.309 340.984 217.843C340.853 216.378 340.353 214.97 339.53 213.75C336.2 208.53 329.79 207.64 322.19 209.68C319.538 210.492 317.201 212.104 315.498 214.295C313.796 216.486 312.812 219.149 312.68 221.92C312.31 227.49 327.86 231.6 327.5 235.42L340.28 222.13Z" fill="#263238"/>
<path d="M340.609 224.25C340.609 224.25 342.719 227.63 342.419 227.98C341.897 228.304 341.321 228.534 340.719 228.66L340.609 224.25Z" fill="#9A4A4D"/>
<path d="M334.179 213.54C336.279 214.7 339.919 216.84 340.659 224.74C341.419 232.84 339.539 235.6 338.409 236.63C337.649 237.33 333.799 237.48 331.819 236.81C329.339 235.96 323.979 233.14 321.549 228.9C318.689 223.9 318.249 217.35 321.769 214.9C323.553 213.641 325.628 212.855 327.798 212.617C329.969 212.379 332.164 212.697 334.179 213.54Z" fill="#B16668"/>
<path d="M334.8 213.89C334.8 213.89 336.46 221.31 334.1 225.89C334.1 225.89 332.88 222.98 330.38 223.74C327.88 224.5 328.01 227.83 329.92 229.58C330.408 230.08 331.028 230.432 331.707 230.595C332.387 230.758 333.099 230.725 333.76 230.5C332.918 232.6 331.656 234.506 330.05 236.1C330.05 236.1 322.66 239.39 316.27 232.17C310.46 225.62 311.54 214.17 320.43 211.5C329.32 208.83 334.8 213.89 334.8 213.89Z" fill="#263238"/>
<path d="M313.729 214.66C314.079 214.96 314.295 215.386 314.331 215.846C314.366 216.305 314.218 216.76 313.919 217.11L311.279 214.84C311.428 214.666 311.609 214.524 311.813 214.421C312.017 214.318 312.239 214.256 312.467 214.24C312.695 214.223 312.923 214.251 313.14 214.323C313.357 214.396 313.557 214.51 313.729 214.66Z" fill="#263238"/>
<path d="M361.129 262.49C362.569 260.85 363.129 257.19 365.029 254.69C366.929 252.19 367.649 250.36 368.409 251.45C369.409 252.9 367.149 255.79 367.649 256.08C368.149 256.37 370.029 260.18 370.219 262.3C370.409 264.42 364.799 269.74 364.799 269.74L361.129 262.49Z" fill="#B16668"/>
<path d="M367.49 255.75C367.49 255.75 374.27 255.17 375.26 255.75C376.25 256.33 375.95 259.27 375.26 261.07C374.57 262.87 371.11 264.07 367.9 266.21C367.9 265.89 367.49 255.75 367.49 255.75Z" fill="#B16668"/>
<path d="M335.18 244.33C338.09 245.33 340.64 246.52 343.36 251.63C346.85 258.2 353.21 271.06 353.21 271.06L361.13 262.49C361.13 262.49 362.28 260.87 364.42 264.41C366.56 267.95 365.62 268.93 365.62 268.93C365.62 268.93 356.41 281.27 354.72 282.84C353.03 284.41 350.25 283.19 348.43 280.72C346.61 278.25 335.18 263.94 335.18 263.94C335.18 263.94 328.93 255.72 335.18 244.33Z" fill="#B16668"/>
<path opacity="0.2" d="M324.47 312.45L323.91 306.56C320.736 306.088 317.701 304.938 315.01 303.19C315.01 303.19 316.91 306.19 322.11 307.61L322.65 315.11L322.97 327.41L324.47 312.45Z" fill="black"/>
<path d="M303.699 242.77C305.05 242.774 306.387 242.511 307.636 241.998C308.885 241.484 310.02 240.729 310.977 239.776C311.934 238.823 312.693 237.691 313.212 236.444C313.73 235.197 313.998 233.86 313.999 232.51V216.92C312.822 216.538 311.572 216.44 310.35 216.634C309.128 216.828 307.969 217.308 306.969 218.036C305.968 218.764 305.154 219.718 304.592 220.82C304.031 221.923 303.739 223.143 303.739 224.38L303.699 242.77Z" fill="#263238"/>
<path d="M341.24 271.55C341.24 271.55 335.55 264.21 333.73 261.26L341.44 277.54L341.24 271.55Z" fill="#E0E0E0"/>
<path d="M391.129 211.27C388.969 217.64 384.359 236.64 384.359 236.64C384.359 236.64 375.569 248.33 373.149 250.56C371.809 251.8 368.779 254.03 368.779 254.03L371.299 255.89C371.299 255.89 375.499 254.61 375.849 256.89C380.229 253.367 384.371 249.558 388.249 245.49C389.228 244.468 389.918 243.205 390.249 241.83L393.999 225.7C393.999 225.7 393.999 212.7 395.999 211C397.999 209.3 397.209 205.45 397.209 205.45C395.839 205.49 392.829 206.28 391.129 211.27Z" fill="#FFA8A7"/>
<path d="M397.28 204.81C397.893 206.53 398.635 208.202 399.5 209.81C400.38 211.32 393.65 238.47 393.2 240.49C392.75 242.51 379.7 254.28 379.7 254.28C377.343 253.282 375.469 251.401 374.48 249.04L383.9 236.78C383.9 236.78 386.83 223.92 388.37 218.02C389.91 212.12 391.55 205.45 397.28 204.81Z" fill="#5A37BD"/>
<path opacity="0.1" d="M397.28 204.81C397.893 206.53 398.635 208.202 399.5 209.81C400.38 211.32 393.65 238.47 393.2 240.49C392.75 242.51 379.7 254.28 379.7 254.28C377.343 253.282 375.469 251.401 374.48 249.04L383.9 236.78C383.9 236.78 386.83 223.92 388.37 218.02C389.91 212.12 391.55 205.45 397.28 204.81Z" fill="black"/>
<path d="M424.84 332.4H418.34V343.54H424.84V332.4Z" fill="#FFA8A7"/>
<path d="M398.24 335.1L391.74 335.33L391.42 323.54L398.24 323.32V335.1Z" fill="#FFA8A7"/>
<path d="M423.93 252.91C423.93 259.12 424.36 295.24 424.36 295.24C424.51 297.02 426.23 300.24 426.36 306.64C426.55 315.98 425.11 337.97 425.11 337.97C423.986 338.521 422.756 338.819 421.505 338.843C420.254 338.868 419.013 338.617 417.87 338.11C417.87 338.11 412.76 307.01 411.6 297.76C410.6 289.7 407.07 268.17 407.07 268.17L402.07 295.43C402.824 298.822 403.097 302.302 402.88 305.77C402.57 310.04 398.61 331.45 398.61 331.45C397.477 332.091 396.217 332.476 394.919 332.576C393.621 332.676 392.318 332.49 391.1 332.03C391.1 332.03 390.71 298.42 390.64 294.5C390.55 290.03 392.5 251.56 392.5 251.56L423.93 252.91Z" fill="#37474F"/>
<path d="M418.339 340.33V339.4C417.989 339.4 417.779 339.74 417.639 340.57C417.547 341.19 417.42 341.804 417.259 342.41C416.973 343.549 416.595 344.662 416.129 345.74C415.209 348.01 414.439 348.85 412.329 351.5C411.615 352.234 410.947 353.012 410.329 353.83C409.939 354.53 409.799 356.47 410.469 356.92C412.919 358.56 416.649 358.6 419.289 357.83C420.272 357.554 421.155 357.003 421.834 356.241C422.512 355.478 422.959 354.538 423.119 353.53C423.219 352.93 423.179 352.31 423.249 351.71C423.482 350.338 424.041 349.041 424.879 347.93C425.366 347.288 425.785 346.598 426.129 345.87C426.669 344.54 426.239 343.03 425.889 341.7C425.589 340.55 425.259 339.29 424.889 339.4V340.1C423.963 340.833 422.811 341.222 421.629 341.2C420.639 341.24 418.329 341.05 418.339 340.33Z" fill="#263238"/>
<path d="M391.669 333.32C391.329 333.32 391.059 333.81 390.309 334.62C389.196 335.74 387.905 336.67 386.489 337.37C384.049 338.59 379.319 340.46 377.169 341.43C375.829 342.03 375.899 343.65 377.279 344.57C378.659 345.49 382.009 346.15 386.019 345.26C388.199 344.77 391.019 342.75 392.849 342.86C394.679 342.97 398.019 342.94 399.349 342.02C400.679 341.1 400.149 339.15 399.769 337.47C399.359 335.64 398.849 332.77 398.239 332.9V333.53C397.459 334.72 393.419 335.2 391.709 334.33L391.669 333.32Z" fill="#263238"/>
<path d="M407.08 268.17C403.712 267.13 400.613 265.365 398 263C398 263 399.75 266.28 405 269.32L402.48 293.57L407.08 268.17Z" fill="#263238"/>
<path d="M412.651 205.25C414.871 205.79 419.331 206.52 420.331 210.93C421.531 216.22 421.921 227.75 421.921 227.75L422.331 253.41C417.851 256.67 401.401 258.41 391.971 251.56C391.971 251.56 393.131 220.76 393.131 215.96C393.131 211.16 395.791 205.4 403.131 204.96L412.651 205.25Z" fill="#F5F5F5"/>
<path d="M403.251 204.48C401.228 206.174 399.764 208.44 399.051 210.98C398.151 214.86 398.051 258.19 398.051 258.19C398.051 258.19 393.451 257.34 391.301 255.65C391.301 255.65 391.571 221.45 392.011 215.79C392.681 207.22 392.611 204.79 403.281 203.84L403.251 204.48Z" fill="#5A37BD"/>
<path d="M414.59 203.84C414.59 203.84 408.46 207.61 408.39 222.62C408.33 235.62 407.9 258.19 407.9 258.19C407.9 258.19 418.05 259.68 424.48 255.84C424.48 255.84 425.25 224.38 425.12 219.51C424.98 213.93 423.68 206.72 421.89 206C419.514 205.1 417.074 204.378 414.59 203.84Z" fill="#5A37BD"/>
<path d="M437.389 238.3C431.289 213.36 426.779 205.04 419.389 205.14C417.219 207.72 417.819 215.54 421.239 220.28C421.239 220.28 428.869 236.36 430.079 242.08C431.149 247.08 432.359 253.43 432.289 257.75C432.264 258.514 431.962 259.242 431.439 259.8C430.049 261.31 430.039 262.53 429.139 264.2C428.429 265.5 427.659 265.99 427.879 266.29C428.171 266.6 428.567 266.789 428.991 266.82C429.415 266.852 429.835 266.723 430.169 266.46C430.82 265.986 431.402 265.424 431.899 264.79C431.66 266.39 431.199 267.948 430.529 269.42C428.959 272.95 429.339 274.75 434.109 273.49C437.109 272.7 438.969 270.22 439.409 263.04C439.629 260.399 439.656 257.745 439.489 255.1C438.839 248.3 438.379 242.32 437.389 238.3Z" fill="#FFA8A7"/>
<path d="M418.099 204.73C418.099 204.73 423.009 204.51 425.669 207.2C428.329 209.89 431.919 215.55 435.399 227.92C438.879 240.29 439.949 249.33 440.119 256.29C440.119 256.29 435.759 258.29 431.739 256.01C431.739 256.01 429.959 245.24 428.379 239.51C426.799 233.78 420.909 221.71 420.909 221.71C420.909 221.71 415.279 213.34 418.099 204.73Z" fill="#5A37BD"/>
<path opacity="0.1" d="M418.099 204.73C418.099 204.73 423.009 204.51 425.669 207.2C428.329 209.89 431.919 215.55 435.399 227.92C438.879 240.29 439.949 249.33 440.119 256.29C440.119 256.29 435.759 258.29 431.739 256.01C431.739 256.01 429.959 245.24 428.379 239.51C426.799 233.78 420.909 221.71 420.909 221.71C420.909 221.71 415.279 213.34 418.099 204.73Z" fill="black"/>
<path opacity="0.1" d="M415.279 212.05L412.469 215.52L413.879 219.48L410.189 228.94L414.629 219.48L413.079 215.74L415.279 212.05Z" fill="black"/>
<path opacity="0.1" d="M395.48 210.93L396.09 214.52L393.66 217.69L397.04 228.33L394.42 217.81L396.66 214.85L395.48 210.93Z" fill="black"/>
<path d="M410.96 185.318C411.751 180.445 408.442 175.853 403.568 175.061C398.695 174.27 394.102 177.58 393.311 182.454C392.52 187.327 395.83 191.919 400.703 192.71C405.577 193.502 410.169 190.192 410.96 185.318Z" fill="#263238"/>
<path d="M417.581 190.23C417.581 190.23 416.131 197.04 415.581 198.16C415.192 198.846 414.555 199.358 413.801 199.59L413.901 194.8L417.581 190.23Z" fill="#263238"/>
<path d="M415.761 180.48C416.27 180.423 416.785 180.484 417.267 180.657C417.749 180.83 418.184 181.112 418.541 181.48C419.731 182.7 419.071 186.48 417.541 190.25L414.811 190.56L415.761 180.48Z" fill="#263238"/>
<path d="M414 190.55C414.55 190.87 415.33 189.82 416 189.12C416.263 188.81 416.602 188.573 416.984 188.432C417.366 188.291 417.778 188.251 418.18 188.315C418.582 188.379 418.96 188.546 419.279 188.799C419.598 189.052 419.846 189.383 420 189.76C421.12 192.12 419 195.24 417.3 195.76C414.3 196.7 413.86 194.76 413.86 194.76L413.64 205.87C411.57 208.52 406.93 211.64 404.43 211.19C402.43 210.84 402 207.47 403.91 205.26V202C402.587 202.21 401.246 202.277 399.91 202.2C397.71 201.86 396.33 200.13 395.66 197.75C394.59 193.93 394.18 190.85 395.09 183.33C396.09 175.09 405.67 175.01 410.84 178.26C416.01 181.51 414 190.55 414 190.55Z" fill="#FFA8A7"/>
<path d="M413.999 191.47C414.279 191.47 415.329 189.74 415.999 189.12C416.939 188.26 415.719 180.48 415.719 180.48C416.046 179.796 416.159 179.029 416.043 178.28C415.927 177.531 415.588 176.834 415.069 176.28C413.779 174.86 411.979 173.12 406.069 173.82C401.889 174.31 397.339 175.61 393.659 173.82C393.319 175.02 393.345 176.293 393.733 177.478C394.122 178.663 394.855 179.705 395.839 180.47C397.347 181.218 398.99 181.654 400.669 181.75C403.901 181.994 407.149 181.934 410.369 181.57C411.369 181.43 411.599 182.41 412.149 185.1C412.709 187.45 413.109 191.45 413.999 191.47Z" fill="#263238"/>
<path d="M415.759 181.09L419.069 179.31C418.963 179.087 418.813 178.888 418.627 178.724C418.442 178.561 418.226 178.437 417.991 178.359C417.757 178.282 417.509 178.252 417.263 178.273C417.017 178.294 416.777 178.364 416.559 178.48C416.12 178.733 415.793 179.143 415.644 179.627C415.496 180.112 415.537 180.635 415.759 181.09Z" fill="#263238"/>
<path d="M403.93 202C406.189 201.569 408.405 200.933 410.55 200.1C411.559 199.574 412.385 198.754 412.92 197.75C412.662 198.755 412.202 199.698 411.57 200.52C410.32 202.12 403.93 203.3 403.93 203.3V202Z" fill="#F28F8F"/>
<path d="M405.109 189.32C405.109 189.585 405.215 189.84 405.402 190.027C405.59 190.215 405.844 190.32 406.109 190.32C406.375 190.32 406.629 190.215 406.816 190.027C407.004 189.84 407.109 189.585 407.109 189.32C407.109 189.055 407.004 188.8 406.816 188.613C406.629 188.425 406.375 188.32 406.109 188.32C405.844 188.32 405.59 188.425 405.402 188.613C405.215 188.8 405.109 189.055 405.109 189.32Z" fill="#263238"/>
<path d="M406.15 185.61L408.25 186.77C408.4 186.481 408.432 186.145 408.341 185.832C408.25 185.52 408.042 185.254 407.76 185.09C407.621 185.015 407.468 184.969 407.311 184.954C407.153 184.94 406.995 184.957 406.844 185.006C406.694 185.054 406.555 185.133 406.435 185.237C406.316 185.341 406.219 185.468 406.15 185.61Z" fill="#263238"/>
<path d="M404.369 196.11L402.129 196.95C402.176 197.101 402.254 197.242 402.357 197.362C402.46 197.483 402.586 197.581 402.728 197.651C402.87 197.721 403.025 197.762 403.183 197.77C403.342 197.779 403.5 197.755 403.649 197.7C403.951 197.579 404.195 197.346 404.329 197.05C404.463 196.754 404.477 196.417 404.369 196.11Z" fill="#F28F8F"/>
<path d="M396.339 186.43L398.259 184.95C398.169 184.82 398.053 184.711 397.919 184.627C397.785 184.543 397.636 184.488 397.48 184.463C397.324 184.439 397.165 184.447 397.011 184.486C396.858 184.525 396.715 184.594 396.589 184.69C396.333 184.893 396.165 185.187 396.118 185.51C396.072 185.834 396.151 186.163 396.339 186.43Z" fill="#263238"/>
<path d="M396.93 189C396.93 189.265 397.035 189.52 397.223 189.707C397.41 189.895 397.664 190 397.93 190C398.195 190 398.449 189.895 398.637 189.707C398.824 189.52 398.93 189.265 398.93 189C398.93 188.735 398.824 188.48 398.637 188.293C398.449 188.105 398.195 188 397.93 188C397.664 188 397.41 188.105 397.223 188.293C397.035 188.48 396.93 188.735 396.93 189Z" fill="#263238"/>
<path d="M401.939 188.11L401.619 194.02L398.529 192.97L401.939 188.11Z" fill="#F28F8F"/>
<path d="M400.869 210.55C401.469 211.99 402.589 212.55 404.599 212.8C405.616 212.863 406.636 212.718 407.595 212.374C408.554 212.03 409.433 211.495 410.179 210.8L407.679 208.31L404.489 210.7L404.219 208.03L400.869 210.55Z" fill="#5A37BD"/>
<path opacity="0.1" d="M400.869 210.55C401.469 211.99 402.589 212.55 404.599 212.8C405.616 212.863 406.636 212.718 407.595 212.374C408.554 212.03 409.433 211.495 410.179 210.8L407.679 208.31L404.489 210.7L404.219 208.03L400.869 210.55Z" fill="black"/>
<path d="M402.449 209.77C402.154 210.634 402.042 211.55 402.119 212.46C402.215 213.27 402.526 214.04 403.019 214.69C403.336 214.894 403.696 215.022 404.071 215.064C404.446 215.105 404.825 215.06 405.179 214.93C405.827 214.374 406.347 213.685 406.704 212.911C407.061 212.136 407.247 211.293 407.249 210.44L404.489 210.75L402.449 209.77Z" fill="#5A37BD"/>
<path d="M403 214.69C403 214.69 399.73 232.69 399.6 234.17C399.47 235.65 401.47 240.79 402.72 240.83C403.97 240.87 406.41 236.2 406.44 234.83C406.47 233.46 405.16 214.88 405.16 214.88L403 214.69Z" fill="#5A37BD"/>
<path opacity="0.1" d="M405.18 214.93C404.83 215.084 404.447 215.144 404.067 215.101C403.688 215.059 403.326 214.917 403.02 214.69V214.98C403.331 215.229 403.699 215.399 404.091 215.476C404.482 215.552 404.887 215.533 405.27 215.42L405.18 214.93Z" fill="black"/>
<path d="M404.49 210.75L413.69 203.75V201.67C413.69 201.67 415.83 202.48 416.31 206.25C414.835 209.519 412.312 212.204 409.14 213.88L407.21 210.44L404.49 210.75Z" fill="#E0E0E0"/>
<path d="M403.93 202.62C402.727 202.81 401.649 203.468 400.93 204.45C400.01 205.96 400.22 211.77 400.22 211.77L402.42 209.77L404.42 210.77C404.23 208.84 403.85 205.32 403.85 205.32L403.93 202.62Z" fill="#E0E0E0"/>
<path d="M368 266.27C368.859 265.063 369.362 263.639 369.45 262.16C369.71 260.27 374.89 258.24 375.06 259.65C375.23 261.06 375.7 262.23 374.06 263.94C372.42 265.65 370.41 267.54 368 266.27Z" fill="#FFA8A7"/>
<path d="M368.27 254.06C367.03 255.66 366.27 258.77 365.61 259.82C364.95 260.87 364.17 261.82 365.61 261.97C367.05 262.12 369.14 259.36 369.92 257.66C370.222 256.988 370.682 256.398 371.26 255.94C371.487 255.758 371.74 255.609 372.01 255.5C371.34 255.27 371.69 252.57 371.22 252.2C371.22 252.2 368.78 253.2 368.27 254.06Z" fill="#FFA8A7"/>
</svg>
