<svg width="438" height="438" viewBox="0 0 438 438" fill="none" xmlns="http://www.w3.org/2000/svg">
<path d="M216.372 424.597C329.867 424.597 421.873 369.533 421.873 301.607C421.873 233.681 329.867 178.616 216.372 178.616C102.877 178.616 10.8711 233.681 10.8711 301.607C10.8711 369.533 102.877 424.597 216.372 424.597Z" fill="#F5F5F5"/>
<path d="M252.76 246.813L249.037 244.667C247.622 243.945 246.057 243.569 244.469 243.569C242.881 243.569 241.315 243.945 239.9 244.667L43.3348 358.153C40.8207 359.607 40.8207 361.981 43.3348 363.409L47.049 365.555C48.465 366.272 50.0301 366.646 51.6174 366.646C53.2047 366.646 54.7697 366.272 56.1857 365.555L115.903 331.128L142.472 346.467C149.322 350.418 160.526 350.418 167.376 346.467L208.548 322.683C214.4 319.302 214.4 313.774 208.548 310.419L180.192 293.986L252.76 252.087C255.274 250.632 255.274 248.258 252.76 246.813Z" fill="#E0E0E0"/>
<path d="M324.294 386.167C344.81 398.011 378.063 398.011 398.57 386.167C419.077 374.324 419.086 355.13 398.57 343.287C378.054 331.443 344.81 331.443 324.294 343.287C303.778 355.13 303.787 374.324 324.294 386.167Z" fill="#E0E0E0"/>
<path d="M123.359 75.739L126.661 73.7417C126.633 73.5121 126.618 73.281 126.617 73.0497V71.4203C126.704 69.8408 127.162 68.304 127.954 66.9343C128.745 65.5646 129.848 64.4005 131.173 63.5363C131.568 63.2727 132.011 63.0904 132.478 63.0002C132.944 62.9099 133.423 62.9135 133.888 63.0107C134.3 58.8848 137.165 54.2507 140.651 52.2009C144.409 50.0284 147.466 51.7892 147.466 56.1341V58.5782C147.451 59.7686 147.256 60.9499 146.888 62.0822L151.548 59.3665C152.95 58.5606 154.08 59.2089 154.08 60.8207C154.033 61.6986 153.779 62.5529 153.339 63.3141C152.899 64.0753 152.286 64.7217 151.548 65.2007L123.341 81.5732C121.948 82.3791 120.818 81.7308 120.818 80.119C120.868 79.2406 121.124 78.3863 121.565 77.6253C122.006 76.8643 122.621 76.2181 123.359 75.739Z" fill="#EBEBEB"/>
<path d="M95.0812 69.0813L91.5772 70.4128V62.7916C91.5772 56.7472 86.7592 55.3018 81.5208 58.3153C76.3348 61.32 72.095 68.6871 72.095 74.7315V75.8353C71.3608 75.6102 70.5851 75.5547 69.8264 75.6731C69.0677 75.7914 68.3457 76.0805 67.715 76.5186C65.7297 77.8115 64.0777 79.5548 62.8934 81.6068C61.7092 83.6587 61.0261 85.9613 60.8997 88.3271V88.8264L56.0642 91.6121C54.7562 92.4639 53.6676 93.6123 52.8868 94.9639C52.1059 96.3156 51.6549 97.8323 51.5703 99.3909C51.5703 102.255 53.5851 103.412 56.0642 102.019L95.0812 79.4532C96.3871 78.5998 97.4737 77.4509 98.2529 76.0994C99.0321 74.748 99.4821 73.232 99.5664 71.6743C99.5664 68.8098 97.5603 67.6447 95.0812 69.0813Z" fill="#EBEBEB"/>
<path d="M167.852 340.326L201.937 320.616C205.441 318.584 207.193 315.929 207.193 313.275C207.193 310.621 207.193 308.527 207.193 308.527L175.122 290.333C174.136 289.688 173.314 288.82 172.725 287.799C172.136 286.777 171.796 285.632 171.732 284.455V242.407L112.234 276.816V318.864C112.299 320.041 112.641 321.186 113.231 322.205C113.822 323.225 114.645 324.091 115.633 324.733L142.421 340.326C149.438 344.382 160.826 344.382 167.852 340.326Z" fill="#263238"/>
<path opacity="0.15" d="M126.521 326.301V331.023L115.632 324.733C114.645 324.089 113.823 323.221 113.234 322.2C112.645 321.178 112.305 320.032 112.242 318.855V276.816L123.586 270.272C123.814 273.154 124.077 276.133 124.305 279.032L116.359 283.631V316.464C116.419 317.64 116.757 318.784 117.345 319.805C117.933 320.825 118.754 321.691 119.741 322.333L126.521 326.301Z" fill="black"/>
<path d="M116.333 316.49C116.397 317.668 116.738 318.814 117.329 319.836C117.919 320.857 118.743 321.725 119.732 322.368L142.403 335.587C149.411 339.651 160.799 339.651 167.85 335.587L201.944 315.885C208.952 311.83 208.952 305.251 201.944 301.195L179.247 287.959C178.259 287.317 177.438 286.45 176.848 285.43C176.259 284.41 175.92 283.266 175.857 282.089V249.266L116.289 283.657L116.333 316.49Z" fill="#455A64"/>
<path opacity="0.3" d="M186.169 291.962L179.257 287.967C178.269 287.325 177.447 286.459 176.858 285.439C176.269 284.419 175.929 283.274 175.867 282.098V249.266L116.299 283.657V316.49C116.363 317.668 116.704 318.814 117.295 319.836C117.885 320.857 118.709 321.725 119.698 322.368L126.487 326.292L186.169 291.962Z" fill="black"/>
<path d="M45.4302 342.402C46.7153 343.024 48.1289 343.335 49.5564 343.309C50.9839 343.283 52.3853 342.921 53.647 342.253L249.494 229.179C250.727 228.375 251.753 227.291 252.489 226.015C253.224 224.739 253.648 223.308 253.725 221.838V43.4145C253.676 41.9872 253.29 40.5918 252.599 39.342C251.907 38.0922 250.931 37.0233 249.748 36.2225C248.463 35.6005 247.05 35.2898 245.622 35.3157C244.195 35.3416 242.793 35.7032 241.532 36.3714L45.693 149.437C44.4567 150.245 43.4285 151.333 42.6918 152.613C41.9551 153.893 41.5307 155.329 41.4531 156.804V335.21C41.5041 336.637 41.8908 338.032 42.5818 339.281C43.2728 340.531 44.2487 341.6 45.4302 342.402Z" fill="#455A64"/>
<path d="M53.6461 342.244L249.493 229.179C250.727 228.373 251.754 227.287 252.491 226.01C253.227 224.734 253.653 223.301 253.733 221.829V43.4057C253.733 40.6988 251.832 39.6038 249.493 40.9616L53.6461 154.027C52.4128 154.832 51.3863 155.916 50.6498 157.191C49.9132 158.467 49.4872 159.897 49.4062 161.368V339.8C49.4062 342.516 51.3072 343.593 53.6461 342.244Z" fill="#37474F"/>
<path d="M55.0137 311.952V163.26C55.063 162.354 55.327 161.472 55.7839 160.688C56.2408 159.903 56.8776 159.239 57.6417 158.749L245.509 50.2649C246.954 49.3889 248.137 50.1072 248.137 51.7716V200.464C248.087 201.371 247.822 202.254 247.366 203.04C246.909 203.825 246.272 204.492 245.509 204.984L57.6154 313.459C56.1787 314.291 55.0137 313.608 55.0137 311.952Z" fill="#5A37BD"/>
<path opacity="0.7" d="M55.0137 311.952V163.26C55.063 162.354 55.327 161.472 55.7839 160.688C56.2408 159.903 56.8776 159.239 57.6417 158.749L245.509 50.2649C246.954 49.3889 248.137 50.1072 248.137 51.7716V200.464C248.087 201.371 247.822 202.254 247.366 203.04C246.909 203.825 246.272 204.492 245.509 204.984L57.6154 313.459C56.1787 314.291 55.0137 313.608 55.0137 311.952Z" fill="white"/>
<path d="M42.7057 152.59L50.6511 157.172C49.8992 158.448 49.4693 159.888 49.3984 161.368V339.8C49.3984 342.262 51.0715 343.646 53.6382 342.253C52.3784 342.927 50.9764 343.293 49.5477 343.318C48.1191 343.344 46.7047 343.03 45.4213 342.402C44.2527 341.708 43.2759 340.733 42.5798 339.566C41.8837 338.399 41.4904 337.076 41.4355 335.718V156.804C41.4912 155.314 41.9285 153.863 42.7057 152.59Z" fill="#263238"/>
<path d="M147.851 276.588L157.444 271.078C158.32 270.588 159.003 270.938 159.003 271.866C158.963 272.389 158.801 272.895 158.53 273.344C158.259 273.793 157.887 274.172 157.444 274.451L147.851 279.952C146.975 280.451 146.301 280.101 146.301 279.164C146.338 278.642 146.497 278.137 146.767 277.69C147.036 277.242 147.408 276.865 147.851 276.588Z" fill="#5A37BD"/>
<path d="M100.662 370.364L107.346 366.501C107.346 366.501 111.332 349.953 109.746 335.061C107.513 314.134 93.7331 306.258 88.4771 308.063C83.2211 309.867 81.7231 315.947 90.3868 328.43C95.4851 335.78 101.81 351.101 100.662 370.364Z" fill="#5A37BD"/>
<g opacity="0.3">
<path d="M100.662 370.364L107.346 366.501C107.346 366.501 111.332 349.953 109.746 335.061C107.513 314.134 93.7331 306.258 88.4771 308.063C83.2211 309.867 81.7231 315.947 90.3868 328.43C95.4851 335.78 101.81 351.101 100.662 370.364Z" fill="white"/>
</g>
<path d="M103.429 362.235H103.368C103.308 362.224 103.25 362.202 103.198 362.168C103.147 362.135 103.103 362.092 103.068 362.041C103.034 361.991 103.01 361.933 102.999 361.873C102.987 361.813 102.987 361.751 103 361.691C106.662 342.419 99.9164 320.695 91.6119 311.663C91.5679 311.621 91.5329 311.571 91.509 311.515C91.485 311.46 91.4727 311.4 91.4727 311.339C91.4727 311.278 91.485 311.218 91.509 311.163C91.5329 311.107 91.5679 311.057 91.6119 311.015C91.6551 310.972 91.7063 310.937 91.7626 310.914C91.819 310.891 91.8794 310.879 91.9404 310.879C92.0015 310.879 92.0619 310.891 92.1182 310.914C92.1746 310.937 92.2258 310.972 92.2689 311.015C100.775 320.204 107.643 342.253 103.929 361.823C103.913 361.942 103.853 362.051 103.76 362.127C103.668 362.204 103.549 362.242 103.429 362.235Z" fill="white"/>
<path d="M83.8159 380.088C82.8172 380.596 80.163 378.335 79.4359 377.766C78.1599 376.8 77.1551 375.52 76.5188 374.052C75.8055 372.396 75.6278 370.558 76.0107 368.796C76.2108 367.864 76.4772 366.948 76.8079 366.054L77.6839 363.426C78.0421 362.575 78.2239 361.66 78.2182 360.737C78.0693 358.88 76.4662 357.504 75.0734 356.357C73.4878 355.043 71.8585 353.326 71.9811 351.101C72.1894 349.388 72.9596 347.792 74.1711 346.563C75.3012 345.275 76.6152 344.145 77.6751 342.779C78.4782 341.828 78.9326 340.632 78.9628 339.389C78.8943 338.624 78.6771 337.88 78.3234 337.199C77.4975 335.77 76.7913 334.276 76.2122 332.731C75.7479 331.154 75.9231 329.227 77.1846 328.176C77.7462 327.8 78.3771 327.54 79.0404 327.411C79.7036 327.281 80.386 327.285 81.0477 327.422C82.3071 327.633 83.504 328.12 84.5517 328.85C87.9769 330.988 89.8077 335.254 93.4344 336.945C94.8909 337.485 96.3802 337.933 97.8932 338.285C98.6522 338.463 99.365 338.8 99.9853 339.272C100.606 339.745 101.12 340.343 101.494 341.027C102.729 343.83 100.013 347.08 100.837 350.032C101.555 352.66 104.008 353.755 105.295 356.164C105.813 357.217 105.981 358.407 105.777 359.563C105.562 361.527 104.983 363.435 104.069 365.187C103.051 366.985 101.925 368.72 100.696 370.381C100.696 370.381 83.9736 380.009 83.8159 380.088Z" fill="#5A37BD"/>
<g opacity="0.65">
<path d="M83.8159 380.088C82.8172 380.596 80.163 378.335 79.4359 377.766C78.1599 376.8 77.1551 375.52 76.5188 374.052C75.8055 372.396 75.6278 370.558 76.0107 368.796C76.2108 367.864 76.4772 366.948 76.8079 366.054L77.6839 363.426C78.0421 362.575 78.2239 361.66 78.2182 360.737C78.0693 358.88 76.4662 357.504 75.0734 356.357C73.4878 355.043 71.8585 353.326 71.9811 351.101C72.1894 349.388 72.9596 347.792 74.1711 346.563C75.3012 345.275 76.6152 344.145 77.6751 342.779C78.4782 341.828 78.9326 340.632 78.9628 339.389C78.8943 338.624 78.6771 337.88 78.3234 337.199C77.4975 335.77 76.7913 334.276 76.2122 332.731C75.7479 331.154 75.9231 329.227 77.1846 328.176C77.7462 327.8 78.3771 327.54 79.0404 327.411C79.7036 327.281 80.386 327.285 81.0477 327.422C82.3071 327.633 83.504 328.12 84.5517 328.85C87.9769 330.988 89.8077 335.254 93.4344 336.945C94.8909 337.485 96.3802 337.933 97.8932 338.285C98.6522 338.463 99.365 338.8 99.9853 339.272C100.606 339.745 101.12 340.343 101.494 341.027C102.729 343.83 100.013 347.08 100.837 350.032C101.555 352.66 104.008 353.755 105.295 356.164C105.813 357.217 105.981 358.407 105.777 359.563C105.562 361.527 104.983 363.435 104.069 365.187C103.051 366.985 101.925 368.72 100.696 370.381C100.696 370.381 83.9736 380.009 83.8159 380.088Z" fill="white"/>
</g>
<path d="M93.5038 375.042C93.4454 375.038 93.3885 375.021 93.3364 374.995C93.2843 374.968 93.2381 374.931 93.2005 374.886C93.163 374.841 93.1348 374.789 93.1177 374.733C93.1005 374.677 93.0948 374.618 93.1008 374.56C94.6952 357.198 87.4682 337.575 81.7917 331.689C81.7506 331.648 81.718 331.599 81.6958 331.546C81.6736 331.493 81.6621 331.435 81.6621 331.378C81.6621 331.32 81.6736 331.263 81.6958 331.209C81.718 331.156 81.7506 331.107 81.7917 331.067C81.875 330.986 81.9866 330.941 82.1026 330.941C82.2187 330.941 82.3303 330.986 82.4136 331.067C88.204 337.067 95.5536 357.023 93.9593 374.63C93.9525 374.745 93.901 374.852 93.8158 374.929C93.7306 375.006 93.6185 375.047 93.5038 375.042Z" fill="white"/>
<path d="M91.7785 353.624C91.7351 353.632 91.6905 353.632 91.6471 353.624C87.5811 352.3 83.3842 351.419 79.1291 350.996C79.0715 350.991 79.0153 350.975 78.9639 350.949C78.9124 350.923 78.8666 350.887 78.8292 350.843C78.7917 350.799 78.7633 350.748 78.7457 350.693C78.728 350.638 78.7213 350.58 78.7261 350.523C78.7304 350.465 78.7465 350.408 78.7733 350.356C78.8002 350.305 78.8373 350.259 78.8824 350.222C78.9274 350.185 78.9796 350.158 79.0355 350.142C79.0915 350.126 79.1501 350.121 79.2079 350.128C83.5434 350.563 87.8178 351.473 91.9537 352.844C92.0621 352.887 92.1498 352.97 92.1987 353.076C92.2476 353.182 92.254 353.303 92.2165 353.413C92.1733 353.489 92.1083 353.549 92.0301 353.586C91.9519 353.624 91.8642 353.637 91.7785 353.624Z" fill="white"/>
<path d="M328.552 47.6807C328.541 47.5173 328.512 47.3556 328.464 47.1989C328.473 47.1827 328.477 47.1646 328.477 47.1463C328.477 47.128 328.473 47.11 328.464 47.0938C328.443 46.9344 328.402 46.7784 328.341 46.6295C328.274 46.3932 328.17 46.1687 328.035 45.9637C327.994 45.8631 327.934 45.771 327.86 45.6922C327.82 45.6208 327.77 45.5558 327.711 45.4994C327.61 45.3728 327.496 45.2582 327.369 45.1578C327.229 45.0582 327.079 44.9731 326.922 44.9038C326.346 44.6876 325.726 44.6154 325.115 44.6932C324.504 44.7711 323.922 44.9967 323.418 45.3505L145.1 148.237C142.218 149.892 139.844 153.957 139.844 159.774V324.05C139.843 324.681 140.008 325.3 140.323 325.847C140.639 326.393 141.093 326.846 141.639 327.161C142.186 327.476 142.806 327.64 143.437 327.639C144.067 327.637 144.686 327.469 145.231 327.151L323.357 224.256C324.884 223.266 326.155 221.929 327.068 220.356C327.981 218.782 328.511 217.015 328.613 215.198V48.3289C328.578 48.1099 328.569 47.8822 328.552 47.6807Z" fill="#FAFAFA"/>
<path d="M325.67 45.4556C325.972 45.447 326.272 45.51 326.546 45.6395C326.63 45.6727 326.709 45.7169 326.782 45.771H326.835C326.9 45.8226 326.958 45.8814 327.01 45.9462L327.08 46.0425L327.141 46.1301L327.185 46.1827V46.2527L327.246 46.3491C327.333 46.4809 327.398 46.6258 327.439 46.7784C327.456 46.8242 327.471 46.871 327.483 46.9185V46.9886L327.588 47.3215C327.615 47.413 327.632 47.5069 327.641 47.6018C327.641 47.7858 327.641 47.9872 327.641 48.18V215.172C327.538 216.837 327.051 218.455 326.216 219.899C325.382 221.344 324.223 222.574 322.831 223.494L144.741 326.424C144.326 326.674 143.85 326.804 143.365 326.8C142.636 326.798 141.938 326.508 141.423 325.992C140.907 325.477 140.617 324.779 140.615 324.05V159.774C140.615 153.852 143.102 150.304 145.424 148.964L323.769 46.0425C324.341 45.6861 324.996 45.4839 325.67 45.4556ZM325.67 44.5796C324.85 44.6088 324.052 44.8536 323.357 45.2892L145.1 148.237C142.218 149.892 139.844 153.957 139.844 159.774V324.05C139.844 324.522 139.937 324.989 140.117 325.424C140.298 325.86 140.562 326.256 140.896 326.59C141.229 326.923 141.625 327.188 142.061 327.368C142.497 327.549 142.964 327.641 143.435 327.641C144.052 327.635 144.657 327.466 145.187 327.151L323.357 224.256C324.884 223.266 326.155 221.929 327.068 220.356C327.981 218.782 328.511 217.015 328.613 215.198V48.3289C328.613 48.1099 328.613 47.8821 328.613 47.6806C328.602 47.5172 328.573 47.3555 328.525 47.1988C328.534 47.1826 328.538 47.1646 328.538 47.1463C328.538 47.128 328.534 47.1099 328.525 47.0937C328.504 46.9344 328.463 46.7784 328.403 46.6294C328.335 46.3932 328.232 46.1687 328.096 45.9637C328.055 45.8631 327.996 45.771 327.921 45.6921C327.881 45.6207 327.831 45.5557 327.772 45.4994C327.672 45.3728 327.557 45.2581 327.43 45.1577C327.29 45.0582 327.141 44.9731 326.984 44.9037C326.609 44.7253 326.198 44.6354 325.784 44.6409L325.67 44.5796Z" fill="#E0E0E0"/>
<path d="M191.388 144.96L310.314 76.2908V81.8096L191.388 150.47C190.267 151.119 189.355 150.584 189.355 149.297V148.482C189.391 147.776 189.594 147.088 189.947 146.476C190.3 145.864 190.794 145.344 191.388 144.96Z" fill="#E0E0E0"/>
<path d="M319.863 70.7806L312.662 74.9329V80.4517L319.863 76.2907C320.452 75.9065 320.943 75.3892 321.296 74.7806C321.649 74.172 321.854 73.489 321.895 72.7867V71.972C321.895 70.658 320.984 70.1324 319.863 70.7806Z" fill="#E0E0E0"/>
<path d="M316.359 76.9128C316.216 76.9147 316.076 76.8751 315.956 76.7989C315.779 76.672 315.639 76.5006 315.55 76.3022C315.461 76.1038 315.426 75.8853 315.448 75.6689C315.455 75.1945 315.574 74.7284 315.794 74.3083C316.015 73.8883 316.331 73.5261 316.718 73.2511C316.861 73.1547 317.028 73.0981 317.2 73.0873C317.373 73.0766 317.545 73.1119 317.699 73.1898C317.875 73.3179 318.014 73.4895 318.103 73.6876C318.192 73.8857 318.228 74.1036 318.207 74.3198C318.202 74.7947 318.085 75.2615 317.864 75.6819C317.643 76.1022 317.325 76.4641 316.937 76.7376C316.763 76.8451 316.564 76.9054 316.359 76.9128ZM317.288 73.5139C317.164 73.5207 317.044 73.5567 316.937 73.619C316.615 73.8566 316.351 74.1649 316.165 74.5201C315.98 74.8754 315.878 75.2683 315.868 75.6689C315.852 75.8106 315.871 75.954 315.923 76.0869C315.975 76.2197 316.058 76.3378 316.166 76.431C316.255 76.4714 316.353 76.487 316.451 76.4762C316.548 76.4654 316.64 76.4286 316.718 76.3697C317.041 76.1321 317.305 75.8239 317.49 75.4686C317.675 75.1133 317.777 74.7204 317.787 74.3198C317.803 74.1782 317.784 74.0347 317.732 73.9019C317.68 73.769 317.597 73.6509 317.489 73.5577C317.427 73.5259 317.357 73.5108 317.288 73.5139Z" fill="#FAFAFA"/>
<path d="M318.592 76.5449C318.549 76.556 318.504 76.556 318.461 76.5449L317.523 75.8353C317.486 75.7948 317.465 75.7416 317.465 75.6864C317.465 75.6312 317.486 75.578 317.523 75.5375C317.539 75.515 317.559 75.496 317.582 75.4816C317.605 75.4671 317.631 75.4575 317.658 75.4534C317.685 75.4493 317.713 75.4508 317.74 75.4577C317.766 75.4646 317.791 75.4769 317.812 75.4937L318.758 76.2032C318.796 76.2437 318.817 76.2969 318.817 76.3522C318.817 76.4074 318.796 76.4606 318.758 76.5011C318.736 76.5208 318.709 76.535 318.68 76.5426C318.651 76.5502 318.621 76.551 318.592 76.5449Z" fill="#FAFAFA"/>
<path d="M145.1 148.237C142.218 149.892 139.844 153.957 139.844 159.773V324.05C139.843 324.68 140.008 325.3 140.323 325.847C140.639 326.393 141.093 326.846 141.639 327.161C142.186 327.475 142.806 327.64 143.437 327.638C144.067 327.637 144.686 327.468 145.231 327.151L184.835 304.287V141.229L184.896 125.268L145.1 148.237Z" fill="#F0F0F0"/>
<path d="M184.03 126.731L183.96 141.229V303.805L144.821 326.424C144.406 326.674 143.93 326.804 143.445 326.8C142.716 326.798 142.018 326.508 141.503 325.992C140.987 325.477 140.697 324.779 140.695 324.05V159.773C140.695 153.852 143.182 150.304 145.504 148.964L184.048 126.731H184.03ZM184.924 125.268L145.145 148.237C142.263 149.892 139.889 153.957 139.889 159.773V324.05C139.889 324.521 139.982 324.988 140.162 325.424C140.343 325.86 140.607 326.256 140.941 326.589C141.274 326.923 141.67 327.187 142.106 327.368C142.542 327.548 143.009 327.641 143.48 327.641C144.097 327.635 144.702 327.466 145.232 327.151L184.836 304.287V141.229L184.898 125.268H184.924Z" fill="#E0E0E0"/>
<path d="M155.603 167.675L176.504 155.613C177.24 155.192 177.836 155.534 177.836 156.383V158.135C177.811 158.597 177.678 159.047 177.446 159.447C177.215 159.847 176.892 160.187 176.504 160.439L155.603 172.484C154.867 172.905 154.271 172.563 154.271 171.713V169.961C154.299 169.503 154.434 169.057 154.665 168.66C154.896 168.263 155.218 167.925 155.603 167.675Z" fill="#E0E0E0"/>
<path d="M150.111 172.388V174.14C150.086 174.602 149.952 175.051 149.721 175.451C149.49 175.851 149.167 176.191 148.78 176.444L148.246 176.768C147.51 177.197 146.914 176.847 146.914 175.997V174.245C146.94 173.782 147.073 173.332 147.305 172.93C147.536 172.529 147.858 172.187 148.246 171.933L148.78 171.608C149.516 171.188 150.111 171.538 150.111 172.388Z" fill="#5A37BD"/>
<path d="M155.603 177.259L176.504 165.196C177.24 164.776 177.836 165.117 177.836 165.967V167.719C177.811 168.181 177.678 168.63 177.446 169.03C177.215 169.431 176.892 169.771 176.504 170.023L155.603 182.085C154.867 182.506 154.271 182.164 154.271 181.314V179.562C154.296 179.101 154.43 178.651 154.661 178.251C154.893 177.851 155.215 177.511 155.603 177.259Z" fill="#E0E0E0"/>
<path d="M150.111 181.972V183.724C150.087 184.185 149.953 184.635 149.722 185.035C149.49 185.435 149.168 185.775 148.78 186.027L148.246 186.352C147.51 186.781 146.914 186.439 146.914 185.589V183.837C146.94 183.375 147.073 182.924 147.305 182.523C147.536 182.121 147.858 181.779 148.246 181.525L148.78 181.201C149.516 180.771 150.111 181.122 150.111 181.972Z" fill="#5A37BD"/>
<path d="M155.603 186.842L176.504 174.779C177.24 174.359 177.836 174.7 177.836 175.55V177.302C177.811 177.764 177.678 178.213 177.446 178.614C177.215 179.014 176.892 179.354 176.504 179.606L155.603 191.669C154.867 192.089 154.271 191.747 154.271 190.898V189.146C154.296 188.684 154.43 188.235 154.661 187.834C154.893 187.434 155.215 187.094 155.603 186.842Z" fill="#E0E0E0"/>
<path d="M150.111 191.555V193.307C150.087 193.769 149.953 194.218 149.722 194.618C149.49 195.019 149.168 195.359 148.78 195.611L148.246 195.935C147.51 196.364 146.914 196.022 146.914 195.173V193.421C146.94 192.958 147.073 192.508 147.305 192.106C147.536 191.704 147.858 191.362 148.246 191.108L148.78 190.784C149.516 190.363 150.111 190.705 150.111 191.555Z" fill="#5A37BD"/>
<path d="M155.603 218.623L176.504 206.561C177.24 206.14 177.836 206.482 177.836 207.332V209.084C177.811 209.545 177.678 209.995 177.446 210.395C177.215 210.796 176.892 211.136 176.504 211.388L155.603 223.45C154.867 223.871 154.271 223.529 154.271 222.679V220.927C154.296 220.465 154.43 220.016 154.661 219.616C154.893 219.215 155.215 218.875 155.603 218.623Z" fill="#E0E0E0"/>
<path d="M150.111 223.38V225.132C150.087 225.594 149.953 226.043 149.722 226.444C149.49 226.844 149.168 227.184 148.78 227.436L148.246 227.76C147.51 228.189 146.914 227.848 146.914 226.998V225.246C146.94 224.783 147.073 224.333 147.305 223.931C147.536 223.529 147.858 223.188 148.246 222.933L148.78 222.609C149.516 222.145 150.111 222.504 150.111 223.38Z" fill="#5A37BD"/>
<path d="M155.603 227.112L176.504 215.049C177.24 214.629 177.836 214.97 177.836 215.82V217.572C177.811 218.034 177.678 218.483 177.446 218.884C177.215 219.284 176.892 219.624 176.504 219.876L155.603 231.938C154.867 232.359 154.271 232.017 154.271 231.168V229.416C154.296 228.954 154.43 228.504 154.661 228.104C154.893 227.704 155.215 227.364 155.603 227.112Z" fill="#E0E0E0"/>
<path d="M150.111 231.825V233.577C150.087 234.038 149.953 234.488 149.722 234.888C149.49 235.289 149.168 235.629 148.78 235.88L148.246 236.205C147.51 236.634 146.914 236.292 146.914 235.442V233.69C146.94 233.228 147.073 232.777 147.305 232.376C147.536 231.974 147.858 231.632 148.246 231.378L148.78 231.054C149.516 230.633 150.111 230.975 150.111 231.825Z" fill="#5A37BD"/>
<path d="M155.603 235.644L176.504 223.581C177.24 223.161 177.836 223.502 177.836 224.352V226.104C177.811 226.566 177.678 227.015 177.446 227.416C177.215 227.816 176.892 228.156 176.504 228.408L155.603 240.471C154.867 240.891 154.271 240.549 154.271 239.7V237.948C154.296 237.486 154.43 237.037 154.661 236.636C154.893 236.236 155.215 235.896 155.603 235.644Z" fill="#E0E0E0"/>
<path d="M150.111 240.313V242.065C150.087 242.527 149.953 242.976 149.722 243.377C149.49 243.777 149.168 244.117 148.78 244.369L148.246 244.693C147.51 245.122 146.914 244.781 146.914 243.931V242.179C146.94 241.716 147.073 241.266 147.305 240.864C147.536 240.462 147.858 240.121 148.246 239.866L148.78 239.542C149.516 239.148 150.111 239.463 150.111 240.313Z" fill="#5A37BD"/>
<path d="M155.244 196.758V199.754L157.837 196.758H155.244Z" fill="#5A37BD"/>
<path d="M159.432 196.145C159.432 196.697 159.826 196.925 160.308 196.636L176.952 187.052C177.208 186.883 177.421 186.657 177.573 186.39C177.725 186.124 177.812 185.826 177.828 185.519C177.828 184.959 177.433 184.731 176.952 185.011L160.308 194.647C160.055 194.811 159.844 195.032 159.692 195.292C159.54 195.552 159.451 195.844 159.432 196.145Z" fill="#E0E0E0"/>
<path d="M155.244 201.568V204.564L157.837 201.568H155.244Z" fill="#5A37BD"/>
<path d="M159.432 200.954C159.432 201.506 159.826 201.725 160.308 201.445L176.952 191.844C177.208 191.675 177.421 191.448 177.573 191.182C177.725 190.916 177.812 190.617 177.828 190.311C177.828 189.75 177.433 189.523 176.952 189.803L160.308 199.439C160.053 199.605 159.841 199.829 159.689 200.092C159.536 200.355 159.448 200.651 159.432 200.954Z" fill="#E0E0E0"/>
<path d="M155.244 206.377V209.364L157.837 206.377H155.244Z" fill="#5A37BD"/>
<path d="M159.432 205.763C159.432 206.315 159.826 206.534 160.308 206.254L176.952 196.671C177.207 196.501 177.419 196.274 177.571 196.008C177.723 195.742 177.811 195.444 177.828 195.138C177.828 194.577 177.433 194.349 176.952 194.629L160.308 204.265C160.055 204.43 159.844 204.651 159.692 204.911C159.54 205.171 159.451 205.463 159.432 205.763Z" fill="#E0E0E0"/>
<path d="M155.244 211.186V214.173L157.837 211.186H155.244Z" fill="#5A37BD"/>
<path d="M159.432 210.573C159.432 211.125 159.826 211.344 160.308 211.063L176.952 201.48C177.207 201.31 177.419 201.083 177.571 200.817C177.723 200.551 177.811 200.253 177.828 199.947C177.828 199.386 177.433 199.158 176.952 199.439L160.308 209.075C160.054 209.238 159.843 209.459 159.691 209.719C159.538 209.979 159.45 210.272 159.432 210.573Z" fill="#E0E0E0"/>
<path d="M326.87 44.8686C326.294 44.6525 325.673 44.5803 325.063 44.6581C324.452 44.736 323.87 44.9616 323.366 45.3154L145.1 148.237C143.574 149.225 142.302 150.56 141.389 152.132C140.476 153.704 139.946 155.47 139.844 157.286V167.421L133.178 163.505V153.493C133.278 151.682 133.803 149.92 134.712 148.351C135.621 146.782 136.887 145.449 138.407 144.461L316.682 41.5398C318.171 40.6638 319.512 40.6638 320.475 41.2332C321.439 41.8026 325.758 44.2817 326.87 44.8686Z" fill="#5A37BD"/>
<path d="M328.569 48.2939C328.569 45.0001 326.221 43.6599 323.313 45.3243L145.1 148.237C143.572 149.224 142.3 150.558 141.387 152.131C140.473 153.704 139.945 155.47 139.844 157.286V167.43L328.569 58.4993V48.2939Z" fill="#5A37BD"/>
<g opacity="0.2">
<path d="M323.348 45.3153L145.1 148.237C143.569 149.199 142.304 150.53 141.42 152.108L134.789 148.272C135.65 146.711 136.895 145.396 138.407 144.452L316.682 41.5397C317.225 41.1454 317.865 40.9076 318.534 40.852C319.203 40.7964 319.874 40.9252 320.475 41.2244C321.412 41.8025 325.731 44.2641 326.852 44.8598C326.275 44.6441 325.654 44.5729 325.043 44.6523C324.433 44.7317 323.851 44.9593 323.348 45.3153Z" fill="white"/>
</g>
<path opacity="0.15" d="M133.195 163.532V153.493C133.262 151.632 133.811 149.821 134.79 148.237L141.438 152.065C140.475 153.627 139.937 155.415 139.879 157.251V167.395L133.195 163.532Z" fill="black"/>
<path d="M307.983 59.0248C306.888 59.6556 305.994 61.539 305.994 63.2296C305.994 64.9203 306.87 65.77 307.983 65.1393C309.095 64.5086 309.962 62.6252 309.962 60.9345C309.962 59.2438 309.078 58.3941 307.983 59.0248Z" fill="#37474F"/>
<path d="M315.131 54.8901C314.027 55.5208 313.143 57.4042 313.143 59.0949C313.143 60.7855 314.019 61.6353 315.131 61.0045C316.244 60.3738 317.111 58.4904 317.111 56.7997C317.111 55.1091 316.235 54.2593 315.131 54.8901Z" fill="#37474F"/>
<path d="M322.271 50.7553C321.176 51.3948 320.291 53.2694 320.291 54.9601C320.291 56.6508 321.167 57.5005 322.271 56.8698C323.375 56.2391 324.259 54.3557 324.259 52.665C324.259 50.9743 323.375 50.1246 322.271 50.7553Z" fill="#37474F"/>
<path d="M141.473 327.055L135.971 323.875C135.237 323.451 134.609 322.866 134.136 322.163C133.662 321.46 133.355 320.658 133.238 319.819C133.225 319.568 133.225 319.316 133.238 319.065V163.514L139.913 167.421V324.05C139.914 324.238 139.929 324.425 139.957 324.611C139.971 324.712 139.995 324.812 140.027 324.908C140.018 324.952 140.018 324.996 140.027 325.04C140.056 325.151 140.094 325.259 140.141 325.364C140.14 325.379 140.14 325.393 140.141 325.408L140.325 325.793C140.395 325.916 140.483 326.038 140.561 326.152C140.624 326.241 140.691 326.326 140.763 326.406C141.041 326.725 141.373 326.992 141.744 327.195L141.473 327.055Z" fill="#E0E0E0"/>
<path d="M199.221 393.061C198.153 393.086 197.097 392.836 196.155 392.334L158.557 370.636L160.458 369.532L157.769 367.149C157.672 367.062 157.598 366.953 157.552 366.831C157.506 366.709 157.49 366.578 157.506 366.448C157.527 366.308 157.582 366.175 157.666 366.06C157.75 365.946 157.86 365.854 157.988 365.791L174.789 356.085C175.247 355.851 175.779 355.807 176.27 355.963L180.536 357.566C180.656 357.606 180.783 357.622 180.909 357.613C181.035 357.604 181.158 357.57 181.272 357.513L213.044 339.17L213.263 339.301L250.151 360.597C250.511 360.803 250.81 361.102 251.016 361.462C251.222 361.823 251.329 362.231 251.325 362.646C251.329 363.061 251.221 363.469 251.013 363.828C250.805 364.187 250.504 364.484 250.143 364.688L202.278 392.334C201.337 392.832 200.285 393.082 199.221 393.061ZM160.309 370.636L196.575 391.572C197.392 391.977 198.292 392.188 199.203 392.188C200.115 392.188 201.015 391.977 201.831 391.572L249.705 363.925C249.93 363.796 250.118 363.609 250.248 363.383C250.378 363.158 250.447 362.902 250.447 362.642C250.447 362.382 250.378 362.126 250.248 361.901C250.118 361.676 249.93 361.489 249.705 361.359L213.044 340.195L181.727 358.284C181.503 358.404 181.257 358.477 181.004 358.498C180.751 358.519 180.496 358.488 180.255 358.407L175.981 356.804C175.86 356.765 175.733 356.75 175.607 356.761C175.48 356.771 175.357 356.807 175.245 356.865L158.434 366.562L161.132 368.945C161.228 369.033 161.302 369.142 161.348 369.264C161.394 369.386 161.41 369.516 161.395 369.646C161.371 369.785 161.315 369.917 161.231 370.03C161.147 370.144 161.039 370.238 160.913 370.303L160.309 370.636Z" fill="#E0E0E0"/>
<path d="M220.753 393.079C219.684 393.095 218.629 392.838 217.687 392.334L180.063 370.636L181.972 369.532L179.274 367.149C179.178 367.062 179.103 366.953 179.058 366.831C179.012 366.709 178.996 366.578 179.012 366.448C179.036 366.309 179.092 366.177 179.176 366.064C179.259 365.95 179.368 365.856 179.493 365.791L196.304 356.085C196.759 355.852 197.288 355.807 197.775 355.963L202.042 357.566C202.287 357.646 202.554 357.627 202.786 357.513L234.55 339.17L234.778 339.301L263.037 355.656L262.599 356.418L234.567 340.23L203.233 358.284C203.009 358.404 202.763 358.477 202.51 358.498C202.257 358.519 202.002 358.488 201.761 358.407L197.495 356.804C197.248 356.726 196.981 356.748 196.751 356.865L179.949 366.562L182.638 368.954C182.735 369.039 182.809 369.147 182.855 369.267C182.901 369.388 182.916 369.518 182.901 369.646C182.88 369.786 182.825 369.919 182.741 370.034C182.657 370.148 182.547 370.24 182.419 370.303L181.841 370.644L218.125 391.572C218.942 391.977 219.841 392.188 220.753 392.188C221.665 392.188 222.564 391.977 223.381 391.572L263.011 368.682L263.449 369.453L223.819 392.334C222.877 392.838 221.822 393.095 220.753 393.079Z" fill="#5A37BD"/>
<path d="M272.595 371.424C268.857 371.5 265.161 370.623 261.856 368.875C258.886 367.123 257.274 364.845 257.309 362.366C257.344 359.887 258.991 357.662 261.917 355.971C267.847 352.546 277.501 352.546 283.431 355.971C286.392 357.68 288.013 359.975 288.004 362.428C287.995 364.88 286.349 367.176 283.379 368.875C280.056 370.619 276.347 371.496 272.595 371.424ZM262.302 368.104C267.961 371.372 277.194 371.372 282.941 368.104C285.621 366.571 287.111 364.556 287.119 362.428C287.128 360.299 285.665 358.275 282.993 356.734C277.299 353.449 268.049 353.449 262.355 356.734C259.727 358.267 258.229 360.238 258.194 362.384C258.159 364.53 259.622 366.562 262.302 368.104Z" fill="#5A37BD"/>
<path d="M277.554 366.168C277.4 366.169 277.249 366.13 277.116 366.054L267.322 360.395C267.222 360.338 267.134 360.261 267.064 360.169C266.993 360.078 266.941 359.974 266.911 359.862C266.881 359.751 266.873 359.634 266.888 359.52C266.903 359.405 266.94 359.295 266.998 359.195C267.055 359.095 267.132 359.007 267.223 358.937C267.315 358.866 267.419 358.814 267.531 358.784C267.642 358.754 267.758 358.746 267.873 358.761C267.987 358.776 268.098 358.813 268.198 358.871L278 364.521C278.101 364.579 278.189 364.656 278.26 364.749C278.331 364.841 278.382 364.947 278.411 365.059C278.441 365.172 278.447 365.289 278.431 365.404C278.415 365.519 278.375 365.63 278.316 365.73C278.238 365.864 278.127 365.974 277.994 366.051C277.86 366.128 277.708 366.168 277.554 366.168Z" fill="#5A37BD"/>
<path d="M267.76 366.168C267.563 366.173 267.37 366.112 267.212 365.994C267.055 365.876 266.941 365.708 266.891 365.517C266.84 365.327 266.855 365.125 266.933 364.944C267.012 364.764 267.148 364.615 267.322 364.521L277.115 358.871C277.215 358.813 277.325 358.775 277.439 358.759C277.553 358.743 277.669 358.75 277.781 358.779C277.892 358.809 277.997 358.86 278.089 358.93C278.181 358.999 278.258 359.087 278.316 359.186C278.375 359.286 278.414 359.397 278.431 359.512C278.447 359.627 278.441 359.744 278.411 359.857C278.382 359.969 278.33 360.075 278.26 360.167C278.189 360.26 278.101 360.337 278 360.395L268.198 366.054C268.064 366.13 267.913 366.169 267.76 366.168Z" fill="#5A37BD"/>
<path d="M142.7 125.627C143.576 126.179 147.737 128.544 148.779 129.079C148.227 128.877 147.633 128.813 147.05 128.892C146.467 128.971 145.912 129.192 145.433 129.534L75.8873 169.708C74.4451 170.655 73.2468 171.929 72.3899 173.427C71.5329 174.925 71.0415 176.604 70.9555 178.327V257.483C70.9195 258.914 71.4482 260.301 72.4271 261.346C72.5436 261.455 72.6664 261.558 72.7951 261.653C68.8268 258.832 64.6745 258.876 64.5957 253.865V174.71C64.6928 172.984 65.1935 171.305 66.0577 169.807C66.9219 168.31 68.1254 167.037 69.5714 166.09L139.117 125.916C139.637 125.558 140.241 125.343 140.87 125.293C141.499 125.242 142.13 125.357 142.7 125.627Z" fill="#263238"/>
<path d="M147.649 128.851C146.861 128.879 146.095 129.111 145.424 129.525L75.887 169.699C74.4477 170.649 73.2516 171.924 72.395 173.422C71.5384 174.919 71.0452 176.596 70.9551 178.319V257.474C70.9551 259.979 72.3479 262.117 74.2926 262.117C74.8739 262.1 75.4411 261.934 75.9395 261.635L145.564 221.435C146.999 220.492 148.192 219.226 149.049 217.738C149.906 216.25 150.401 214.582 150.496 212.868L150.4 132.442C150.4 130.191 149.278 128.938 147.649 128.938V128.851Z" fill="#37474F"/>
<path d="M145.416 129.525L75.8971 169.699C74.4349 170.614 73.2292 171.886 72.3931 173.395L66.0684 169.734C66.9047 168.241 68.1115 166.989 69.5724 166.098L139.118 125.925C139.635 125.551 140.245 125.326 140.881 125.274C141.517 125.221 142.155 125.343 142.727 125.627C143.603 126.179 147.755 128.527 148.798 129.131C148.246 128.912 147.648 128.833 147.057 128.902C146.467 128.971 145.903 129.185 145.416 129.525Z" fill="#455A64"/>
<path d="M93.1973 174.701V222.005C93.1973 224.168 94.7127 225.044 96.5874 223.967L137.549 200.315C138.533 199.674 139.353 198.812 139.943 197.798C140.534 196.783 140.878 195.644 140.948 194.472V147.168C140.948 145.004 139.433 144.128 137.558 145.206L96.5961 168.858C95.6117 169.497 94.7913 170.36 94.201 171.374C93.6106 172.389 93.2668 173.529 93.1973 174.701Z" fill="#5A37BD"/>
<path opacity="0.3" d="M122.114 166.65C122.114 164.486 120.59 163.61 118.715 164.688L93.1973 179.422V221.996C93.1973 224.159 94.7127 225.035 96.5874 223.958L122.105 209.224L122.114 166.65Z" fill="black"/>
<path d="M80.4688 196.75V244.054C80.4688 246.217 81.9842 247.093 83.8589 246.016L124.821 222.364C125.809 221.72 126.63 220.852 127.22 219.831C127.809 218.809 128.148 217.663 128.211 216.486V169.182C128.211 167.018 126.695 166.142 124.821 167.22L83.8589 190.872C82.872 191.516 82.0508 192.384 81.4618 193.406C80.8728 194.427 80.5326 195.572 80.4688 196.75Z" fill="#5A37BD"/>
<path opacity="0.3" d="M80.4688 196.75V244.054C80.4688 246.217 81.9842 247.093 83.8589 246.016L124.821 222.364C125.809 221.72 126.63 220.852 127.22 219.831C127.809 218.809 128.148 217.663 128.211 216.486V169.182C128.211 167.018 126.695 166.142 124.821 167.22L83.8589 190.872C82.872 191.516 82.0508 192.384 81.4618 193.406C80.8728 194.427 80.5326 195.572 80.4688 196.75Z" fill="white"/>
<path d="M118.662 202.855V198.072C118.662 197.196 118.058 196.855 117.313 197.293L109.114 202.023V192.562C109.114 191.686 108.509 191.345 107.756 191.774L103.621 194.165C103.226 194.422 102.897 194.769 102.661 195.177C102.425 195.585 102.289 196.042 102.263 196.513V205.974L94.0726 210.704C93.6771 210.961 93.348 211.307 93.112 211.715C92.876 212.123 92.7399 212.581 92.7148 213.052V217.835C92.7148 218.711 93.3193 219.044 94.0726 218.614L102.263 213.884V223.38C102.263 224.256 102.876 224.598 103.621 224.16L107.756 221.777C108.151 221.518 108.481 221.17 108.717 220.761C108.952 220.352 109.088 219.892 109.114 219.42V209.933L117.313 205.203C117.705 204.943 118.031 204.596 118.265 204.189C118.499 203.781 118.635 203.325 118.662 202.855Z" fill="white"/>
<path d="M173.036 233.55L168.191 230.756V280.67L173.036 283.456L182.418 263.764L195.768 256.063L173.036 233.55Z" fill="#E0E0E0"/>
<path d="M173.036 283.877C172.96 283.877 172.885 283.859 172.817 283.824L167.982 281.03C167.919 280.993 167.866 280.941 167.829 280.878C167.792 280.815 167.772 280.743 167.771 280.67V230.738C167.773 230.664 167.794 230.592 167.83 230.528C167.867 230.464 167.919 230.41 167.982 230.37C168.048 230.336 168.122 230.318 168.196 230.318C168.271 230.318 168.345 230.336 168.411 230.37L173.246 233.165L173.325 233.226L196.058 255.792C196.104 255.838 196.139 255.895 196.161 255.957C196.182 256.02 196.189 256.086 196.18 256.151C196.173 256.215 196.151 256.275 196.116 256.329C196.081 256.382 196.034 256.426 195.979 256.458L182.742 264.096L173.448 283.64C173.423 283.692 173.387 283.738 173.344 283.776C173.3 283.814 173.249 283.842 173.194 283.859C173.144 283.878 173.089 283.884 173.036 283.877ZM168.656 280.425L172.879 282.869L182.077 263.597C182.112 263.52 182.17 263.456 182.243 263.413L195.111 255.985L172.773 233.892L168.621 231.492L168.656 280.425Z" fill="#455A64"/>
<path d="M173.035 233.55V283.456L182.417 263.764L195.767 256.064L173.035 233.55Z" fill="#FAFAFA"/>
<path d="M173.037 283.876H172.94C172.846 283.856 172.762 283.804 172.701 283.73C172.64 283.655 172.607 283.561 172.608 283.465V233.533C172.606 233.449 172.629 233.366 172.674 233.295C172.72 233.225 172.786 233.169 172.863 233.136C172.94 233.103 173.026 233.094 173.108 233.11C173.191 233.126 173.267 233.166 173.326 233.226L196.058 255.792C196.105 255.838 196.14 255.895 196.161 255.957C196.183 256.019 196.189 256.086 196.181 256.151C196.174 256.214 196.152 256.275 196.117 256.329C196.082 256.382 196.035 256.426 195.979 256.458L182.743 264.096L173.449 283.64C173.413 283.717 173.354 283.781 173.28 283.823C173.206 283.866 173.121 283.884 173.037 283.876ZM173.457 234.558V281.59L182.042 263.58C182.078 263.503 182.136 263.439 182.209 263.396L195.077 255.967L173.457 234.558Z" fill="#455A64"/>
<path d="M159.248 230.668L154.412 227.874V277.788L159.248 280.574L168.638 260.881L181.98 253.173L159.248 230.668Z" fill="#263238"/>
<path d="M159.248 230.668V280.574L168.639 260.881L181.98 253.173L159.248 230.668Z" fill="#455A64"/>
<path d="M264.552 243.151C264.483 243.151 264.416 243.132 264.357 243.097C264.299 243.061 264.251 243.01 264.219 242.95C264.168 242.86 264.154 242.754 264.18 242.654C264.206 242.554 264.27 242.468 264.359 242.415L266.391 241.242C266.482 241.189 266.59 241.175 266.691 241.202C266.792 241.229 266.878 241.295 266.93 241.386C266.982 241.477 266.997 241.584 266.969 241.685C266.942 241.786 266.876 241.873 266.786 241.925L264.753 243.099C264.692 243.133 264.622 243.152 264.552 243.151ZM261.731 242.442C261.68 242.443 261.629 242.434 261.581 242.415C261.533 242.396 261.49 242.368 261.453 242.332C261.416 242.296 261.387 242.253 261.367 242.206C261.347 242.158 261.337 242.108 261.337 242.056C261.333 242.036 261.333 242.015 261.337 241.995V239.682C261.337 239.578 261.378 239.477 261.452 239.403C261.526 239.33 261.627 239.288 261.731 239.288C261.836 239.288 261.936 239.33 262.01 239.403C262.084 239.477 262.125 239.578 262.125 239.682V242.039C262.125 242.146 262.083 242.248 262.007 242.324C261.932 242.399 261.829 242.442 261.722 242.442H261.731ZM269.983 240.015C269.896 240.018 269.809 239.992 269.739 239.94C269.669 239.888 269.618 239.813 269.596 239.729C269.573 239.644 269.58 239.554 269.616 239.474C269.651 239.394 269.713 239.328 269.79 239.288L271.823 238.114C271.867 238.088 271.916 238.07 271.967 238.063C272.018 238.055 272.07 238.058 272.119 238.071C272.169 238.085 272.216 238.107 272.257 238.139C272.297 238.17 272.332 238.21 272.357 238.254C272.408 238.344 272.422 238.45 272.396 238.55C272.37 238.65 272.306 238.736 272.217 238.789L270.176 239.963C270.115 240 270.046 240.022 269.974 240.024L269.983 240.015ZM275.405 236.888C275.337 236.888 275.27 236.869 275.211 236.833C275.152 236.798 275.104 236.747 275.073 236.686C275.021 236.597 275.007 236.49 275.033 236.39C275.06 236.291 275.124 236.205 275.213 236.152L277.254 234.978C277.299 234.946 277.35 234.924 277.404 234.914C277.458 234.903 277.514 234.904 277.567 234.916C277.621 234.928 277.672 234.951 277.716 234.984C277.76 235.017 277.797 235.059 277.824 235.107C277.851 235.155 277.868 235.208 277.873 235.263C277.878 235.318 277.872 235.373 277.855 235.425C277.837 235.477 277.809 235.525 277.772 235.566C277.735 235.607 277.69 235.639 277.639 235.661L275.607 236.835C275.543 236.872 275.47 236.89 275.397 236.888H275.405ZM261.731 236.161C261.627 236.161 261.526 236.119 261.452 236.045C261.378 235.971 261.337 235.871 261.337 235.767V233.419C261.337 233.314 261.378 233.214 261.452 233.14C261.526 233.066 261.627 233.025 261.731 233.025C261.836 233.025 261.936 233.066 262.01 233.14C262.084 233.214 262.125 233.314 262.125 233.419V235.767C262.125 235.819 262.115 235.871 262.094 235.919C262.074 235.968 262.044 236.012 262.007 236.048C261.969 236.085 261.925 236.114 261.876 236.133C261.827 236.153 261.775 236.162 261.722 236.161H261.731ZM280.837 233.752C280.768 233.751 280.701 233.732 280.641 233.699C280.582 233.665 280.531 233.617 280.495 233.559C280.444 233.468 280.432 233.361 280.46 233.261C280.487 233.161 280.554 233.076 280.644 233.025L282.676 231.851C282.764 231.814 282.863 231.811 282.953 231.841C283.044 231.871 283.12 231.933 283.168 232.016C283.216 232.098 283.233 232.195 283.215 232.289C283.197 232.383 283.146 232.467 283.07 232.525L281.029 233.699C280.968 233.735 280.899 233.753 280.828 233.752H280.837ZM286.268 230.624C286.198 230.626 286.129 230.608 286.068 230.572C286.008 230.537 285.959 230.485 285.926 230.423C285.875 230.333 285.861 230.227 285.887 230.127C285.913 230.027 285.978 229.941 286.066 229.889L288.107 228.715C288.152 228.683 288.204 228.661 288.258 228.65C288.312 228.64 288.367 228.64 288.421 228.653C288.475 228.665 288.525 228.688 288.57 228.721C288.614 228.754 288.651 228.795 288.678 228.843C288.705 228.891 288.721 228.944 288.727 228.999C288.732 229.054 288.726 229.109 288.708 229.162C288.691 229.214 288.663 229.262 288.626 229.303C288.588 229.343 288.543 229.376 288.493 229.398L286.452 230.572C286.393 230.605 286.327 230.623 286.259 230.624H286.268ZM261.74 229.897C261.635 229.897 261.535 229.856 261.461 229.782C261.387 229.708 261.346 229.608 261.346 229.503V227.155C261.346 227.051 261.387 226.951 261.461 226.877C261.535 226.803 261.635 226.761 261.74 226.761C261.844 226.761 261.945 226.803 262.019 226.877C262.092 226.951 262.134 227.051 262.134 227.155V229.512C262.133 229.564 262.121 229.616 262.1 229.664C262.078 229.712 262.048 229.755 262.009 229.791C261.971 229.827 261.926 229.855 261.877 229.873C261.827 229.891 261.775 229.9 261.722 229.897H261.74ZM291.699 227.488C291.615 227.485 291.535 227.454 291.469 227.401C291.404 227.349 291.357 227.277 291.336 227.195C291.314 227.114 291.319 227.029 291.35 226.95C291.381 226.872 291.435 226.806 291.506 226.761L293.539 225.587C293.583 225.561 293.633 225.543 293.685 225.536C293.736 225.528 293.789 225.531 293.839 225.544C293.89 225.557 293.937 225.58 293.979 225.611C294.021 225.643 294.056 225.682 294.082 225.728C294.132 225.818 294.145 225.925 294.117 226.025C294.089 226.125 294.023 226.21 293.933 226.262L291.901 227.436C291.842 227.469 291.775 227.487 291.708 227.488H291.699ZM297.13 224.361C297.061 224.36 296.993 224.34 296.933 224.305C296.873 224.27 296.823 224.22 296.789 224.159C296.738 224.069 296.725 223.962 296.753 223.862C296.781 223.762 296.847 223.677 296.938 223.625L298.97 222.451C299.061 222.401 299.168 222.388 299.268 222.416C299.368 222.444 299.453 222.51 299.504 222.6C299.556 222.69 299.57 222.796 299.543 222.896C299.517 222.996 299.453 223.082 299.364 223.135L297.323 224.308C297.26 224.346 297.186 224.364 297.113 224.361H297.13ZM261.74 223.625C261.635 223.625 261.535 223.584 261.461 223.51C261.387 223.436 261.346 223.335 261.346 223.231V220.883C261.346 220.831 261.356 220.78 261.376 220.732C261.395 220.685 261.424 220.641 261.461 220.605C261.498 220.568 261.541 220.539 261.589 220.519C261.637 220.499 261.688 220.489 261.74 220.489C261.792 220.489 261.843 220.499 261.891 220.519C261.939 220.539 261.982 220.568 262.019 220.605C262.055 220.641 262.084 220.685 262.104 220.732C262.124 220.78 262.134 220.831 262.134 220.883V223.231C262.134 223.284 262.123 223.337 262.102 223.386C262.082 223.435 262.051 223.479 262.012 223.516C261.974 223.553 261.928 223.582 261.879 223.6C261.829 223.619 261.776 223.627 261.722 223.625H261.74ZM302.561 221.225C302.492 221.226 302.424 221.209 302.364 221.175C302.304 221.141 302.254 221.092 302.22 221.032C302.168 220.943 302.154 220.836 302.181 220.736C302.207 220.636 302.271 220.551 302.36 220.498L304.401 219.324C304.445 219.296 304.494 219.278 304.545 219.27C304.596 219.262 304.649 219.264 304.699 219.277C304.749 219.291 304.796 219.314 304.837 219.346C304.877 219.378 304.911 219.418 304.935 219.464C304.986 219.555 304.999 219.662 304.971 219.762C304.943 219.862 304.877 219.947 304.786 219.998L302.754 221.172C302.69 221.209 302.617 221.227 302.544 221.225H302.561ZM307.984 218.098C307.915 218.097 307.848 218.079 307.789 218.043C307.731 218.008 307.683 217.957 307.651 217.896C307.624 217.852 307.607 217.803 307.6 217.752C307.592 217.701 307.595 217.649 307.608 217.599C307.621 217.55 307.644 217.503 307.676 217.462C307.707 217.421 307.746 217.387 307.791 217.362L309.823 216.188C309.914 216.136 310.022 216.121 310.123 216.149C310.224 216.176 310.31 216.242 310.362 216.332C310.415 216.423 310.429 216.531 310.402 216.632C310.374 216.733 310.308 216.819 310.218 216.871L308.185 218.045C308.122 218.092 308.046 218.12 307.966 218.124L307.984 218.098ZM261.74 217.362C261.635 217.362 261.535 217.32 261.461 217.246C261.387 217.172 261.346 217.072 261.346 216.968V214.62C261.346 214.515 261.387 214.415 261.461 214.341C261.535 214.267 261.635 214.226 261.74 214.226C261.844 214.226 261.945 214.267 262.019 214.341C262.092 214.415 262.134 214.515 262.134 214.62V216.968C262.134 217.021 262.123 217.074 262.102 217.123C262.082 217.172 262.051 217.216 262.012 217.253C261.974 217.289 261.928 217.318 261.879 217.337C261.829 217.356 261.776 217.364 261.722 217.362H261.74ZM312.933 214.41C312.873 214.426 312.81 214.426 312.749 214.41C312.703 214.386 312.663 214.354 312.629 214.315C312.596 214.276 312.571 214.231 312.555 214.182C312.54 214.133 312.534 214.081 312.539 214.03C312.544 213.979 312.559 213.929 312.583 213.884C312.851 213.385 313.001 212.83 313.021 212.263V211.79C313.035 211.697 313.082 211.612 313.154 211.55C313.225 211.489 313.316 211.455 313.411 211.455C313.505 211.455 313.596 211.489 313.668 211.55C313.739 211.612 313.786 211.697 313.801 211.79V212.263C313.784 212.956 313.604 213.634 313.275 214.243C313.236 214.302 313.182 214.348 313.119 214.377C313.056 214.407 312.985 214.418 312.916 214.41H312.933ZM261.722 211.116C261.619 211.116 261.52 211.076 261.447 211.004C261.373 210.931 261.33 210.833 261.328 210.73V208.374C261.328 208.269 261.37 208.169 261.444 208.095C261.518 208.021 261.618 207.98 261.722 207.98C261.827 207.98 261.927 208.021 262.001 208.095C262.075 208.169 262.117 208.269 262.117 208.374V210.73C262.114 210.833 262.072 210.931 261.998 211.004C261.924 211.076 261.825 211.116 261.722 211.116ZM313.406 208.251C313.302 208.251 313.202 208.21 313.128 208.136C313.054 208.062 313.012 207.962 313.012 207.857V205.509C313.004 205.453 313.007 205.396 313.023 205.342C313.039 205.287 313.066 205.237 313.103 205.194C313.14 205.151 313.186 205.116 313.238 205.093C313.289 205.069 313.345 205.057 313.402 205.057C313.459 205.057 313.515 205.069 313.566 205.093C313.618 205.116 313.664 205.151 313.701 205.194C313.738 205.237 313.765 205.287 313.781 205.342C313.796 205.396 313.8 205.453 313.792 205.509V207.857C313.785 207.957 313.741 208.051 313.667 208.119C313.594 208.187 313.498 208.225 313.398 208.225L313.406 208.251ZM261.722 204.852C261.618 204.852 261.518 204.811 261.444 204.737C261.37 204.663 261.328 204.563 261.328 204.458V202.111C261.328 202.006 261.37 201.906 261.444 201.832C261.518 201.758 261.618 201.716 261.722 201.716C261.827 201.716 261.927 201.758 262.001 201.832C262.075 201.906 262.117 202.006 262.117 202.111V204.458C262.11 204.558 262.065 204.652 261.992 204.72C261.919 204.788 261.822 204.826 261.722 204.826V204.852ZM313.406 201.979C313.304 201.979 313.206 201.939 313.134 201.866C313.061 201.794 313.021 201.696 313.021 201.594V199.237C313.035 199.144 313.082 199.059 313.154 198.997C313.225 198.936 313.316 198.902 313.411 198.902C313.505 198.902 313.596 198.936 313.668 198.997C313.739 199.059 313.786 199.144 313.801 199.237V201.594C313.792 201.695 313.744 201.789 313.667 201.856C313.59 201.923 313.491 201.958 313.389 201.953L313.406 201.979ZM261.722 198.589C261.618 198.589 261.518 198.548 261.444 198.474C261.37 198.4 261.328 198.299 261.328 198.195V195.847C261.328 195.743 261.37 195.642 261.444 195.568C261.518 195.494 261.618 195.453 261.722 195.453C261.827 195.453 261.927 195.494 262.001 195.568C262.075 195.642 262.117 195.743 262.117 195.847V198.195C262.11 198.295 262.065 198.388 261.992 198.457C261.919 198.525 261.822 198.563 261.722 198.563V198.589ZM313.406 195.716C313.303 195.713 313.205 195.671 313.133 195.597C313.061 195.524 313.021 195.425 313.021 195.322V192.974C313.012 192.918 313.016 192.861 313.032 192.806C313.048 192.752 313.075 192.701 313.112 192.658C313.149 192.615 313.195 192.581 313.246 192.557C313.298 192.533 313.354 192.521 313.411 192.521C313.467 192.521 313.523 192.533 313.575 192.557C313.627 192.581 313.672 192.615 313.709 192.658C313.746 192.701 313.774 192.752 313.789 192.806C313.805 192.861 313.809 192.918 313.801 192.974V195.322C313.794 195.425 313.747 195.521 313.67 195.59C313.593 195.658 313.492 195.694 313.389 195.689L313.406 195.716ZM261.722 192.317C261.618 192.317 261.518 192.275 261.444 192.201C261.37 192.128 261.328 192.027 261.328 191.923V189.575C261.328 189.47 261.37 189.37 261.444 189.296C261.518 189.222 261.618 189.181 261.722 189.181C261.827 189.181 261.927 189.222 262.001 189.296C262.075 189.37 262.117 189.47 262.117 189.575V191.923C262.11 192.023 262.065 192.116 261.992 192.185C261.919 192.253 261.822 192.291 261.722 192.291V192.317ZM313.406 189.452C313.303 189.45 313.205 189.408 313.133 189.334C313.061 189.26 313.021 189.161 313.021 189.058V186.71C313.012 186.654 313.016 186.597 313.032 186.543C313.048 186.488 313.075 186.438 313.112 186.395C313.149 186.352 313.195 186.317 313.246 186.294C313.298 186.27 313.354 186.258 313.411 186.258C313.467 186.258 313.523 186.27 313.575 186.294C313.627 186.317 313.672 186.352 313.709 186.395C313.746 186.438 313.774 186.488 313.789 186.543C313.805 186.597 313.809 186.654 313.801 186.71V189.058C313.794 189.161 313.747 189.257 313.67 189.326C313.593 189.395 313.492 189.431 313.389 189.426L313.406 189.452ZM261.722 186.053C261.618 186.053 261.518 186.012 261.444 185.938C261.37 185.864 261.328 185.764 261.328 185.659V183.312C261.328 183.207 261.37 183.107 261.444 183.033C261.518 182.959 261.618 182.917 261.722 182.917C261.827 182.917 261.927 182.959 262.001 183.033C262.075 183.107 262.117 183.207 262.117 183.312V185.659C262.11 185.759 262.065 185.853 261.992 185.921C261.919 185.99 261.822 186.027 261.722 186.027V186.053ZM313.406 183.18C313.303 183.18 313.204 183.14 313.131 183.068C313.057 182.996 313.014 182.898 313.012 182.795V180.456C313.012 180.351 313.054 180.251 313.128 180.177C313.202 180.103 313.302 180.062 313.406 180.062C313.511 180.062 313.611 180.103 313.685 180.177C313.759 180.251 313.801 180.351 313.801 180.456V182.812C313.787 182.911 313.738 183 313.661 183.064C313.585 183.127 313.488 183.159 313.389 183.154L313.406 183.18ZM261.722 179.781C261.619 179.781 261.52 179.741 261.447 179.669C261.373 179.597 261.33 179.499 261.328 179.396V177.039C261.328 176.935 261.37 176.835 261.444 176.761C261.518 176.687 261.618 176.645 261.722 176.645C261.827 176.645 261.927 176.687 262.001 176.761C262.075 176.835 262.117 176.935 262.117 177.039V179.396C262.108 179.494 262.062 179.586 261.989 179.652C261.916 179.719 261.821 179.755 261.722 179.755V179.781ZM313.406 176.917C313.302 176.917 313.202 176.875 313.128 176.801C313.054 176.727 313.012 176.627 313.012 176.523V174.149C313.012 174.044 313.054 173.944 313.128 173.87C313.202 173.796 313.302 173.754 313.406 173.754C313.511 173.754 313.611 173.796 313.685 173.87C313.759 173.944 313.801 174.044 313.801 174.149V176.496C313.801 176.55 313.79 176.602 313.769 176.651C313.748 176.7 313.717 176.745 313.679 176.781C313.64 176.818 313.595 176.847 313.545 176.866C313.495 176.884 313.442 176.893 313.389 176.891L313.406 176.917ZM261.722 173.518C261.618 173.518 261.518 173.476 261.444 173.402C261.37 173.329 261.328 173.228 261.328 173.124V170.776C261.328 170.672 261.37 170.571 261.444 170.497C261.518 170.423 261.618 170.382 261.722 170.382C261.827 170.382 261.927 170.423 262.001 170.497C262.075 170.571 262.117 170.672 262.117 170.776V173.124C262.11 173.224 262.065 173.317 261.992 173.386C261.919 173.454 261.822 173.492 261.722 173.492V173.518ZM313.406 170.653C313.302 170.653 313.202 170.612 313.128 170.538C313.054 170.464 313.012 170.364 313.012 170.259V167.912C313.004 167.855 313.007 167.798 313.023 167.744C313.039 167.689 313.066 167.639 313.103 167.596C313.14 167.553 313.186 167.518 313.238 167.495C313.289 167.471 313.345 167.459 313.402 167.459C313.459 167.459 313.515 167.471 313.566 167.495C313.618 167.518 313.664 167.553 313.701 167.596C313.738 167.639 313.765 167.689 313.781 167.744C313.796 167.798 313.8 167.855 313.792 167.912V170.259C313.785 170.361 313.739 170.456 313.664 170.524C313.589 170.593 313.49 170.63 313.389 170.627L313.406 170.653ZM261.722 167.255C261.618 167.255 261.518 167.213 261.444 167.139C261.37 167.065 261.328 166.965 261.328 166.86V164.513C261.328 164.408 261.37 164.308 261.444 164.234C261.518 164.16 261.618 164.118 261.722 164.118C261.827 164.118 261.927 164.16 262.001 164.234C262.075 164.308 262.117 164.408 262.117 164.513V166.86C262.11 166.96 262.065 167.054 261.992 167.122C261.919 167.191 261.822 167.228 261.722 167.228V167.255ZM313.406 164.381C313.302 164.381 313.202 164.34 313.128 164.266C313.054 164.192 313.012 164.092 313.012 163.987V161.639C313.004 161.583 313.007 161.526 313.023 161.472C313.039 161.417 313.066 161.367 313.103 161.324C313.14 161.281 313.186 161.246 313.238 161.222C313.289 161.199 313.345 161.187 313.402 161.187C313.459 161.187 313.515 161.199 313.566 161.222C313.618 161.246 313.664 161.281 313.701 161.324C313.738 161.367 313.765 161.417 313.781 161.472C313.796 161.526 313.8 161.583 313.792 161.639V163.987C313.785 164.089 313.739 164.183 313.664 164.252C313.589 164.321 313.49 164.357 313.389 164.355L313.406 164.381ZM261.722 160.982C261.619 160.982 261.52 160.942 261.447 160.87C261.373 160.798 261.33 160.7 261.328 160.597V158.24C261.328 158.136 261.37 158.036 261.444 157.962C261.518 157.888 261.618 157.846 261.722 157.846C261.827 157.846 261.927 157.888 262.001 157.962C262.075 158.036 262.117 158.136 262.117 158.24V160.597C262.108 160.695 262.062 160.787 261.989 160.853C261.916 160.92 261.821 160.956 261.722 160.956V160.982ZM313.406 158.118C313.302 158.118 313.202 158.076 313.128 158.002C313.054 157.928 313.012 157.828 313.012 157.724V155.376C313.004 155.32 313.007 155.263 313.023 155.208C313.039 155.154 313.066 155.103 313.103 155.06C313.14 155.017 313.186 154.983 313.238 154.959C313.289 154.935 313.345 154.923 313.402 154.923C313.459 154.923 313.515 154.935 313.566 154.959C313.618 154.983 313.664 155.017 313.701 155.06C313.738 155.103 313.765 155.154 313.781 155.208C313.796 155.263 313.8 155.32 313.792 155.376V157.68C313.794 157.734 313.785 157.788 313.766 157.838C313.747 157.889 313.717 157.935 313.68 157.973C313.642 158.012 313.597 158.042 313.547 158.063C313.496 158.083 313.443 158.093 313.389 158.092L313.406 158.118ZM262.642 154.92C262.557 154.92 262.474 154.892 262.406 154.842C262.322 154.779 262.267 154.685 262.252 154.582C262.237 154.479 262.264 154.373 262.327 154.29C262.663 153.825 263.089 153.432 263.579 153.133L264.263 152.739C264.352 152.688 264.459 152.674 264.559 152.7C264.658 152.726 264.744 152.791 264.797 152.879C264.824 152.923 264.841 152.972 264.848 153.023C264.856 153.074 264.853 153.126 264.84 153.176C264.827 153.226 264.804 153.273 264.772 153.313C264.741 153.354 264.702 153.388 264.657 153.414L263.974 153.808C263.575 154.052 263.23 154.374 262.957 154.754C262.917 154.802 262.866 154.84 262.808 154.864C262.75 154.889 262.687 154.899 262.625 154.894L262.642 154.92ZM313.398 151.846C313.295 151.846 313.197 151.805 313.125 151.733C313.053 151.661 313.012 151.562 313.012 151.46V149.104C313.026 149.01 313.073 148.925 313.145 148.864C313.216 148.802 313.308 148.768 313.402 148.768C313.496 148.768 313.588 148.802 313.659 148.864C313.731 148.925 313.778 149.01 313.792 149.104V151.46C313.783 151.562 313.735 151.656 313.658 151.723C313.581 151.79 313.482 151.824 313.38 151.819L313.398 151.846ZM267.846 151.513C267.776 151.514 267.706 151.496 267.646 151.461C267.586 151.425 267.536 151.373 267.504 151.311C267.453 151.222 267.439 151.115 267.465 151.015C267.491 150.916 267.555 150.83 267.644 150.777L269.685 149.603C269.775 149.552 269.881 149.538 269.981 149.564C270.081 149.59 270.167 149.655 270.22 149.743C270.271 149.834 270.286 149.942 270.259 150.043C270.233 150.145 270.169 150.232 270.079 150.286L268.056 151.434C267.989 151.472 267.913 151.49 267.837 151.487L267.846 151.513ZM273.268 148.377C273.184 148.373 273.104 148.342 273.038 148.29C272.973 148.237 272.926 148.165 272.905 148.084C272.883 148.003 272.888 147.917 272.919 147.839C272.95 147.761 273.004 147.694 273.075 147.65L275.108 146.467C275.198 146.415 275.306 146.401 275.407 146.428C275.508 146.455 275.594 146.521 275.646 146.612C275.699 146.702 275.713 146.81 275.686 146.911C275.659 147.012 275.592 147.098 275.502 147.15L273.469 148.324C273.403 148.352 273.33 148.361 273.259 148.35L273.268 148.377ZM313.389 145.582C313.284 145.582 313.184 145.541 313.11 145.467C313.036 145.393 312.995 145.293 312.995 145.188V142.788C312.995 142.683 313.036 142.583 313.11 142.509C313.184 142.435 313.284 142.394 313.389 142.394C313.493 142.394 313.594 142.435 313.668 142.509C313.741 142.583 313.783 142.683 313.783 142.788V145.136C313.787 145.19 313.779 145.245 313.76 145.297C313.741 145.348 313.712 145.395 313.674 145.435C313.636 145.474 313.591 145.505 313.54 145.526C313.489 145.547 313.435 145.557 313.38 145.556L313.389 145.582ZM278.699 145.241C278.631 145.239 278.564 145.221 278.504 145.188C278.444 145.154 278.394 145.106 278.358 145.048C278.307 144.957 278.294 144.85 278.322 144.75C278.35 144.65 278.416 144.565 278.506 144.514L280.539 143.34C280.583 143.313 280.632 143.296 280.683 143.288C280.734 143.281 280.786 143.284 280.836 143.297C280.885 143.31 280.932 143.333 280.973 143.364C281.014 143.396 281.048 143.435 281.073 143.48C281.124 143.57 281.139 143.676 281.112 143.776C281.086 143.876 281.022 143.961 280.933 144.014L278.892 145.188C278.828 145.215 278.759 145.224 278.69 145.214L278.699 145.241ZM284.13 142.113C284.066 142.109 284.005 142.088 283.951 142.052C283.897 142.017 283.853 141.969 283.824 141.912C283.772 141.822 283.758 141.716 283.785 141.616C283.811 141.516 283.875 141.43 283.964 141.377L285.996 140.204C286.087 140.152 286.195 140.138 286.296 140.164C286.398 140.19 286.485 140.254 286.539 140.344C286.566 140.388 286.583 140.438 286.589 140.489C286.596 140.541 286.592 140.593 286.578 140.643C286.565 140.692 286.541 140.739 286.508 140.78C286.476 140.82 286.436 140.854 286.39 140.878L284.358 142.061C284.284 142.093 284.201 142.102 284.122 142.087L284.13 142.113ZM313.389 139.319C313.284 139.319 313.184 139.277 313.11 139.203C313.036 139.13 312.995 139.029 312.995 138.925V136.577C312.995 136.472 313.036 136.372 313.11 136.298C313.184 136.224 313.284 136.183 313.389 136.183C313.493 136.183 313.594 136.224 313.668 136.298C313.741 136.372 313.783 136.472 313.783 136.577V138.925C313.774 139.025 313.727 139.117 313.653 139.184C313.578 139.251 313.48 139.286 313.38 139.284L313.389 139.319ZM289.553 138.977C289.484 138.976 289.417 138.958 289.358 138.924C289.298 138.891 289.248 138.843 289.211 138.785C289.16 138.692 289.147 138.584 289.175 138.483C289.203 138.381 289.269 138.295 289.36 138.241L291.392 137.068C291.483 137.017 291.59 137.004 291.69 137.032C291.79 137.06 291.875 137.126 291.927 137.216C291.978 137.306 291.992 137.412 291.966 137.512C291.94 137.612 291.875 137.698 291.787 137.751L289.746 138.925C289.682 138.952 289.612 138.961 289.544 138.951L289.553 138.977ZM294.984 135.841C294.915 135.843 294.847 135.825 294.787 135.792C294.727 135.758 294.677 135.708 294.642 135.648C294.591 135.559 294.577 135.453 294.603 135.353C294.629 135.253 294.694 135.167 294.783 135.114L296.824 133.94C296.868 133.915 296.917 133.899 296.967 133.892C297.018 133.886 297.069 133.889 297.119 133.903C297.168 133.916 297.214 133.939 297.254 133.97C297.295 134.002 297.328 134.041 297.354 134.085C297.379 134.129 297.395 134.178 297.402 134.229C297.408 134.279 297.405 134.331 297.391 134.38C297.378 134.429 297.355 134.475 297.323 134.515C297.292 134.556 297.253 134.589 297.209 134.615L295.212 135.78C295.135 135.804 295.052 135.804 294.975 135.78L294.984 135.841ZM313.38 133.047C313.277 133.047 313.178 133.006 313.104 132.934C313.031 132.862 312.988 132.764 312.986 132.661V130.305C312.986 130.2 313.027 130.1 313.101 130.026C313.175 129.952 313.275 129.911 313.38 129.911C313.485 129.911 313.585 129.952 313.659 130.026C313.733 130.1 313.774 130.2 313.774 130.305V132.661C313.765 132.76 313.72 132.851 313.647 132.918C313.574 132.984 313.479 133.021 313.38 133.02V133.047ZM300.398 132.714C300.328 132.713 300.26 132.693 300.2 132.658C300.141 132.623 300.091 132.573 300.056 132.512C300.005 132.422 299.993 132.315 300.021 132.215C300.049 132.115 300.115 132.029 300.205 131.978L302.237 130.804C302.327 130.753 302.433 130.739 302.533 130.765C302.633 130.791 302.719 130.856 302.772 130.944C302.798 130.988 302.816 131.037 302.823 131.088C302.83 131.139 302.827 131.191 302.814 131.241C302.801 131.291 302.778 131.338 302.747 131.378C302.716 131.419 302.676 131.453 302.632 131.479L300.599 132.661C300.535 132.686 300.466 132.695 300.398 132.688V132.714ZM305.829 129.578C305.76 129.579 305.692 129.562 305.632 129.528C305.572 129.494 305.522 129.445 305.487 129.385C305.436 129.294 305.421 129.186 305.447 129.085C305.474 128.984 305.538 128.897 305.627 128.842L307.669 127.668C307.714 127.636 307.765 127.615 307.819 127.604C307.873 127.593 307.928 127.594 307.982 127.606C308.036 127.618 308.086 127.641 308.131 127.674C308.175 127.707 308.212 127.749 308.239 127.797C308.266 127.845 308.282 127.898 308.288 127.953C308.293 128.008 308.287 128.063 308.269 128.115C308.252 128.167 308.224 128.215 308.187 128.256C308.15 128.297 308.104 128.329 308.054 128.351L306.022 129.525C305.961 129.55 305.894 129.559 305.829 129.551V129.578ZM313.24 126.801C313.162 126.801 313.086 126.777 313.022 126.734C312.958 126.69 312.909 126.628 312.881 126.556C312.67 126.056 312.145 125.986 311.54 126.337L311.453 126.389C311.408 126.416 311.358 126.434 311.307 126.441C311.255 126.448 311.203 126.446 311.152 126.433C311.101 126.419 311.054 126.397 311.012 126.365C310.971 126.334 310.936 126.294 310.91 126.249C310.883 126.204 310.866 126.155 310.86 126.104C310.853 126.052 310.857 126 310.871 125.95C310.885 125.9 310.908 125.854 310.941 125.813C310.973 125.773 311.013 125.739 311.059 125.715L311.146 125.662C311.337 125.51 311.561 125.403 311.799 125.35C312.038 125.297 312.285 125.3 312.523 125.357C312.76 125.415 312.982 125.526 313.17 125.682C313.358 125.838 313.508 126.035 313.608 126.258C313.645 126.354 313.643 126.462 313.602 126.557C313.561 126.652 313.485 126.727 313.389 126.766C313.341 126.782 313.289 126.785 313.24 126.775V126.801Z" fill="#5A37BD"/>
<path d="M261.722 178.581C261.654 178.581 261.588 178.563 261.529 178.529L259.488 177.355C259.399 177.302 259.335 177.216 259.309 177.116C259.283 177.016 259.297 176.91 259.348 176.82C259.399 176.73 259.484 176.664 259.585 176.636C259.685 176.608 259.792 176.621 259.882 176.672L261.923 177.828C262.014 177.881 262.081 177.968 262.109 178.069C262.136 178.171 262.123 178.279 262.072 178.371C262.04 178.435 261.989 178.489 261.927 178.526C261.865 178.564 261.794 178.583 261.722 178.581ZM256.291 175.445C256.223 175.444 256.157 175.426 256.098 175.393L254.039 174.219C253.959 174.162 253.903 174.079 253.882 173.983C253.86 173.888 253.875 173.788 253.923 173.703C253.971 173.618 254.049 173.553 254.142 173.522C254.234 173.491 254.335 173.496 254.425 173.535L256.466 174.718C256.555 174.771 256.619 174.857 256.645 174.957C256.672 175.057 256.657 175.163 256.606 175.252C256.574 175.308 256.528 175.355 256.473 175.389C256.418 175.423 256.355 175.442 256.291 175.445ZM250.868 172.309C250.798 172.309 250.728 172.291 250.667 172.256L248.634 171.083C248.544 171.031 248.478 170.946 248.45 170.846C248.422 170.746 248.435 170.639 248.486 170.548C248.512 170.503 248.547 170.464 248.588 170.432C248.63 170.401 248.677 170.378 248.728 170.365C248.778 170.352 248.831 170.349 248.883 170.356C248.934 170.364 248.984 170.381 249.029 170.408L251.061 171.582C251.132 171.627 251.187 171.693 251.217 171.771C251.248 171.849 251.253 171.935 251.232 172.016C251.21 172.097 251.163 172.17 251.098 172.222C251.033 172.275 250.952 172.305 250.868 172.309ZM245.437 169.173C245.366 169.177 245.295 169.159 245.236 169.12L243.203 167.947C243.159 167.921 243.119 167.887 243.088 167.846C243.056 167.805 243.033 167.759 243.02 167.709C243.007 167.659 243.004 167.607 243.012 167.556C243.019 167.505 243.037 167.456 243.063 167.412C243.116 167.323 243.202 167.259 243.302 167.233C243.402 167.207 243.508 167.221 243.597 167.272L245.63 168.446C245.701 168.491 245.756 168.557 245.786 168.635C245.817 168.713 245.822 168.799 245.8 168.88C245.779 168.961 245.732 169.033 245.667 169.086C245.601 169.139 245.521 169.169 245.437 169.173Z" fill="#5A37BD"/>
<path d="M312.732 116.219C317.26 113.591 320.931 115.728 320.931 120.958C320.931 126.188 317.26 132.556 312.732 135.167C308.203 137.777 304.523 135.666 304.523 130.436C304.523 125.207 308.185 118.838 312.732 116.219Z" fill="#FAFAFA"/>
<path d="M309.052 136.656C308.245 136.668 307.449 136.462 306.748 136.06C305.093 135.105 304.182 133.117 304.182 130.463C304.182 125.128 307.94 118.619 312.556 115.956C314.851 114.625 317.033 114.423 318.688 115.378C320.344 116.333 321.264 118.33 321.264 120.984C321.264 126.319 317.506 132.819 312.889 135.491C311.732 136.203 310.41 136.605 309.052 136.656ZM316.384 115.457C315.143 115.506 313.935 115.877 312.88 116.534C308.448 119.092 304.839 125.338 304.839 130.463C304.839 132.863 305.636 134.65 307.072 135.482C308.509 136.314 310.463 136.113 312.547 134.904C316.98 132.346 320.58 126.1 320.58 120.984C320.58 118.575 319.783 116.797 318.347 115.965C317.752 115.615 317.074 115.43 316.384 115.43V115.457Z" fill="#5A37BD"/>
<path d="M317.988 123.621V121.685C317.988 121.335 317.743 121.195 317.437 121.37L314.108 123.288V119.443C314.108 119.092 313.862 118.952 313.565 119.127L311.856 120.1C311.696 120.204 311.562 120.345 311.466 120.511C311.37 120.677 311.315 120.863 311.305 121.054V124.891L307.976 126.81C307.815 126.914 307.681 127.055 307.585 127.221C307.49 127.387 307.434 127.573 307.424 127.765V129.709C307.424 130.06 307.669 130.2 307.976 130.025L311.305 128.106V131.943C311.305 132.293 311.55 132.442 311.856 132.267L313.538 131.295C313.697 131.189 313.828 131.047 313.923 130.882C314.017 130.716 314.071 130.53 314.081 130.34V126.503L317.41 124.576C317.576 124.474 317.715 124.335 317.815 124.169C317.916 124.003 317.975 123.815 317.988 123.621Z" fill="#5A37BD"/>
<path d="M315.824 145.994V206.736C315.8 207.189 315.669 207.63 315.443 208.023C315.216 208.416 314.899 208.749 314.519 208.996L270.613 234.347C270.483 234.446 270.329 234.507 270.166 234.522C270.003 234.538 269.84 234.508 269.694 234.435L267.241 233.025C267.1 232.931 266.99 232.798 266.923 232.642C266.856 232.487 266.836 232.316 266.864 232.149V158.81C266.887 158.358 267.016 157.917 267.241 157.525C267.467 157.132 267.782 156.798 268.161 156.55L301.133 137.532L315.824 145.994Z" fill="#F0F0F0"/>
<path d="M271.761 160.133L267.179 157.61C266.976 157.978 266.862 158.389 266.847 158.81V232.14C266.818 232.307 266.838 232.478 266.905 232.634C266.972 232.789 267.083 232.922 267.223 233.016L269.676 234.426C269.822 234.499 269.986 234.529 270.148 234.514C270.311 234.498 270.466 234.438 270.596 234.339L271.743 233.682L271.761 160.133Z" fill="#E0E0E0"/>
<path d="M315.824 145.994V206.736C315.798 207.188 315.667 207.629 315.44 208.021C315.214 208.414 314.898 208.748 314.519 208.996L270.614 234.347C269.896 234.759 269.309 234.426 269.309 233.594V160.229C269.333 159.776 269.464 159.336 269.691 158.943C269.918 158.55 270.234 158.217 270.614 157.969L296.237 143.165L303.586 138.925L315.824 145.994Z" fill="#FAFAFA"/>
<path d="M303.586 139.669L315.176 146.371V206.736C315.153 207.075 315.052 207.405 314.882 207.699C314.712 207.994 314.477 208.246 314.195 208.435L270.29 233.787C270.21 233.836 270.12 233.866 270.027 233.874C270.027 233.874 269.966 233.778 269.966 233.594V160.229C269.989 159.891 270.088 159.562 270.256 159.268C270.425 158.973 270.658 158.721 270.938 158.53L296.561 143.725L303.569 139.669H303.586ZM303.569 138.925L296.219 143.165L270.596 157.969C270.216 158.217 269.9 158.55 269.673 158.943C269.446 159.336 269.315 159.776 269.291 160.229V233.559C269.291 234.146 269.589 234.488 270.018 234.488C270.223 234.482 270.423 234.421 270.596 234.312L314.484 208.961C314.863 208.713 315.178 208.379 315.405 207.986C315.632 207.594 315.763 207.153 315.789 206.701V145.994L303.525 138.925H303.569Z" fill="#E0E0E0"/>
<path d="M309.403 146.476C309.876 146.476 310.209 146.853 310.209 147.51V199.194C310.181 199.695 310.036 200.183 309.785 200.619C309.534 201.054 309.184 201.424 308.763 201.699L276.351 220.393C276.158 220.519 275.934 220.589 275.703 220.594C275.23 220.594 274.906 220.218 274.906 219.561V167.877C274.934 167.375 275.079 166.887 275.33 166.452C275.581 166.017 275.931 165.646 276.351 165.371L298.251 152.731L308.763 146.678C308.956 146.559 309.177 146.492 309.403 146.485V146.476ZM309.403 145.88C309.068 145.89 308.742 145.986 308.457 146.161L297.945 152.205L276.045 164.854C275.532 165.182 275.106 165.627 274.801 166.152C274.496 166.678 274.322 167.27 274.293 167.877V219.561C274.27 219.762 274.288 219.965 274.348 220.159C274.407 220.352 274.505 220.531 274.637 220.685C274.768 220.839 274.93 220.964 275.112 221.052C275.294 221.141 275.492 221.19 275.694 221.199C276.032 221.191 276.361 221.094 276.649 220.919L309.061 202.225C309.574 201.896 310 201.449 310.305 200.922C310.61 200.394 310.784 199.802 310.813 199.194V147.51C310.838 147.308 310.82 147.104 310.761 146.91C310.703 146.716 310.604 146.537 310.473 146.383C310.341 146.229 310.178 146.104 309.996 146.016C309.813 145.928 309.614 145.879 309.412 145.872L309.403 145.88Z" fill="#5A37BD"/>
<path d="M303.586 151.548V138.925L315.85 145.994L304.917 152.301C304.173 152.722 303.586 152.424 303.586 151.548Z" fill="#E0E0E0"/>
<path d="M281.537 184.932L303.604 172.064C304.087 171.761 304.493 171.349 304.788 170.86C305.084 170.372 305.26 169.821 305.303 169.252C305.303 168.236 304.541 167.85 303.604 168.376L281.529 181.236C281.045 181.54 280.64 181.954 280.346 182.444C280.052 182.934 279.878 183.486 279.838 184.056C279.838 185.09 280.6 185.476 281.537 184.932ZM303.604 176.523L281.529 189.391C281.045 189.695 280.64 190.109 280.346 190.599C280.052 191.09 279.878 191.642 279.838 192.212C279.838 193.219 280.6 193.605 281.537 193.088L303.604 180.22C304.089 179.916 304.495 179.502 304.79 179.012C305.086 178.522 305.261 177.969 305.303 177.399C305.303 176.365 304.541 175.98 303.604 176.523ZM303.604 184.661L281.529 197.529C281.045 197.831 280.639 198.243 280.345 198.732C280.051 199.221 279.877 199.772 279.838 200.341C279.838 201.357 280.6 201.743 281.537 201.217L303.604 188.34C304.089 188.039 304.496 187.627 304.791 187.138C305.086 186.649 305.262 186.098 305.303 185.528C305.303 184.503 304.541 184.118 303.604 184.661Z" fill="#5A37BD"/>
<path opacity="0.3" d="M281.537 184.932L303.604 172.064C304.087 171.761 304.493 171.349 304.788 170.86C305.084 170.372 305.26 169.821 305.303 169.252C305.303 168.236 304.541 167.85 303.604 168.376L281.529 181.236C281.045 181.54 280.64 181.954 280.346 182.444C280.052 182.934 279.878 183.486 279.838 184.056C279.838 185.09 280.6 185.476 281.537 184.932ZM303.604 176.523L281.529 189.391C281.045 189.695 280.64 190.109 280.346 190.599C280.052 191.09 279.878 191.642 279.838 192.212C279.838 193.219 280.6 193.605 281.537 193.088L303.604 180.22C304.089 179.916 304.495 179.502 304.79 179.012C305.086 178.522 305.261 177.969 305.303 177.399C305.303 176.365 304.541 175.98 303.604 176.523ZM303.604 184.661L281.529 197.529C281.045 197.831 280.639 198.243 280.345 198.732C280.051 199.221 279.877 199.772 279.838 200.341C279.838 201.357 280.6 201.743 281.537 201.217L303.604 188.34C304.089 188.039 304.496 187.627 304.791 187.138C305.086 186.649 305.262 186.098 305.303 185.528C305.303 184.503 304.541 184.118 303.604 184.661Z" fill="white"/>
<path d="M244.685 149.086V209.793C244.659 210.246 244.528 210.686 244.301 211.078C244.074 211.471 243.759 211.805 243.38 212.053L199.475 237.396C199.341 237.491 199.185 237.549 199.022 237.565C198.859 237.58 198.695 237.552 198.546 237.484L196.102 236.073C195.961 235.979 195.851 235.846 195.784 235.691C195.717 235.535 195.697 235.364 195.725 235.197V161.902C195.75 161.45 195.879 161.01 196.105 160.618C196.33 160.225 196.644 159.891 197.022 159.642L229.995 140.607L244.685 149.086Z" fill="#F0F0F0"/>
<path d="M200.604 163.225L196.049 160.702C195.84 161.069 195.723 161.481 195.707 161.902V235.241C195.685 235.408 195.709 235.579 195.777 235.733C195.845 235.888 195.954 236.02 196.093 236.117L198.537 237.527C198.684 237.602 198.849 237.633 199.014 237.617C199.178 237.602 199.335 237.54 199.465 237.44L200.604 236.783V163.225Z" fill="#E0E0E0"/>
<path d="M244.684 149.086V209.793C244.658 210.246 244.526 210.686 244.3 211.078C244.073 211.471 243.757 211.805 243.378 212.053L199.473 237.396C198.755 237.808 198.168 237.475 198.168 236.642V163.321C198.192 162.868 198.323 162.428 198.55 162.035C198.777 161.642 199.093 161.309 199.473 161.061L225.131 146.292L232.472 142.052L244.684 149.086Z" fill="#FAFAFA"/>
<path d="M232.437 142.788L244.035 149.489V209.819C244.01 210.158 243.909 210.487 243.739 210.781C243.569 211.075 243.335 211.328 243.054 211.519L199.149 236.87C199.067 236.921 198.974 236.951 198.878 236.958C198.828 236.873 198.807 236.775 198.816 236.678V163.321C198.84 162.982 198.94 162.653 199.11 162.358C199.28 162.064 199.515 161.812 199.797 161.622L225.42 146.818L232.428 142.762L232.437 142.788ZM232.428 142.017L225.131 146.292L199.508 161.096C199.128 161.344 198.812 161.677 198.585 162.07C198.358 162.463 198.228 162.904 198.203 163.356V236.686C198.203 237.273 198.501 237.615 198.93 237.615C199.135 237.609 199.335 237.549 199.508 237.44L243.413 212.088C243.793 211.84 244.108 211.506 244.335 211.113C244.561 210.721 244.693 210.281 244.719 209.828V149.121L232.455 142.052L232.428 142.017Z" fill="#E0E0E0"/>
<path d="M238.272 149.568C238.745 149.568 239.069 149.945 239.069 150.602V202.286C239.041 202.787 238.896 203.275 238.645 203.711C238.394 204.146 238.044 204.516 237.624 204.791L205.212 223.485C205.018 223.609 204.794 223.679 204.564 223.686C204.09 223.686 203.766 223.31 203.766 222.653V170.969C203.794 170.467 203.939 169.979 204.19 169.544C204.442 169.109 204.791 168.739 205.212 168.463L227.112 155.823L237.624 149.77C237.82 149.652 238.043 149.585 238.272 149.577V149.568ZM238.272 148.972C237.937 148.98 237.611 149.077 237.326 149.253L226.814 155.297L204.914 167.947C204.402 168.274 203.976 168.719 203.671 169.245C203.366 169.771 203.192 170.362 203.162 170.969V222.653C203.139 222.854 203.158 223.057 203.217 223.251C203.276 223.444 203.374 223.623 203.506 223.777C203.637 223.931 203.799 224.056 203.981 224.144C204.163 224.233 204.361 224.283 204.564 224.291C204.898 224.283 205.225 224.186 205.51 224.011L237.922 205.317C238.434 204.988 238.861 204.541 239.165 204.014C239.47 203.487 239.644 202.894 239.674 202.286V150.602C239.697 150.401 239.678 150.197 239.619 150.004C239.56 149.81 239.461 149.631 239.33 149.477C239.198 149.324 239.036 149.199 238.854 149.11C238.672 149.022 238.474 148.972 238.272 148.964V148.972Z" fill="#5A37BD"/>
<path d="M232.447 154.64V142.017L244.711 149.086L233.779 155.394C233.017 155.814 232.447 155.472 232.447 154.64Z" fill="#E0E0E0"/>
<path d="M210.39 188.025L232.465 175.2C232.949 174.897 233.355 174.485 233.65 173.996C233.945 173.508 234.121 172.957 234.165 172.388C234.165 171.372 233.402 170.986 232.465 171.512L210.39 184.372C209.905 184.675 209.499 185.089 209.206 185.579C208.912 186.069 208.738 186.622 208.699 187.192C208.699 188.182 209.453 188.568 210.39 188.025ZM232.465 179.615L210.39 192.483C209.905 192.787 209.499 193.2 209.206 193.691C208.912 194.181 208.738 194.734 208.699 195.304C208.699 196.312 209.453 196.697 210.39 196.18L232.465 183.312C232.95 183.008 233.356 182.594 233.652 182.104C233.947 181.614 234.123 181.062 234.165 180.491C234.165 179.457 233.402 179.081 232.465 179.58V179.615ZM232.465 187.753L210.39 200.604C209.904 200.904 209.498 201.316 209.204 201.805C208.91 202.294 208.737 202.846 208.699 203.416C208.699 204.432 209.453 204.818 210.39 204.292L232.465 191.423C232.95 191.122 233.357 190.71 233.652 190.222C233.948 189.733 234.123 189.181 234.165 188.612C234.165 187.595 233.402 187.21 232.465 187.753Z" fill="#5A37BD"/>
<path opacity="0.3" d="M210.39 188.025L232.465 175.2C232.949 174.897 233.355 174.485 233.65 173.996C233.945 173.508 234.121 172.957 234.165 172.388C234.165 171.372 233.402 170.986 232.465 171.512L210.39 184.372C209.905 184.675 209.499 185.089 209.206 185.579C208.912 186.069 208.738 186.622 208.699 187.192C208.699 188.182 209.453 188.568 210.39 188.025ZM232.465 179.615L210.39 192.483C209.905 192.787 209.499 193.2 209.206 193.691C208.912 194.181 208.738 194.734 208.699 195.304C208.699 196.312 209.453 196.697 210.39 196.18L232.465 183.312C232.95 183.008 233.356 182.594 233.652 182.104C233.947 181.614 234.123 181.062 234.165 180.491C234.165 179.457 233.402 179.081 232.465 179.58V179.615ZM232.465 187.753L210.39 200.604C209.904 200.904 209.498 201.316 209.204 201.805C208.91 202.294 208.737 202.846 208.699 203.416C208.699 204.432 209.453 204.818 210.39 204.292L232.465 191.423C232.95 191.122 233.357 190.71 233.652 190.222C233.948 189.733 234.123 189.181 234.165 188.612C234.165 187.595 233.402 187.21 232.465 187.753Z" fill="white"/>
<path d="M340.342 349.805C340.412 353.606 340.71 359.134 340.342 360.711C339.974 362.288 333.641 363.829 328.682 364.057C323.724 364.285 317.759 363.54 317.4 367.044C317.04 370.548 320.15 372.887 322.428 373.938C326.291 375.734 330.601 375.34 334.394 374.814C338.187 374.289 340.211 374.657 344.214 375.638C348.217 376.619 350.477 376.014 352.186 375.156C354.726 373.886 354.051 369.55 353.158 366.729C352.264 363.908 352.361 361.324 352.694 357.408C353.027 353.492 354.148 347.772 354.148 347.772L340.342 349.805Z" fill="#FFBDA7"/>
<path d="M353.159 366.659C353.159 366.659 353.159 367.859 350.531 368.411C347.903 368.963 343.628 368.814 340.606 369.015C336.077 369.304 332.643 369.821 327.466 369.015C322.911 368.297 323.086 364.688 327.185 364.11C322.595 364.188 317.716 363.873 317.392 367.009C317.033 370.513 320.142 372.852 322.42 373.903C326.283 375.699 330.593 375.305 334.386 374.779C338.179 374.254 340.203 374.622 344.206 375.603C348.209 376.584 350.47 375.979 352.178 375.121C354.727 373.816 354.052 369.48 353.159 366.659Z" fill="#455A64"/>
<path d="M387.419 340.37C389.547 343.454 393.051 349.288 393.551 350.733C394.05 352.179 394.479 357.618 393.551 359.222C392.219 360.194 390.134 360.755 388.356 361.631C385.78 362.901 385.229 365.012 386.911 366.624C389.249 368.875 393.043 369.138 395.32 369.006C398.649 368.498 398.877 364.775 399.35 361.473C399.823 358.17 399.288 351.697 401.794 347.711C404.299 343.725 408.723 343.331 409.301 344.68C409.03 342.674 407.917 342.621 405.526 341.264C403.134 339.906 401.04 339.95 399.718 336.805C398.141 333.082 396.713 328.64 396.713 328.64L387.419 340.37Z" fill="#FFBDA7"/>
<path d="M392.098 369.068C394.48 369.462 396.162 369.462 400.393 367.386C404.055 365.59 404.984 364.828 405.544 363.838C406.42 362.261 405.474 358.372 406.236 355.025C406.803 352.667 407.613 350.374 408.654 348.184C409.486 346.152 409.425 345.276 409.294 344.68C409.004 343.41 406.42 343.252 403.959 344.68C401.497 346.108 399.903 348.832 399.088 355.323C398.273 361.814 399.526 368.91 392.098 369.068Z" fill="#263238"/>
<path d="M409.294 344.68C409.014 342.674 408.322 342.376 405.93 341.027C405.054 340.519 404.178 340.151 403.346 339.748C401.024 339.31 397.371 341.132 397.214 346.003C397.056 350.873 397.862 357.049 396.399 359.335C395.146 361.289 393.097 361.157 393.57 359.222C390.276 360.43 389.146 360.448 387.289 361.464C385.151 362.638 384.433 365.695 386.413 366.922C389.026 368.701 392.208 369.444 395.339 369.006C398.668 368.498 398.896 364.775 399.369 361.473C399.842 358.17 399.307 351.697 401.813 347.711C404.318 343.725 408.716 343.392 409.294 344.68Z" fill="#455A64"/>
<path d="M388.068 342.306C388.068 342.306 375.988 324.567 369.54 313.074C364.766 304.577 364.337 302.93 363.163 297.367C360.649 285.427 360.062 282.624 360.062 282.624L356.313 306.749C356.917 309.377 358.126 314.554 358.17 317.603C358.138 323.558 357.654 329.503 356.724 335.386C355.851 342.016 354.626 348.595 353.054 355.096C352.117 355.744 349.392 355.875 347.027 355.796C344.723 355.656 342.445 355.229 340.247 354.526C340.247 354.526 338.276 326.1 337.82 318.277C337.268 308.895 337.076 305.207 336.778 300.057C336.314 291.848 335.201 279.97 335.516 264.885C336.147 234.891 342.831 221.199 342.831 221.199L376.68 216.495C379.492 226.604 385.334 227.778 385.948 241.575C386.088 244.702 384.432 250.922 384.371 255.775C384.196 271.543 382.785 296.298 382.785 296.298C386.5 299.724 389.224 302.825 391.791 310.77C393.35 315.597 396.81 327.826 398.273 332.784C393.989 332.784 387.998 340.37 388.068 342.306Z" fill="#455A64"/>
<path d="M353.816 238.491L354.692 238.351C355.481 243.791 356.777 249.958 357.487 250.44C358.731 251.316 363.339 251.982 364.372 251.719C365.406 251.456 366.326 250.615 368.165 248.118C369.453 246.366 369.313 245.271 369.041 242.862C368.927 241.986 368.796 240.953 368.717 239.674L369.593 239.613C369.672 240.856 369.795 241.864 369.909 242.749C370.215 245.158 370.399 246.603 368.884 248.662C366.895 251.36 365.896 252.288 364.582 252.604C364.393 252.65 364.199 252.673 364.004 252.674C362.182 252.761 358.223 252.034 356.996 251.202C355.656 250.273 354.219 241.242 353.816 238.491Z" fill="#37474F"/>
<path d="M339.958 237.694L340.834 237.948C338.267 247.155 338.828 255.591 343.418 258.157C344.294 251.938 345.433 245.508 347.053 238.631L347.929 238.842C342.673 260.996 342.078 278.446 342.752 299.408C343.26 315.387 344.277 342.84 344.75 355.586L343.83 355.428C343.357 342.613 342.349 315.334 341.841 299.443C341.386 285.243 341.535 272.655 343.287 259.147C338.031 256.458 337.207 247.567 339.958 237.694Z" fill="#37474F"/>
<path d="M385.545 245.955C384.982 246.495 384.301 246.897 383.556 247.129C382.128 247.19 379.763 245.158 379.088 243.625C378.771 242.727 378.58 241.789 378.519 240.839C378.381 239.448 378.129 238.071 377.766 236.722L378.642 236.459C379.021 237.857 379.284 239.284 379.43 240.725C379.481 241.585 379.649 242.434 379.929 243.248C380.499 244.544 382.557 246.244 383.521 246.2C384.386 245.772 385.157 245.177 385.79 244.448C385.702 244.869 385.615 245.491 385.545 245.955Z" fill="#37474F"/>
<path d="M390.888 337.532C391.098 337.287 391.317 337.05 391.536 336.814C385.755 326.731 373.342 304.682 372.264 299.33C370.845 292.479 368.401 269.502 368.296 257.141H367.42C367.516 269.546 369.969 292.628 371.397 299.513C372.509 305.12 385.15 327.528 390.888 337.532Z" fill="#37474F"/>
<path d="M373.175 234.891C375.47 238.544 376.863 244.956 373.902 251.982L373.07 251.622C375.891 244.921 374.577 238.842 372.404 235.39L373.175 234.891Z" fill="#37474F"/>
<path d="M360.035 282.624L363.714 257.334C363.714 257.334 373.236 256.003 374.55 247.067C374.778 252.323 372.667 256.922 366.754 259.331L362.024 282.677L363.136 297.323L360.035 282.624Z" fill="#37474F"/>
<path d="M379.535 175.638C385.667 177.101 389.04 178.809 391.572 187.184C393.972 195.068 397.993 208.497 399.053 214.173C399.561 216.942 399.797 219.578 395.952 221.181C387.262 224.861 378.878 227.436 378.878 227.436L375.488 217.178L384.774 212.535L382.461 205.054L379.535 175.638Z" fill="#FFBDA7"/>
<path d="M384.774 212.553C385.561 214.33 386.909 215.801 388.611 216.74C386.342 217.012 384.135 214.646 383.557 213.157L384.774 212.553Z" fill="#F0997A"/>
<path d="M379.973 175.568C382.724 176.067 386.49 176.646 389.241 180.824C391.992 185.003 396.459 199.571 396.459 199.571C396.459 199.571 394.278 202.286 388.575 203.81C382.872 205.335 380.472 204.038 380.472 204.038L376.215 190.092L379.973 175.568Z" fill="#5A37BD"/>
<path opacity="0.2" d="M379.973 175.568C382.724 176.067 386.49 176.646 389.241 180.824C391.992 185.003 396.459 199.571 396.459 199.571C396.459 199.571 394.278 202.286 388.575 203.81C382.872 205.335 380.472 204.038 380.472 204.038L376.215 190.092L379.973 175.568Z" fill="black"/>
<path d="M349.61 144.969C348.533 143.533 348.691 141.378 349.462 139.713C350.232 138.049 351.722 136.428 355.848 134.65C360.753 132.539 374.138 131.146 379.272 140.099C380.034 141.439 366.044 165.117 366.316 170.154C363.25 166.423 353.176 153.379 353.176 153.379C350.662 152.091 349.155 151.04 348.796 148.552C348.688 147.302 348.973 146.05 349.61 144.969Z" fill="#263238"/>
<path d="M351.073 151.916C351.073 151.916 347.166 157.391 347.516 157.882C348.286 158.586 349.116 159.222 349.995 159.782L351.073 151.916Z" fill="#F0997A"/>
<path d="M356.172 141.781C353.746 142.727 351.573 144.409 350.478 149.498C350.189 150.83 351.109 152.748 350.478 154.509C347.85 162.043 349.865 168.621 351.258 170.146C352.195 171.17 357.442 171.968 360.263 171.389C363.767 170.671 371.564 167.815 375.541 162.629C380.21 156.559 381.804 148.062 377.345 144.295C371.108 139.012 358.765 140.773 356.172 141.781Z" fill="#FFBDA7"/>
<path d="M372.992 166.834L373.43 174.49C377.688 176.97 368.893 180.211 359.563 176.242L358.889 169.34L372.992 166.834Z" fill="#FFBDA7"/>
<path d="M359.203 172.467C359.37 174.219 359.545 176.847 356.803 177.618C354.219 178.301 350.049 178.73 345.984 180.246C345.984 180.246 360.631 182.558 368.322 181.288C376.014 180.018 377.345 175.077 377.345 175.077C374.577 174.701 373.421 174.201 373.316 172.449L359.203 172.467Z" fill="#FFBDA7"/>
<path d="M351.547 170.356C352.729 171.127 355.401 171.819 359.116 171.573L358.949 169.655C357.781 170.028 356.582 170.295 355.366 170.452C354.095 170.611 352.808 170.578 351.547 170.356Z" fill="#F0997A"/>
<path d="M352.501 144.295C352.133 147.624 354.157 148.832 355.602 149.595C354.946 150.785 354.643 152.137 354.726 153.493C354.936 155.245 355.488 156.646 357.117 157.33C358.107 157.741 358.44 157.33 358.869 156.541C359.465 155.429 360.236 153.721 362.671 154.229C365.466 154.816 365.913 159.117 364.064 161.78C363.706 162.345 363.216 162.815 362.636 163.149C362.056 163.483 361.404 163.672 360.735 163.698C360.372 163.662 360.02 163.551 359.701 163.372C359.383 163.192 359.106 162.948 358.887 162.656C358.887 162.656 358.808 166.37 363.416 168.91C363.416 168.91 368.032 171.959 373.052 170.846C375.453 168.547 377.728 166.12 379.867 163.576C385.605 156.427 386.805 142.858 378.115 139.757C377.703 139.617 370.573 137.812 366.605 138.382C354.411 140.16 352.562 143.717 352.501 144.295Z" fill="#263238"/>
<path d="M379.307 140.16C380.673 140.16 384.817 142.271 384.799 151.469C384.799 157.689 383.301 166.002 381.295 169.865C375.969 175.735 360.552 176.873 353.736 174.394C358.116 172.371 358.94 166.887 358.922 162.638C360.937 165.687 364.625 166.414 369.093 164.171C373.56 161.929 379.307 140.16 379.307 140.16Z" fill="#263238"/>
<path d="M385.51 183.251C384.231 177.04 380.867 175.691 379.378 175.419L375.506 174.745C375.506 175.48 376.032 177.241 369.164 178.1C364.784 178.652 357.119 177.522 357.119 177.522C354.186 177.996 351.284 178.646 348.429 179.466C343.97 180.736 341.622 185.94 338.705 192.817C336.41 198.248 337.269 203.775 341.377 207.822C341.503 211.211 341.421 214.605 341.132 217.984C339.4 224.555 338.366 231.291 338.048 238.079C338.048 238.079 340.676 240.532 361.551 240.068C377.722 239.7 385.203 232.473 385.203 232.473C384.739 230.064 383.048 224.887 379.991 216.845C380.359 208.979 388.269 196.697 385.51 183.251Z" fill="#5A37BD"/>
<path d="M312.775 199.562C312.775 199.562 289.789 194.989 288.475 194.043C287.362 193.237 287.003 191.914 286.443 190.732C285.78 189.388 284.924 188.148 283.902 187.052C283.254 186.317 282.466 185.686 281.852 184.924C281.239 184.162 281.055 183.329 280.503 182.611C279.951 181.893 279.216 182.41 278.865 183.102C278.484 184.115 278.512 185.237 278.944 186.229C279.11 186.667 279.259 187.105 279.435 187.552C279.637 187.943 279.799 188.354 279.916 188.778C279.974 188.997 279.955 189.228 279.864 189.435C279.619 189.847 278.839 189.575 278.497 189.435C276.178 188.5 274.074 187.102 272.313 185.327C271.559 184.565 270.964 183.706 270.158 182.997C269.419 182.326 268.583 181.771 267.679 181.35C267.075 181.047 266.396 180.925 265.725 180.999C264.735 181.367 265.839 182.953 266.102 183.487C266.427 184.073 266.584 184.736 266.557 185.406C266.521 185.799 266.562 186.196 266.679 186.573C266.797 186.951 266.987 187.301 267.241 187.604C267.817 188.249 268.248 189.011 268.502 189.838C268.519 190.13 268.519 190.422 268.502 190.714C268.589 191.621 268.956 192.479 269.553 193.167C270.134 193.796 270.464 194.615 270.482 195.471C270.683 197.416 272.716 198.843 274.231 199.772C275.989 200.815 277.865 201.644 279.82 202.242C280.871 202.584 281.887 203.013 282.939 203.329C283.99 203.644 284.848 203.793 285.768 204.143C287.949 204.975 304.874 211.423 311.619 213.289C314.948 214.208 315.841 215.041 320.528 212.597C328.964 208.217 337.224 205.177 342.077 202.207C348.726 198.134 351.547 195.856 352.458 191.52C354.552 181.464 347.929 179.606 347.929 179.606C345.502 180.228 344.25 180.789 336.865 185.064C328.981 189.637 312.775 199.562 312.775 199.562Z" fill="#FFBDA7"/>
<path d="M347.93 179.624C343.856 180.088 341.736 181.21 337.216 184.057C332.696 186.904 324.996 191.888 324.996 191.888C325.513 196.411 327.388 200.672 330.375 204.108C334.001 208.252 336.945 207.91 336.945 207.91C336.945 207.91 349.095 198.975 351.548 195.532C354 192.09 355.823 181.77 347.93 179.624Z" fill="#5A37BD"/>
<path opacity="0.2" d="M347.93 179.624C343.856 180.088 341.736 181.21 337.216 184.057C332.696 186.904 324.996 191.888 324.996 191.888C325.513 196.411 327.388 200.672 330.375 204.108C334.001 208.252 336.945 207.91 336.945 207.91C336.945 207.91 349.095 198.975 351.548 195.532C354 192.09 355.823 181.77 347.93 179.624Z" fill="black"/>
<path d="M368.323 117.77L366.027 113.468L367.876 108.151V104.901L362.234 108.151V111.41L364.661 115.606C364.696 115.672 364.756 115.723 364.827 115.746L368.323 117.77Z" fill="#5A37BD"/>
<path opacity="0.2" d="M368.323 117.77L366.027 113.468L367.876 108.151V104.901L362.234 108.151V111.41L364.661 115.606C364.696 115.672 364.756 115.723 364.827 115.746L368.323 117.77Z" fill="black"/>
<path d="M381.779 79.0328C381.749 78.4461 381.58 77.875 381.286 77.3664C380.992 76.8578 380.581 76.4262 380.088 76.1069L378.713 75.336C378.188 75.0725 377.609 74.9353 377.022 74.9353C376.435 74.9353 375.856 75.0725 375.332 75.336L354.238 87.5124C353.745 87.8327 353.336 88.2646 353.042 88.773C352.748 89.2814 352.579 89.852 352.547 90.4383V113.652C352.577 114.239 352.746 114.81 353.04 115.319C353.334 115.827 353.744 116.259 354.238 116.578L355.657 117.384C356.18 117.652 356.76 117.791 357.347 117.791C357.935 117.791 358.515 117.652 359.038 117.384L365.818 113.468L368.236 117.656C368.272 117.714 368.324 117.761 368.385 117.792C368.446 117.823 368.515 117.836 368.584 117.829C368.652 117.823 368.717 117.797 368.772 117.756C368.827 117.714 368.868 117.658 368.893 117.594L371.425 110.201L380.115 105.173C380.608 104.853 381.018 104.422 381.312 103.913C381.606 103.404 381.775 102.833 381.805 102.247L381.779 79.0328Z" fill="#5A37BD"/>
<path d="M376.391 94.9233V92.2953C376.391 91.8222 376.049 91.6295 375.638 91.8661L371.117 94.4941V89.2381C371.117 88.765 370.785 88.5635 370.373 88.8088L368.086 90.1228C367.869 90.2654 367.689 90.457 367.56 90.6822C367.43 90.9074 367.356 91.1599 367.342 91.4193V96.6753L362.822 99.3033C362.601 99.4433 362.418 99.6341 362.287 99.8597C362.156 100.085 362.081 100.339 362.068 100.6V103.228C362.068 103.701 362.401 103.894 362.822 103.657L367.342 101.029V106.285C367.342 106.767 367.675 106.96 368.086 106.714L370.373 105.4C370.59 105.258 370.77 105.066 370.9 104.841C371.029 104.616 371.104 104.363 371.117 104.104V98.8478L375.638 96.2198C375.856 96.0782 376.039 95.887 376.169 95.6617C376.3 95.4364 376.376 95.1834 376.391 94.9233Z" fill="#FAFAFA"/>
<path opacity="0.2" d="M352.546 113.652C352.576 114.239 352.745 114.81 353.039 115.319C353.333 115.827 353.743 116.259 354.237 116.578L355.656 117.384C356.132 117.626 356.654 117.763 357.187 117.787C357.72 117.812 358.252 117.722 358.748 117.524C357.951 117.822 357.346 117.375 357.346 116.412V93.1977C357.364 92.6099 357.532 92.0365 357.837 91.5333L353.028 88.7739C352.727 89.2788 352.559 89.8512 352.537 90.4383L352.546 113.652Z" fill="black"/>
<path opacity="0.3" d="M381.725 78.551C381.524 77.8326 380.849 77.6049 380.087 78.0516L358.984 90.228C358.485 90.5357 358.076 90.9712 357.802 91.4895L353.027 88.7826C353.306 88.264 353.717 87.8286 354.219 87.5212L375.33 75.336C375.855 75.0725 376.434 74.9353 377.021 74.9353C377.608 74.9353 378.187 75.0725 378.712 75.336L380.087 76.1332C380.509 76.405 380.872 76.7593 381.153 77.1747C381.435 77.5902 381.629 78.0583 381.725 78.551Z" fill="white"/>
</svg>
