<svg width="429" height="429" viewBox="0 0 429 429" fill="none" xmlns="http://www.w3.org/2000/svg">
<path d="M189.437 402.256C188.159 401.158 185.293 397.666 187.498 393.608C188.313 392.124 190.029 391.386 191.591 390.734C193.194 390.193 194.705 389.409 196.07 388.408C198.498 386.349 199.167 382.917 200.78 380.154C202.633 376.988 206.082 374.62 209.738 374.783C213.916 374.981 217.399 378.387 218.978 382.282C220.557 386.178 220.617 390.493 220.694 394.697C220.694 397.023 220.608 399.648 218.901 401.218C217.194 402.788 214.954 402.677 212.826 402.617L189.986 401.913" fill="#F5F5F5"/>
<path d="M233.126 339.451H173.066L183.886 403.964C184.111 405.311 184.714 406.567 185.626 407.585C186.537 408.603 187.719 409.341 189.034 409.712L189.248 409.772C189.42 409.815 189.591 409.875 189.78 409.91C190.182 409.986 190.59 410.032 190.999 410.047V410.124L191.29 410.081H218.069C218.561 410.081 219.053 410.032 219.536 409.935C221.099 409.693 222.541 408.946 223.639 407.807C224.738 406.668 225.433 405.2 225.619 403.629L230.801 359.159L231.033 357.391L233.092 339.768L233.126 339.451ZM221.792 380.635H215.632L216.25 361.913H223.397L221.792 380.635ZM223.997 361.913H229.892L227.695 380.635H222.393L223.997 361.913ZM206.383 401.381L206.005 385.079H214.885L214.345 401.381H206.383ZM196.782 385.079H205.413L205.782 401.381H198.06L196.782 385.079ZM197.451 401.381H190.218C189.531 396.988 188.639 391.282 187.644 385.079H196.164L197.451 401.381ZM196.481 380.6L195.023 361.879H204.915L205.353 380.6H196.481ZM205.919 380.6L205.49 361.879H215.675L215.048 380.6H205.919ZM205.387 357.434L204.984 340.086H216.395L215.821 357.434H205.387ZM204.787 357.434H194.637L193.281 340.086H204.375L204.787 357.434ZM194.053 357.434H183.302C182.925 355.032 182.564 352.767 182.238 350.725C181.123 343.715 180.703 341.081 180.462 340.086H192.689L194.053 357.434ZM194.405 361.922L195.855 380.643H186.966C186.666 378.747 186.365 376.825 186.108 374.903C185.413 370.485 184.709 366.066 184.057 361.922H194.405ZM186.383 380.643H180.582L177.442 361.922H183.448C184.323 367.662 185.327 374.088 186.365 380.6L186.383 380.643ZM187.086 385.139C187.944 390.768 188.802 396.293 189.66 401.441H184.092L181.363 385.139H187.086ZM214.963 401.441L215.503 385.139H221.432L220.042 401.441H214.963ZM216.421 357.469L216.996 340.12H225.276L223.8 357.469H216.421ZM179.913 340.12C180.153 341.381 181.252 348.202 182.719 357.469H176.713L173.804 340.12H179.913ZM225.284 401.441H220.634L222.024 385.139H227.172L225.284 401.441ZM230.432 357.469H224.383L225.868 340.12H232.466L230.432 357.469Z" fill="#E0E0E0"/>
<path d="M236.053 275.676L203.647 285.774C202.572 286.098 201.412 285.988 200.418 285.466C199.423 284.945 198.672 284.054 198.327 282.986L184.35 238.129C184.026 237.054 184.137 235.895 184.658 234.9C185.18 233.906 186.07 233.155 187.139 232.81L207.688 226.409L228.709 237.846L238.842 270.356C239.166 271.431 239.055 272.591 238.534 273.585C238.013 274.58 237.122 275.33 236.053 275.676Z" fill="#EBEBEB"/>
<path d="M207.688 226.409L211.626 239.03C211.941 240.026 212.639 240.856 213.565 241.338C214.491 241.821 215.571 241.917 216.568 241.604L228.708 237.821L207.688 226.409Z" fill="#E0E0E0"/>
<path d="M208.742 239.382C208.793 239.545 205.481 240.721 201.337 242.008C197.193 243.295 193.804 244.213 193.753 244.05C193.701 243.887 197.022 242.711 201.157 241.424C205.293 240.137 208.699 239.202 208.742 239.382Z" fill="#FAFAFA"/>
<path d="M220.651 243.483C220.703 243.646 215.22 245.499 208.407 247.619C201.595 249.738 196.026 251.334 195.975 251.171C195.923 251.008 201.406 249.155 208.227 247.035C215.048 244.916 220.6 243.32 220.651 243.483Z" fill="#FAFAFA"/>
<path d="M224.737 248.751C224.788 248.914 218.808 250.922 211.377 253.239C203.947 255.555 197.89 257.297 197.838 257.134C197.787 256.971 203.767 254.963 211.197 252.647C218.628 250.33 224.685 248.588 224.737 248.751Z" fill="#FAFAFA"/>
<path d="M226.512 254.371C226.563 254.534 220.583 256.542 213.153 258.859C205.723 261.175 199.665 262.917 199.614 262.754C199.562 262.591 205.542 260.583 212.973 258.267C220.403 255.95 226.435 254.208 226.512 254.371Z" fill="#FAFAFA"/>
<path d="M228.229 259.974C228.28 260.137 222.3 262.145 214.878 264.461C207.457 266.778 201.382 268.52 201.33 268.357C201.279 268.194 207.259 266.194 214.689 263.878C222.12 261.561 228.229 259.837 228.229 259.974Z" fill="#FAFAFA"/>
<path d="M229.988 265.62C230.039 265.783 224.059 267.791 216.637 270.107C209.216 272.424 203.149 274.166 203.098 274.003C203.047 273.84 209.027 271.832 216.448 269.515C223.87 267.199 229.945 265.457 229.988 265.62Z" fill="#FAFAFA"/>
<path d="M373.556 100.652L341.922 88.3741C340.88 87.9552 340.044 87.1446 339.593 86.1164C339.143 85.0882 339.113 83.9242 339.511 82.8743L356.542 39.1163C356.743 38.5965 357.045 38.1215 357.43 37.7185C357.815 37.3154 358.276 36.9923 358.786 36.7675C359.296 36.5428 359.845 36.4209 360.402 36.4087C360.96 36.3966 361.514 36.4945 362.033 36.6968L382.102 44.5046L391.402 66.4951L379.056 98.2411C378.637 99.2827 377.826 100.119 376.798 100.569C375.77 101.02 374.606 101.05 373.556 100.652Z" fill="#EBEBEB"/>
<path d="M382.101 44.4531L377.305 56.774C377.111 57.2593 377.016 57.7782 377.024 58.3007C377.032 58.8232 377.144 59.3389 377.353 59.8178C377.562 60.2967 377.865 60.7293 378.242 61.0905C378.62 61.4517 379.065 61.7344 379.553 61.922L391.402 66.5295L382.101 44.4531Z" fill="#E0E0E0"/>
<path d="M374.843 55.2382C374.783 55.4013 371.462 54.2515 367.421 52.6642C363.38 51.0769 360.154 49.687 360.214 49.5325C360.274 49.3781 363.603 50.5192 367.644 52.1065C371.685 53.6938 374.946 55.0838 374.843 55.2382Z" fill="#FAFAFA"/>
<path d="M381.587 65.8859C381.527 66.0403 376.087 64.0755 369.438 61.4843C362.788 58.8932 357.426 56.6709 357.503 56.5165C357.58 56.3621 363.003 58.344 369.661 60.918C376.319 63.492 381.647 65.7228 381.587 65.8859Z" fill="#FAFAFA"/>
<path d="M381.491 72.5439C381.431 72.707 375.485 70.5448 368.253 67.722C361.02 64.8992 355.211 62.4882 355.211 62.3337C355.211 62.1793 361.217 64.3329 368.45 67.1557C375.683 69.9785 381.552 72.3895 381.491 72.5439Z" fill="#FAFAFA"/>
<path d="M379.357 78.0782C379.297 78.2327 373.351 76.0791 366.118 73.2563C358.885 70.4334 353.042 68.0225 353.102 67.8594C353.162 67.6964 359.108 69.8672 366.341 72.6814C373.574 75.4956 379.425 77.8723 379.357 78.0782Z" fill="#FAFAFA"/>
<path d="M377.229 83.5265C377.16 83.6809 371.223 81.5274 363.99 78.7045C356.757 75.8817 350.905 73.4707 350.965 73.3077C351.025 73.1447 356.971 75.3069 364.213 78.1297C371.454 80.9525 377.289 83.3635 377.229 83.5265Z" fill="#FAFAFA"/>
<path d="M375.091 89.0089C375.023 89.172 369.085 87.0098 361.852 84.1956C354.619 81.3813 348.768 78.936 348.837 78.7987C348.905 78.6615 354.843 80.7979 362.075 83.6207C369.308 86.4435 375.151 88.8545 375.091 89.0089Z" fill="#FAFAFA"/>
<path d="M76.3618 225.911C77.0198 226.021 77.6095 226.382 78.0064 226.919C78.4034 227.455 78.5766 228.124 78.4897 228.786C78.361 229.644 78.2323 230.502 78.1808 230.914L75.2636 250.056C75.1896 250.49 74.9515 250.879 74.5985 251.143C74.2456 251.406 73.8048 251.524 73.3674 251.471L29.5579 244.805C29.1414 244.729 28.7673 244.503 28.5076 244.169C28.2479 243.835 28.1208 243.416 28.1508 242.994L30.3902 218.189C30.4147 217.964 30.4835 217.746 30.5927 217.548C30.7019 217.349 30.8493 217.175 31.0263 217.033C31.2034 216.892 31.4067 216.788 31.6244 216.725C31.8421 216.663 32.07 216.644 32.2949 216.671L42.2048 218.181C43.1389 218.33 43.9917 218.8 44.6158 219.511L46.3919 221.561L76.3618 225.911Z" fill="#E0E0E0"/>
<path d="M79.2302 228.989L31.3555 221.706L26.9603 250.597L74.835 257.88L79.2302 228.989Z" fill="#F5F5F5"/>
<path d="M27.1556 223.723L26.229 254.406C26.2215 254.668 26.3096 254.924 26.477 255.126C26.6443 255.328 26.8794 255.462 27.1384 255.504L73.7879 262.599C74.0599 262.637 74.3361 262.57 74.5596 262.41C74.7831 262.25 74.9368 262.011 74.9891 261.741L81.9217 231.969C81.9556 231.826 81.96 231.678 81.9347 231.533C81.9094 231.389 81.855 231.251 81.7747 231.128C81.6944 231.005 81.59 230.9 81.4678 230.819C81.3455 230.738 81.2081 230.682 81.0637 230.656L28.4083 222.651C28.2533 222.626 28.0949 222.635 27.9438 222.678C27.7928 222.72 27.6528 222.795 27.5336 222.897C27.4144 222.999 27.3188 223.126 27.2535 223.269C27.1883 223.411 27.1549 223.567 27.1556 223.723Z" fill="#EBEBEB"/>
<path d="M139.254 228.451C129.816 233.359 122.531 241.793 117.315 251.094C112.098 260.394 108.735 270.579 105.405 280.712L102.488 332.904C113.496 314.174 122.342 292.149 124.728 270.553L117.4 269.893C122.317 269.146 126.435 265.603 129.061 261.364C131.686 257.126 133.033 252.278 134.354 247.482L125.414 248.82C132.475 244.063 137.432 236.768 139.254 228.451Z" fill="#455A64"/>
<g opacity="0.3">
<path d="M139.254 228.451C129.816 233.359 122.531 241.793 117.315 251.094C112.098 260.394 108.735 270.579 105.405 280.712L102.488 332.904C113.496 314.174 122.342 292.149 124.728 270.553L117.4 269.893C122.317 269.146 126.435 265.603 129.061 261.364C131.686 257.126 133.033 252.278 134.354 247.482L125.414 248.82C132.475 244.063 137.432 236.768 139.254 228.451Z" fill="black"/>
</g>
<path d="M100.858 345.156C100.858 345.156 76.9537 316.55 77.2197 289.24H86.8808C86.8808 289.24 76.3617 282.342 77.2197 278.481C78.0777 274.62 78.3351 259.974 78.3351 259.974L87.1639 262.187C87.1639 262.187 80.5402 258.876 79.7165 253.607C78.8928 248.339 81.647 224.092 81.647 224.092C81.647 224.092 92.4063 235.401 95.7182 246.984C99.0301 258.567 107.73 272.089 105.156 307.404C102.582 342.719 100.858 345.156 100.858 345.156Z" fill="#455A64"/>
<path d="M112.972 347.859C112.972 347.859 138.875 330.605 144.624 308.588L136.859 306.478C136.859 306.478 146.803 303.226 146.984 299.94C147.164 296.654 150.15 284.856 150.15 284.856L142.573 284.702C142.573 284.702 148.579 283.483 150.433 279.451C152.286 275.418 155.298 255.281 155.298 255.281C155.298 255.281 144.144 262.025 138.996 270.613C133.848 279.202 123.86 288.168 118.181 317.117C112.501 346.066 112.972 347.859 112.972 347.859Z" fill="#455A64"/>
<path d="M88.1758 249.077C88.2136 249.171 88.2423 249.269 88.2616 249.369L88.4675 250.227L89.2225 253.659C89.5572 255.126 89.9433 256.936 90.3637 259.039C90.7841 261.141 91.2817 263.534 91.7622 266.194C92.7918 271.497 93.8729 277.846 94.9797 284.899C96.0865 291.951 97.1333 299.742 98.0943 307.927C99.0552 316.113 99.7588 323.938 100.316 331.093C100.874 338.249 101.243 344.641 101.458 350.038C101.586 352.741 101.655 355.186 101.715 357.322C101.775 359.459 101.827 361.321 101.844 362.831C101.861 364.341 101.844 365.482 101.844 366.306V367.207C101.857 367.309 101.857 367.413 101.844 367.515C101.833 367.416 101.833 367.315 101.844 367.215C101.844 366.984 101.844 366.683 101.844 366.306C101.844 365.448 101.775 364.324 101.724 362.831C101.672 361.338 101.621 359.476 101.518 357.331C101.415 355.186 101.346 352.749 101.192 350.055C100.934 344.658 100.505 338.249 99.9561 331.128C99.407 324.006 98.6348 316.198 97.6996 308.013C96.7644 299.828 95.6833 292.054 94.6279 284.993C93.5726 277.932 92.4915 271.6 91.5048 266.289C91.0415 263.629 90.5696 261.235 90.1663 259.124C89.7631 257.014 89.4113 255.203 89.111 253.728C88.8107 252.252 88.5876 251.154 88.4332 250.296C88.3645 249.927 88.3045 249.626 88.2702 249.438C88.2257 249.321 88.1941 249.2 88.1758 249.077Z" fill="#263238"/>
<path d="M97.5453 362.676C97.5453 362.676 75.6663 337.863 68.8795 322.857L74.0275 320.669C70.3124 321.278 66.5029 319.682 63.62 317.237C60.7371 314.791 58.6264 311.625 56.5501 308.476L63.3025 307.335C57.0981 305.562 51.8138 301.47 48.5449 295.907C56.5157 297.219 63.7315 301.595 69.6689 307.061C74.3885 311.593 78.6742 316.557 82.4702 321.887C84.3809 324.449 86.0443 327.187 87.4381 330.064C91.0931 337.683 97.5539 353.564 97.5453 362.676Z" fill="#455A64"/>
<path d="M145.001 269.729C144.978 269.816 144.943 269.9 144.898 269.978L144.564 270.699L143.234 273.453C142.058 275.838 140.402 279.305 138.386 283.603C136.37 287.902 134.053 293.041 131.522 298.816C128.991 304.59 126.417 310.965 123.8 317.692C121.183 324.418 118.849 330.948 116.799 336.885C114.748 342.823 113.015 348.202 111.651 352.732C110.286 357.263 109.145 360.952 108.407 363.5L107.549 366.435C107.447 366.752 107.369 367.001 107.309 367.198C107.249 367.396 107.223 367.456 107.215 367.447C107.219 367.372 107.23 367.297 107.249 367.224C107.301 367.027 107.361 366.778 107.447 366.452C107.635 365.748 107.893 364.736 108.227 363.5C108.914 360.926 109.943 357.237 111.342 352.689C112.74 348.142 114.422 342.745 116.43 336.791C118.437 330.836 120.797 324.341 123.405 317.58C126.014 310.819 128.682 304.436 131.127 298.704C133.573 292.973 136.001 287.808 138.051 283.518C140.102 279.228 141.809 275.796 143.028 273.427L144.435 270.708C144.589 270.424 144.709 270.193 144.812 270.013C144.915 269.832 145.001 269.721 145.001 269.729Z" fill="#263238"/>
<path d="M99.3977 373.316C99.3428 373.17 99.3082 373.017 99.2947 372.861C99.2347 372.509 99.166 372.072 99.0802 371.54C98.9086 370.399 98.6255 368.743 98.2222 366.718C97.819 364.693 97.2699 362.282 96.5577 359.648C95.8456 357.014 94.9104 354.148 93.8035 351.188C92.6967 348.228 91.4612 345.491 90.2772 343.028C89.0931 340.566 87.9091 338.395 86.8452 336.611C85.7812 334.826 84.9232 333.402 84.2712 332.432L83.559 331.3C83.4622 331.176 83.3868 331.036 83.3359 330.888C83.4476 330.995 83.5455 331.116 83.6277 331.248C83.8422 331.54 84.0996 331.892 84.4084 332.329C85.0863 333.273 86.0129 334.68 87.094 336.456C88.1751 338.232 89.3763 340.386 90.6032 342.84C91.8301 345.294 93.0485 348.065 94.1811 351.034C95.3136 354.002 96.2317 356.928 96.9524 359.502C97.6731 362.076 98.1793 364.573 98.5397 366.623C98.9001 368.674 99.1403 370.33 99.2518 371.48C99.3033 372.02 99.3462 372.458 99.3805 372.81C99.4103 372.977 99.4161 373.147 99.3977 373.316Z" fill="#263238"/>
<path d="M128.261 367.473H80.3848V377.237H128.261V367.473Z" fill="#5A37BD"/>
<path d="M84.9492 377.245L90.123 410.089H119.055L123.877 377.245H84.9492Z" fill="#5A37BD"/>
<path d="M125.328 377.246C125.328 377.366 116.267 377.469 105.096 377.469C93.9249 377.469 84.873 377.366 84.873 377.246C84.873 377.125 93.9249 377.022 105.096 377.022C116.267 377.022 125.328 377.117 125.328 377.246Z" fill="#263238"/>
<path d="M284.718 49.0691H70.9297V182.977H284.718V49.0691Z" fill="white"/>
<path d="M284.718 49.0691H70.9297V61.3385H284.718V49.0691Z" fill="#455A64"/>
<path d="M284.719 180.326H70.8535V204.47H284.719V180.326Z" fill="#F5F5F5"/>
<path d="M114.817 192.003H116.73L117.331 193.256H117.743L115.83 189.266H115.718L113.805 193.256H114.217L114.817 192.003ZM115.778 190.013L116.55 191.634H114.972L115.778 190.013Z" fill="#263238"/>
<path d="M118.026 194.114H113.496V194.431H118.026V194.114Z" fill="#263238"/>
<path d="M86.6579 189.035H86.3576C85.9236 189.065 85.5174 189.259 85.2211 189.578C84.9249 189.896 84.7607 190.316 84.7617 190.751C84.9752 192.017 85.5265 193.203 86.3576 194.183C86.3576 194.183 86.4691 194.389 86.6579 194.183C87.489 193.203 88.0403 192.017 88.2538 190.751C88.2549 190.316 88.0906 189.896 87.7944 189.578C87.4981 189.259 87.0919 189.065 86.6579 189.035ZM86.5035 191.755C86.3164 191.755 86.1336 191.699 85.9782 191.595C85.8228 191.491 85.7019 191.343 85.6307 191.17C85.5595 190.997 85.5414 190.807 85.5785 190.623C85.6156 190.44 85.7063 190.272 85.8392 190.14C85.972 190.009 86.141 189.919 86.3247 189.884C86.5083 189.849 86.6983 189.869 86.8706 189.941C87.0429 190.014 87.1897 190.136 87.2924 190.293C87.3951 190.449 87.449 190.632 87.4473 190.819C87.4473 191.066 87.3499 191.302 87.1764 191.478C87.0028 191.653 86.7672 191.752 86.5206 191.755H86.5035Z" fill="#263238"/>
<path d="M107.884 193.05C107.884 193.307 107.782 193.554 107.6 193.736C107.419 193.918 107.172 194.02 106.915 194.02C106.658 194.02 106.411 193.918 106.229 193.736C106.047 193.554 105.945 193.307 105.945 193.05V189.919C105.945 189.752 106.011 189.593 106.129 189.476C106.246 189.358 106.406 189.292 106.572 189.292C106.738 189.292 106.897 189.358 107.015 189.476C107.132 189.593 107.198 189.752 107.198 189.919V192.57C107.181 192.649 107.138 192.719 107.075 192.771C107.013 192.822 106.935 192.851 106.855 192.853C106.773 192.851 106.694 192.823 106.631 192.771C106.567 192.72 106.522 192.649 106.503 192.57V190.476H106.271V192.432V192.527C106.292 192.666 106.361 192.793 106.466 192.885C106.571 192.978 106.706 193.03 106.846 193.033C106.986 193.029 107.12 192.976 107.225 192.884C107.33 192.791 107.399 192.665 107.421 192.527V192.475C107.422 192.461 107.422 192.447 107.421 192.432V189.858C107.421 189.631 107.331 189.413 107.17 189.252C107.009 189.091 106.791 189 106.563 189C106.336 189 106.117 189.091 105.956 189.252C105.795 189.413 105.705 189.631 105.705 189.858V193.136C105.735 193.434 105.874 193.711 106.096 193.912C106.318 194.113 106.607 194.225 106.906 194.226C107.206 194.227 107.494 194.115 107.715 193.914C107.936 193.712 108.073 193.434 108.099 193.136V190.476H107.867L107.884 193.05Z" fill="#263238"/>
<path d="M97.5705 190.665L96.7125 188.846L95.8116 190.665L93.8125 190.956L95.2625 192.372L94.9193 194.363L96.7125 193.419L98.5058 194.363L98.1626 192.372L99.6126 190.956L97.5705 190.665ZM98.0853 193.831L96.6782 193.093L95.2711 193.831L95.5285 192.346V192.269L94.3788 191.162L95.9489 190.931L96.6525 189.506L97.356 190.931L98.9262 191.162L97.8708 192.192L97.8108 192.252L98.0853 193.831Z" fill="#263238"/>
<path d="M132.878 186.615H132.586V195.925H132.878V186.615Z" fill="#263238"/>
<path d="M127.189 189.91H123.482V193.856H127.189V189.91Z" fill="#263238"/>
<path d="M124.649 188.983V189.283H126.014V188.983H127.18V189.592H123.482V188.983H124.649Z" fill="#263238"/>
<path d="M126.015 188.674H124.65V188.975H126.015V188.674Z" fill="#263238"/>
<path d="M126.015 188.983H124.65V189.283H126.015V188.983Z" fill="#263238"/>
<path d="M141.269 192.02L142.401 190.888L142.538 191.025L141.269 192.295L139.99 191.025L140.128 190.888L141.269 192.02Z" fill="#263238"/>
<path d="M272.929 96.0961C272.603 96.098 272.289 96.2257 272.055 96.4526C271.82 96.6795 271.681 96.9881 271.668 97.3144V102.102C271.699 102.546 271.897 102.962 272.223 103.266C272.549 103.569 272.977 103.738 273.423 103.738C273.868 103.738 274.296 103.569 274.622 103.266C274.948 102.962 275.146 102.546 275.177 102.102V98.2411H274.834V101.939C274.806 102.297 274.645 102.63 274.381 102.874C274.118 103.118 273.773 103.253 273.414 103.253C273.055 103.253 272.71 103.118 272.447 102.874C272.183 102.63 272.022 102.297 271.994 101.939V97.3573C271.994 97.1139 272.091 96.8803 272.263 96.7082C272.435 96.536 272.669 96.4393 272.912 96.4393C273.156 96.4393 273.389 96.536 273.561 96.7082C273.733 96.8803 273.83 97.1139 273.83 97.3573V101.244C273.803 101.358 273.739 101.46 273.647 101.533C273.555 101.606 273.441 101.647 273.324 101.647C273.211 101.64 273.104 101.597 273.018 101.524C272.932 101.452 272.87 101.354 272.843 101.244V98.2497H272.5V101.115V101.244C272.5 101.472 272.591 101.69 272.752 101.851C272.912 102.012 273.131 102.102 273.358 102.102C273.586 102.102 273.804 102.012 273.965 101.851C274.126 101.69 274.216 101.472 274.216 101.244V101.167C274.216 101.167 274.216 101.124 274.216 101.107V97.3144C274.203 96.9837 274.061 96.6712 273.82 96.4436C273.58 96.216 273.26 96.0913 272.929 96.0961Z" fill="#263238"/>
<path d="M77.9664 68.1767H76.5078V67.6448H80.0342V68.1767H78.567V71.909H77.9664V68.1767Z" fill="#263238"/>
<path d="M79.974 70.2959C79.9603 69.9539 80.0492 69.6156 80.2293 69.3245C80.4093 69.0335 80.6723 68.8029 80.9844 68.6624C81.2965 68.5219 81.6435 68.478 81.9807 68.5363C82.318 68.5945 82.6301 68.7523 82.877 68.9893C83.1239 69.2264 83.2943 69.5318 83.3663 69.8664C83.4383 70.201 83.4085 70.5495 83.2809 70.8671C83.1533 71.1846 82.9336 71.4568 82.6501 71.6486C82.3666 71.8403 82.0323 71.943 81.69 71.9432C81.4668 71.9576 81.243 71.9253 81.0329 71.8485C80.8228 71.7717 80.6309 71.6521 80.4696 71.4971C80.3082 71.3422 80.1808 71.1554 80.0955 70.9486C80.0102 70.7418 79.9688 70.5195 79.974 70.2959ZM82.7368 70.2959C82.7284 70.082 82.6571 69.8754 82.532 69.7018C82.4069 69.5281 82.2334 69.3952 82.0332 69.3195C81.833 69.2439 81.615 69.2288 81.4063 69.2763C81.1976 69.3237 81.0075 69.4316 80.8598 69.5864C80.712 69.7412 80.6131 69.9361 80.5754 70.1468C80.5377 70.3575 80.5628 70.5746 80.6477 70.771C80.7326 70.9675 80.8735 71.1346 81.0527 71.2515C81.232 71.3684 81.4417 71.4299 81.6557 71.4284C81.8032 71.4324 81.9499 71.4055 82.0863 71.3493C82.2227 71.2931 82.3458 71.2089 82.4477 71.1022C82.5496 70.9954 82.6279 70.8685 82.6777 70.7297C82.7275 70.5908 82.7476 70.443 82.7368 70.2959Z" fill="#263238"/>
<path d="M85.4917 69.0604C85.4917 69.0056 85.5026 68.9513 85.5238 68.9008C85.5451 68.8502 85.5762 68.8044 85.6153 68.7661C85.6545 68.7277 85.7009 68.6976 85.7519 68.6774C85.8028 68.6572 85.8573 68.6474 85.9121 68.6485C86.0259 68.6485 86.135 68.6937 86.2154 68.7742C86.2959 68.8546 86.3411 68.9637 86.3411 69.0775C86.3411 69.1913 86.2959 69.3004 86.2154 69.3809C86.135 69.4613 86.0259 69.5065 85.9121 69.5065C85.8543 69.5079 85.7968 69.4972 85.7434 69.4749C85.6901 69.4526 85.642 69.4193 85.6023 69.3772C85.5627 69.3352 85.5323 69.2852 85.5133 69.2306C85.4942 69.176 85.4868 69.118 85.4917 69.0604ZM85.4917 71.5228C85.4917 71.468 85.5026 71.4137 85.5238 71.3632C85.5451 71.3127 85.5762 71.2669 85.6153 71.2285C85.6545 71.1902 85.7009 71.16 85.7519 71.1398C85.8028 71.1197 85.8573 71.1098 85.9121 71.111C85.9654 71.1109 86.0182 71.1217 86.0672 71.1426C86.1162 71.1635 86.1605 71.1941 86.1974 71.2326C86.2343 71.2711 86.263 71.3166 86.2818 71.3665C86.3006 71.4164 86.3091 71.4696 86.3068 71.5228C86.3091 71.5765 86.3006 71.6301 86.2819 71.6804C86.2632 71.7308 86.2347 71.7769 86.1979 71.8161C86.1611 71.8552 86.1169 71.8867 86.0678 71.9085C86.0187 71.9303 85.9658 71.9422 85.9121 71.9432C85.8566 71.9444 85.8014 71.9343 85.7498 71.9136C85.6983 71.8929 85.6515 71.862 85.6122 71.8227C85.5729 71.7834 85.542 71.7366 85.5213 71.6851C85.5006 71.6336 85.4905 71.5784 85.4917 71.5228Z" fill="#263238"/>
<path d="M77.3732 84.0839C77.3694 83.79 77.4257 83.4985 77.5388 83.2273C77.6518 82.956 77.8192 82.7107 78.0306 82.5066C78.2419 82.3024 78.4929 82.1437 78.7679 82.0402C79.0429 81.9366 79.3362 81.8905 79.6298 81.9046C79.9316 81.8922 80.2326 81.9448 80.5123 82.0588C80.7921 82.1728 81.0441 82.3455 81.2514 82.5652L80.8567 82.9513C80.6704 82.747 80.4359 82.5925 80.1746 82.5021C79.9133 82.4116 79.6335 82.388 79.3608 82.4335C79.088 82.4789 78.831 82.5919 78.6131 82.7622C78.3953 82.9325 78.2235 83.1546 78.1136 83.4083C78.0036 83.6621 77.9589 83.9393 77.9836 84.2147C78.0083 84.4901 78.1015 84.7549 78.2548 84.985C78.4082 85.2152 78.6167 85.4032 78.8613 85.5321C79.106 85.6609 79.379 85.7264 79.6555 85.7227C79.8809 85.7276 80.1047 85.6842 80.3119 85.5954C80.5191 85.5066 80.7048 85.3745 80.8567 85.2079L81.2514 85.594C81.0432 85.8155 80.79 85.9898 80.5088 86.1053C80.2276 86.2207 79.925 86.2746 79.6212 86.2632C79.3284 86.2761 79.036 86.229 78.762 86.125C78.4879 86.0209 78.2381 85.862 78.0276 85.6579C77.8172 85.4539 77.6506 85.2091 77.538 84.9384C77.4255 84.6678 77.3694 84.377 77.3732 84.0839Z" fill="#263238"/>
<path d="M81.6042 84.6246C81.5989 84.4013 81.6402 84.1794 81.7256 83.973C81.811 83.7666 81.9385 83.5803 82.1001 83.4261C82.2616 83.2718 82.4536 83.153 82.6637 83.0772C82.8738 83.0014 83.0974 82.9703 83.3202 82.9858C83.5808 82.9698 83.8408 83.0253 84.0721 83.1462C84.3035 83.2672 84.4974 83.4491 84.6329 83.6722L84.1953 83.9554C84.1035 83.8116 83.9765 83.6936 83.8264 83.6126C83.6762 83.5315 83.5079 83.49 83.3373 83.4921C83.0529 83.5168 82.788 83.6473 82.5951 83.8578C82.4021 84.0682 82.2951 84.3434 82.2951 84.6289C82.2951 84.9145 82.4021 85.1896 82.5951 85.4001C82.788 85.6105 83.0529 85.741 83.3373 85.7658C83.5079 85.7678 83.6762 85.7263 83.8264 85.6453C83.9765 85.5642 84.1035 85.4462 84.1953 85.3024L84.6329 85.5856C84.4985 85.8103 84.3051 85.9939 84.0736 86.1165C83.8422 86.239 83.5816 86.2957 83.3202 86.2806C83.0962 86.295 82.8717 86.2625 82.6609 86.1852C82.4502 86.1079 82.258 85.9874 82.0965 85.8316C81.9349 85.6757 81.8077 85.4879 81.723 85.28C81.6382 85.0722 81.5977 84.849 81.6042 84.6246Z" fill="#263238"/>
<path d="M86.7345 83.3975C86.7333 83.3431 86.7432 83.289 86.7634 83.2385C86.7837 83.1881 86.814 83.1422 86.8525 83.1037C86.891 83.0652 86.9368 83.0349 86.9873 83.0147C87.0378 82.9944 87.0919 82.9845 87.1463 82.9857C87.2 82.9857 87.2531 82.9964 87.3026 83.0172C87.3521 83.038 87.397 83.0685 87.4345 83.1068C87.4721 83.1452 87.5016 83.1907 87.5214 83.2406C87.5411 83.2905 87.5507 83.3439 87.5496 83.3975C87.5519 83.4519 87.5432 83.5062 87.5239 83.5571C87.5047 83.608 87.4754 83.6546 87.4377 83.6938C87.4 83.7331 87.3548 83.7644 87.3047 83.7857C87.2546 83.807 87.2007 83.818 87.1463 83.818C87.0915 83.818 87.0372 83.807 86.9867 83.7858C86.9362 83.7646 86.8904 83.7335 86.852 83.6943C86.8137 83.6551 86.7835 83.6087 86.7633 83.5578C86.7431 83.5068 86.7333 83.4523 86.7345 83.3975ZM86.7345 85.86C86.7333 85.8056 86.7432 85.7515 86.7634 85.701C86.7837 85.6505 86.814 85.6046 86.8525 85.5662C86.891 85.5277 86.9368 85.4974 86.9873 85.4771C87.0378 85.4568 87.0919 85.447 87.1463 85.4481C87.2003 85.4469 87.254 85.4568 87.3041 85.4772C87.3541 85.4976 87.3995 85.528 87.4373 85.5666C87.4751 85.6052 87.5046 85.6512 87.5239 85.7016C87.5432 85.7521 87.5519 85.806 87.5496 85.86C87.5519 85.9144 87.5432 85.9687 87.5239 86.0196C87.5047 86.0705 87.4754 86.117 87.4377 86.1563C87.4 86.1956 87.3548 86.2268 87.3047 86.2482C87.2546 86.2695 87.2007 86.2805 87.1463 86.2804C87.0915 86.2804 87.0372 86.2695 86.9867 86.2483C86.9362 86.227 86.8904 86.1959 86.852 86.1568C86.8137 86.1176 86.7835 86.0712 86.7633 86.0202C86.7431 85.9693 86.7333 85.9148 86.7345 85.86Z" fill="#263238"/>
<path d="M76.7305 100.274L76.9536 99.8025C77.352 100.123 77.8492 100.296 78.3607 100.292C79.0986 100.292 79.416 100.008 79.416 99.6394C79.416 98.5927 76.842 99.2533 76.842 97.6746C76.842 97.014 77.3568 96.4563 78.4722 96.4563C78.9569 96.4447 79.4344 96.576 79.845 96.8338L79.6391 97.3143C79.2894 97.094 78.8854 96.9752 78.4722 96.9711C77.7515 96.9711 77.4426 97.2714 77.4426 97.6489C77.4426 98.6871 80.0166 98.035 80.0166 99.5966C80.0166 100.249 79.4932 100.815 78.3692 100.815C77.7764 100.833 77.1962 100.642 76.7305 100.274Z" fill="#263238"/>
<path d="M83.817 97.5374V100.763H83.2679V100.274C83.1401 100.443 82.9737 100.579 82.7826 100.67C82.5914 100.761 82.3812 100.805 82.1696 100.798C81.9809 100.817 81.7902 100.794 81.6117 100.729C81.4331 100.665 81.2713 100.562 81.1379 100.427C81.0046 100.292 80.9032 100.129 80.8412 99.9494C80.7792 99.7701 80.7582 99.5791 80.7797 99.3906V97.5374H81.3631V99.3306C81.3631 99.9569 81.6806 100.274 82.2211 100.274C82.3616 100.285 82.5026 100.263 82.6338 100.212C82.765 100.161 82.8831 100.081 82.9794 99.9781C83.0756 99.8752 83.1477 99.7521 83.1902 99.6178C83.2327 99.4835 83.2445 99.3414 83.2249 99.2019V97.5374H83.817Z" fill="#263238"/>
<path d="M88.2704 99.1506C88.2813 99.3683 88.2468 99.586 88.1689 99.7896C88.0911 99.9933 87.9717 100.178 87.8183 100.333C87.665 100.488 87.481 100.61 87.2782 100.69C87.0754 100.77 86.8581 100.807 86.6402 100.798C86.4183 100.808 86.1973 100.763 85.9969 100.667C85.7964 100.571 85.6225 100.428 85.4905 100.249V100.764H84.9414V96.2419H85.5334V98.0266C85.6661 97.8568 85.8372 97.7208 86.0325 97.6298C86.2279 97.5389 86.442 97.4955 86.6574 97.5032C86.8738 97.497 87.0892 97.5357 87.29 97.6167C87.4908 97.6978 87.6726 97.8195 87.8241 97.9742C87.9756 98.1289 88.0935 98.3133 88.1703 98.5157C88.2471 98.7182 88.2812 98.9343 88.2704 99.1506ZM87.6784 99.1506C87.6684 98.9375 87.596 98.7321 87.4703 98.5598C87.3446 98.3875 87.1711 98.2559 86.9713 98.1813C86.7715 98.1067 86.5542 98.0923 86.3464 98.14C86.1385 98.1876 85.9492 98.2953 85.8019 98.4495C85.6546 98.6038 85.5558 98.7978 85.5178 99.0077C85.4798 99.2175 85.5041 99.4339 85.5879 99.6301C85.6717 99.8262 85.8112 99.9934 85.9891 100.111C86.167 100.229 86.3755 100.291 86.5888 100.292C86.7374 100.296 86.8852 100.268 87.0226 100.212C87.1601 100.155 87.2841 100.07 87.3868 99.9629C87.4895 99.8554 87.5685 99.7276 87.6187 99.5876C87.6689 99.4477 87.6893 99.2988 87.6784 99.1506Z" fill="#263238"/>
<path d="M87.9609 101.785L88.1497 101.338C88.2862 101.439 88.4524 101.49 88.6216 101.484C88.9391 101.484 89.1021 101.296 89.1021 100.918V97.5375H89.6941V100.909C89.711 101.051 89.6964 101.194 89.6513 101.329C89.6062 101.464 89.5317 101.587 89.4332 101.689C89.3347 101.792 89.2147 101.872 89.0817 101.922C88.9488 101.973 88.8063 101.993 88.6645 101.982C88.4145 101.996 88.1669 101.927 87.9609 101.785ZM88.9991 96.5423C88.9991 96.4908 89.0094 96.4399 89.0293 96.3925C89.0492 96.3451 89.0785 96.3021 89.1152 96.2662C89.152 96.2302 89.1956 96.2019 89.2434 96.183C89.2912 96.1642 89.3424 96.155 89.3938 96.1562C89.4448 96.1527 89.4959 96.1596 89.5442 96.1764C89.5924 96.1933 89.6367 96.2198 89.6744 96.2543C89.7122 96.2888 89.7425 96.3305 89.7635 96.3771C89.7846 96.4237 89.796 96.474 89.7971 96.5251C89.7983 96.578 89.7886 96.6306 89.7687 96.6796C89.7487 96.7286 89.7189 96.773 89.6811 96.81C89.6433 96.847 89.5983 96.8758 89.5489 96.8947C89.4994 96.9136 89.4467 96.9221 89.3938 96.9198C89.3431 96.9209 89.2927 96.9121 89.2454 96.8937C89.1981 96.8753 89.1549 96.8478 89.1182 96.8128C89.0816 96.7777 89.0522 96.7358 89.0318 96.6894C89.0113 96.643 89.0002 96.593 88.9991 96.5423Z" fill="#263238"/>
<path d="M93.7101 99.3479H91.0846C91.1231 99.6254 91.2663 99.8778 91.4848 100.053C91.7033 100.229 91.9807 100.314 92.26 100.292C92.4341 100.299 92.6075 100.267 92.7678 100.199C92.928 100.13 93.0711 100.027 93.1867 99.897L93.5127 100.274C93.2746 100.517 92.971 100.686 92.639 100.76C92.3069 100.834 91.9605 100.81 91.6418 100.691C91.323 100.572 91.0456 100.363 90.8432 100.09C90.6407 99.8164 90.5219 99.4901 90.5012 99.1505C90.4929 98.9341 90.529 98.7184 90.6072 98.5165C90.6855 98.3146 90.8042 98.1308 90.9561 97.9765C91.108 97.8222 91.2899 97.7006 91.4905 97.6192C91.6911 97.5378 91.9063 97.4983 92.1228 97.5032C92.34 97.4966 92.5562 97.5357 92.7574 97.6179C92.9586 97.7002 93.1403 97.8238 93.2907 97.9807C93.4411 98.1376 93.557 98.3243 93.6307 98.5287C93.7044 98.7332 93.7344 98.9509 93.7187 99.1677C93.7187 99.2192 93.7101 99.2878 93.7101 99.3479ZM91.0846 98.9274H93.161C93.1284 98.6751 93.0051 98.4432 92.814 98.2751C92.623 98.1071 92.3772 98.0144 92.1228 98.0144C91.8683 98.0144 91.6226 98.1071 91.4315 98.2751C91.2404 98.4432 91.1171 98.6751 91.0846 98.9274Z" fill="#263238"/>
<path d="M94.225 99.1504C94.2198 98.9268 94.2612 98.7045 94.3465 98.4977C94.4318 98.2909 94.5592 98.1041 94.7206 97.9492C94.8819 97.7942 95.0738 97.6746 95.2839 97.5978C95.494 97.521 95.7178 97.4887 95.941 97.5031C96.2023 97.4889 96.4626 97.546 96.6938 97.6685C96.9251 97.7909 97.1187 97.974 97.2538 98.1981L96.8076 98.4812C96.7158 98.3374 96.5888 98.2194 96.4387 98.1384C96.2885 98.0573 96.1202 98.0158 95.9496 98.0179C95.6652 98.0426 95.4003 98.1731 95.2074 98.3836C95.0144 98.594 94.9073 98.8692 94.9073 99.1547C94.9073 99.4403 95.0144 99.7154 95.2074 99.9259C95.4003 100.136 95.6652 100.267 95.9496 100.292C96.1202 100.294 96.2885 100.252 96.4387 100.171C96.5888 100.09 96.7158 99.972 96.8076 99.8283L97.2538 100.103C97.1187 100.327 96.9251 100.51 96.6938 100.632C96.4626 100.755 96.2023 100.812 95.941 100.798C95.7178 100.812 95.494 100.78 95.2839 100.703C95.0738 100.626 94.8819 100.507 94.7206 100.352C94.5592 100.197 94.4318 100.01 94.3465 99.8032C94.2612 99.5964 94.2198 99.3741 94.225 99.1504Z" fill="#263238"/>
<path d="M99.8538 100.575C99.652 100.728 99.4034 100.807 99.1502 100.798C99.0129 100.814 98.8738 100.799 98.743 100.754C98.6123 100.709 98.4934 100.636 98.3953 100.538C98.2971 100.441 98.2222 100.323 98.1761 100.192C98.1301 100.062 98.114 99.9229 98.1292 99.7855V98.018H97.5801V97.5375H98.1292V96.834H98.7126V97.5375H99.6393V98.018H98.7126V99.734C98.702 99.8045 98.7075 99.8764 98.7287 99.9445C98.7498 100.013 98.7861 100.075 98.8348 100.127C98.8835 100.179 98.9434 100.219 99.0099 100.245C99.0764 100.27 99.1478 100.281 99.2189 100.275C99.3831 100.273 99.5426 100.219 99.6736 100.12L99.8538 100.575Z" fill="#263238"/>
<path d="M101.921 97.9236C101.92 97.8688 101.929 97.8143 101.95 97.7634C101.97 97.7124 102 97.666 102.038 97.6268C102.077 97.5877 102.122 97.5566 102.173 97.5353C102.223 97.5141 102.278 97.5032 102.333 97.5032C102.387 97.5031 102.441 97.5141 102.491 97.5354C102.541 97.5568 102.586 97.588 102.624 97.6273C102.662 97.6666 102.691 97.7131 102.71 97.764C102.729 97.8149 102.738 97.8692 102.736 97.9236C102.738 97.978 102.729 98.0323 102.71 98.0832C102.691 98.1341 102.662 98.1806 102.624 98.2199C102.586 98.2592 102.541 98.2904 102.491 98.3118C102.441 98.3331 102.387 98.3441 102.333 98.344C102.278 98.344 102.223 98.3331 102.173 98.3119C102.122 98.2906 102.077 98.2595 102.038 98.2204C102 98.1812 101.97 98.1348 101.95 98.0838C101.929 98.0329 101.92 97.9784 101.921 97.9236ZM101.921 100.377C101.92 100.323 101.929 100.269 101.95 100.218C101.97 100.168 102 100.122 102.039 100.084C102.077 100.045 102.123 100.015 102.174 99.9946C102.224 99.9743 102.278 99.9645 102.333 99.9656C102.446 99.9656 102.555 100.011 102.636 100.091C102.716 100.172 102.762 100.281 102.762 100.395C102.762 100.508 102.716 100.618 102.636 100.698C102.555 100.778 102.446 100.824 102.333 100.824C102.276 100.824 102.221 100.812 102.169 100.79C102.117 100.768 102.07 100.735 102.032 100.694C101.993 100.653 101.963 100.605 101.944 100.552C101.925 100.499 101.917 100.442 101.921 100.386V100.377Z" fill="#263238"/>
<path d="M155.341 71.1454C155.341 71.2656 141.682 71.3685 124.831 71.3685C107.98 71.3685 94.3203 71.2656 94.3203 71.1454C94.3203 71.0253 107.98 70.9224 124.831 70.9224C141.682 70.9224 155.341 71.0167 155.341 71.1454Z" fill="#263238"/>
<path d="M182.591 85.0622C182.591 85.1909 162.857 85.2853 138.456 85.2853C114.054 85.2853 94.3203 85.1909 94.3203 85.0622C94.3203 84.9335 114.054 84.8391 138.456 84.8391C162.857 84.8391 182.591 84.9421 182.591 85.0622Z" fill="#263238"/>
<path d="M149.952 98.8845C149.818 98.8973 149.683 98.8973 149.548 98.8845H148.382L144.092 98.9532C140.479 98.9532 135.512 99.0218 130.003 99.0218C124.495 99.0218 119.518 99.0218 115.915 98.9532L111.625 98.8845H110.467C110.33 98.8968 110.192 98.8968 110.055 98.8845C110.189 98.8463 110.327 98.829 110.467 98.833H111.625L115.915 98.7644C119.518 98.7644 124.495 98.7043 130.003 98.7043C135.512 98.7043 140.479 98.7043 144.092 98.7644L148.382 98.833H149.548C149.685 98.8283 149.821 98.8457 149.952 98.8845Z" fill="#263238"/>
<path d="M282.41 106.392C282.41 106.512 235.065 106.615 176.678 106.615C118.291 106.615 70.9297 106.521 70.9297 106.392C70.9297 106.263 118.266 106.169 176.678 106.169C235.091 106.169 282.41 106.272 282.41 106.392Z" fill="#E0E0E0"/>
<path d="M282.411 91.3256C282.411 91.4543 235.049 91.5487 176.636 91.5487C118.224 91.5487 70.8535 91.4543 70.8535 91.3256C70.8535 91.1969 118.207 91.1025 176.636 91.1025C235.066 91.1025 282.411 91.2055 282.411 91.3256Z" fill="#E0E0E0"/>
<path d="M282.41 78.0781C282.41 78.1982 235.065 78.3011 176.678 78.3011C118.291 78.3011 70.9297 78.2239 70.9297 78.0781C70.9297 77.9322 118.266 77.855 176.678 77.855C235.091 77.855 282.41 77.9837 282.41 78.0781Z" fill="#E0E0E0"/>
<path d="M99.3224 124.779C96.9067 125 94.4798 125.074 92.0551 125.002C89.6276 125.074 87.1979 125 84.7793 124.779C87.1979 124.558 89.6276 124.484 92.0551 124.556C94.4798 124.483 96.9067 124.558 99.3224 124.779Z" fill="#263238"/>
<path d="M182.127 133.196C182.127 133.316 160.111 133.419 132.972 133.419C105.833 133.419 83.8086 133.316 83.8086 133.196C83.8086 133.076 105.816 132.99 132.989 132.99C160.162 132.99 182.127 133.076 182.127 133.196Z" fill="#263238"/>
<path d="M165.816 139.082C165.816 139.185 147.455 139.271 124.812 139.271C102.17 139.271 83.8086 139.185 83.8086 139.082C83.8086 138.979 102.161 138.893 124.812 138.893C147.464 138.893 165.816 138.996 165.816 139.082Z" fill="#263238"/>
<path d="M76.9197 56.5336C77.6542 56.5336 78.2496 55.9382 78.2496 55.2037C78.2496 54.4692 77.6542 53.8738 76.9197 53.8738C76.1853 53.8738 75.5898 54.4692 75.5898 55.2037C75.5898 55.9382 76.1853 56.5336 76.9197 56.5336Z" fill="white"/>
<path d="M81.6463 56.5336C82.3808 56.5336 82.9762 55.9382 82.9762 55.2037C82.9762 54.4692 82.3808 53.8738 81.6463 53.8738C80.9118 53.8738 80.3164 54.4692 80.3164 55.2037C80.3164 55.9382 80.9118 56.5336 81.6463 56.5336Z" fill="white"/>
<path d="M86.3748 56.5336C87.1093 56.5336 87.7047 55.9382 87.7047 55.2037C87.7047 54.4692 87.1093 53.8738 86.3748 53.8738C85.6403 53.8738 85.0449 54.4692 85.0449 55.2037C85.0449 55.9382 85.6403 56.5336 86.3748 56.5336Z" fill="white"/>
<path d="M285.576 204.461C285.576 202.968 285.499 143.303 285.396 49.069L285.576 49.2492L70.9478 49.2921L71.1708 49.069C71.1708 104.779 71.1708 157.615 71.1708 204.461L70.9649 204.264L285.611 204.461L70.9649 204.667H70.7676V204.461C70.7676 157.615 70.7676 104.779 70.7676 49.069V48.8459H71.0078H285.637H285.817V49.0261C285.645 143.286 285.576 202.968 285.576 204.461Z" fill="#263238"/>
<path d="M351.309 360.472H346.35V363.14H351.309V360.472Z" fill="#E0E0E0"/>
<path d="M349.609 293.222H338.154V350.03H349.609V293.222Z" fill="#EBEBEB"/>
<path d="M369.876 296.216H316.114C313.367 296.216 310.733 295.125 308.791 293.183C306.849 291.24 305.758 288.606 305.758 285.86C305.757 284.499 306.024 283.151 306.544 281.894C307.064 280.637 307.826 279.494 308.788 278.531C309.75 277.569 310.892 276.805 312.149 276.284C313.406 275.763 314.753 275.495 316.114 275.495H369.876C371.237 275.495 372.584 275.763 373.841 276.284C375.098 276.805 376.24 277.569 377.202 278.531C378.164 279.494 378.926 280.637 379.446 281.894C379.966 283.151 380.233 284.499 380.232 285.86C380.232 287.22 379.964 288.566 379.444 289.823C378.923 291.079 378.161 292.221 377.199 293.183C376.237 294.144 375.096 294.907 373.839 295.428C372.583 295.948 371.236 296.216 369.876 296.216Z" fill="#455A64"/>
<path d="M347.55 350.03H340.291V390.356H347.55V350.03Z" fill="#E0E0E0"/>
<path d="M314.809 410.012C313.385 410.192 375.976 410.012 375.976 410.012C375.976 410.012 349.275 407.026 347.55 390.355H340.292C340.292 390.355 338.464 407.001 314.809 410.012Z" fill="#E0E0E0"/>
<path d="M372.002 296.216C372.002 296.336 359.57 296.439 344.238 296.439C328.905 296.439 316.473 296.336 316.473 296.216C316.473 296.096 328.905 295.993 344.238 295.993C359.57 295.993 372.002 296.096 372.002 296.216Z" fill="#263238"/>
<path d="M349.601 350.064C345.758 350.361 341.897 350.361 338.053 350.064C341.899 349.766 345.763 349.766 349.61 350.064H349.601Z" fill="#263238"/>
<path d="M351.309 366.126C350.921 366.126 350.549 365.972 350.275 365.699C350 365.426 349.844 365.055 349.842 364.667V358.944C349.844 358.556 349.999 358.184 350.274 357.909C350.549 357.635 350.921 357.479 351.309 357.477C351.697 357.479 352.069 357.635 352.344 357.909C352.619 358.184 352.774 358.556 352.776 358.944V364.65C352.777 364.843 352.74 365.035 352.667 365.214C352.594 365.393 352.486 365.556 352.349 365.693C352.213 365.83 352.051 365.939 351.872 366.013C351.694 366.087 351.502 366.126 351.309 366.126Z" fill="#E0E0E0"/>
<path d="M236.91 131.017C236.91 131.017 239.424 128.262 240.188 128.202C240.951 128.142 248.768 130.485 248.768 130.485C249.674 130.656 250.52 131.061 251.222 131.66C251.925 132.518 259.656 140.884 259.656 140.884L251.076 148.451C251.076 148.451 241.003 146.641 240.128 145.585C239.252 144.53 238.549 142.84 239.192 142.308C238.759 141.566 238.556 140.712 238.609 139.854C238.75 139.25 238.925 138.654 239.132 138.069C239.132 138.069 237.614 136.98 237.554 136.225C237.535 135.817 237.436 135.418 237.262 135.049L236.91 134.466V131.017Z" fill="#FFBE9D"/>
<path d="M240.421 132.655C240.464 132.655 240.421 132.921 240.284 133.307C240.086 133.823 239.758 134.278 239.331 134.629C239.106 134.803 238.847 134.926 238.57 134.989C238.293 135.053 238.005 135.056 237.727 134.998C237.298 134.886 237.126 134.654 237.161 134.629C237.195 134.603 237.401 134.714 237.77 134.749C238.253 134.771 238.729 134.626 239.117 134.337C239.496 134.017 239.813 133.63 240.052 133.196C240.241 132.853 240.369 132.638 240.421 132.655Z" fill="#EB996E"/>
<path d="M206.005 113.007C204.765 113 203.572 113.485 202.688 114.354C201.804 115.224 201.3 116.409 201.286 117.649L200.883 169.395C200.876 170.635 201.36 171.828 202.23 172.712C203.1 173.596 204.284 174.1 205.525 174.114L242.908 174.406C244.148 174.413 245.341 173.928 246.225 173.058C247.109 172.189 247.613 171.004 247.627 169.764L247.876 117.992C247.88 117.362 247.76 116.737 247.523 116.153C247.285 115.57 246.935 115.039 246.492 114.591C246.048 114.143 245.521 113.787 244.94 113.543C244.359 113.299 243.735 113.172 243.105 113.17L206.005 113.007Z" fill="#E0E0E0"/>
<path d="M226.512 128.7C226.512 128.889 222.643 129.009 217.863 128.975C213.084 128.94 209.215 128.752 209.215 128.563C209.215 128.374 213.093 128.254 217.872 128.297C222.651 128.34 226.512 128.537 226.512 128.7Z" fill="#E0E0E0"/>
<path d="M237.58 135.461C237.58 135.65 231.196 135.753 223.337 135.684C215.478 135.616 209.111 135.427 209.111 135.238C209.111 135.049 215.486 134.946 223.346 135.006C231.205 135.066 237.58 135.272 237.58 135.461Z" fill="#E0E0E0"/>
<path d="M240.085 142.359C240.085 142.548 233.135 142.642 224.563 142.574C215.992 142.505 209.051 142.299 209.051 142.11C209.051 141.922 216.001 141.827 224.572 141.896C233.143 141.965 240.085 142.17 240.085 142.359Z" fill="#E0E0E0"/>
<path d="M240.034 148.846C240.034 149.035 233.084 149.129 224.521 149.06C215.958 148.992 209 148.786 209 148.597C209 148.408 215.95 148.314 224.521 148.382C233.093 148.451 240.034 148.657 240.034 148.846Z" fill="#E0E0E0"/>
<path d="M239.983 155.298C239.983 155.487 233.033 155.581 224.47 155.512C215.908 155.444 208.949 155.238 208.949 155.049C208.949 154.86 215.899 154.766 224.47 154.835C233.042 154.903 239.983 155.143 239.983 155.298Z" fill="#E0E0E0"/>
<path d="M239.932 161.819C239.932 162.008 232.982 162.102 224.419 162.033C215.856 161.965 208.898 161.759 208.906 161.579C208.915 161.398 215.847 161.287 224.419 161.355C232.99 161.424 239.932 161.63 239.932 161.819Z" fill="#E0E0E0"/>
<path d="M204.273 111.463C203.659 111.458 203.05 111.575 202.481 111.806C201.912 112.036 201.394 112.377 200.956 112.808C200.519 113.239 200.171 113.752 199.931 114.318C199.692 114.883 199.567 115.49 199.562 116.105L199.15 167.851C199.144 169.091 199.628 170.283 200.498 171.168C201.368 172.052 202.552 172.556 203.792 172.57L241.184 172.861C241.798 172.866 242.407 172.749 242.976 172.518C243.545 172.288 244.063 171.947 244.5 171.516C244.938 171.085 245.286 170.572 245.525 170.006C245.764 169.441 245.89 168.834 245.894 168.219L246.152 116.439C246.156 115.169 245.656 113.948 244.762 113.046C243.868 112.143 242.652 111.633 241.381 111.626L204.273 111.463Z" fill="white"/>
<path d="M204.273 111.463C204.273 111.463 204.461 111.463 204.813 111.463H206.383H212.432H234.68H240.146C240.787 111.44 241.429 111.46 242.068 111.523C242.741 111.616 243.387 111.848 243.966 112.203C244.545 112.559 245.044 113.032 245.431 113.59C245.84 114.16 246.119 114.814 246.246 115.504C246.338 116.192 246.367 116.887 246.332 117.58C246.332 123.106 246.289 129.009 246.263 135.212C246.237 141.415 246.212 147.936 246.177 154.697C246.177 158.069 246.177 161.51 246.135 164.993C246.135 165.851 246.135 166.709 246.135 167.627C246.2 168.543 246.034 169.46 245.654 170.296C245.251 171.142 244.614 171.855 243.819 172.35C243.024 172.846 242.104 173.104 241.167 173.093L220.24 172.921L210.296 172.835H205.474C204.672 172.849 203.87 172.82 203.072 172.75C202.262 172.626 201.498 172.291 200.858 171.78C200.227 171.288 199.725 170.65 199.396 169.92C199.067 169.19 198.921 168.392 198.97 167.593C198.97 166.074 198.97 164.581 199.013 163.114C199.013 160.171 199.065 157.314 199.09 154.534C199.142 149.009 199.193 143.869 199.236 139.167C199.339 129.79 199.425 122.196 199.485 116.928C199.462 116.304 199.511 115.679 199.631 115.066C199.76 114.528 199.983 114.016 200.292 113.556C200.774 112.834 201.444 112.259 202.231 111.892C202.713 111.672 203.23 111.535 203.758 111.488C203.935 111.475 204.113 111.475 204.29 111.488C203.591 111.517 202.905 111.686 202.274 111.986C201.512 112.354 200.865 112.924 200.403 113.633C200.109 114.083 199.899 114.584 199.785 115.109C199.675 115.712 199.632 116.325 199.657 116.937C199.657 122.205 199.597 129.807 199.554 139.185C199.554 143.878 199.494 149.026 199.459 154.543C199.459 157.306 199.459 160.163 199.408 163.123C199.408 164.599 199.408 166.091 199.408 167.602C199.359 168.337 199.489 169.074 199.788 169.748C200.087 170.422 200.546 171.014 201.124 171.471C201.717 171.926 202.417 172.222 203.157 172.329C203.933 172.394 204.712 172.42 205.491 172.406H210.313L220.266 172.475L241.184 172.638C242.04 172.648 242.881 172.411 243.606 171.954C244.33 171.497 244.908 170.841 245.268 170.064C245.62 169.287 245.773 168.435 245.714 167.584C245.714 166.726 245.714 165.868 245.714 164.959C245.714 161.475 245.731 158.043 245.766 154.663C245.766 147.91 245.843 141.39 245.877 135.186C245.911 128.983 245.954 123.08 245.989 117.554C246.02 116.881 245.994 116.207 245.911 115.538C245.791 114.903 245.536 114.3 245.165 113.771C244.805 113.25 244.342 112.81 243.805 112.476C243.268 112.143 242.668 111.923 242.042 111.832C241.441 111.754 240.798 111.789 240.171 111.772H238.31H234.706L212.458 111.6L206.409 111.531H204.839L204.273 111.463Z" fill="#263238"/>
<path d="M224.745 127.181C224.745 127.37 220.866 127.49 216.087 127.456C211.308 127.421 207.447 127.233 207.447 127.044C207.447 126.855 211.317 126.735 216.096 126.778C220.875 126.821 224.745 126.984 224.745 127.181Z" fill="#263238"/>
<path d="M235.847 133.917C235.847 134.105 229.472 134.208 221.613 134.14C213.754 134.071 207.379 133.882 207.379 133.694C207.379 133.505 213.754 133.402 221.622 133.462C229.49 133.522 235.847 133.728 235.847 133.917Z" fill="#263238"/>
<path d="M238.362 140.815C238.362 141.004 231.412 141.098 222.841 141.03C214.269 140.961 207.328 140.755 207.328 140.566C207.328 140.377 214.278 140.283 222.849 140.352C231.421 140.42 238.362 140.626 238.362 140.815Z" fill="#263238"/>
<path d="M238.309 147.301C238.309 147.49 231.359 147.584 222.788 147.516C214.217 147.447 207.275 147.241 207.275 147.053C207.275 146.864 214.225 146.769 222.797 146.838C231.368 146.907 238.309 147.113 238.309 147.301Z" fill="#263238"/>
<path d="M238.258 153.788C238.258 153.977 231.309 154.071 222.737 154.002C214.166 153.934 207.225 153.728 207.225 153.539C207.225 153.35 214.174 153.256 222.746 153.325C231.317 153.393 238.258 153.582 238.258 153.788Z" fill="#263238"/>
<path d="M238.206 160.274C238.206 160.463 231.256 160.557 222.685 160.489C214.113 160.42 207.172 160.214 207.172 160.034C207.172 159.854 214.122 159.742 222.693 159.811C231.264 159.88 238.206 160.086 238.206 160.274Z" fill="#263238"/>
<path d="M208.974 121.115C208.335 121.115 207.722 120.861 207.269 120.409C206.817 119.957 206.563 119.344 206.563 118.704V112.698C206.563 112.268 206.734 111.856 207.038 111.552C207.342 111.247 207.755 111.077 208.185 111.077C208.615 111.077 209.027 111.247 209.332 111.552C209.636 111.856 209.807 112.268 209.807 112.698V116.988C209.814 117.035 209.812 117.083 209.799 117.128C209.786 117.174 209.764 117.216 209.733 117.252C209.703 117.288 209.665 117.317 209.622 117.337C209.579 117.357 209.532 117.367 209.485 117.367C209.438 117.367 209.391 117.357 209.348 117.337C209.305 117.317 209.267 117.288 209.236 117.252C209.206 117.216 209.183 117.174 209.171 117.128C209.158 117.083 209.155 117.035 209.163 116.988V112.698C209.163 112.439 209.06 112.19 208.877 112.007C208.693 111.823 208.444 111.72 208.185 111.72C207.926 111.72 207.677 111.823 207.493 112.007C207.31 112.19 207.207 112.439 207.207 112.698V118.704C207.207 119.173 207.393 119.623 207.724 119.954C208.056 120.285 208.506 120.472 208.974 120.472C209.443 120.472 209.893 120.285 210.224 119.954C210.556 119.623 210.742 119.173 210.742 118.704V111.78C210.758 111.167 210.554 110.568 210.167 110.092C209.781 109.615 209.237 109.293 208.633 109.182C208.03 109.071 207.407 109.18 206.876 109.488C206.346 109.796 205.943 110.283 205.74 110.862V111.145C205.727 111.222 205.688 111.291 205.629 111.341C205.57 111.391 205.495 111.419 205.418 111.419C205.341 111.419 205.266 111.391 205.207 111.341C205.148 111.291 205.109 111.222 205.096 111.145V110.802C205.088 110.768 205.088 110.733 205.096 110.699C205.348 109.978 205.847 109.37 206.505 108.982C207.163 108.595 207.937 108.453 208.69 108.583C209.443 108.713 210.125 109.105 210.615 109.691C211.106 110.276 211.372 111.016 211.368 111.78V118.704C211.368 119.341 211.116 119.951 210.668 120.403C210.22 120.855 209.611 121.111 208.974 121.115Z" fill="#263238"/>
<path d="M254.637 136.954L250.536 134.38L240.034 128.837C240.034 128.837 237.949 130.862 241.475 133.779L245.817 137.211C245.817 137.211 249.678 144.29 250.502 144.805C252.007 145.516 253.547 146.148 255.118 146.701L254.637 136.954Z" fill="#FFBE9D"/>
<path d="M255.521 146.898C255.377 146.888 255.235 146.857 255.101 146.804C254.826 146.726 254.423 146.615 253.908 146.435C253.393 146.255 252.776 146.04 252.072 145.723C251.695 145.559 251.328 145.373 250.974 145.165C250.56 144.931 250.198 144.616 249.91 144.238C248.594 142.396 247.41 140.464 246.366 138.455L245.886 137.597C245.728 137.327 245.518 137.091 245.268 136.902C244.779 136.473 244.23 136.044 243.689 135.632C242.524 134.789 241.41 133.878 240.352 132.904C239.774 132.367 239.398 131.647 239.289 130.866C239.18 130.084 239.343 129.289 239.751 128.614L239.837 128.485L239.983 128.571C244.178 130.939 247.799 133.101 250.536 134.371C251.866 135.101 252.878 135.753 253.573 136.19L254.371 136.714C254.466 136.774 254.555 136.843 254.637 136.919C254.532 136.884 254.431 136.835 254.337 136.774L253.479 136.302C252.758 135.89 251.72 135.264 250.39 134.586C247.627 133.376 243.972 131.24 239.777 128.889L240 128.837C239.642 129.419 239.508 130.111 239.622 130.785C239.737 131.492 240.07 132.147 240.575 132.655C241.626 133.609 242.726 134.508 243.869 135.349C244.419 135.778 244.959 136.207 245.465 136.636C245.595 136.75 245.718 136.87 245.834 136.997C245.956 137.125 246.062 137.266 246.152 137.417C246.306 137.709 246.469 137.983 246.624 138.275C247.64 140.276 248.786 142.208 250.056 144.058C250.605 144.708 251.306 145.212 252.098 145.525C252.784 145.851 253.393 146.092 253.899 146.289L255.058 146.718C255.216 146.768 255.371 146.828 255.521 146.898Z" fill="#EB996E"/>
<path d="M368.803 116.98C368.657 114.406 368.34 102.033 368.185 100.146C368.028 97.5672 366.918 95.1392 365.071 93.3331C363.2 91.6171 360.292 90.8449 358.001 91.9689C357.255 92.1584 356.573 92.5415 356.023 93.0794C355.473 93.6173 355.075 94.2908 354.869 95.032C349.652 113.582 350.476 133.333 348.168 152.518C354.98 153.625 364.144 153.17 371.034 152.81C371.034 137.494 369.738 133.522 368.803 116.98Z" fill="#263238"/>
<path d="M365.929 143.14C365.89 142.977 365.872 142.81 365.877 142.642C365.877 142.265 365.834 141.784 365.809 141.218C365.766 139.923 365.714 138.147 365.645 135.984C365.551 131.514 365.422 125.431 365.285 118.713C365.234 115.349 365.182 112.141 365.139 109.206C365.139 107.748 365.139 106.358 365.088 105.062C365.111 103.864 365.028 102.667 364.839 101.484C364.733 100.633 364.441 99.8152 363.982 99.0899C363.524 98.3646 362.911 97.7495 362.188 97.2886C361.632 96.9899 361.022 96.8033 360.395 96.7394H360.515C360.64 96.7272 360.767 96.7272 360.892 96.7394C361.375 96.7798 361.845 96.917 362.274 97.1427C362.951 97.5111 363.538 98.0272 363.99 98.6528C364.578 99.4823 364.977 100.432 365.156 101.433C365.363 102.631 365.463 103.846 365.457 105.062C365.457 106.366 365.517 107.748 365.551 109.206C365.611 112.141 365.671 115.349 365.731 118.721C365.826 125.431 365.903 131.514 365.963 135.984C365.963 138.155 365.963 139.923 365.963 141.227C365.963 141.802 365.963 142.273 365.963 142.651C365.971 142.815 365.96 142.979 365.929 143.14Z" fill="#455A64"/>
<path d="M359.733 136.105C359.67 135.736 359.645 135.363 359.656 134.989C359.656 134.268 359.613 133.222 359.613 131.935C359.613 129.361 359.665 125.809 359.759 121.887C359.854 117.966 359.965 114.5 360.042 111.832C360.042 110.622 360.111 109.601 360.145 108.794C360.139 108.418 360.167 108.042 360.231 107.67C360.301 108.041 360.329 108.418 360.317 108.794C360.317 109.515 360.317 110.51 360.36 111.84C360.36 114.414 360.308 117.966 360.205 121.896C360.102 125.826 359.999 129.275 359.931 131.943C359.888 133.153 359.854 134.174 359.828 134.989C359.835 135.363 359.803 135.737 359.733 136.105Z" fill="#455A64"/>
<path d="M336.98 77.7004C342.128 77.1685 346.418 79.4164 350.485 82.531C354.558 85.7385 357.552 90.1158 359.065 95.0749C360.686 100.223 360.712 107.559 358.868 112.647C358.042 115.056 356.644 117.229 354.794 118.979C352.944 120.729 350.697 122.004 348.245 122.694C341.133 124.702 333.119 123.887 327.525 119.056C321.931 114.225 319.056 106.649 319.254 99.262C319.318 94.1273 320.999 89.1435 324.058 85.0192C325.597 82.9832 327.538 81.2858 329.761 80.0326C331.984 78.7794 334.442 77.9972 336.98 77.7347" fill="#263238"/>
<path d="M350.235 95.83C349.617 93.848 350.046 91.703 349.891 89.6352C349.54 85.0793 346.142 81.2268 342.049 79.1848C338.24 77.2972 333.469 77.3401 328.63 78.5585C325.292 79.3339 322.244 81.0454 319.844 83.492C318.312 85.1601 317.201 87.1708 316.604 89.3559C316.007 91.5411 315.941 93.8374 316.412 96.0531L339.724 94.1998C341.766 96.1303 343.868 98.0951 346.425 99.262C347.16 99.646 347.981 99.8351 348.81 99.8111C349.222 99.7876 349.619 99.6466 349.954 99.4049C350.288 99.1631 350.546 98.8307 350.698 98.4469C350.921 97.5803 350.501 96.688 350.235 95.83Z" fill="#263238"/>
<path d="M327.755 84.9419L347.635 90.536C348.571 90.6597 349.427 91.1305 350.032 91.8551C350.638 92.5797 350.949 93.5053 350.904 94.4485L347.807 138.061C347.599 141.043 346.41 143.872 344.426 146.109L342.341 148.434C337.588 153.796 328.742 152.647 325.808 146.109C325.629 145.735 325.5 145.34 325.421 144.933C325.361 144.604 325.318 144.272 325.293 143.938C325.089 141.73 325.118 139.507 325.379 137.306C325.439 133.41 325.481 131.814 325.473 131.849C325.464 131.883 317.296 130.27 315.872 119.494C315.168 114.14 315.675 105.405 316.309 98.2666C316.85 91.8059 321.329 84.0839 327.755 84.9419Z" fill="#FFBE9D"/>
<path d="M318.808 106.641C318.794 106.999 318.92 107.349 319.161 107.615C319.401 107.882 319.737 108.043 320.095 108.065C320.269 108.083 320.445 108.066 320.613 108.015C320.78 107.964 320.936 107.88 321.071 107.768C321.206 107.656 321.317 107.519 321.399 107.364C321.48 107.208 321.53 107.038 321.545 106.864C321.559 106.505 321.432 106.156 321.192 105.889C320.951 105.623 320.616 105.462 320.258 105.44C320.083 105.422 319.907 105.439 319.74 105.49C319.572 105.541 319.416 105.625 319.281 105.737C319.146 105.848 319.035 105.986 318.954 106.141C318.872 106.296 318.823 106.466 318.808 106.641Z" fill="#263238"/>
<path d="M318.052 102.848C318.215 103.037 319.279 102.291 320.763 102.334C322.247 102.377 323.337 103.192 323.474 102.969C323.611 102.746 323.388 102.565 322.925 102.205C322.295 101.748 321.541 101.494 320.763 101.476C319.993 101.453 319.236 101.675 318.601 102.111C318.137 102.445 317.974 102.771 318.052 102.848Z" fill="#263238"/>
<path d="M332.046 107.173C332.032 107.531 332.159 107.881 332.399 108.147C332.64 108.413 332.975 108.575 333.333 108.597C333.508 108.616 333.684 108.6 333.852 108.549C334.02 108.499 334.177 108.415 334.312 108.303C334.447 108.191 334.558 108.053 334.639 107.897C334.72 107.741 334.769 107.571 334.783 107.396C334.795 107.038 334.667 106.689 334.427 106.424C334.187 106.158 333.853 105.996 333.496 105.972C333.322 105.954 333.146 105.971 332.978 106.022C332.81 106.073 332.654 106.157 332.52 106.269C332.385 106.38 332.273 106.518 332.192 106.673C332.111 106.828 332.061 106.998 332.046 107.173Z" fill="#263238"/>
<path d="M332.097 103.406C332.26 103.595 333.323 102.848 334.799 102.891C336.275 102.934 337.373 103.749 337.511 103.526C337.648 103.303 337.433 103.123 336.961 102.763C336.332 102.305 335.577 102.05 334.799 102.033C334.03 102.012 333.273 102.234 332.637 102.668C332.174 103.003 332.045 103.329 332.097 103.406Z" fill="#263238"/>
<path d="M326.898 114.346C326.123 114.081 325.319 113.914 324.504 113.848C324.126 113.796 323.774 113.719 323.714 113.453C323.69 113.064 323.789 112.676 323.997 112.346C324.375 111.437 324.77 110.485 325.19 109.498C326.855 105.44 328.064 102.102 327.901 102.033C327.738 101.965 326.254 105.199 324.598 109.258C324.195 110.262 323.809 111.214 323.448 112.123C323.2 112.573 323.118 113.095 323.217 113.599C323.266 113.734 323.346 113.857 323.45 113.956C323.554 114.056 323.68 114.13 323.817 114.174C324.027 114.234 324.243 114.268 324.461 114.277C325.267 114.403 326.086 114.427 326.898 114.346Z" fill="#263238"/>
<path d="M325.44 131.832C330.487 132.051 335.495 130.862 339.906 128.4C339.906 128.4 336.097 135.727 325.389 134.406L325.44 131.832Z" fill="#EB996E"/>
<path d="M327.465 117.932C327.754 117.584 328.127 117.315 328.549 117.153C328.971 116.991 329.428 116.94 329.876 117.005C330.202 117.042 330.517 117.144 330.801 117.307C331.086 117.469 331.335 117.688 331.532 117.949C331.724 118.2 331.835 118.505 331.849 118.821C331.863 119.137 331.779 119.45 331.609 119.717C331.364 119.976 331.046 120.156 330.698 120.234C330.349 120.312 329.986 120.284 329.653 120.154C328.961 119.889 328.328 119.49 327.791 118.979C327.628 118.853 327.488 118.699 327.379 118.524C327.324 118.443 327.295 118.347 327.295 118.249C327.295 118.152 327.324 118.056 327.379 117.975" fill="#EB996E"/>
<path d="M331.257 115.487C331.017 115.487 330.974 117.074 329.541 118.172C328.108 119.27 326.435 119.03 326.409 119.279C326.384 119.528 326.787 119.605 327.508 119.639C328.44 119.664 329.351 119.361 330.082 118.781C330.799 118.232 331.271 117.421 331.394 116.525C331.54 115.881 331.369 115.478 331.257 115.487Z" fill="#263238"/>
<path d="M332.466 99.0302C332.595 99.442 334.079 99.2876 335.812 99.545C337.545 99.8024 338.935 100.309 339.176 99.9568C339.279 99.7852 339.047 99.3991 338.489 98.9959C337.752 98.4897 336.905 98.1662 336.018 98.0521C335.131 97.924 334.225 98.0063 333.376 98.2923C332.732 98.5326 332.406 98.8414 332.466 99.0302Z" fill="#263238"/>
<path d="M318.652 96.3877C318.909 96.7309 319.93 96.3877 321.157 96.3877C322.384 96.3877 323.423 96.6708 323.663 96.3276C323.774 96.156 323.62 95.8214 323.174 95.4696C322.581 95.0632 321.876 94.8532 321.157 94.869C320.437 94.8582 319.732 95.0743 319.141 95.4868C318.695 95.8814 318.54 96.2246 318.652 96.3877Z" fill="#263238"/>
<path d="M354.131 92.9557C352.415 86.6837 343.836 77.7176 337.366 77.8721L326.744 83.6121C327 85.3915 327.733 87.0685 328.864 88.4656C329.995 89.8627 331.483 90.928 333.171 91.5486C334.972 92.1921 337.169 92.4066 338.181 94.0711C339.194 95.7356 338.464 98.0351 339.425 99.7339C340.747 102.093 344.668 102.162 345.629 104.702C346.049 105.8 345.749 107.087 346.186 108.185C346.778 109.652 350.322 111.617 351.841 111.223C353.359 110.828 353.488 108.262 354.037 106.933C354.724 105.451 354.878 103.778 354.475 102.196C353.96 99.1419 354.938 95.9501 354.131 92.9557Z" fill="#263238"/>
<path d="M347.352 112.286C347.352 111.488 348.356 109.635 349.145 109.532C351.256 109.258 355.048 109.532 354.945 114.878C354.799 122.188 347.489 120.532 347.481 120.326C347.472 120.12 347.275 115.049 347.352 112.286Z" fill="#FFBE9D"/>
<path d="M349.764 117.597C349.764 117.597 349.893 117.692 350.108 117.795C350.408 117.93 350.749 117.946 351.06 117.838C351.841 117.563 352.51 116.353 352.57 115.032C352.602 114.407 352.493 113.782 352.253 113.204C352.189 112.975 352.071 112.765 351.908 112.591C351.745 112.418 351.542 112.287 351.317 112.209C351.171 112.165 351.014 112.175 350.874 112.236C350.734 112.297 350.621 112.406 350.554 112.544C350.451 112.741 350.494 112.887 350.459 112.904C350.425 112.921 350.305 112.775 350.365 112.475C350.413 112.295 350.519 112.135 350.665 112.02C350.872 111.873 351.127 111.812 351.377 111.849C351.675 111.916 351.95 112.058 352.178 112.26C352.406 112.463 352.579 112.72 352.682 113.007C352.983 113.647 353.122 114.351 353.085 115.058C353.008 116.533 352.227 117.898 351.163 118.181C350.966 118.232 350.76 118.239 350.56 118.202C350.36 118.165 350.17 118.085 350.005 117.966C349.782 117.778 349.739 117.614 349.764 117.597Z" fill="#EB996E"/>
<path d="M360.119 103.097C360.378 102.402 360.517 101.668 360.531 100.927C360.805 97.3241 359.852 93.7347 357.828 90.7421C357.451 90.0933 356.966 89.513 356.395 89.0261C356.249 89.1119 358.54 91.6945 359.57 95.6928C360.6 99.6911 359.956 103.089 360.119 103.097Z" fill="#5A37BD"/>
<path d="M329.009 81.5099C328.151 84.4357 323.38 87.9449 321.287 90.0899C317.22 94.2512 316.465 94.8604 315.65 108.108C313.953 103.856 313.203 99.2856 313.453 94.7145C313.805 90.8795 315.533 87.3014 318.318 84.6416C319.733 83.3235 321.437 82.354 323.293 81.8104C325.149 81.2667 327.106 81.1638 329.009 81.5099Z" fill="#263238"/>
<path d="M357.855 93.1015C357.444 93.2198 357.021 93.2974 356.594 93.3331C356.191 93.3932 355.693 93.4618 355.101 93.4962C354.509 93.5305 353.857 93.5991 353.119 93.5905C351.399 93.6241 349.678 93.5295 347.971 93.3074C345.87 93.0234 343.795 92.5672 341.768 91.9432C339.751 91.2935 337.788 90.4844 335.899 89.5236C334.365 88.7224 332.891 87.8105 331.489 86.7952C330.88 86.3833 330.374 85.9372 329.919 85.5854C329.464 85.2336 329.061 84.8818 328.786 84.5987C328.459 84.3211 328.155 84.0169 327.877 83.6892C328.24 83.9186 328.582 84.1799 328.898 84.47C329.207 84.736 329.593 85.0534 330.065 85.388C330.537 85.7227 331.052 86.1517 331.669 86.5464C333.083 87.5023 334.559 88.3622 336.088 89.1204C337.962 90.055 339.904 90.8466 341.897 91.4884C343.903 92.096 345.95 92.5577 348.023 92.8698C349.729 93.1064 351.449 93.2296 353.171 93.2387C353.9 93.2387 354.561 93.2387 355.144 93.2387C355.728 93.2387 356.225 93.1958 356.629 93.1529C357.035 93.1024 357.446 93.0852 357.855 93.1015Z" fill="#455A64"/>
<path d="M358.276 98.3868C357.996 98.468 357.709 98.517 357.418 98.5327C356.629 98.6256 355.836 98.6744 355.041 98.6785C349.772 98.7318 344.587 97.3592 340.035 94.706C339.352 94.3093 338.69 93.8768 338.053 93.4104C337.803 93.2561 337.575 93.0685 337.375 92.8527C337.418 92.7926 338.439 93.4962 340.189 94.44C344.761 96.909 349.855 98.2559 355.05 98.3696C357.032 98.4211 358.267 98.3096 358.276 98.3868Z" fill="#455A64"/>
<path d="M360.103 98.6699C360.211 99.0294 360.272 99.4015 360.283 99.7767C360.352 100.506 360.395 101.553 360.386 102.848C360.366 104.368 360.269 105.886 360.095 107.396C359.897 109.251 359.527 111.084 358.988 112.87C357.913 116.147 355.72 118.941 352.793 120.763C351.909 121.291 350.971 121.722 349.996 122.05C349.645 122.188 349.279 122.286 348.906 122.342C349.234 122.159 349.579 122.006 349.936 121.887C350.871 121.5 351.772 121.035 352.63 120.497C353.89 119.69 355.007 118.678 355.933 117.503C357.096 116.092 357.986 114.477 358.559 112.741C359.092 110.979 359.468 109.173 359.683 107.344C359.897 105.628 360.009 104.127 360.069 102.84C360.129 101.553 360.129 100.506 360.069 99.7939C360.052 99.4189 360.064 99.0432 360.103 98.6699Z" fill="#455A64"/>
<path d="M259.681 140.884L280.891 162.334C283.68 161.69 317.905 141.235 317.905 141.235L323.319 167.559C323.319 167.559 288.287 183.689 278.652 181.733C277.073 181.415 274.491 181.21 272.86 179.159C265.121 169.215 250.535 148.348 250.535 148.348L259.681 140.884Z" fill="#FFBE9D"/>
<path d="M287.498 337.7L297.966 360.394L314.86 352.586L304.032 324.504L287.498 337.7Z" fill="#FFBE9D"/>
<path d="M296.009 358.876L302.127 370.544C302.127 370.544 286.443 386.735 287.918 390.39L324.726 372.741L314.611 349.343L296.009 358.876Z" fill="#455A64"/>
<path d="M312.724 363.492C313.128 363.441 313.538 363.535 313.879 363.758C314.22 363.982 314.47 364.319 314.585 364.71C314.663 365.113 314.582 365.531 314.36 365.876C314.138 366.221 313.792 366.467 313.393 366.563C312.962 366.639 312.518 366.546 312.153 366.306C311.788 366.065 311.529 365.694 311.428 365.268C311.391 364.84 311.522 364.414 311.792 364.079C312.062 363.745 312.451 363.528 312.878 363.475" fill="#E0E0E0"/>
<g opacity="0.6">
<path d="M324.727 372.706L323.191 369.798L288.476 387.816C288.476 387.816 287.181 389.317 287.919 390.39L324.727 372.706Z" fill="white"/>
</g>
<path d="M301.416 370.656C301.511 370.836 302.446 370.484 303.613 370.656C304.779 370.828 305.603 371.342 305.732 371.188C305.861 371.034 305.097 370.133 303.69 369.97C302.283 369.807 301.296 370.493 301.416 370.656Z" fill="#263238"/>
<path d="M298.318 374.088C298.361 374.285 299.288 374.217 300.266 374.688C301.244 375.16 301.802 375.872 301.982 375.778C302.162 375.684 301.785 374.611 300.566 374.062C299.348 373.513 298.241 373.916 298.318 374.088Z" fill="#263238"/>
<path d="M298.343 379.759C298.524 379.759 298.343 378.704 297.408 377.94C296.473 377.177 295.452 377.194 295.443 377.374C295.435 377.554 296.216 377.837 296.971 378.481C297.726 379.124 298.155 379.828 298.343 379.759Z" fill="#263238"/>
<path d="M299.666 366.152C299.821 366.28 300.524 365.637 301.571 365.216C302.618 364.796 303.561 364.736 303.587 364.539C303.613 364.341 302.54 364.067 301.305 364.539C300.069 365.011 299.503 366.049 299.666 366.152Z" fill="#263238"/>
<path d="M286.666 350.064L260.592 279.167C260.592 279.167 261.21 267.387 263.38 263.663C265.551 259.94 331.291 238.232 331.291 238.232C331.291 238.232 348.039 234.2 359.202 238.232C370.364 242.265 381.707 247.241 380.592 255.066C380.412 256.262 380.125 257.44 379.734 258.584C377.856 264.094 374.334 268.895 369.642 272.341C364.951 275.787 359.315 277.711 353.496 277.855L344.762 278.85L300.446 287.31C299.984 287.404 299.546 287.593 299.161 287.864C298.775 288.135 298.449 288.483 298.203 288.885C297.958 289.288 297.798 289.736 297.733 290.203C297.669 290.671 297.702 291.146 297.829 291.6L312.14 339.296C312.14 339.296 296.508 346.924 286.666 350.064Z" fill="#263238"/>
<path d="M263.637 301.004L263.02 325.989L281.621 326.443L284.307 296.465L263.637 301.004Z" fill="#FFBE9D"/>
<path d="M263.019 322.659L262.247 336.919C262.247 336.919 241.054 344.538 240.797 348.434L281.621 348.845L282.873 323.388L263.019 322.659Z" fill="#455A64"/>
<path d="M262.059 328.88C261.997 328.641 261.997 328.39 262.059 328.151C262.196 327.474 262.49 326.84 262.917 326.297C263.05 326.093 263.215 325.91 263.406 325.757C263.532 325.654 263.682 325.583 263.842 325.55C264.001 325.517 264.167 325.523 264.324 325.568C264.414 325.596 264.497 325.643 264.567 325.707C264.637 325.771 264.692 325.849 264.727 325.937C264.788 326.097 264.788 326.274 264.727 326.435C264.608 326.697 264.465 326.947 264.298 327.181C263.981 327.662 263.715 328.142 263.311 328.683C263.181 328.841 263.013 328.964 262.822 329.04C262.632 329.117 262.425 329.144 262.222 329.12C261.842 329.069 261.48 328.927 261.166 328.708C260.602 328.339 260.081 327.908 259.613 327.421C259.396 327.197 259.193 326.959 259.004 326.709C258.788 326.461 258.63 326.168 258.541 325.851C258.505 325.675 258.532 325.493 258.619 325.335C258.705 325.178 258.845 325.057 259.013 324.993C259.177 324.949 259.349 324.944 259.515 324.976C259.682 325.009 259.838 325.079 259.974 325.182C260.364 325.484 260.713 325.836 261.012 326.229C261.433 326.766 261.774 327.361 262.024 327.996C262.131 328.219 262.193 328.461 262.205 328.708C261.789 327.9 261.297 327.133 260.737 326.417C260.444 326.065 260.11 325.748 259.742 325.474C259.662 325.408 259.567 325.362 259.466 325.338C259.365 325.314 259.26 325.314 259.159 325.336C259.074 325.373 259.006 325.44 258.969 325.524C258.933 325.609 258.93 325.704 258.961 325.791C259.053 326.035 259.19 326.259 259.365 326.452C259.55 326.688 259.748 326.914 259.957 327.13C260.405 327.581 260.899 327.984 261.432 328.331C261.687 328.511 261.981 328.629 262.29 328.674C262.415 328.692 262.542 328.677 262.659 328.628C262.775 328.58 262.876 328.501 262.951 328.399C263.294 327.962 263.62 327.413 263.929 326.958C264.086 326.751 264.224 326.53 264.341 326.297C264.427 326.083 264.341 325.954 264.212 325.894C263.843 325.757 263.483 326.134 263.234 326.452C262.68 327.172 262.28 327.998 262.059 328.88Z" fill="#263238"/>
<path d="M274.894 335.28C275.279 335.413 275.605 335.678 275.812 336.029C276.02 336.379 276.096 336.792 276.026 337.194C275.916 337.588 275.659 337.925 275.308 338.137C274.958 338.349 274.54 338.42 274.139 338.335C273.718 338.212 273.36 337.933 273.138 337.555C272.916 337.177 272.848 336.729 272.946 336.301C273.101 335.899 273.406 335.573 273.796 335.392C274.187 335.211 274.633 335.189 275.04 335.332" fill="#E0E0E0"/>
<g opacity="0.6">
<path d="M281.595 348.846L281.518 345.534L242.41 346.392C242.41 346.392 240.583 347.164 240.771 348.451L281.595 348.846Z" fill="white"/>
</g>
<path d="M261.595 336.705C261.595 336.902 262.59 337.005 263.568 337.657C264.546 338.31 265.053 339.15 265.241 339.073C265.43 338.996 265.138 337.846 263.946 337.074C262.753 336.302 261.552 336.525 261.595 336.705Z" fill="#263238"/>
<path d="M257.289 338.429C257.246 338.627 258.104 338.97 258.773 339.819C259.442 340.669 259.631 341.535 259.828 341.535C260.026 341.535 260.163 340.403 259.314 339.364C258.464 338.326 257.297 338.24 257.289 338.429Z" fill="#263238"/>
<path d="M254.825 343.535C255.006 343.578 255.297 342.582 254.825 341.484C254.354 340.386 253.401 339.948 253.315 340.111C253.23 340.274 253.796 340.866 254.173 341.776C254.551 342.685 254.611 343.509 254.825 343.535Z" fill="#263238"/>
<path d="M261.999 331.9C262.085 332.08 263.003 331.814 264.127 331.9C265.251 331.986 266.126 332.355 266.229 332.183C266.332 332.012 265.499 331.325 264.17 331.214C262.84 331.102 261.904 331.737 261.999 331.9Z" fill="#263238"/>
<path d="M274.509 231.66C274.509 231.66 263.355 230.802 262.12 242.857C260.884 254.912 255.059 311.008 255.059 311.008L285.706 313.582L289.739 255.898L331.292 238.223C331.292 238.223 281.948 230.098 274.509 231.66Z" fill="#263238"/>
<path d="M320.446 215.358C320.446 215.358 313.685 234.32 314.972 236.43C316.259 238.541 333.659 247.25 333.659 247.25L377.185 263.964C377.185 263.964 381.655 256.851 381.655 245.946C381.655 235.04 366.52 215.358 366.52 215.358H320.446Z" fill="#263238"/>
<path d="M333.35 237.237C333.285 237.278 333.216 237.313 333.144 237.34L332.527 237.631L330.116 238.704L321.072 242.642L289.833 256.087L289.97 255.89C289.575 261.587 289.112 267.747 288.709 274.114C287.653 288.991 286.675 302.711 285.903 313.582V313.779H285.706L266.735 312.114L261.51 311.625L260.146 311.488C259.987 311.478 259.829 311.455 259.674 311.419C259.831 311.406 259.989 311.406 260.146 311.419L261.519 311.505L266.752 311.891L285.714 313.359L285.508 313.539C286.255 302.685 287.224 288.957 288.22 274.071C288.666 267.704 289.077 261.544 289.498 255.855V255.684L289.627 255.624L320.935 242.342L330.056 238.524L332.501 237.52L333.136 237.271L333.35 237.237Z" fill="#455A64"/>
<path d="M367.97 239.133C367.556 239.056 367.148 238.944 366.752 238.798L363.474 237.743C359.896 236.528 356.227 235.601 352.501 234.972C348.781 234.357 344.982 234.404 341.278 235.109C338.438 235.701 336.808 236.507 336.773 236.413C337.127 236.181 337.508 235.99 337.906 235.847C338.97 235.392 340.073 235.033 341.201 234.774C344.941 233.959 348.802 233.863 352.578 234.491C356.328 235.12 360.011 236.099 363.577 237.417C364.95 237.897 366.057 238.318 366.812 238.618C367.215 238.75 367.603 238.922 367.97 239.133Z" fill="#455A64"/>
<path d="M361.818 229.129C360.549 229.057 359.277 229.057 358.008 229.129C356.841 229.206 355.434 229.386 353.89 229.567C352.346 229.747 350.638 229.961 348.879 230.296C345.855 230.777 342.956 231.853 340.351 233.462C339.305 234.18 338.315 234.978 337.391 235.847C337.552 235.53 337.764 235.24 338.017 234.989C338.661 234.299 339.377 233.681 340.153 233.144C342.758 231.421 345.701 230.274 348.785 229.781C350.57 229.446 352.285 229.249 353.838 229.086C355.391 228.923 356.799 228.786 357.991 228.751C358.934 228.708 359.879 228.751 360.814 228.88C361.159 228.911 361.498 228.995 361.818 229.129Z" fill="#455A64"/>
<path d="M298.584 363.792C298.419 363.573 298.302 363.321 298.241 363.054C298.032 362.333 297.973 361.576 298.069 360.832C298.094 360.574 298.152 360.32 298.241 360.077C298.301 359.922 298.401 359.786 298.531 359.683C298.66 359.579 298.815 359.511 298.979 359.485C299.078 359.474 299.179 359.485 299.274 359.517C299.369 359.55 299.456 359.603 299.528 359.673C299.652 359.815 299.73 359.992 299.751 360.18C299.777 360.491 299.777 360.804 299.751 361.115C299.699 361.733 299.699 362.333 299.605 363.054C299.572 363.262 299.484 363.458 299.349 363.621C299.215 363.784 299.04 363.908 298.841 363.981C298.465 364.093 298.066 364.108 297.683 364.023C296.989 363.907 296.312 363.705 295.667 363.423C295.358 363.294 295.057 363.148 294.766 362.985C294.455 362.836 294.178 362.626 293.951 362.368C293.822 362.213 293.752 362.019 293.752 361.818C293.752 361.618 293.822 361.423 293.951 361.269C294.08 361.15 294.238 361.066 294.409 361.024C294.58 360.982 294.759 360.984 294.929 361.029C295.436 361.166 295.923 361.368 296.379 361.63C297.035 361.98 297.637 362.425 298.163 362.951C298.367 363.129 298.539 363.341 298.67 363.577C297.907 362.954 297.089 362.402 296.224 361.93C295.791 361.717 295.337 361.55 294.869 361.432C294.629 361.432 294.371 361.432 294.277 361.552C294.22 361.634 294.194 361.733 294.203 361.832C294.213 361.931 294.257 362.024 294.328 362.093C294.523 362.297 294.757 362.46 295.015 362.573C295.291 362.73 295.578 362.867 295.873 362.985C296.49 363.244 297.135 363.431 297.795 363.543C298.093 363.617 298.405 363.617 298.704 363.543C298.825 363.501 298.932 363.425 299.012 363.325C299.093 363.225 299.144 363.104 299.159 362.977C299.245 362.385 299.27 361.69 299.33 361.098C299.365 360.813 299.379 360.526 299.373 360.24C299.373 359.991 299.236 359.879 299.056 359.888C298.661 359.888 298.515 360.454 298.447 360.883C298.305 361.853 298.352 362.84 298.584 363.792Z" fill="#263238"/>
<path d="M319.374 140.6C316.306 141.789 313.749 144.01 312.141 146.881C309.43 151.694 310.159 154.062 310.863 156.902C311.566 159.742 312.828 165.379 312.896 165.019C312.965 164.659 319.374 140.6 319.374 140.6Z" fill="#FFBE9D"/>
<path d="M365.259 149.172C365.259 149.172 361.706 140.592 360.969 139.802L347.858 136.49L339.664 140.506C337.301 141.704 334.653 142.229 332.011 142.025C329.077 141.75 326.503 140.566 325.207 138.395L320.059 139.785C320.059 139.785 311.925 164.333 312.088 171.128C312.251 177.923 315.083 197.228 314.757 201.038C314.431 204.847 315.812 215.358 320.445 215.358H366.52C366.52 215.358 376.919 212.475 377.374 206.22C377.828 199.965 365.259 149.172 365.259 149.172Z" fill="#5A37BD"/>
<path d="M350.578 186.426C350.353 186.679 350.093 186.898 349.806 187.078C349.057 187.616 348.258 188.081 347.421 188.468C346.174 189.047 344.851 189.443 343.491 189.644C341.817 189.886 340.111 189.813 338.463 189.429C335.486 188.668 332.777 187.097 330.638 184.89C329.991 184.24 329.392 183.543 328.845 182.805C328.629 182.544 328.447 182.255 328.305 181.947C328.373 181.896 329.206 183.071 330.879 184.642C333.037 186.717 335.698 188.196 338.601 188.932C341.516 189.594 344.566 189.312 347.309 188.125C349.394 187.25 350.527 186.34 350.578 186.426Z" fill="#263238"/>
<g opacity="0.3">
<path d="M329.077 183.011C329.394 186.535 331.094 189.789 333.804 192.063C335.163 193.17 336.764 193.941 338.477 194.314C340.19 194.687 341.966 194.65 343.663 194.208C345.349 193.726 346.869 192.789 348.057 191.5C349.246 190.21 350.055 188.618 350.398 186.898C348.077 188.091 345.603 188.957 343.045 189.472C340.283 189.842 337.474 189.404 334.956 188.212C332.437 187.02 330.318 185.124 328.854 182.754L329.222 183.149" fill="black"/>
</g>
<g opacity="0.3">
<path d="M367.843 190.476C362.978 181.038 357.83 171.257 349.318 164.907C351.206 171.36 352.896 177.426 354.981 183.783C355.573 185.594 356.508 187.705 358.413 188.005C359.108 188.116 359.82 187.945 360.507 188.082C361.691 188.314 362.497 189.369 363.132 190.39C363.648 191.481 364.46 192.406 365.474 193.058C366.556 193.59 368.203 193.058 368.306 191.892C368.287 191.386 368.127 190.895 367.843 190.476Z" fill="black"/>
</g>
<path d="M381.655 172.458L358.447 183.337C358.447 183.337 348.151 162.745 347.353 159.888C346.555 157.031 344.779 152.166 347.413 146.16C348.591 143.609 350.649 141.568 353.209 140.41C355.77 139.252 358.661 139.055 361.355 139.854C371.591 143.509 381.655 172.458 381.655 172.458Z" fill="#5A37BD"/>
<path d="M314.354 172.458C313.273 172.458 300.823 178.97 300.823 178.97L292.578 155.058C303.277 149.258 315.169 141.072 321.355 139.408L315.976 158.078L314.354 172.458Z" fill="#5A37BD"/>
<path d="M360.72 181.896C365.113 189.12 368.185 193.273 368.185 193.273L328.76 217.297L333.35 227.971L381.278 208.237C382.89 207.596 384.327 206.583 385.471 205.279C386.615 203.976 387.433 202.419 387.859 200.738C388.253 199.158 388.215 197.501 387.747 195.942L379.596 173.445L360.72 181.896Z" fill="#FFBE9D"/>
<path d="M377.778 196.945C376.27 196.008 374.692 195.188 373.059 194.491C370.305 193.453 367.868 193.428 367.911 193.273C369.728 193.143 371.551 193.404 373.259 194.037C374.967 194.671 376.519 195.662 377.812 196.945H377.778Z" fill="#EB996E"/>
<path d="M315.786 151.188C315.522 151.527 315.297 151.896 315.117 152.286C314.604 153.311 314.177 154.375 313.838 155.47C312.769 159.023 312.115 162.688 311.891 166.392C311.608 170.067 311.652 173.759 312.019 177.426C312.129 178.541 312.301 179.65 312.534 180.746C312.596 181.158 312.705 181.561 312.86 181.948C312.871 181.535 312.83 181.123 312.74 180.721C312.637 179.94 312.5 178.807 312.406 177.409C312.143 173.75 312.143 170.077 312.406 166.418C312.639 162.745 313.234 159.103 314.182 155.547C314.488 154.46 314.858 153.391 315.288 152.347C315.496 151.98 315.663 151.591 315.786 151.188Z" fill="#263238"/>
<path d="M298.164 224.599L308.022 219.897L327.207 218.37L328.777 217.289L333.368 227.962C333.368 227.962 328.34 230.364 325.706 230.579L309.567 230.09L301.133 230.948L298.164 224.599Z" fill="#FFBE9D"/>
<path d="M381.655 172.458C381.497 172.493 381.345 172.548 381.2 172.621L379.913 173.161L375.22 175.246L359.776 182.273L357.897 183.131L358.189 183.234C355.512 177.717 353.17 172.775 351.505 169.206C350.699 167.49 350.046 166.04 349.566 164.993L349.043 163.852C348.99 163.714 348.917 163.584 348.828 163.466C348.859 163.609 348.902 163.75 348.957 163.886C349.06 164.152 349.206 164.547 349.412 165.053C349.815 166.074 350.433 167.533 351.231 169.343C352.818 172.947 355.117 177.923 357.794 183.44L357.889 183.638L358.086 183.543L359.965 182.685L375.315 175.547L379.948 173.333L381.2 172.707C381.361 172.641 381.513 172.558 381.655 172.458Z" fill="#263238"/>
<path d="M360.3 139.914C360.3 140 359.21 139.965 357.528 140.369C355.343 140.883 353.327 141.952 351.674 143.471C350.021 144.99 348.787 146.909 348.09 149.043C347.533 150.682 347.472 151.772 347.387 151.763C347.348 151.51 347.348 151.252 347.387 150.999C347.455 150.305 347.587 149.619 347.781 148.949C348.425 146.717 349.673 144.706 351.387 143.137C353.1 141.569 355.214 140.504 357.494 140.06C358.155 139.928 358.827 139.859 359.502 139.854C359.769 139.829 360.039 139.849 360.3 139.914Z" fill="#263238"/>
<path d="M373.642 154.869C373.583 155.224 373.479 155.57 373.334 155.898C373.02 156.829 372.575 157.711 372.012 158.515L371.403 159.279L371.068 159.691L370.674 160.06L369.816 160.823L368.82 161.501C367.295 162.43 365.646 163.138 363.921 163.603C360.283 164.624 356.911 165.105 354.578 165.834C353.316 166.229 352.079 166.696 350.871 167.233C351.15 167.005 351.455 166.812 351.781 166.658C352.142 166.446 352.521 166.265 352.913 166.117L353.642 165.808L354.5 165.534C356.843 164.676 360.223 164.178 363.818 163.174C365.504 162.72 367.121 162.039 368.623 161.149L369.601 160.506L370.459 159.785C370.588 159.665 370.725 159.562 370.845 159.442L371.171 159.056L371.789 158.335C372.358 157.559 372.833 156.718 373.205 155.83C373.318 155.496 373.465 155.174 373.642 154.869Z" fill="white"/>
<path d="M370.588 149.403C370.257 149.441 369.931 149.519 369.618 149.635C368.802 150.027 368.127 150.662 367.688 151.454C367.379 151.943 367.07 152.501 366.658 153.076C366.21 153.676 365.685 154.216 365.097 154.68C363.726 155.703 362.175 156.457 360.524 156.902C358.808 157.426 357.092 157.76 355.624 158.095C354.298 158.395 353.003 158.817 351.755 159.356C350.624 159.89 349.571 160.574 348.623 161.39C348.623 161.39 348.666 161.304 348.777 161.175C348.939 160.98 349.114 160.797 349.301 160.626C349.995 159.995 350.779 159.469 351.626 159.065C352.876 158.474 354.184 158.017 355.53 157.7C357.031 157.306 358.705 156.988 360.395 156.473C361.991 156.039 363.497 155.321 364.839 154.354C365.409 153.923 365.92 153.418 366.358 152.853C366.761 152.321 367.087 151.763 367.43 151.282C367.918 150.458 368.667 149.821 369.558 149.472C369.803 149.383 370.062 149.342 370.322 149.352C370.493 149.361 370.588 149.386 370.588 149.403Z" fill="white"/>
<path d="M351.865 170.039C351.754 170.122 351.633 170.191 351.505 170.244L350.415 170.751C349.471 171.18 348.09 171.789 346.357 172.467C344.324 173.271 342.233 173.92 340.102 174.406C337.478 175.024 334.767 175.184 332.088 174.878C329.438 174.442 326.847 173.702 324.366 172.673C322.356 171.875 320.264 171.3 318.128 170.957C316.689 170.743 315.224 170.775 313.796 171.051C312.783 171.266 312.251 171.506 312.243 171.463C312.234 171.42 312.363 171.386 312.612 171.266C312.982 171.109 313.363 170.98 313.753 170.879C315.196 170.532 316.69 170.451 318.163 170.639C320.333 170.944 322.461 171.5 324.503 172.295C326.963 173.287 329.523 174.007 332.14 174.44C334.768 174.737 337.427 174.592 340.007 174.011C342.124 173.547 344.205 172.936 346.237 172.184C347.953 171.549 349.377 170.991 350.338 170.605L351.453 170.176C351.582 170.108 351.721 170.062 351.865 170.039Z" fill="white"/>
<path d="M313.779 162.162C313.779 162.162 313.874 162.068 314.08 161.922C314.386 161.721 314.714 161.554 315.058 161.424C316.335 160.943 317.716 160.802 319.065 161.012C321.051 161.316 322.96 162.004 324.684 163.037C326.737 164.312 328.876 165.441 331.085 166.418C333.355 167.223 335.758 167.584 338.164 167.482C340.133 167.408 342.093 167.173 344.024 166.778C345.68 166.461 347.018 166.143 347.936 165.92C348.409 165.788 348.891 165.694 349.378 165.637C348.923 165.823 348.456 165.975 347.979 166.092C347.07 166.358 345.748 166.718 344.092 167.078C342.147 167.522 340.166 167.792 338.172 167.885C335.712 168.013 333.252 167.655 330.931 166.83C328.7 165.848 326.547 164.7 324.487 163.398C322.811 162.371 320.957 161.67 319.022 161.33C317.719 161.096 316.379 161.184 315.118 161.587C314.234 161.87 313.805 162.162 313.779 162.162Z" fill="white"/>
<path d="M309.361 174.363C309.361 174.363 309.266 174.363 309.095 174.363C308.845 174.313 308.6 174.238 308.365 174.14C307.486 173.758 306.711 173.169 306.109 172.424C305.206 171.349 304.55 170.09 304.187 168.734C303.788 167.085 303.58 165.395 303.569 163.698C303.556 162.029 303.424 160.363 303.174 158.713C302.935 157.38 302.459 156.101 301.767 154.938C301.104 153.875 300.191 152.991 299.107 152.364C299.107 152.364 299.202 152.364 299.365 152.441C299.603 152.532 299.833 152.644 300.051 152.775C300.843 153.296 301.513 153.98 302.016 154.783C302.772 155.96 303.296 157.27 303.56 158.644C303.84 160.314 303.986 162.004 303.998 163.698C304.008 165.363 304.198 167.023 304.564 168.648C304.901 169.955 305.503 171.179 306.332 172.243C306.898 172.956 307.609 173.54 308.417 173.959C309.009 174.243 309.369 174.32 309.361 174.363Z" fill="white"/>
<path d="M311.712 168.271C311.243 167.365 310.831 166.431 310.476 165.474L307.602 158.73C306.452 156.096 305.388 153.719 304.573 152.029C303.758 150.339 303.192 149.318 303.243 149.283C303.443 149.476 303.611 149.699 303.741 149.944C304.024 150.39 304.41 151.051 304.857 151.883C305.715 153.548 306.864 155.907 308.014 158.55C309.164 161.192 310.116 163.612 310.768 165.414C311.094 166.272 311.343 167.018 311.506 167.525C311.607 167.763 311.676 168.014 311.712 168.271Z" fill="white"/>
<path d="M242.814 186.718L298.138 187.173C299.931 187.173 301.647 188.031 301.913 189.807L307.962 230.133H336.456C336.898 230.133 337.321 230.308 337.633 230.62C337.945 230.932 338.121 231.356 338.121 231.797C338.121 232.239 337.945 232.662 337.633 232.974C337.321 233.286 336.898 233.462 336.456 233.462H245.482L239.262 190.905C239.182 190.39 239.213 189.864 239.355 189.363C239.496 188.861 239.744 188.396 240.081 187.999C240.418 187.602 240.836 187.282 241.308 187.061C241.779 186.84 242.293 186.723 242.814 186.718Z" fill="#E0E0E0"/>
<path d="M242.815 186.718C242.526 186.706 242.237 186.735 241.957 186.804C241.109 187.003 240.36 187.499 239.846 188.202C239.467 188.721 239.23 189.331 239.16 189.97C239.147 190.733 239.216 191.495 239.366 192.243L240.164 197.863C241.382 206.315 243.132 218.455 245.312 233.479V233.625H245.466L333.754 233.676H336.131C336.565 233.717 337.003 233.634 337.392 233.436C337.685 233.272 337.929 233.033 338.099 232.744C338.269 232.454 338.358 232.124 338.358 231.789C338.358 231.453 338.269 231.123 338.099 230.834C337.929 230.544 337.685 230.305 337.392 230.141C337.007 229.948 336.577 229.865 336.148 229.901H308.023L308.237 230.09C306.058 215.65 304.024 202.179 302.231 190.09C302.177 189.283 301.81 188.529 301.21 187.988C300.607 187.481 299.872 187.157 299.091 187.053C298.35 186.98 297.605 186.955 296.86 186.975H294.689L286.358 186.915L271.558 186.829L250.485 186.718H242.815C242.815 186.718 242.978 186.718 243.312 186.718H244.762L250.399 186.795L271.472 187.027L286.272 187.173L294.604 187.258H296.774C297.502 187.241 298.229 187.267 298.954 187.336C299.665 187.433 300.335 187.731 300.884 188.194C301.403 188.692 301.711 189.371 301.742 190.09C303.553 202.171 305.56 215.65 307.748 230.09V230.279H336.062C336.415 230.241 336.772 230.303 337.092 230.459C337.391 230.627 337.621 230.896 337.741 231.219C337.86 231.541 337.861 231.895 337.744 232.218C337.627 232.538 337.398 232.806 337.1 232.973C336.777 233.135 336.413 233.201 336.054 233.161H333.763L245.475 233.213L245.638 233.359C243.424 218.387 241.614 206.212 240.361 197.76C240.043 195.658 239.76 193.779 239.503 192.158C239.341 191.42 239.267 190.665 239.28 189.91C239.336 189.292 239.555 188.7 239.915 188.194C240.407 187.494 241.135 186.995 241.965 186.787C242.247 186.75 242.531 186.727 242.815 186.718Z" fill="#263238"/>
<path d="M270.408 213.042C272.322 213.042 273.874 211.49 273.874 209.575C273.874 207.661 272.322 206.109 270.408 206.109C268.493 206.109 266.941 207.661 266.941 209.575C266.941 211.49 268.493 213.042 270.408 213.042Z" fill="white"/>
<path d="M305.757 233.076C305.671 233.076 303.913 222.823 301.819 210.15C299.726 197.477 298.095 187.181 298.173 187.173C298.25 187.164 300.009 197.426 302.102 210.099C304.196 222.771 305.834 233.067 305.757 233.076Z" fill="#263238"/>
<path d="M29.1719 410.124C29.1719 410.004 112.166 409.901 214.5 409.901C316.834 409.901 399.828 409.97 399.828 410.124C399.828 410.278 316.851 410.347 214.5 410.347C112.149 410.347 29.1719 410.21 29.1719 410.124Z" fill="#263238"/>
</svg>
