<svg width="486" height="486" viewBox="0 0 486 486" fill="none" xmlns="http://www.w3.org/2000/svg">
<path d="M243.204 467.959C365.535 467.959 464.704 413.445 464.704 346.197C464.704 278.949 365.535 224.435 243.204 224.435C120.874 224.435 21.7051 278.949 21.7051 346.197C21.7051 413.445 120.874 467.959 243.204 467.959Z" fill="#F5F5F5"/>
<path d="M156.648 337.401L247.695 284.796C248.313 284.484 248.995 284.322 249.688 284.322C250.38 284.322 251.062 284.484 251.68 284.796L318.077 323.132C318.319 323.213 318.529 323.368 318.677 323.574C318.826 323.781 318.906 324.029 318.906 324.284C318.906 324.538 318.826 324.786 318.677 324.993C318.529 325.2 318.319 325.354 318.077 325.435L227.03 378.001C226.412 378.313 225.73 378.475 225.038 378.475C224.345 378.475 223.663 378.313 223.045 378.001L156.648 339.665C156.419 339.577 156.223 339.421 156.085 339.219C155.947 339.017 155.873 338.778 155.873 338.533C155.873 338.288 155.947 338.049 156.085 337.847C156.223 337.645 156.419 337.489 156.648 337.401Z" fill="#E0E0E0"/>
<path d="M382.132 381.092C415.801 381.092 443.096 365.334 443.096 345.896C443.096 326.458 415.801 310.7 382.132 310.7C348.462 310.7 321.168 326.458 321.168 345.896C321.168 365.334 348.462 381.092 382.132 381.092Z" fill="#E0E0E0"/>
<path d="M131.055 396.819C130.009 396.83 128.979 396.572 128.061 396.071L53.9364 353.303C53.3939 353.049 52.9349 352.646 52.6134 352.14C52.2919 351.635 52.1211 351.049 52.1211 350.45C52.1211 349.851 52.2919 349.264 52.6134 348.759C52.9349 348.254 53.3939 347.851 53.9364 347.597L113.88 312.965C114.806 312.479 115.837 312.226 116.883 312.226C117.929 312.226 118.96 312.479 119.887 312.965L194.011 355.733C194.553 355.988 195.012 356.392 195.333 356.898C195.654 357.404 195.824 357.991 195.824 358.59C195.824 359.189 195.654 359.776 195.333 360.282C195.012 360.788 194.553 361.192 194.011 361.448L134.058 396.071C133.138 396.572 132.104 396.83 131.055 396.819Z" fill="#E0E0E0"/>
<path d="M69.8682 324.522C69.8682 324.522 70.9569 310.311 66.0969 298.2C61.2369 286.089 53.0332 277.545 44.2949 275.154C35.5566 272.763 26.7989 279.547 35.265 286.954C43.7312 294.36 59.429 303.264 63.1809 325.737L69.8682 324.522Z" fill="#37474F"/>
<path d="M67.9623 320.41H68.04C68.1022 320.398 68.1614 320.375 68.2142 320.34C68.2671 320.305 68.3125 320.26 68.3477 320.208C68.383 320.155 68.4075 320.096 68.4198 320.034C68.432 319.972 68.4318 319.908 68.4191 319.846C63.4619 295.012 47.4919 281.997 39.7354 278.575C39.6212 278.539 39.4977 278.547 39.3887 278.596C39.2797 278.646 39.1928 278.734 39.1446 278.843C39.0964 278.953 39.0904 279.076 39.1277 279.19C39.1649 279.304 39.2429 279.4 39.3466 279.46C46.9379 282.803 62.5968 295.595 67.4763 320.031C67.4973 320.142 67.5583 320.242 67.6477 320.312C67.7372 320.382 67.849 320.417 67.9623 320.41Z" fill="white"/>
<path d="M29.2481 314.121C29.6272 315.735 31.1046 316.823 32.5043 317.727C33.9039 318.631 35.4203 319.593 35.9646 321.158C37.0727 324.317 33.6026 327.807 34.8371 330.878C35.1371 331.518 35.5641 332.09 36.0921 332.56C36.6201 333.029 37.2382 333.387 37.9086 333.61C38.9972 334.028 40.1442 334.251 41.2717 334.582C41.8183 334.676 42.3701 334.738 42.9241 334.766C44.5741 334.721 46.1943 335.212 47.5411 336.166C49.5629 337.877 49.7087 340.871 50.6612 343.33C51.2635 344.793 52.1758 346.109 53.3353 347.186C54.4948 348.263 55.8739 349.077 57.3778 349.57C59.8758 350.406 63.8318 350.542 64.7164 349.57C65.387 348.802 64.3762 345.915 64.5414 344.914C64.9391 342.342 65.1018 339.739 65.0274 337.138C64.9361 335.95 64.9916 334.755 65.1926 333.581C65.4583 332.285 65.711 330.972 65.9508 329.644C66.3299 327.525 67.0297 325.26 66.5146 323.093C65.9411 320.711 63.4819 320.177 62.9668 317.863C62.7529 316.891 62.7335 315.978 62.5391 315.044C62.216 313.669 61.5241 312.407 60.5376 311.395C59.5512 310.382 58.3075 309.658 56.9404 309.3C52.683 308.26 48.1924 311.011 43.9156 309.873C42.8342 309.51 41.7732 309.088 40.7371 308.61C37.3837 307.298 33.1652 307.521 30.638 310.097C30.0991 310.606 29.6912 311.238 29.4492 311.938C29.2072 312.639 29.1382 313.388 29.2481 314.121Z" fill="#455A64"/>
<path d="M63.8507 342.766C63.9487 342.756 64.0392 342.71 64.1042 342.636C64.1691 342.562 64.2036 342.466 64.2007 342.368C62.5094 318.923 39.6285 311.205 34.0686 310.554C33.9695 310.543 33.8701 310.572 33.7918 310.633C33.7136 310.695 33.6629 310.786 33.6507 310.885C33.6453 310.933 33.6496 310.982 33.6633 311.029C33.6771 311.076 33.7 311.12 33.7307 311.158C33.7615 311.196 33.7994 311.227 33.8424 311.25C33.8854 311.274 33.9326 311.288 33.9812 311.293C39.4341 311.934 61.8193 319.477 63.4717 342.397C63.4716 342.446 63.4815 342.495 63.5007 342.54C63.5198 342.586 63.5479 342.627 63.5832 342.661C63.6186 342.696 63.6604 342.723 63.7064 342.741C63.7523 342.759 63.8014 342.767 63.8507 342.766Z" fill="white"/>
<path d="M39.8528 326.475C39.9299 326.478 40.0055 326.454 40.0667 326.407C42.5988 324.942 45.4225 324.053 48.3373 323.803C51.252 323.552 54.186 323.947 56.9309 324.959C57.0203 324.976 57.1127 324.96 57.1912 324.914C57.2697 324.868 57.3291 324.795 57.3586 324.709C57.388 324.623 57.3856 324.529 57.3517 324.445C57.3178 324.361 57.2547 324.291 57.1739 324.25C54.3238 323.202 51.2776 322.798 48.253 323.065C45.2284 323.332 42.3002 324.264 39.6779 325.795C39.6375 325.822 39.603 325.857 39.5762 325.898C39.5495 325.939 39.5311 325.984 39.522 326.032C39.513 326.08 39.5135 326.129 39.5236 326.177C39.5337 326.225 39.5531 326.27 39.5807 326.31C39.6103 326.357 39.6503 326.396 39.6975 326.425C39.7447 326.453 39.7978 326.471 39.8528 326.475Z" fill="white"/>
<path d="M72.8984 188.519L76.9225 190.842L177.388 132.833L173.374 130.52L72.8984 188.519Z" fill="#F5F5F5"/>
<path d="M127.156 66.2323V159.525L131.171 157.202V63.9092L127.156 66.2323Z" fill="#EBEBEB"/>
<path d="M125.145 65.0654L127.157 66.2318V159.524L125.145 158.358V65.0654Z" fill="#E0E0E0"/>
<path d="M127.157 66.2322L131.171 63.9091L129.169 62.7427L125.145 65.0658L127.157 66.2322Z" fill="#FAFAFA"/>
<path d="M181.403 32.5815L72.8984 95.2561V197.802L181.403 135.157V32.5815ZM177.388 132.834L76.9225 190.843V97.5306L177.388 39.5411V132.834Z" fill="#EBEBEB"/>
<path d="M177.389 132.834L173.375 130.52L173.365 41.8641L177.389 39.541V132.834Z" fill="#E0E0E0"/>
<path d="M181.403 32.5814L177.389 30.2583L68.8848 92.9037L72.8991 95.2268L181.403 32.5814Z" fill="#F5F5F5"/>
<path d="M68.8848 92.9038L72.8991 95.2269V197.802L68.8848 195.479V92.9038Z" fill="#E0E0E0"/>
<path opacity="0.1" d="M127.156 68.5453L131.161 66.2319V68.555L127.156 70.8684V68.5453Z" fill="black"/>
<path opacity="0.1" d="M127.157 70.8685L125.145 69.7021L127.157 68.5454V70.8685Z" fill="black"/>
<path d="M382.783 107.892C375.736 110.225 374.035 110.75 369.175 118.331C364.49 125.621 359.659 139.084 355.47 149.892C347.694 147.686 331.287 143.856 325.853 140.707C320.42 137.558 320.993 135.38 318.767 133.349C316.221 131.006 313.548 125.388 311.467 128.489C310.058 130.569 312.964 131.969 312.78 134.603C312.595 137.237 304.625 130.997 301.281 128.664C299.065 127.109 293.923 131.969 295.993 137.246C297.811 141.912 300.737 144.877 305.976 147.083C311.506 149.426 314.393 150.602 321.343 153.722C328.604 156.978 358.522 170.246 361.477 168.37C368.213 165.046 374.385 144.196 378.467 135.196C382.55 126.195 379.818 116.864 382.783 107.892Z" fill="#FFA8A7"/>
<path d="M384.485 106.998C381.462 110.973 382.706 109.369 381.773 115.493C381.025 120.44 370.634 167.981 361.235 169.993C357.104 170.858 327.331 157.24 320.109 153.255C322.549 149.659 324.969 145.217 325.815 140.677C334.466 144.06 349.386 147.394 354.742 149.056C357.22 142.145 360.253 135.049 363.101 128.071C368.515 114.793 371.995 108.796 384.485 106.998Z" fill="#5A37BD"/>
<path opacity="0.2" d="M384.485 106.998C381.462 110.973 382.706 109.369 381.773 115.493C381.025 120.44 370.634 167.981 361.235 169.993C357.104 170.858 327.331 157.24 320.109 153.255C322.549 149.659 324.969 145.217 325.815 140.677C334.466 144.06 349.386 147.394 354.742 149.056C357.22 142.145 360.253 135.049 363.101 128.071C368.515 114.793 371.995 108.796 384.485 106.998Z" fill="black"/>
<path d="M424.862 322.597H413.266V342.455H424.862V322.597Z" fill="#FFA8A7"/>
<path d="M381.762 330.101L369.097 330.539L368.465 307.59L382.802 307.123L381.762 330.101Z" fill="#FFA8A7"/>
<path d="M423.442 187.479C423.442 198.035 424.171 259.407 424.171 259.407C424.424 262.44 427.35 267.844 427.583 278.789C427.914 294.662 425.464 332.035 425.464 332.035C423.556 332.974 421.465 333.483 419.338 333.525C417.212 333.567 415.102 333.141 413.159 332.278C413.159 332.278 404.479 279.411 402.467 263.704C400.736 249.989 395.799 214.132 395.799 214.132L388.324 260.729C389.145 266.308 389.354 271.96 388.946 277.584C388.431 284.854 382.929 320.964 382.929 320.964C378.145 322.542 372.987 322.589 368.174 321.1C368.174 321.1 367.018 264.822 366.891 258.163C366.746 250.562 370.06 185.186 370.06 185.186L423.442 187.479Z" fill="#37474F"/>
<path d="M413.264 336.72V335.068C412.642 335.068 412.292 335.671 412.02 337.167C411.853 338.27 411.629 339.363 411.349 340.443C410.829 342.473 410.15 344.459 409.318 346.382C407.675 350.425 406.305 351.932 402.514 356.656C401.629 357.774 399.598 359.572 398.918 360.806C398.237 362.041 397.946 365.521 399.161 366.318C403.535 369.234 410.193 369.321 414.897 367.941C416.648 367.448 418.22 366.462 419.427 365.101C420.633 363.739 421.423 362.06 421.701 360.262C421.876 359.193 421.818 358.104 421.934 357.025C422.349 354.578 423.349 352.267 424.85 350.289C425.72 349.15 426.466 347.922 427.076 346.625C428.048 344.234 427.271 341.551 426.649 339.179C426.114 337.129 425.531 334.873 424.831 335.068V336.312C423.985 337.284 421.653 338.169 418.999 338.256C417.376 338.353 413.255 338.023 413.264 336.72Z" fill="#5A37BD"/>
<path opacity="0.6" d="M413.264 336.72V335.068C412.642 335.068 412.292 335.671 412.02 337.167C411.853 338.27 411.629 339.363 411.349 340.443C410.829 342.473 410.15 344.459 409.318 346.382C407.675 350.425 406.305 351.932 402.514 356.656C401.629 357.774 399.598 359.572 398.918 360.806C398.237 362.041 397.946 365.521 399.161 366.318C403.535 369.234 410.193 369.321 414.897 367.941C416.648 367.448 418.22 366.462 419.427 365.101C420.633 363.739 421.423 362.06 421.701 360.262C421.876 359.193 421.818 358.104 421.934 357.025C422.349 354.578 423.349 352.267 424.85 350.289C425.72 349.15 426.466 347.922 427.076 346.625C428.048 344.234 427.271 341.551 426.649 339.179C426.114 337.129 425.531 334.873 424.831 335.068V336.312C423.985 337.284 421.653 338.169 418.999 338.256C417.376 338.353 413.255 338.023 413.264 336.72Z" fill="black"/>
<path d="M368.972 326.592C368.311 326.592 367.776 327.564 366.328 329.11C364.158 331.3 361.639 333.113 358.873 334.475C354.129 336.847 344.915 340.502 340.735 342.377C338.13 343.554 338.257 346.703 340.949 348.491C343.641 350.28 350.154 351.582 357.959 349.833C362.216 348.861 367.757 344.973 371.266 345.157C374.775 345.342 381.326 345.323 383.902 343.534C386.477 341.746 385.447 337.945 384.718 334.67C383.921 331.093 383.124 325.523 381.938 325.766L381.88 327.098C380.354 329.411 372.364 330.247 369.02 328.546L368.972 326.592Z" fill="#5A37BD"/>
<path opacity="0.6" d="M368.972 326.592C368.311 326.592 367.776 327.564 366.328 329.11C364.158 331.3 361.639 333.113 358.873 334.475C354.129 336.847 344.915 340.502 340.735 342.377C338.13 343.554 338.257 346.703 340.949 348.491C343.641 350.28 350.154 351.582 357.959 349.833C362.216 348.861 367.757 344.973 371.266 345.157C374.775 345.342 381.326 345.323 383.902 343.534C386.477 341.746 385.447 337.945 384.718 334.67C383.921 331.093 383.124 325.523 381.938 325.766L381.88 327.098C380.354 329.411 372.364 330.247 369.02 328.546L368.972 326.592Z" fill="black"/>
<path d="M395.827 214.141C395.827 214.141 385.961 210.924 379.4 204.586C379.4 204.586 382.375 210.146 391.21 215.327L389.091 256.151L395.827 214.141Z" fill="#263238"/>
<path d="M404.274 106.473C408.342 107.402 412.353 108.564 416.288 109.953C419.282 111.022 420.896 113.841 421.537 116.679C423.578 125.68 423.938 144.566 423.938 144.566L424.055 188.529C416.434 194.079 385.175 196.898 369.117 185.195C369.117 185.195 371.061 132.824 371.061 124.678C371.061 116.533 375.591 106.735 388.091 106.006L404.274 106.473Z" fill="#5A37BD"/>
<path opacity="0.4" d="M404.274 106.473C408.342 107.402 412.353 108.564 416.288 109.953C419.282 111.022 420.896 113.841 421.537 116.679C423.578 125.68 423.938 144.566 423.938 144.566L424.055 188.529C416.434 194.079 385.175 196.898 369.117 185.195C369.117 185.195 371.061 132.824 371.061 124.678C371.061 116.533 375.591 106.735 388.091 106.006L404.274 106.473Z" fill="black"/>
<path d="M465.034 157.882C465.049 157.736 465.027 157.589 464.969 157.455C464.911 157.32 464.82 157.203 464.704 157.114L464.616 157.056L462.857 156.035C462.719 155.975 462.567 155.951 462.418 155.966C462.268 155.982 462.124 156.036 462.001 156.123L426.708 176.447L425.736 172.306C425.656 172.028 425.476 171.789 425.231 171.636L423.403 170.576C423.234 170.476 423.041 170.423 422.844 170.423C422.648 170.423 422.455 170.476 422.286 170.576L407.268 179.256C406.913 179.487 406.617 179.798 406.404 180.165C406.191 180.531 406.068 180.942 406.043 181.365V231.384C406.029 231.53 406.051 231.678 406.107 231.813C406.163 231.949 406.251 232.069 406.364 232.162L408.24 233.28C408.377 233.334 408.524 233.353 408.67 233.336C408.816 233.319 408.955 233.266 409.076 233.183L463.829 201.564C464.184 201.333 464.48 201.021 464.693 200.655C464.905 200.289 465.029 199.877 465.054 199.454L465.034 157.882Z" fill="#5A37BD"/>
<path opacity="0.5" d="M425.172 171.616C425.002 171.526 424.812 171.483 424.621 171.492C424.429 171.5 424.243 171.56 424.083 171.665L409.085 180.316C408.729 180.548 408.432 180.861 408.22 181.229L406.393 180.17C406.597 179.795 406.895 179.481 407.258 179.256L422.256 170.596C422.425 170.496 422.618 170.443 422.815 170.443C423.011 170.443 423.204 170.496 423.373 170.596L425.172 171.616Z" fill="white"/>
<path opacity="0.5" d="M464.615 157.056C464.481 157.019 464.34 157.011 464.203 157.032C464.065 157.054 463.934 157.105 463.818 157.182L428.525 177.536C428.382 177.632 428.219 177.691 428.048 177.71C427.877 177.728 427.704 177.705 427.545 177.642C427.385 177.579 427.243 177.478 427.131 177.348C427.019 177.217 426.94 177.062 426.902 176.894L426.736 176.447L461.991 156.113C462.152 156.014 462.336 155.957 462.525 155.948C462.637 155.946 462.748 155.973 462.846 156.026L464.615 157.056Z" fill="white"/>
<path d="M465.034 157.882V199.425C465.013 199.849 464.892 200.262 464.681 200.63C464.47 200.998 464.175 201.312 463.819 201.544L408.94 233.28C408.831 233.343 408.707 233.376 408.581 233.376C408.455 233.376 408.331 233.343 408.221 233.28C408.112 233.217 408.021 233.126 407.958 233.017C407.895 232.908 407.861 232.784 407.861 232.658V182.434C407.875 182.011 407.999 181.599 408.221 181.239C408.427 180.869 408.721 180.555 409.076 180.325L424.084 171.665C424.246 171.563 424.431 171.504 424.622 171.496C424.813 171.487 425.003 171.529 425.173 171.616C425.418 171.77 425.598 172.009 425.678 172.287L426.708 176.428L426.864 176.875C426.903 177.043 426.982 177.2 427.094 177.331C427.207 177.462 427.349 177.564 427.51 177.628C427.67 177.692 427.844 177.716 428.016 177.698C428.188 177.681 428.353 177.621 428.497 177.526L463.79 157.162C463.905 157.083 464.037 157.032 464.175 157.012C464.313 156.991 464.454 157.003 464.587 157.046H464.636C464.775 157.133 464.886 157.258 464.956 157.406C465.027 157.554 465.054 157.719 465.034 157.882Z" fill="#5A37BD"/>
<path d="M454.254 164.764L454.264 158.203L458.161 155.948V162.509L454.254 164.764Z" fill="#455A64"/>
<path opacity="0.2" d="M408.307 233.28H408.249L406.363 232.191C406.248 232.099 406.158 231.98 406.101 231.844C406.043 231.708 406.02 231.561 406.033 231.414V181.365C406.051 180.943 406.175 180.532 406.393 180.17L408.22 181.229C408.001 181.591 407.88 182.003 407.87 182.425V232.6C407.864 232.744 407.902 232.888 407.98 233.009C408.059 233.131 408.173 233.226 408.307 233.28Z" fill="black"/>
<path d="M445.536 165.318C435.456 124.027 430.236 111.362 417.96 111.518C414.383 115.804 418.154 129.12 420.526 135.604C420.526 135.604 431.374 162.11 433.395 171.568C435.164 179.888 437.167 190.347 437.04 197.501C437.006 198.77 436.504 199.981 435.631 200.903C433.327 203.401 433.318 205.413 431.83 208.173C430.664 210.341 429.381 211.148 429.741 211.634C430.222 212.147 430.879 212.461 431.581 212.513C432.283 212.565 432.979 212.352 433.531 211.915C434.629 211.138 435.611 210.208 436.447 209.155C436.189 212.413 435.432 215.613 434.202 218.642L431.568 220.139C431.568 220.139 432.355 222.802 438.557 221.023C445.565 219.021 448.073 218.107 448.811 206.278C449.17 201.903 449.212 197.508 448.938 193.127C447.927 181.861 447.12 171.966 445.536 165.318Z" fill="#FFA8A7"/>
<path d="M416.287 109.953C416.287 109.953 425.647 109.748 428.612 114.288C432.034 119.527 436.485 127.653 442.22 148.133C447.955 168.613 449.743 183.572 449.996 195.1C449.996 195.1 442.784 198.473 436.126 194.623C436.126 194.623 433.21 176.807 430.556 167.33C427.903 157.853 419.563 137.305 419.563 137.305C419.563 137.305 411.622 124.212 416.287 109.953Z" fill="#5A37BD"/>
<path opacity="0.2" d="M416.287 109.953C416.287 109.953 425.647 109.748 428.612 114.288C432.034 119.527 436.485 127.653 442.22 148.133C447.955 168.613 449.743 183.572 449.996 195.1C449.996 195.1 442.784 198.473 436.126 194.623C436.126 194.623 433.21 176.807 430.556 167.33C427.903 157.853 419.563 137.305 419.563 137.305C419.563 137.305 411.622 124.212 416.287 109.953Z" fill="black"/>
<path d="M401.708 71.7334C401.708 74.6362 400.847 77.4739 399.234 79.8876C397.622 82.3012 395.329 84.1824 392.647 85.2933C389.966 86.4042 387.014 86.6949 384.167 86.1285C381.32 85.5622 378.705 84.1643 376.652 82.1117C374.6 80.0591 373.202 77.4438 372.636 74.5967C372.069 71.7496 372.36 68.7985 373.471 66.1166C374.582 63.4347 376.463 61.1425 378.877 59.5297C381.29 57.917 384.128 57.0562 387.031 57.0562C390.923 57.0562 394.657 58.6025 397.409 61.355C400.162 64.1075 401.708 67.8407 401.708 71.7334Z" fill="#263238"/>
<path d="M412.4 82.1631C412.4 82.1631 410.019 93.3411 409.066 95.1782C408.43 96.3055 407.387 97.147 406.15 97.5304L406.316 89.6766L412.4 82.1631Z" fill="#263238"/>
<path d="M409.417 66.1642C410.247 66.0677 411.088 66.162 411.877 66.4399C412.665 66.7178 413.38 67.1721 413.966 67.768C415.91 69.7703 414.831 76.03 412.401 82.1633L407.92 82.6784L409.417 66.1642Z" fill="#263238"/>
<path d="M406.568 82.688C407.472 83.2226 408.755 81.4925 409.864 80.3358C410.972 79.1791 414.587 77.5947 416.386 81.3953C418.184 85.1958 414.792 90.3863 411.953 91.2805C407.045 92.8163 406.306 89.6767 406.306 89.6767L405.946 107.892C402.554 112.237 394.934 117.35 390.832 116.64C387.556 116.057 386.837 110.526 389.967 106.92V101.535C387.778 101.882 385.56 101.996 383.347 101.875C379.741 101.321 377.515 98.4733 376.378 94.5659C374.619 88.2965 373.958 83.2226 375.406 70.888C377.039 57.3674 392.766 57.2799 401.261 62.5773C409.757 67.8747 406.568 82.688 406.568 82.688Z" fill="#FFA8A7"/>
<path d="M375.727 64.8421C378.692 67.2527 380.587 68.5357 386.351 68.7301C390.266 68.8634 394.16 68.0987 397.733 66.4945C397.937 67.8666 398.523 69.1535 399.424 70.2076C400.552 71.39 401.926 72.3093 403.449 72.9C403.75 75.3397 403.74 78.4598 403.896 80.9093C403.944 81.7355 403.896 86.0317 405.898 84.7973C406.55 84.2263 407.125 83.5728 407.609 82.8533C408.311 81.9743 409.064 81.137 409.864 80.3455C411.409 78.9361 409.417 66.1738 409.417 66.1738C409.951 65.0506 410.135 63.7924 409.945 62.5632C409.754 61.3339 409.197 60.1906 408.347 59.2823C406.219 56.9398 403.264 54.0918 393.631 55.229C386.769 56.0455 379.294 58.145 373.219 55.229C372.422 58.6699 373.598 63.1119 375.727 64.8421Z" fill="#263238"/>
<path d="M409.407 67.1555L414.83 64.2395C414.657 63.8736 414.411 63.5468 414.108 63.2786C413.805 63.0105 413.45 62.8067 413.066 62.6795C412.681 62.5522 412.275 62.5043 411.872 62.5386C411.468 62.5728 411.076 62.6885 410.719 62.8787C409.992 63.2856 409.449 63.9572 409.205 64.7539C408.96 65.5505 409.033 66.4107 409.407 67.1555Z" fill="#263238"/>
<path d="M389.986 101.515C389.986 101.515 398.034 99.8922 400.853 98.3953C402.511 97.5202 403.866 96.1651 404.741 94.5073C404.313 96.153 403.559 97.6964 402.525 99.0466C400.464 101.681 389.977 103.615 389.977 103.615L389.986 101.515Z" fill="#F28F8F"/>
<path d="M390.803 79.8304C390.818 80.1688 390.932 80.4954 391.132 80.7695C391.331 81.0436 391.606 81.2532 391.923 81.3723C392.24 81.4915 392.585 81.5148 392.916 81.4395C393.246 81.3642 393.547 81.1936 393.781 80.9489C394.016 80.7041 394.173 80.3959 394.234 80.0626C394.294 79.7293 394.256 79.3854 394.123 79.0738C393.99 78.7622 393.768 78.4964 393.486 78.3095C393.203 78.1226 392.872 78.0228 392.533 78.0225C392.065 78.0352 391.62 78.2322 391.296 78.5707C390.972 78.9092 390.795 79.3619 390.803 79.8304Z" fill="#263238"/>
<path d="M392.533 73.9788L396.1 75.9228C396.358 75.4334 396.415 74.8634 396.261 74.3324C396.107 73.8014 395.753 73.3507 395.274 73.0749C395.038 72.9402 394.776 72.8566 394.505 72.8295C394.235 72.8024 393.961 72.8324 393.703 72.9176C393.444 73.0028 393.207 73.1413 393.005 73.3241C392.804 73.5069 392.643 73.73 392.533 73.9788Z" fill="#263238"/>
<path d="M390.667 91.582L386.672 93.0789C386.757 93.348 386.896 93.5971 387.08 93.8108C387.264 94.0245 387.49 94.1986 387.744 94.3222C387.998 94.4459 388.274 94.5166 388.556 94.5301C388.838 94.5437 389.119 94.4997 389.384 94.4008C389.92 94.1875 390.353 93.775 390.592 93.2496C390.832 92.7242 390.858 92.1266 390.667 91.582Z" fill="#F28F8F"/>
<path d="M376.544 75.4175L379.8 72.9C379.649 72.6772 379.454 72.4881 379.227 72.3445C379 72.2009 378.745 72.106 378.479 72.0658C378.214 72.0256 377.942 72.041 377.683 72.111C377.423 72.1809 377.181 72.304 376.971 72.4724C376.534 72.8131 376.245 73.3099 376.165 73.8589C376.085 74.4078 376.221 74.9664 376.544 75.4175Z" fill="#263238"/>
<path d="M377.282 79.4996C377.295 79.8271 377.404 80.1434 377.596 80.4092C377.787 80.675 378.053 80.8787 378.359 80.9949C378.666 81.111 379 81.1346 379.319 81.0626C379.639 80.9906 379.93 80.8263 380.157 80.59C380.385 80.3537 380.537 80.0559 380.596 79.7335C380.656 79.4112 380.619 79.0786 380.49 78.7771C380.362 78.4755 380.148 78.2183 379.875 78.0375C379.601 77.8566 379.281 77.76 378.953 77.7598C378.501 77.77 378.072 77.9587 377.758 78.2848C377.445 78.6108 377.274 79.0476 377.282 79.4996Z" fill="#263238"/>
<path d="M386.224 78.1294L385.65 88.6464L380.158 86.7802L386.224 78.1294Z" fill="#F28F8F"/>
<path d="M384.24 115.483C385.271 117.923 387.156 118.915 390.587 119.294C392.309 119.416 394.038 119.187 395.669 118.621C397.3 118.054 398.799 117.162 400.074 115.999L395.807 111.78L390.403 115.853L389.946 111.313L384.24 115.483Z" fill="#263238"/>
<path d="M386.933 114.152C386.435 115.62 386.244 117.175 386.37 118.72C386.527 120.1 387.05 121.412 387.886 122.521C388.43 122.865 389.046 123.079 389.686 123.149C390.327 123.218 390.974 123.139 391.579 122.919C392.679 121.975 393.561 120.804 394.166 119.487C394.772 118.17 395.086 116.738 395.088 115.289L390.403 115.824L386.933 114.152Z" fill="#37474F"/>
<path d="M387.887 122.521C387.887 122.521 382.346 153.148 382.113 155.617C381.88 158.086 385.301 166.873 387.42 166.951C389.539 167.028 393.689 159.077 393.748 156.822C393.806 154.567 391.58 122.919 391.58 122.919L387.887 122.521Z" fill="#37474F"/>
<path d="M391.58 122.919C390.984 123.184 390.328 123.286 389.68 123.216C389.031 123.146 388.412 122.906 387.886 122.521L387.799 123.007C388.332 123.431 388.958 123.721 389.626 123.853C390.294 123.985 390.984 123.955 391.638 123.765L391.58 122.919Z" fill="#263238"/>
<path d="M390.404 115.823L406.024 103.916L406.083 100.787C406.083 100.787 409.747 101.759 410.564 108.174C408.338 113.355 404.294 117.767 398.365 121.15L395.089 115.318L390.404 115.823Z" fill="#5A37BD"/>
<path opacity="0.2" d="M390.404 115.823L406.024 103.916L406.083 100.787C406.083 100.787 409.747 101.759 410.564 108.174C408.338 113.355 404.294 117.767 398.365 121.15L395.089 115.318L390.404 115.823Z" fill="black"/>
<path d="M389.986 102.293C389.986 102.293 386.312 103.994 384.747 106.58C383.182 109.166 383.191 117.554 383.191 117.554L386.934 114.152L390.404 115.824C390.073 112.538 389.966 106.901 389.966 106.901L389.986 102.293Z" fill="#5A37BD"/>
<path opacity="0.2" d="M389.986 102.293C389.986 102.293 386.312 103.994 384.747 106.58C383.182 109.166 383.191 117.554 383.191 117.554L386.934 114.152L390.404 115.824C390.073 112.538 389.966 106.901 389.966 106.901L389.986 102.293Z" fill="black"/>
<path d="M277.185 395.031L219.672 361.827V181.57L277.185 214.773V395.031Z" fill="#263238"/>
<path d="M277.186 214.773L359.349 167.34V347.597L277.186 395.031V214.773Z" fill="#37474F"/>
<path d="M359.348 167.34L277.185 214.773L219.672 181.57L301.835 134.136L359.348 167.34Z" fill="#455A64"/>
<path d="M285.398 331.598L351.135 293.651V339.335L352.641 340.21L286.915 378.157L285.398 377.282V331.598Z" fill="#263238"/>
<path d="M286.914 332.473L352.641 294.526V340.21L286.914 378.157V332.473Z" fill="#455A64"/>
<g opacity="0.05">
<path d="M286.914 332.473L352.641 294.526V340.21L286.914 378.157V332.473Z" fill="black"/>
</g>
<path d="M312.644 325.339L323.822 318.885C325.27 318.049 326.446 318.437 326.446 319.74C326.34 320.548 326.047 321.321 325.589 321.996C325.132 322.671 324.524 323.229 323.812 323.628L312.644 330.082C311.196 330.928 310.02 330.539 310.02 329.227C310.128 328.42 310.421 327.649 310.876 326.975C311.331 326.301 311.936 325.741 312.644 325.339Z" fill="#263238"/>
<path d="M285.398 276.437L351.135 238.49V284.174L352.641 285.049L286.915 322.996L285.398 322.121V276.437Z" fill="#263238"/>
<path d="M286.914 277.312L352.641 239.365V285.049L286.914 322.996V277.312Z" fill="#455A64"/>
<g opacity="0.05">
<path d="M286.914 277.312L352.641 239.365V285.049L286.914 322.996V277.312Z" fill="black"/>
</g>
<path d="M312.644 270.177L323.822 263.723C325.27 262.887 326.446 263.276 326.446 264.579C326.34 265.387 326.047 266.159 325.589 266.834C325.132 267.509 324.524 268.068 323.812 268.467L312.644 274.921C311.196 275.766 310.02 275.378 310.02 274.065C310.128 273.259 310.421 272.488 310.876 271.814C311.331 271.139 311.936 270.579 312.644 270.177Z" fill="#263238"/>
<path d="M285.398 221.276L351.135 183.329V229.003L285.398 266.95V221.276Z" fill="#263238"/>
<path d="M383.997 210.03L347.527 188.986L347.518 229.237L383.987 250.281L383.997 210.03Z" fill="#37474F"/>
<g opacity="0.1">
<path d="M383.997 210.03L347.527 188.986L347.518 229.237L383.987 250.281L383.997 210.03Z" fill="black"/>
</g>
<path d="M350.074 187.509L347.518 188.986L383.997 210.03L386.543 208.562L350.074 187.509Z" fill="#455A64"/>
<path d="M360.349 191.951C360.364 191.797 360.339 191.642 360.276 191.5C360.213 191.359 360.114 191.236 359.989 191.144C359.963 191.121 359.934 191.101 359.902 191.086L358.045 190.007C357.9 189.94 357.74 189.912 357.581 189.927C357.422 189.943 357.27 190.001 357.141 190.095L320.001 211.479L318.912 207.114C318.832 206.818 318.641 206.564 318.378 206.405L316.434 205.277C316.256 205.172 316.053 205.117 315.846 205.117C315.639 205.117 315.436 205.172 315.258 205.277L299.453 214.404C299.079 214.648 298.767 214.976 298.544 215.363C298.321 215.75 298.193 216.184 298.17 216.63V269.322C298.152 269.477 298.175 269.634 298.236 269.777C298.298 269.92 298.395 270.045 298.52 270.139L300.464 271.295C300.608 271.348 300.762 271.365 300.914 271.347C301.066 271.328 301.212 271.274 301.339 271.188L359.037 237.878C359.41 237.634 359.721 237.305 359.944 236.919C360.167 236.532 360.296 236.098 360.32 235.652L360.349 191.951Z" fill="#5A37BD"/>
<path opacity="0.2" d="M318.339 206.424C318.164 206.324 317.966 206.272 317.765 206.272C317.564 206.272 317.366 206.324 317.192 206.424L301.387 215.551C301.007 215.792 300.696 216.127 300.483 216.523L298.539 215.395C298.755 215.001 299.066 214.667 299.443 214.423L315.267 205.403C315.445 205.298 315.648 205.243 315.855 205.243C316.062 205.243 316.265 205.298 316.443 205.403L318.339 206.424Z" fill="black"/>
<path opacity="0.2" d="M359.901 191.086C359.759 191.041 359.61 191.029 359.463 191.051C359.317 191.073 359.177 191.128 359.055 191.212L321.876 212.664C321.724 212.764 321.551 212.827 321.37 212.846C321.19 212.865 321.007 212.84 320.838 212.773C320.669 212.706 320.519 212.599 320.4 212.462C320.281 212.325 320.197 212.16 320.155 211.984L319.99 211.517L357.13 190.133C357.303 190.026 357.501 189.966 357.704 189.958C357.82 189.956 357.934 189.986 358.034 190.046L359.901 191.086Z" fill="black"/>
<path d="M360.348 191.961V235.701C360.325 236.147 360.197 236.581 359.974 236.968C359.751 237.355 359.439 237.683 359.065 237.927L301.221 271.325C301.106 271.391 300.975 271.426 300.841 271.426C300.708 271.426 300.577 271.391 300.461 271.323C300.346 271.256 300.25 271.16 300.184 271.044C300.118 270.928 300.083 270.797 300.084 270.664V217.826C300.114 217.381 300.245 216.95 300.467 216.564C300.69 216.178 300.997 215.848 301.367 215.6L317.172 206.482C317.342 206.372 317.539 206.308 317.742 206.298C317.945 206.288 318.148 206.331 318.328 206.424C318.591 206.583 318.783 206.837 318.863 207.134L319.952 211.498L320.117 211.965C320.157 212.142 320.24 212.307 320.359 212.446C320.477 212.584 320.627 212.692 320.796 212.76C320.966 212.828 321.149 212.854 321.33 212.835C321.511 212.817 321.685 212.755 321.837 212.655L359.016 191.203C359.138 191.118 359.278 191.063 359.425 191.041C359.571 191.02 359.721 191.031 359.862 191.076H359.911C360.056 191.171 360.173 191.303 360.25 191.459C360.327 191.614 360.361 191.788 360.348 191.961Z" fill="#5A37BD"/>
<path opacity="0.3" d="M360.348 191.961V235.701C360.325 236.147 360.197 236.581 359.974 236.968C359.751 237.355 359.439 237.683 359.065 237.927L301.221 271.325C301.106 271.391 300.975 271.426 300.841 271.426C300.708 271.426 300.577 271.391 300.461 271.323C300.346 271.256 300.25 271.16 300.184 271.044C300.118 270.928 300.083 270.797 300.084 270.664V217.826C300.114 217.381 300.245 216.95 300.467 216.564C300.69 216.178 300.997 215.848 301.367 215.6L317.172 206.482C317.342 206.372 317.539 206.308 317.742 206.298C317.945 206.288 318.148 206.331 318.328 206.424C318.591 206.583 318.783 206.837 318.863 207.134L319.952 211.498L320.117 211.965C320.157 212.142 320.24 212.307 320.359 212.446C320.477 212.584 320.627 212.692 320.796 212.76C320.966 212.828 321.149 212.854 321.33 212.835C321.511 212.817 321.685 212.755 321.837 212.655L359.016 191.203C359.138 191.118 359.278 191.063 359.425 191.041C359.571 191.02 359.721 191.031 359.862 191.076H359.911C360.056 191.171 360.173 191.303 360.25 191.459C360.327 191.614 360.361 191.788 360.348 191.961Z" fill="black"/>
<path d="M322.373 214.569V207.658L326.485 205.287V212.198L322.373 214.569Z" fill="#E0E0E0"/>
<path opacity="0.5" d="M300.571 271.393H300.513L298.569 270.236C298.45 270.137 298.356 270.012 298.295 269.87C298.235 269.728 298.208 269.574 298.219 269.419V216.698C298.236 216.252 298.367 215.817 298.598 215.435L300.542 216.562C300.31 216.944 300.179 217.379 300.163 217.826V270.693C300.157 270.836 300.192 270.979 300.264 271.103C300.337 271.227 300.443 271.327 300.571 271.393Z" fill="black"/>
<path d="M366.541 195.566C366.556 195.411 366.531 195.254 366.468 195.111C366.405 194.968 366.306 194.844 366.182 194.75H366.094L364.238 193.661C364.093 193.594 363.933 193.566 363.774 193.582C363.615 193.597 363.463 193.655 363.334 193.749L326.193 215.133L325.105 210.769C325.022 210.473 324.831 210.22 324.57 210.059L322.626 208.931C322.448 208.826 322.245 208.771 322.038 208.771C321.831 208.771 321.628 208.826 321.45 208.931L305.645 218.059C305.272 218.303 304.961 218.631 304.738 219.018C304.515 219.405 304.386 219.839 304.362 220.284V272.986C304.346 273.139 304.37 273.294 304.431 273.436C304.493 273.577 304.589 273.7 304.712 273.793L306.656 274.95C306.8 275.002 306.954 275.02 307.106 275.001C307.258 274.983 307.404 274.928 307.531 274.843L365.229 241.532C365.603 241.289 365.915 240.96 366.138 240.573C366.361 240.187 366.489 239.752 366.512 239.306L366.541 195.566Z" fill="#5A37BD"/>
<path opacity="0.1" d="M324.54 210.03C324.359 209.937 324.157 209.894 323.954 209.904C323.751 209.914 323.554 209.978 323.383 210.088L307.578 219.206C307.201 219.45 306.89 219.784 306.674 220.178L304.73 219.06C304.944 218.664 305.255 218.329 305.634 218.088L321.439 208.961C321.617 208.856 321.82 208.8 322.027 208.8C322.234 208.8 322.437 208.856 322.615 208.961L324.54 210.03Z" fill="black"/>
<path opacity="0.1" d="M366.104 194.711C365.962 194.667 365.813 194.655 365.666 194.677C365.52 194.699 365.38 194.754 365.258 194.838L328.079 216.29C327.927 216.39 327.753 216.452 327.572 216.471C327.39 216.489 327.207 216.463 327.038 216.395C326.869 216.328 326.719 216.22 326.6 216.081C326.482 215.943 326.399 215.777 326.359 215.6L326.193 215.133L363.333 193.749C363.506 193.642 363.704 193.582 363.907 193.574C364.022 193.577 364.136 193.607 364.237 193.662L366.104 194.711Z" fill="black"/>
<path d="M366.539 195.567V239.307C366.516 239.752 366.387 240.186 366.164 240.573C365.941 240.96 365.63 241.289 365.256 241.533L307.413 274.921C307.298 274.987 307.168 275.022 307.035 275.022C306.902 275.023 306.772 274.988 306.657 274.922C306.542 274.856 306.446 274.761 306.379 274.647C306.312 274.532 306.276 274.402 306.275 274.269V221.393C306.291 220.946 306.422 220.511 306.654 220.129C306.869 219.734 307.18 219.4 307.558 219.157L323.363 210.03C323.538 209.926 323.738 209.87 323.941 209.87C324.145 209.87 324.345 209.926 324.52 210.03C324.783 210.193 324.974 210.45 325.054 210.749L326.143 215.104L326.308 215.58C326.35 215.757 326.434 215.921 326.553 216.058C326.672 216.196 326.822 216.303 326.991 216.369C327.16 216.436 327.342 216.461 327.523 216.442C327.704 216.423 327.877 216.361 328.029 216.261L365.208 194.808C365.338 194.721 365.487 194.667 365.643 194.65C365.799 194.633 365.956 194.654 366.102 194.711H366.151C366.287 194.805 366.395 194.935 366.463 195.085C366.532 195.236 366.558 195.402 366.539 195.567Z" fill="#5A37BD"/>
<path opacity="0.2" d="M366.539 195.567V239.307C366.516 239.752 366.387 240.186 366.164 240.573C365.941 240.96 365.63 241.289 365.256 241.533L307.413 274.921C307.298 274.987 307.168 275.022 307.035 275.022C306.902 275.023 306.772 274.988 306.657 274.922C306.542 274.856 306.446 274.761 306.379 274.647C306.312 274.532 306.276 274.402 306.275 274.269V221.393C306.291 220.946 306.422 220.511 306.654 220.129C306.869 219.734 307.18 219.4 307.558 219.157L323.363 210.03C323.538 209.926 323.738 209.87 323.941 209.87C324.145 209.87 324.345 209.926 324.52 210.03C324.783 210.193 324.974 210.45 325.054 210.749L326.143 215.104L326.308 215.58C326.35 215.757 326.434 215.921 326.553 216.058C326.672 216.196 326.822 216.303 326.991 216.369C327.16 216.436 327.342 216.461 327.523 216.442C327.704 216.423 327.877 216.361 328.029 216.261L365.208 194.808C365.338 194.721 365.487 194.667 365.643 194.65C365.799 194.633 365.956 194.654 366.102 194.711H366.151C366.287 194.805 366.395 194.935 366.463 195.085C366.532 195.236 366.558 195.402 366.539 195.567Z" fill="black"/>
<path d="M337.439 213.063V206.152L341.541 203.771L341.551 210.691L337.439 213.063Z" fill="#E6E6E6"/>
<path opacity="0.4" d="M306.812 274.999H306.753L304.809 273.852C304.69 273.753 304.596 273.628 304.536 273.486C304.475 273.344 304.449 273.189 304.459 273.035V220.314C304.474 219.867 304.605 219.431 304.838 219.05L306.782 220.168C306.55 220.546 306.419 220.978 306.403 221.422V274.289C306.395 274.434 306.429 274.579 306.502 274.705C306.574 274.831 306.682 274.933 306.812 274.999Z" fill="black"/>
<path d="M372.732 199.173C372.747 199.019 372.722 198.863 372.659 198.722C372.596 198.581 372.497 198.458 372.372 198.366C372.346 198.342 372.317 198.323 372.285 198.308L370.428 197.229C370.281 197.17 370.122 197.148 369.964 197.165C369.807 197.182 369.656 197.237 369.524 197.326L332.384 218.71L331.296 214.355C331.218 214.058 331.026 213.803 330.761 213.646L328.817 212.528C328.64 212.419 328.437 212.361 328.229 212.361C328.021 212.361 327.818 212.419 327.641 212.528L311.836 221.645C311.462 221.889 311.151 222.218 310.928 222.605C310.705 222.992 310.577 223.426 310.553 223.871V276.573C310.542 276.727 310.569 276.882 310.629 277.024C310.69 277.166 310.784 277.291 310.903 277.39L312.847 278.537C312.99 278.596 313.145 278.617 313.299 278.598C313.452 278.58 313.598 278.522 313.722 278.43L371.42 245.129C371.793 244.884 372.103 244.555 372.326 244.168C372.548 243.782 372.678 243.349 372.703 242.903L372.732 199.173Z" fill="#5A37BD"/>
<path d="M330.731 213.646C330.551 213.552 330.349 213.507 330.146 213.515C329.943 213.524 329.746 213.586 329.575 213.695L313.77 222.812C313.395 223.059 313.085 223.392 312.866 223.784L310.922 222.666C311.135 222.27 311.446 221.935 311.826 221.694L327.631 212.577C327.807 212.468 328.011 212.41 328.219 212.41C328.426 212.41 328.63 212.468 328.807 212.577L330.731 213.646Z" fill="#5A37BD"/>
<path d="M372.285 198.308C372.144 198.263 371.994 198.251 371.848 198.273C371.701 198.295 371.562 198.35 371.44 198.434L334.261 219.886C334.109 219.986 333.936 220.049 333.755 220.068C333.574 220.087 333.392 220.062 333.223 219.995C333.054 219.928 332.904 219.821 332.785 219.684C332.666 219.547 332.582 219.382 332.54 219.206L332.375 218.729L369.515 197.345C369.686 197.234 369.885 197.173 370.089 197.17C370.203 197.17 370.317 197.196 370.419 197.248L372.285 198.308Z" fill="#5A37BD"/>
<path d="M372.733 199.173V242.913C372.709 243.358 372.581 243.792 372.358 244.179C372.135 244.566 371.824 244.895 371.45 245.139L313.616 278.566C313.501 278.632 313.371 278.667 313.238 278.667C313.105 278.667 312.975 278.633 312.86 278.567C312.745 278.501 312.649 278.406 312.582 278.292C312.515 278.177 312.479 278.047 312.479 277.914V225.047C312.508 224.603 312.639 224.171 312.862 223.785C313.084 223.4 313.392 223.07 313.762 222.821L329.566 213.694C329.739 213.587 329.936 213.526 330.138 213.518C330.341 213.509 330.542 213.553 330.723 213.646C330.988 213.802 331.18 214.058 331.258 214.355L332.346 218.72L332.511 219.186C332.553 219.363 332.637 219.527 332.756 219.664C332.875 219.802 333.025 219.909 333.194 219.975C333.363 220.042 333.546 220.067 333.726 220.048C333.907 220.029 334.08 219.967 334.232 219.867L371.411 198.415C371.533 198.33 371.673 198.275 371.819 198.253C371.966 198.231 372.115 198.243 372.257 198.288H372.305C372.453 198.38 372.572 198.511 372.648 198.668C372.724 198.825 372.753 199 372.733 199.173Z" fill="#5A37BD"/>
<path opacity="0.1" d="M372.733 199.173V242.913C372.709 243.358 372.581 243.792 372.358 244.179C372.135 244.566 371.824 244.895 371.45 245.139L313.616 278.566C313.501 278.632 313.371 278.667 313.238 278.667C313.105 278.667 312.975 278.633 312.86 278.567C312.745 278.501 312.649 278.406 312.582 278.292C312.515 278.177 312.479 278.047 312.479 277.914V225.047C312.508 224.603 312.639 224.171 312.862 223.785C313.084 223.4 313.392 223.07 313.762 222.821L329.566 213.694C329.739 213.587 329.936 213.526 330.138 213.518C330.341 213.509 330.542 213.553 330.723 213.646C330.988 213.802 331.18 214.058 331.258 214.355L332.346 218.72L332.511 219.186C332.553 219.363 332.637 219.527 332.756 219.664C332.875 219.802 333.025 219.909 333.194 219.975C333.363 220.042 333.546 220.067 333.726 220.048C333.907 220.029 334.08 219.967 334.232 219.867L371.411 198.415C371.533 198.33 371.673 198.275 371.819 198.253C371.966 198.231 372.115 198.243 372.257 198.288H372.305C372.453 198.38 372.572 198.511 372.648 198.668C372.724 198.825 372.753 199 372.733 199.173Z" fill="black"/>
<path d="M352.494 211.546L352.504 204.635L356.606 202.264V209.175L352.494 211.546Z" fill="#F0F0F0"/>
<path opacity="0.3" d="M312.954 278.614H312.896L310.952 277.458C310.833 277.359 310.739 277.234 310.678 277.092C310.617 276.95 310.591 276.795 310.602 276.641V223.92C310.619 223.473 310.75 223.038 310.981 222.656L312.925 223.774C312.692 224.156 312.562 224.591 312.546 225.038V277.914C312.543 278.057 312.58 278.198 312.652 278.322C312.724 278.445 312.828 278.546 312.954 278.614Z" fill="black"/>
<path d="M378.923 202.779C378.938 202.626 378.913 202.471 378.852 202.33C378.791 202.189 378.695 202.066 378.573 201.972L378.476 201.914L376.62 200.835C376.475 200.767 376.315 200.74 376.156 200.755C375.997 200.771 375.845 200.828 375.716 200.922L338.576 222.306L337.487 217.942C337.407 217.645 337.215 217.391 336.952 217.232L335.008 216.105C334.831 215.998 334.628 215.941 334.42 215.941C334.213 215.941 334.01 215.998 333.832 216.105L318.028 225.232C317.654 225.474 317.344 225.801 317.121 226.186C316.898 226.572 316.769 227.004 316.745 227.448V280.247C316.734 280.401 316.76 280.556 316.821 280.698C316.882 280.84 316.975 280.965 317.094 281.064L319.038 282.22C319.181 282.278 319.337 282.298 319.49 282.279C319.643 282.261 319.788 282.203 319.913 282.113L377.611 248.803C377.985 248.559 378.296 248.23 378.519 247.843C378.742 247.457 378.87 247.023 378.894 246.577L378.923 202.779Z" fill="#5A37BD"/>
<path opacity="0.5" d="M336.942 217.252C336.762 217.159 336.56 217.115 336.357 217.124C336.155 217.132 335.958 217.193 335.785 217.3L319.981 226.428C319.601 226.669 319.29 227.003 319.077 227.4L317.133 226.272C317.349 225.878 317.659 225.544 318.037 225.3L333.841 216.183C334.02 216.077 334.223 216.022 334.43 216.022C334.636 216.022 334.839 216.077 335.018 216.183L336.942 217.252Z" fill="white"/>
<path opacity="0.5" d="M378.477 201.914C378.335 201.869 378.186 201.857 378.039 201.879C377.893 201.901 377.753 201.956 377.631 202.04L340.452 223.492C340.301 223.593 340.127 223.655 339.947 223.674C339.766 223.693 339.583 223.668 339.414 223.601C339.245 223.534 339.095 223.428 338.976 223.29C338.857 223.153 338.773 222.989 338.732 222.812L338.566 222.345L375.707 200.961C375.879 200.854 376.077 200.794 376.28 200.786C376.396 200.784 376.511 200.814 376.61 200.874L378.477 201.914Z" fill="white"/>
<path d="M378.924 202.789V246.529C378.901 246.975 378.773 247.409 378.55 247.796C378.327 248.182 378.016 248.511 377.641 248.754L319.817 282.191C319.701 282.258 319.57 282.293 319.437 282.293C319.303 282.293 319.172 282.257 319.057 282.19C318.942 282.123 318.846 282.027 318.78 281.911C318.713 281.795 318.679 281.664 318.68 281.53V228.654C318.709 228.209 318.84 227.777 319.063 227.392C319.285 227.006 319.593 226.676 319.963 226.428L335.767 217.31C335.938 217.2 336.135 217.136 336.338 217.126C336.541 217.116 336.743 217.159 336.924 217.252C337.187 217.411 337.378 217.665 337.459 217.962L338.547 222.326L338.713 222.792C338.753 222.97 338.836 223.135 338.955 223.274C339.073 223.412 339.223 223.52 339.392 223.588C339.561 223.656 339.744 223.682 339.926 223.663C340.107 223.645 340.281 223.583 340.433 223.482L377.612 202.021C377.735 201.938 377.875 201.885 378.021 201.865C378.168 201.844 378.317 201.858 378.458 201.904H378.506C378.648 202.001 378.761 202.135 378.835 202.29C378.908 202.445 378.939 202.617 378.924 202.789Z" fill="#5A37BD"/>
<path d="M367.561 210.03V203.129L371.672 200.748V207.658L367.561 210.03Z" fill="#FAFAFA"/>
<path opacity="0.2" d="M319.146 282.191H319.087L317.143 281.034C317.024 280.936 316.93 280.81 316.87 280.668C316.809 280.526 316.783 280.372 316.793 280.218V227.526C316.811 227.079 316.941 226.644 317.172 226.262L319.116 227.39C318.884 227.771 318.753 228.207 318.737 228.653V281.52C318.737 281.659 318.774 281.795 318.847 281.914C318.919 282.032 319.022 282.128 319.146 282.191Z" fill="black"/>
<path d="M323.383 245.022L286.914 223.988L286.904 264.229L323.374 285.272L323.383 245.022Z" fill="#37474F"/>
<path d="M289.461 222.511L286.904 223.978L323.383 245.022L325.93 243.555L289.461 222.511Z" fill="#455A64"/>
<path d="M322.645 242.777L388.371 204.83V250.514L322.645 288.461V242.777Z" fill="#455A64"/>
<path d="M348.413 235.642L359.591 229.188C361.04 228.352 362.216 228.741 362.216 230.044C362.109 230.851 361.817 231.622 361.361 232.296C360.906 232.971 360.3 233.531 359.591 233.932L348.404 240.395C346.955 241.231 345.779 240.852 345.779 239.54C345.886 238.73 346.179 237.957 346.636 237.28C347.093 236.604 347.702 236.043 348.413 235.642Z" fill="#263238"/>
<path d="M322.644 242.777L320.457 241.513V287.197L322.644 288.461V242.777Z" fill="#263238"/>
<path d="M320.457 241.513L386.184 203.566L388.371 204.83L322.644 242.777L320.457 241.513Z" fill="#37474F"/>
<path d="M131.064 389.228V347.364L185.458 315.958V357.823L131.064 389.228Z" fill="#5A37BD"/>
<path d="M131.064 347.364L63.082 308.104V349.978L131.064 389.228V347.364Z" fill="#5A37BD"/>
<path opacity="0.15" d="M131.064 347.364L63.082 308.104V349.978L131.064 389.228V347.364Z" fill="black"/>
<path d="M131.064 347.364L187.071 315.015L117.466 274.823L61.4688 307.171L131.064 347.364Z" fill="#5A37BD"/>
<path opacity="0.45" d="M131.064 347.364L187.071 315.015L117.466 274.823L61.4688 307.171L131.064 347.364Z" fill="white"/>
<path d="M131.064 347.364V357.832L187.071 325.494V315.016L131.064 347.364Z" fill="#5A37BD"/>
<path opacity="0.2" d="M131.064 357.832L185.458 326.427V328.73L131.064 360.126V357.832Z" fill="black"/>
<path d="M61.4688 307.171L131.064 347.364V357.832L61.4688 317.64V307.171Z" fill="#5A37BD"/>
<path opacity="0.2" d="M61.4688 307.171L131.064 347.364V357.832L61.4688 317.64V307.171Z" fill="black"/>
<path opacity="0.2" d="M131.064 357.832L63.082 318.573V320.876L131.064 360.126V357.832Z" fill="black"/>
<path d="M148.978 353.721L167.552 343.029C168.349 342.562 169.001 342.941 169.001 343.864V354.78C168.974 355.282 168.828 355.771 168.577 356.207C168.325 356.643 167.974 357.013 167.552 357.288L148.978 367.98C148.171 368.437 147.52 368.067 147.52 367.144V356.238C147.546 355.733 147.692 355.241 147.946 354.804C148.199 354.366 148.553 353.995 148.978 353.721Z" fill="#455A64"/>
<path d="M150.163 354.965L166.367 345.614C166.892 345.313 167.339 345.556 167.339 346.178V354.411C167.317 354.746 167.218 355.071 167.049 355.361C166.881 355.651 166.647 355.898 166.367 356.083L150.163 365.472C149.629 365.783 149.191 365.53 149.191 364.918V356.685C149.203 356.341 149.298 356.006 149.467 355.706C149.636 355.407 149.875 355.152 150.163 354.965Z" fill="#F5F5F5"/>
<g opacity="0.5">
<path d="M150.66 357.142C150.62 357.143 150.581 357.132 150.546 357.112C150.512 357.091 150.484 357.061 150.466 357.025C150.45 356.999 150.439 356.97 150.434 356.94C150.43 356.91 150.431 356.879 150.438 356.849C150.445 356.819 150.458 356.791 150.477 356.766C150.495 356.742 150.517 356.721 150.544 356.705L165.843 347.879C165.869 347.863 165.898 347.852 165.928 347.848C165.959 347.843 165.99 347.844 166.019 347.851C166.049 347.859 166.077 347.872 166.102 347.89C166.127 347.908 166.148 347.93 166.164 347.957C166.195 348.012 166.204 348.078 166.188 348.14C166.171 348.202 166.131 348.255 166.076 348.287L150.787 357.113C150.747 357.133 150.704 357.143 150.66 357.142Z" fill="#455A64"/>
<path d="M150.66 359.164C150.62 359.164 150.581 359.154 150.546 359.133C150.512 359.113 150.484 359.083 150.466 359.047C150.45 359.021 150.439 358.992 150.434 358.961C150.43 358.931 150.431 358.9 150.438 358.87C150.445 358.841 150.458 358.813 150.477 358.788C150.495 358.763 150.517 358.742 150.544 358.726L165.794 349.92C165.82 349.904 165.849 349.893 165.88 349.889C165.91 349.884 165.941 349.885 165.971 349.892C166.001 349.9 166.029 349.913 166.053 349.931C166.078 349.949 166.099 349.971 166.115 349.998C166.147 350.053 166.156 350.119 166.139 350.181C166.123 350.243 166.083 350.296 166.028 350.328L150.738 359.154C150.713 359.161 150.686 359.164 150.66 359.164Z" fill="#455A64"/>
<path d="M150.66 361.185C150.62 361.186 150.581 361.176 150.546 361.155C150.512 361.134 150.484 361.105 150.466 361.069C150.45 361.043 150.439 361.014 150.434 360.983C150.43 360.953 150.431 360.922 150.438 360.892C150.445 360.863 150.458 360.835 150.477 360.81C150.495 360.785 150.517 360.764 150.544 360.748L165.843 351.922C165.869 351.906 165.898 351.896 165.928 351.891C165.959 351.886 165.99 351.888 166.019 351.895C166.049 351.902 166.077 351.915 166.102 351.933C166.127 351.951 166.148 351.974 166.164 352C166.195 352.056 166.204 352.121 166.188 352.183C166.171 352.245 166.131 352.298 166.076 352.331L150.787 361.156C150.747 361.176 150.704 361.186 150.66 361.185Z" fill="#455A64"/>
<path d="M150.66 363.207C150.62 363.208 150.581 363.197 150.546 363.177C150.512 363.156 150.484 363.126 150.466 363.091C150.45 363.064 150.439 363.035 150.434 363.005C150.43 362.975 150.431 362.944 150.438 362.914C150.445 362.884 150.458 362.856 150.477 362.831C150.495 362.807 150.517 362.786 150.544 362.77L165.843 353.944C165.897 353.913 165.961 353.905 166.021 353.921C166.081 353.938 166.133 353.977 166.164 354.032C166.195 354.086 166.203 354.15 166.186 354.21C166.17 354.27 166.13 354.321 166.076 354.352L150.787 363.178C150.747 363.198 150.704 363.208 150.66 363.207Z" fill="#455A64"/>
</g>
<path opacity="0.1" d="M182.522 312.391L131.064 342.095L66.0179 304.518L64.4238 305.46L131.064 343.806L184.126 313.314L182.522 312.391Z" fill="black"/>
<path d="M131.064 342.096V300.231L185.458 268.826V310.69L131.064 342.096Z" fill="#5A37BD"/>
<path d="M131.064 300.231L63.082 260.972V302.846L131.064 342.095V300.231Z" fill="#5A37BD"/>
<path opacity="0.15" d="M131.064 300.231L63.082 260.972V302.846L131.064 342.095V300.231Z" fill="black"/>
<path d="M131.064 300.231L187.071 267.883L117.466 227.691L61.4688 260.039L131.064 300.231Z" fill="#5A37BD"/>
<path opacity="0.6" d="M131.064 300.231L187.071 267.883L117.466 227.691L61.4688 260.039L131.064 300.231Z" fill="white"/>
<path d="M131.064 300.231V310.69L187.071 278.361V267.883L131.064 300.231Z" fill="#5A37BD"/>
<path opacity="0.2" d="M131.064 310.69L185.458 279.294V281.598L131.064 312.994V310.69Z" fill="black"/>
<path d="M61.4688 260.039L131.064 300.231V310.69L61.4688 270.507V260.039Z" fill="#5A37BD"/>
<path opacity="0.2" d="M61.4688 260.039L131.064 300.231V310.69L61.4688 270.507V260.039Z" fill="black"/>
<path opacity="0.2" d="M131.064 310.69L63.082 271.44V273.744L131.064 312.993V310.69Z" fill="black"/>
<path d="M148.978 306.588L167.552 295.896C168.349 295.43 169.001 295.809 169.001 296.732V307.716C168.974 308.218 168.828 308.707 168.577 309.143C168.325 309.579 167.974 309.949 167.552 310.223L148.978 320.915C148.171 321.372 147.52 321.003 147.52 320.08V309.096C147.548 308.593 147.694 308.103 147.948 307.667C148.201 307.231 148.554 306.862 148.978 306.588Z" fill="#455A64"/>
<path d="M150.163 307.833L166.367 298.482C166.892 298.181 167.339 298.424 167.339 299.046V307.278C167.317 307.613 167.218 307.939 167.049 308.229C166.881 308.519 166.647 308.766 166.367 308.95L150.163 318.301C149.629 318.612 149.191 318.359 149.191 317.747V309.514C149.209 309.177 149.307 308.849 149.475 308.557C149.644 308.264 149.88 308.016 150.163 307.833Z" fill="#F5F5F5"/>
<g opacity="0.5">
<path d="M150.66 310.01C150.62 310.01 150.581 310 150.546 309.979C150.512 309.959 150.484 309.929 150.466 309.893C150.45 309.867 150.439 309.838 150.434 309.808C150.43 309.777 150.431 309.746 150.438 309.717C150.445 309.687 150.458 309.659 150.477 309.634C150.495 309.609 150.517 309.588 150.544 309.572L165.843 300.747C165.869 300.731 165.898 300.72 165.928 300.715C165.959 300.71 165.99 300.712 166.019 300.719C166.049 300.726 166.077 300.739 166.102 300.757C166.127 300.775 166.148 300.798 166.164 300.824C166.181 300.851 166.192 300.88 166.197 300.911C166.201 300.942 166.2 300.974 166.191 301.004C166.183 301.034 166.169 301.063 166.149 301.087C166.129 301.111 166.104 301.131 166.076 301.145L150.787 309.981C150.747 310 150.704 310.01 150.66 310.01Z" fill="#455A64"/>
<path d="M150.66 312.012C150.62 312.013 150.581 312.002 150.546 311.982C150.512 311.961 150.484 311.931 150.466 311.896C150.45 311.869 150.439 311.84 150.434 311.81C150.43 311.78 150.431 311.749 150.438 311.719C150.445 311.689 150.458 311.661 150.477 311.636C150.495 311.612 150.517 311.591 150.544 311.575L165.843 302.749C165.869 302.733 165.898 302.722 165.928 302.718C165.959 302.713 165.99 302.714 166.019 302.721C166.049 302.729 166.077 302.742 166.102 302.76C166.127 302.778 166.148 302.801 166.164 302.827C166.195 302.882 166.204 302.948 166.188 303.01C166.171 303.072 166.131 303.125 166.076 303.157L150.738 312.012C150.712 312.016 150.686 312.016 150.66 312.012Z" fill="#455A64"/>
<path d="M150.66 314.053C150.62 314.054 150.581 314.043 150.546 314.023C150.512 314.002 150.484 313.972 150.466 313.937C150.45 313.91 150.439 313.881 150.434 313.851C150.43 313.821 150.431 313.79 150.438 313.76C150.445 313.73 150.458 313.702 150.477 313.677C150.495 313.653 150.517 313.632 150.544 313.616L165.843 304.79C165.869 304.774 165.898 304.763 165.928 304.759C165.959 304.754 165.99 304.755 166.019 304.762C166.049 304.77 166.077 304.783 166.102 304.801C166.127 304.819 166.148 304.842 166.164 304.868C166.195 304.923 166.204 304.989 166.188 305.051C166.171 305.113 166.131 305.166 166.076 305.198L150.787 314.024C150.747 314.044 150.704 314.054 150.66 314.053Z" fill="#455A64"/>
<path d="M150.66 316.075C150.62 316.076 150.581 316.065 150.546 316.044C150.512 316.024 150.484 315.994 150.466 315.958C150.45 315.932 150.439 315.903 150.434 315.873C150.43 315.842 150.431 315.812 150.438 315.782C150.445 315.752 150.458 315.724 150.477 315.699C150.495 315.674 150.517 315.653 150.544 315.638L165.843 306.812C165.897 306.781 165.961 306.773 166.021 306.789C166.081 306.805 166.133 306.845 166.164 306.899C166.195 306.953 166.203 307.018 166.186 307.078C166.17 307.138 166.13 307.189 166.076 307.22L150.787 316.046C150.747 316.065 150.704 316.075 150.66 316.075Z" fill="#455A64"/>
</g>
</svg>
